<svg
 xmlns="http://www.w3.org/2000/svg"
 xmlns:xlink="http://www.w3.org/1999/xlink"
 width="21px" height="15px">
<path fill-rule="evenodd" d="M20.288,11.077 L13.351,11.077 C12.955,11.077 12.657,10.768 12.657,10.355 L12.657,6.019 C12.657,5.606 12.955,5.297 13.351,5.297 L13.549,5.297 L13.549,3.852 C13.549,2.097 15.036,0.548 16.721,0.548 C18.405,0.548 19.892,1.993 19.892,3.852 L19.892,5.297 L20.090,5.297 C20.486,5.297 20.784,5.606 20.982,6.019 L20.982,10.355 C20.982,10.768 20.685,11.077 20.288,11.077 ZM18.603,3.852 C18.603,2.716 17.712,1.890 16.721,1.890 C15.631,1.890 14.838,2.819 14.838,3.852 L14.838,5.297 L18.504,5.297 L18.603,5.297 L18.603,3.852 ZM17.811,11.697 L17.811,12.419 C17.811,13.555 16.919,14.484 15.829,14.484 L2.946,14.484 C1.856,14.484 0.964,13.555 0.964,12.419 L0.964,10.355 C0.964,9.219 1.856,8.290 2.946,8.290 L11.865,8.290 L11.865,10.871 C11.865,11.284 12.162,11.697 12.657,11.697 L17.811,11.697 ZM15.531,13.039 L16.423,13.039 L16.423,12.110 L15.531,12.110 L15.531,13.039 ZM13.748,13.039 L14.639,13.039 L14.639,12.110 L13.748,12.110 L13.748,13.039 ZM3.540,12.110 L2.648,12.110 L2.648,13.039 L3.540,13.039 L3.540,12.110 ZM5.423,12.110 L4.531,12.110 L4.531,13.039 L5.423,13.039 L5.423,12.110 ZM9.090,12.110 L8.198,12.110 L8.198,13.039 L9.090,13.039 L9.090,12.110 ZM10.874,12.110 L9.982,12.110 L9.982,13.039 L10.874,13.039 L10.874,12.110 Z"/>
</svg>