<svg
 xmlns="http://www.w3.org/2000/svg"
 xmlns:xlink="http://www.w3.org/1999/xlink"
 width="15px" height="18px">
<path fill-rule="evenodd" d="M6.923,16.900 C6.923,17.200 6.045,17.700 5.752,17.900 C5.557,18.000 5.460,18.000 5.265,18.000 C4.972,18.000 4.582,17.900 4.289,17.800 C2.728,17.300 2.338,16.300 1.655,14.900 C0.972,13.400 0.777,11.900 0.777,10.300 C0.777,8.600 0.972,7.200 1.655,5.700 C2.338,4.300 2.630,3.300 4.289,2.800 C4.582,2.700 4.972,2.600 5.265,2.600 C5.460,2.600 5.557,2.600 5.752,2.700 C6.045,2.800 6.923,3.300 6.923,3.700 C6.923,3.900 6.435,5.600 6.338,6.000 C6.240,6.100 6.240,6.500 6.045,6.700 C5.948,6.900 5.752,6.900 5.557,6.900 C5.070,6.900 4.679,6.800 4.191,6.800 C4.094,6.800 3.801,6.800 3.704,6.900 C3.606,7.000 3.509,7.500 3.411,7.700 C3.216,8.500 3.021,9.400 3.021,10.300 C3.021,11.200 3.118,12.000 3.411,12.900 C3.509,13.100 3.509,13.600 3.704,13.700 C3.801,13.800 3.996,13.800 4.191,13.800 C4.679,13.800 5.070,13.700 5.557,13.700 C5.752,13.700 5.948,13.700 6.045,13.800 C6.240,14.000 6.240,14.400 6.338,14.600 C6.435,14.900 6.923,16.600 6.923,16.900 ZM8.484,7.700 C8.679,7.700 8.777,7.600 8.972,7.500 C9.460,7.100 9.655,6.400 9.655,5.700 C9.655,5.000 9.362,4.400 8.874,3.900 C8.582,3.600 8.192,3.600 7.996,3.900 C7.704,4.200 7.704,4.600 7.996,4.800 C8.192,5.100 8.387,5.400 8.387,5.700 C8.387,6.000 8.289,6.400 7.996,6.600 C7.704,6.900 7.704,7.300 7.996,7.500 C8.192,7.700 8.387,7.700 8.484,7.700 ZM10.240,9.500 C10.435,9.500 10.533,9.400 10.728,9.300 C11.704,8.300 12.191,7.000 12.191,5.700 C12.191,4.400 11.704,3.000 10.728,2.100 C10.435,1.800 10.045,1.800 9.850,2.100 C9.557,2.400 9.557,2.800 9.850,3.000 C10.533,3.700 10.923,4.700 10.923,5.700 C10.923,6.700 10.533,7.700 9.850,8.400 C9.557,8.700 9.557,9.100 9.850,9.300 C9.948,9.500 10.143,9.500 10.240,9.500 ZM12.094,11.400 C12.289,11.400 12.387,11.300 12.582,11.200 C14.045,9.700 14.826,7.800 14.826,5.700 C14.826,3.600 14.045,1.700 12.582,0.200 C12.289,-0.000 11.899,-0.000 11.606,0.300 C11.313,0.600 11.313,1.000 11.606,1.200 C12.777,2.400 13.460,4.000 13.460,5.700 C13.460,7.400 12.777,9.000 11.606,10.300 C11.313,10.600 11.313,11.000 11.606,11.200 C11.704,11.300 11.899,11.400 12.094,11.400 Z"/>
</svg>