<svg
 xmlns="http://www.w3.org/2000/svg"
 xmlns:xlink="http://www.w3.org/1999/xlink"
 width="19px" height="5px">
<path fill-rule="evenodd" d="M16.546,4.927 C15.204,4.927 14.099,3.895 14.021,2.466 C14.021,1.116 15.125,0.004 16.467,0.004 L16.546,0.004 C17.887,0.004 18.992,1.116 18.992,2.466 C18.992,3.816 17.966,4.927 16.546,4.927 ZM9.402,4.927 C8.061,4.927 6.956,3.895 6.877,2.466 C6.877,1.116 7.982,0.004 9.323,0.004 L9.402,0.004 C10.743,0.004 11.848,1.116 11.848,2.466 C11.848,3.816 10.822,4.927 9.402,4.927 ZM2.537,5.007 L2.458,5.007 C1.117,5.007 0.012,3.895 0.012,2.545 C0.012,1.195 1.117,0.083 2.458,0.083 C3.800,0.083 4.904,1.195 4.983,2.545 C4.983,3.895 3.878,5.007 2.537,5.007 Z"/>
</svg>