<svg
 xmlns="http://www.w3.org/2000/svg"
 xmlns:xlink="http://www.w3.org/1999/xlink"
 width="20px" height="9px">
<path fill-rule="evenodd" d="M19.000,0.945 L1.000,0.945 C0.400,0.945 -0.000,1.450 -0.000,1.955 L-0.000,7.005 C-0.000,7.611 0.400,8.015 1.000,8.015 L1.700,8.015 L1.700,8.924 L4.300,8.924 L4.300,8.015 L15.700,8.015 L15.700,8.924 L18.300,8.924 L18.300,8.015 L19.000,8.015 C19.600,8.015 20.000,7.611 20.000,7.005 L20.000,1.955 C20.000,1.349 19.600,0.945 19.000,0.945 ZM3.100,6.298 L1.300,6.298 L1.300,4.480 L3.100,4.480 L3.100,6.298 ZM10.400,6.298 L8.600,6.298 L8.600,4.480 L10.400,4.480 L10.400,6.298 ZM13.300,6.399 L11.400,6.399 L11.400,4.480 L13.300,4.480 L13.300,6.399 ZM15.900,6.298 L14.100,6.298 L14.100,4.480 L15.900,4.480 L15.900,6.298 ZM18.800,6.399 L16.900,6.399 L16.900,4.480 L18.800,4.480 L18.800,6.399 Z"/>
</svg>