<svg
 xmlns="http://www.w3.org/2000/svg"
 xmlns:xlink="http://www.w3.org/1999/xlink"
 width="20px" height="17px">
<path fill-rule="evenodd" d="M19.700,6.014 C19.600,6.112 19.400,6.210 19.200,6.210 C19.000,6.210 18.800,6.210 18.600,6.014 C16.400,3.569 13.300,2.297 10.000,2.297 C6.700,2.297 3.600,3.569 1.400,6.014 C1.100,6.308 0.600,6.308 0.300,6.014 C-0.000,5.721 -0.000,5.232 0.300,4.938 C2.800,2.199 6.300,0.732 10.000,0.732 C13.700,0.732 17.100,2.297 19.700,4.938 C20.000,5.232 20.000,5.721 19.700,6.014 ZM10.000,5.134 C12.600,5.134 15.000,6.210 16.900,8.069 C17.200,8.362 17.200,8.851 16.900,9.145 C16.800,9.243 16.600,9.340 16.400,9.340 C16.200,9.340 16.000,9.340 15.800,9.145 C14.200,7.579 12.100,6.699 10.000,6.699 C7.900,6.699 5.800,7.579 4.200,9.145 C3.900,9.438 3.400,9.438 3.100,9.145 C2.800,8.851 2.800,8.362 3.100,8.069 C5.000,6.112 7.400,5.134 10.000,5.134 ZM9.900,9.634 L10.000,9.634 C11.300,9.634 12.800,10.221 13.800,11.199 C14.100,11.493 14.100,11.982 13.800,12.275 C13.500,12.569 13.000,12.569 12.700,12.275 C12.000,11.590 10.900,11.101 10.000,11.101 L9.900,11.101 C9.000,11.101 8.000,11.590 7.200,12.275 C7.100,12.373 6.900,12.471 6.700,12.471 C6.500,12.471 6.300,12.471 6.100,12.275 C5.800,11.982 5.800,11.493 6.100,11.199 C7.100,10.221 8.600,9.634 9.900,9.634 ZM10.000,14.232 C10.718,14.232 11.300,14.801 11.300,15.503 C11.300,16.206 10.718,16.775 10.000,16.775 C9.282,16.775 8.700,16.206 8.700,15.503 C8.700,14.801 9.282,14.232 10.000,14.232 Z"/>
</svg>