<svg
 xmlns="http://www.w3.org/2000/svg"
 xmlns:xlink="http://www.w3.org/1999/xlink"
 width="20px" height="5px">
<path fill-rule="evenodd" d="M-0.000,-0.000 L-0.000,5.000 L20.000,5.000 L20.000,-0.000 L-0.000,-0.000 ZM8.400,1.100 L12.700,1.100 L12.700,2.000 L8.400,2.000 L8.400,1.100 ZM3.100,4.000 L1.100,4.000 L1.100,2.000 L3.100,2.000 L3.100,4.000 ZM6.100,4.000 L4.100,4.000 L4.100,2.000 L6.100,2.000 L6.100,4.000 ZM18.700,4.000 L8.400,4.000 L8.400,3.100 L18.700,3.100 L18.700,4.000 ZM18.700,2.000 L14.400,2.000 L14.400,1.100 L18.700,1.100 L18.700,2.000 Z"/>
</svg>