<svg width="493" height="465" viewBox="0 0 493 465" fill="none" xmlns="http://www.w3.org/2000/svg">
<g clip-path="url(#clip0_2166_9842)">
<path d="M29.9599 300.24C27.5299 268.72 45.5499 234.94 69.7799 220.47C75.8199 216.87 85.8799 211.33 97.4999 208.77C120.74 203.63 138.52 203.01 155.75 183.75C166.18 172.29 171.32 155.35 177.46 142.01C179.5 137.61 181.43 134.03 183.87 130.09C194.4 113.42 213.3 87.4297 242.96 69.9097C257.99 61.0697 275.78 54.9297 292.82 54.0797C341.39 51.9897 391.17 78.9397 414.53 121.81C442.47 172.98 422.33 231.53 393.45 274.52C387.64 283.35 382.58 290.28 376.17 298.07C344.05 337.09 308.09 353.78 251.98 376.69C238.77 382.05 225.21 387.47 211.9 392.6C181.65 403.71 168.22 421.34 137.53 416.33C128.59 414.87 102.51 407.83 97.8899 404.95C84.4299 396.56 72.1299 381.63 69.4499 376.35C42.7799 324.07 32.1699 328.83 29.9699 300.24H29.9599Z" fill="#DBF4FF"/>
<path d="M388.25 95.52L443.36 55.02H491.7L492.03 369.57H444.33L389.22 336.11L388.25 95.52Z" fill="#C4C5C6"/>
<path d="M316.81 141.57L357.5 111.66H393.2L393.44 343.94H358.22L317.52 319.23L316.81 141.57Z" fill="#DCE4EA"/>
<path d="M456.82 271.2C456.26 271.2 455.71 270.9 455.43 270.36C443.23 247.53 451.28 239.72 455.6 235.52C456.26 234.88 457.17 234 457.25 233.66C457.31 232.34 458.25 230.39 460.38 226.11C465 216.81 473.59 199.49 478.75 172.71C484.49 142.89 479.7 134.24 463.82 105.59C459.99 98.6698 455.64 90.8298 450.61 81.2198C439.03 59.1198 435.79 44.4598 440.97 37.6298C444.85 32.5198 451.7 33.9198 451.99 33.9798C452.84 34.1598 453.39 34.9998 453.2 35.8598C453.02 36.7098 452.18 37.2598 451.33 37.0698C451.28 37.0598 446.12 36.0398 443.47 39.5498C441.02 42.7998 439.05 52.3398 453.4 79.7398C458.41 89.3098 462.75 97.1398 466.58 104.04C482.89 133.46 487.81 142.34 481.85 173.29C476.61 200.49 467.89 218.06 463.21 227.49C461.79 230.36 460.44 233.07 460.41 233.82C460.34 235.31 459.22 236.4 457.81 237.77C453.82 241.64 447.15 248.12 458.23 268.85C458.64 269.62 458.35 270.58 457.58 270.99C457.34 271.12 457.09 271.18 456.84 271.18L456.82 271.2Z" fill="#515A60"/>
<path d="M451.66 260.62C451.31 260.62 450.97 260.51 450.68 260.28C450 259.74 449.89 258.74 450.43 258.06C450.67 257.76 474.2 228.04 484.22 199.14C495.21 167.42 472.29 111.55 465.01 95.1799C453.52 69.3599 456.34 49.2099 456.46 48.3599C456.59 47.4999 457.39 46.8999 458.26 47.0299C459.12 47.1599 459.72 47.9599 459.59 48.8299C459.55 49.0999 456.82 69.0199 467.9 93.8999C472.35 103.91 480.59 123.89 485.75 145.3C491.32 168.44 491.81 186.91 487.21 200.18C477.01 229.61 453.14 259.74 452.9 260.04C452.59 260.43 452.13 260.64 451.66 260.64V260.62Z" fill="#515A60"/>
<path d="M451.66 384.42C451.08 384.42 450.53 384.1 450.25 383.55C449.86 382.77 450.17 381.82 450.95 381.43C451.08 381.36 464.25 374.49 468.68 358.06C473.11 341.6 471.31 303.4 468.65 288.98C466.17 275.55 454.98 227.64 453.68 224.9C453.32 224.27 452.7 223.17 453.02 201.31C453.18 190.71 453.49 180.24 453.49 180.13C453.52 179.26 454.26 178.57 455.12 178.6C455.99 178.63 456.68 179.35 456.65 180.23C456.19 195.62 455.74 220.9 456.5 223.49C458.27 227.23 469.53 276.35 471.75 288.41C474.39 302.75 476.44 341.35 471.72 358.88C466.91 376.72 452.96 383.95 452.37 384.25C452.14 384.37 451.9 384.42 451.66 384.42Z" fill="#515A60"/>
<path d="M347.319 173.6C347.029 173.6 346.739 173.52 346.479 173.35C333.889 165.38 327.709 149.32 326.999 147.4C325.519 145 310.279 119.54 314.419 94.2701C316.699 80.3601 323.749 73.9101 329.259 70.9601C335.259 67.7401 340.699 67.8601 340.919 67.8701C341.789 67.9001 342.479 68.6201 342.449 69.5001C342.419 70.3701 341.709 71.0601 340.829 71.0301C340.009 71.0101 321.459 70.8501 317.539 94.7901C313.479 119.58 329.609 145.62 329.769 145.88L329.859 146.03L329.919 146.2C329.979 146.37 335.989 162.99 348.169 170.7C348.909 171.17 349.129 172.14 348.659 172.88C348.359 173.35 347.849 173.61 347.319 173.61V173.6Z" fill="#515A60"/>
<path d="M176.64 179.26V157.58L153.87 155.75C153.28 152.63 152.47 149.58 151.46 146.63L170.32 133.63L159.48 114.85L138.84 124.66C136.78 122.28 134.56 120.04 132.19 117.97L142.03 97.2599L123.25 86.4199L110.29 105.23C107.34 104.2 104.3 103.37 101.18 102.77L99.3498 79.9199H77.6698L75.8398 102.69C72.7198 103.28 69.6698 104.09 66.7198 105.1L53.7098 86.2399L34.9398 97.0799L44.7498 117.72C42.3698 119.78 40.1398 122 38.0598 124.37L17.3498 114.53L6.50977 133.31L25.3198 146.27C24.2898 149.22 23.4598 152.26 22.8598 155.38L0.00976562 157.21V178.9L22.7898 180.72C23.3798 183.84 24.1898 186.89 25.1998 189.84L6.33977 202.85L17.1798 221.63L37.8198 211.82C39.8798 214.2 42.0998 216.43 44.4698 218.51L34.6298 239.22L53.3998 250.06L66.3598 231.25C69.3098 232.28 72.3498 233.11 75.4698 233.71L77.2998 256.56H98.9798L100.81 233.78C103.93 233.19 106.98 232.38 109.93 231.37L122.94 250.23L141.71 239.39L131.9 218.75C134.28 216.7 136.51 214.47 138.58 212.11L159.29 221.96L170.13 203.18L151.32 190.22C152.35 187.27 153.18 184.23 153.78 181.11L176.63 179.28L176.64 179.26ZM88.1398 206.6C65.8398 206.6 47.7698 188.53 47.7698 166.23C47.7698 143.93 65.8398 125.86 88.1398 125.86C110.44 125.86 128.51 143.93 128.51 166.23C128.51 188.53 110.44 206.6 88.1398 206.6Z" fill="#D3D3D3"/>
<path d="M349.19 40.1498V31.3898L339.98 30.6498C339.74 29.3898 339.42 28.1598 339 26.9698L346.63 21.7098L342.25 14.1198L333.9 18.0898C333.07 17.1298 332.17 16.2298 331.21 15.3898L335.19 7.01977L327.6 2.63977L322.36 10.2498C321.17 9.82977 319.94 9.49977 318.68 9.24977L317.94 0.00976562H309.18L308.44 9.21977C307.18 9.45977 305.95 9.77977 304.76 10.1998L299.5 2.56977L291.91 6.94977L295.88 15.2998C294.92 16.1298 294.02 17.0298 293.18 17.9898L284.81 14.0098L280.43 21.5998L288.04 26.8398C287.62 28.0298 287.29 29.2598 287.04 30.5198L277.8 31.2598V40.0198L287.01 40.7598C287.25 42.0198 287.58 43.2498 287.99 44.4498L280.36 49.7098L284.74 57.2998L293.09 53.3298C293.92 54.2898 294.81 55.1898 295.77 56.0298L291.79 64.3998L299.38 68.7798L304.62 61.1698C305.81 61.5898 307.04 61.9198 308.3 62.1698L309.04 71.4098H317.8L318.54 62.1998C319.8 61.9598 321.03 61.6398 322.22 61.2198L327.48 68.8498L335.07 64.4698L331.1 56.1198C332.06 55.2898 332.96 54.3898 333.8 53.4298L342.17 57.4098L346.55 49.8198L338.94 44.5798C339.36 43.3898 339.69 42.1598 339.94 40.8998L349.18 40.1598L349.19 40.1498ZM313.42 51.1998C304.41 51.1998 297.1 43.8998 297.1 34.8798C297.1 25.8598 304.4 18.5598 313.42 18.5598C322.44 18.5598 329.74 25.8598 329.74 34.8798C329.74 43.8998 322.44 51.1998 313.42 51.1998Z" fill="#B2C2D1"/>
<path d="M318.65 366.66V360.23L311.88 359.69C311.7 358.76 311.46 357.86 311.17 356.99L316.77 353.13L313.56 347.56L307.43 350.48C306.82 349.78 306.16 349.11 305.46 348.5L308.38 342.35L302.81 339.13L298.96 344.71C298.08 344.4 297.19 344.16 296.26 343.98L295.72 337.2H289.28L288.74 343.96C287.81 344.14 286.91 344.38 286.04 344.67L282.18 339.07L276.61 342.29L279.52 348.42C278.82 349.03 278.15 349.69 277.54 350.39L271.39 347.46L268.17 353.03L273.75 356.88C273.44 357.76 273.2 358.66 273.02 359.58L266.24 360.12V366.55L273.01 367.09C273.19 368.02 273.43 368.92 273.73 369.79L268.13 373.65L271.35 379.22L277.48 376.3C278.09 377 278.74 377.66 279.45 378.28L276.52 384.44L282.09 387.66L285.94 382.07C286.81 382.37 287.71 382.62 288.63 382.8L289.17 389.58H295.61L296.15 382.81C297.08 382.63 297.97 382.39 298.85 382.1L302.72 387.71L308.29 384.49L305.37 378.36C306.07 377.75 306.74 377.09 307.35 376.39L313.51 379.32L316.72 373.75L311.14 369.9C311.45 369.02 311.69 368.13 311.87 367.2L318.65 366.66ZM292.39 374.77C285.77 374.77 280.41 369.4 280.41 362.79C280.41 356.18 285.78 350.81 292.39 350.81C299 350.81 304.37 356.18 304.37 362.79C304.37 369.4 299 374.77 292.39 374.77Z" fill="#DAE5ED"/>
<path d="M333.449 65.0299L402.069 14.6099H462.259L462.659 406.23H403.269L334.659 364.57L333.449 65.0299Z" fill="#888A90"/>
<path d="M402.069 14.6099L403.269 406.23H462.659L462.259 14.6099H402.069Z" fill="#ACAFB5"/>
<path d="M340.989 74.01L392.299 37.5L392.889 259.04L393.199 376.14L340.989 348.57V262.45V74.01Z" fill="#5E6368"/>
<path d="M340.989 96.3696L392.339 60.1196V96.3696L340.989 125.92V96.3696Z" fill="#7C8389"/>
<path d="M340.879 144.53L392.369 116.74L392.439 146.7L340.879 172.02V144.53Z" fill="#7C8389"/>
<path d="M340.879 188.6L392.119 166.05L392.439 197.68L340.879 213.75V188.6Z" fill="#7C8389"/>
<path d="M392.309 218.55L340.989 230.99V254.06L392.589 248.64L392.309 218.55Z" fill="#7C8389"/>
<path d="M392.339 297.84L340.989 291.49V270.98L392.339 269.62V297.84Z" fill="#7C8389"/>
<path d="M340.989 305.62L392.559 319.26V351.43L340.989 329.29V305.62Z" fill="#7C8389"/>
<path d="M340.989 367.98V93.4199L343.099 91.9199V369.09L340.989 367.98Z" fill="#6C7175"/>
<path d="M392.339 40.36L392.299 37.5L340.989 74.01V76.47L392.339 40.36Z" fill="#6C7175"/>
<path d="M358.099 91.5796L355.289 93.5296V96.2496L358.099 94.3496V91.5796Z" fill="#6C7175"/>
<path d="M363.489 87.8296L360.379 89.9996V92.8196L363.489 90.7096V87.8296Z" fill="#6C7175"/>
<path d="M347.579 98.8999L345.029 100.67V103.19L347.579 101.46V98.8999Z" fill="#6C7175"/>
<path d="M353.019 95.1196L349.859 97.3096V99.9196L353.019 97.7896V95.1196Z" fill="#6C7175"/>
<path d="M368.66 84.2295L365.76 86.2495V89.1795L368.66 87.2195V84.2295Z" fill="#6C7175"/>
<path d="M373.61 80.7896L370.93 82.6496V85.6796L373.61 83.8795V80.7896Z" fill="#6C7175"/>
<path d="M384.839 72.9697L381.359 75.3897V78.6297L384.839 76.2797V72.9697Z" fill="#6C7175"/>
<path d="M387.109 71.3897V74.7397L389.909 72.8597V69.4497L387.109 71.3897Z" fill="#6C7175"/>
<path d="M379.089 76.9697L375.879 79.2097V82.3397L379.089 80.1697V76.9697Z" fill="#6C7175"/>
<path d="M357.839 104.68L355.029 106.63V109.35L357.839 107.45V104.68Z" fill="#6C7175"/>
<path d="M363.229 100.93L360.109 103.09V105.91L363.229 103.81V100.93Z" fill="#6C7175"/>
<path d="M347.32 111.99L344.77 113.77V116.28L347.32 114.56V111.99Z" fill="#6C7175"/>
<path d="M352.76 108.21L349.6 110.41V113.02L352.76 110.88V108.21Z" fill="#6C7175"/>
<path d="M368.39 97.3301L365.5 99.3501V102.28L368.39 100.32V97.3301Z" fill="#6C7175"/>
<path d="M373.35 93.8799L370.67 95.7499V98.7799L373.35 96.9699V93.8799Z" fill="#6C7175"/>
<path d="M384.58 86.0698L381.1 88.4898V91.7298L384.58 89.3798V86.0698Z" fill="#6C7175"/>
<path d="M386.85 84.49V87.84L389.65 85.95V82.54L386.85 84.49Z" fill="#6C7175"/>
<path d="M378.829 90.0698L375.619 92.2998V95.4298L378.829 93.2698V90.0698Z" fill="#6C7175"/>
<path d="M349.619 147.3L352.859 145.71V142.5L349.619 144.18V147.3Z" fill="#71767C"/>
<path d="M360.089 142.13L363.779 140.32V136.84L360.089 138.75V142.13Z" fill="#71767C"/>
<path d="M376.039 134.27L379.119 132.75V128.87L376.039 130.47V134.27Z" fill="#71767C"/>
<path d="M371.559 136.48L374.429 135.06V131.31L371.559 132.8V136.48Z" fill="#71767C"/>
<path d="M385.299 125.67L385.309 129.7L389.909 127.43V123.28L385.299 125.67Z" fill="#71767C"/>
<path d="M345.028 149.56L347.658 148.27V145.2L345.028 146.55V149.56Z" fill="#71767C"/>
<path d="M365.738 139.35L369.599 137.44L369.608 133.81L365.729 135.82L365.738 139.35Z" fill="#71767C"/>
<path d="M354.818 144.73L358.128 143.11V139.76L354.818 141.48V144.73Z" fill="#71767C"/>
<path d="M380.729 131.96L383.709 130.48V126.49L380.719 128.05L380.729 131.96Z" fill="#71767C"/>
<path d="M380.738 144.54L383.708 143.16V139.79L380.738 141.19V144.54Z" fill="#71767C"/>
<path d="M354.829 156.54L358.119 155.01V151.83L354.829 153.38V156.54Z" fill="#71767C"/>
<path d="M371.578 148.78L374.428 147.46V144.15L371.568 145.5L371.578 148.78Z" fill="#71767C"/>
<path d="M349.639 158.95L352.849 157.46V154.31L349.629 155.83L349.639 158.95Z" fill="#71767C"/>
<path d="M360.109 154.1L363.769 152.4V149.17L360.099 150.9L360.109 154.1Z" fill="#71767C"/>
<path d="M376.049 146.71L379.119 145.29V141.95L376.049 143.39V146.71Z" fill="#71767C"/>
<path d="M344.769 161.2L347.649 159.87V156.76L345.029 157.99L344.769 161.2Z" fill="#71767C"/>
<path d="M388.508 137.53L385.318 139.03V142.41L388.508 140.94V137.53Z" fill="#71767C"/>
<path d="M365.748 151.48L369.598 149.7V146.43L365.738 148.24L365.748 151.48Z" fill="#71767C"/>
<path d="M349.729 235.57L352.819 234.9V231.42L349.729 232.15V235.57Z" fill="#71767C"/>
<path d="M371.679 230.85L374.409 230.26V226.35L371.669 226.99L371.679 230.85Z" fill="#71767C"/>
<path d="M360.199 233.31L363.739 232.56V228.86L360.199 229.69V233.31Z" fill="#71767C"/>
<path d="M365.849 232.1L369.569 231.3V227.49L365.839 228.36L365.849 232.1Z" fill="#71767C"/>
<path d="M376.129 229.89L379.099 229.25V225.25L376.129 225.95V229.89Z" fill="#71767C"/>
<path d="M380.819 228.88L383.679 228.26V224.17L380.809 224.85L380.819 228.88Z" fill="#71767C"/>
<path d="M354.929 234.45L358.099 233.77V230.19L354.919 230.93L354.929 234.45Z" fill="#71767C"/>
<path d="M344.719 236.65L347.619 236.02V232.65L344.719 233.31V236.65Z" fill="#71767C"/>
<path d="M385.399 227.9L389.539 227V222.79L385.389 223.77L385.399 227.9Z" fill="#71767C"/>
<path d="M376.139 244.97L379.089 244.52V241.53L376.139 241.93V244.97Z" fill="#71767C"/>
<path d="M354.948 248.12L358.088 247.65V244.39L354.938 244.82L354.948 248.12Z" fill="#71767C"/>
<path d="M365.858 246.5L369.568 245.94V242.83L365.858 243.33V246.5Z" fill="#71767C"/>
<path d="M371.688 245.63L374.398 245.22V242.17L371.688 242.54V245.63Z" fill="#71767C"/>
<path d="M349.748 248.9L352.818 248.44V245.11L349.738 245.53L349.748 248.9Z" fill="#71767C"/>
<path d="M380.829 244.27L383.679 243.84V240.9L380.829 241.3V244.27Z" fill="#71767C"/>
<path d="M360.209 247.34L363.739 246.81V243.62L360.209 244.1V247.34Z" fill="#71767C"/>
<path d="M344.719 249.75L347.619 249.21V245.82L344.719 246.35V249.75Z" fill="#71767C"/>
<path d="M388.509 240.25L385.409 240.67V243.58L388.509 243.12V240.25Z" fill="#71767C"/>
<path d="M371.729 278.37L374.389 278.45V274.35H371.729V278.37Z" fill="#71767C"/>
<path d="M376.179 278.51L379.079 278.6V274.35H376.169L376.179 278.51Z" fill="#71767C"/>
<path d="M354.979 277.84L358.078 277.94V274.35H354.979V277.84Z" fill="#71767C"/>
<path d="M380.858 278.66L383.668 278.75V274.35H380.858V278.66Z" fill="#71767C"/>
<path d="M349.778 277.67L352.808 277.77V274.35H349.778V277.67Z" fill="#71767C"/>
<path d="M388.508 274.35H385.438V278.8L388.508 278.9V274.35Z" fill="#71767C"/>
<path d="M365.898 278.18L369.548 278.3V274.35H365.898V278.18Z" fill="#71767C"/>
<path d="M360.249 278L363.729 278.12V274.35H360.249V278Z" fill="#71767C"/>
<path d="M344.959 277.56L347.609 277.6V274.35H344.959V277.56Z" fill="#71767C"/>
<path d="M365.919 290.24L369.549 290.51V287.14L365.909 286.89L365.919 290.24Z" fill="#71767C"/>
<path d="M376.188 291.01L379.078 291.23V287.77L376.188 287.58V291.01Z" fill="#71767C"/>
<path d="M380.879 291.37L383.659 291.58V288.07L380.869 287.89L380.879 291.37Z" fill="#71767C"/>
<path d="M388.509 288.4L385.449 288.19L385.459 291.71L388.509 291.94V288.4Z" fill="#71767C"/>
<path d="M371.748 290.68L374.388 290.88V287.46L371.738 287.28L371.748 290.68Z" fill="#71767C"/>
<path d="M344.959 288.77L347.609 288.86V285.67L344.959 285.59V288.77Z" fill="#71767C"/>
<path d="M349.799 289.03L352.799 289.25L352.809 286.02L349.789 285.82L349.799 289.03Z" fill="#71767C"/>
<path d="M354.998 289.42L358.068 289.65L358.078 286.37L354.988 286.17L354.998 289.42Z" fill="#71767C"/>
<path d="M360.269 289.81L363.719 290.07V286.75L360.259 286.52L360.269 289.81Z" fill="#71767C"/>
<path d="M371.778 323.05L374.378 323.85V319.66L371.778 318.93V323.05Z" fill="#71767C"/>
<path d="M365.949 321.26L369.539 322.36V318.31L365.949 317.3V321.26Z" fill="#71767C"/>
<path d="M385.488 327.28L389.538 328.52V323.91L385.488 322.77V327.28Z" fill="#71767C"/>
<path d="M380.908 325.86L383.658 326.71V322.26L380.898 321.49L380.908 325.86Z" fill="#71767C"/>
<path d="M344.959 314.76L347.589 315.61L347.599 312.16L344.959 311.35V314.76Z" fill="#71767C"/>
<path d="M355.029 317.9L358.069 318.83V315.1L355.019 314.24L355.029 317.9Z" fill="#71767C"/>
<path d="M349.828 316.3L352.788 317.21V313.62L349.818 312.78L349.828 316.3Z" fill="#71767C"/>
<path d="M376.219 324.42L379.069 325.3V320.98L376.219 320.17V324.42Z" fill="#71767C"/>
<path d="M360.299 319.52L363.709 320.57V316.68L360.299 315.72V319.52Z" fill="#71767C"/>
<path d="M371.799 336.81L374.369 337.79L374.379 333.05L371.799 332.15V336.81Z" fill="#71767C"/>
<path d="M385.509 342.02L388.509 343.17V337.95L385.499 336.91L385.509 342.02Z" fill="#71767C"/>
<path d="M344.959 326.67L347.589 327.6V323.75L344.959 322.86V326.67Z" fill="#71767C"/>
<path d="M380.919 340.28L383.649 341.32V336.27L380.919 335.31V340.28Z" fill="#71767C"/>
<path d="M376.229 338.5L379.069 339.58V334.67L376.229 333.69V338.5Z" fill="#71767C"/>
<path d="M355.039 330.44L358.059 331.59V327.38L355.039 326.34V330.44Z" fill="#71767C"/>
<path d="M365.969 334.59L369.539 335.95V331.36L365.969 330.13V334.59Z" fill="#71767C"/>
<path d="M349.839 328.46L352.789 329.58V325.56L349.839 324.53V328.46Z" fill="#71767C"/>
<path d="M360.319 332.44L363.699 333.73L363.709 329.34L360.309 328.16L360.319 332.44Z" fill="#71767C"/>
<path d="M388.509 173.24L385.349 174.49V179.19L388.509 178.05V173.24Z" fill="#71767C"/>
<path d="M354.869 190.15L358.109 188.99L358.119 185.24L354.869 186.52V190.15Z" fill="#71767C"/>
<path d="M380.769 180.84L383.699 179.78V175.14L380.769 176.29V180.84Z" fill="#71767C"/>
<path d="M349.679 192.02L352.839 190.88V187.32L349.669 188.57L349.679 192.02Z" fill="#71767C"/>
<path d="M360.149 188.26L363.759 186.95V183.01L360.139 184.44L360.149 188.26Z" fill="#71767C"/>
<path d="M344.959 193.69L347.639 192.76V189.37L344.959 190.35V193.69Z" fill="#71767C"/>
<path d="M365.788 186.22L369.588 184.86V180.71L365.778 182.21L365.788 186.22Z" fill="#71767C"/>
<path d="M371.618 184.13L374.418 183.12V178.8L371.608 179.91L371.618 184.13Z" fill="#71767C"/>
<path d="M376.089 182.52L379.109 181.43V176.95L376.079 178.14L376.089 182.52Z" fill="#71767C"/>
<path d="M371.629 198.51L374.419 197.6V194.28L371.629 195.2V198.51Z" fill="#71767C"/>
<path d="M376.099 197.05L379.109 196.06V192.74L376.089 193.73L376.099 197.05Z" fill="#71767C"/>
<path d="M354.889 204L358.109 202.95V199.65L354.889 200.71V204Z" fill="#71767C"/>
<path d="M344.959 207.27L347.629 206.38V203.1L344.959 203.98V207.27Z" fill="#71767C"/>
<path d="M380.778 195.51L383.688 194.56V191.23L380.778 192.19V195.51Z" fill="#71767C"/>
<path d="M387.728 189.9L385.358 190.68L385.368 194.01L387.728 193.23V189.9Z" fill="#71767C"/>
<path d="M365.809 200.42L369.579 199.18L369.589 195.87L365.799 197.12L365.809 200.42Z" fill="#71767C"/>
<path d="M349.698 205.71L352.828 204.68V201.38L349.688 202.42L349.698 205.71Z" fill="#71767C"/>
<path d="M360.159 202.28L363.749 201.1V197.79L360.159 198.97V202.28Z" fill="#71767C"/>
<path d="M413.67 35.5397H451.65C453.54 35.5397 455.06 34.0097 455.06 32.1297C455.06 30.2497 453.53 28.7197 451.65 28.7197H413.67C411.78 28.7197 410.26 30.2497 410.26 32.1297C410.26 34.0097 411.79 35.5397 413.67 35.5397Z" fill="#888A90"/>
<path d="M451.66 45.1699H413.68C411.79 45.1699 410.27 46.6999 410.27 48.5799C410.27 50.4599 411.8 51.9899 413.68 51.9899H451.66C453.55 51.9899 455.07 50.4599 455.07 48.5799C455.07 46.6999 453.54 45.1699 451.66 45.1699Z" fill="#888A90"/>
<path d="M451.66 61.6196H413.67C411.786 61.6196 410.26 63.1463 410.26 65.0296C410.26 66.9129 411.786 68.4396 413.67 68.4396H451.66C453.543 68.4396 455.07 66.9129 455.07 65.0296C455.07 63.1463 453.543 61.6196 451.66 61.6196Z" fill="#888A90"/>
<path d="M451.66 78.0796H413.67C411.786 78.0796 410.26 79.6063 410.26 81.4896C410.26 83.3729 411.786 84.8996 413.67 84.8996H451.66C453.543 84.8996 455.07 83.3729 455.07 81.4896C455.07 79.6063 453.543 78.0796 451.66 78.0796Z" fill="#888A90"/>
<path d="M451.66 94.5195H413.67C411.786 94.5195 410.26 96.0462 410.26 97.9295C410.26 99.8128 411.786 101.34 413.67 101.34H451.66C453.543 101.34 455.07 99.8128 455.07 97.9295C455.07 96.0462 453.543 94.5195 451.66 94.5195Z" fill="#888A90"/>
<path d="M451.66 110.979H413.68C411.79 110.979 410.27 112.509 410.27 114.389C410.27 116.269 411.8 117.799 413.68 117.799H451.66C453.55 117.799 455.07 116.269 455.07 114.389C455.07 112.509 453.54 110.979 451.66 110.979Z" fill="#888A90"/>
<path d="M451.66 127.43H413.68C411.79 127.43 410.27 128.96 410.27 130.84C410.27 132.72 411.8 134.25 413.68 134.25H451.66C453.55 134.25 455.07 132.72 455.07 130.84C455.07 128.96 453.54 127.43 451.66 127.43Z" fill="#888A90"/>
<path d="M451.66 143.88H413.68C411.79 143.88 410.27 145.41 410.27 147.29C410.27 149.17 411.8 150.7 413.68 150.7H451.66C453.55 150.7 455.07 149.17 455.07 147.29C455.07 145.41 453.54 143.88 451.66 143.88Z" fill="#888A90"/>
<path d="M451.66 160.33H413.68C411.79 160.33 410.27 161.86 410.27 163.74C410.27 165.62 411.8 167.15 413.68 167.15H451.66C453.55 167.15 455.07 165.62 455.07 163.74C455.07 161.86 453.54 160.33 451.66 160.33Z" fill="#888A90"/>
<path d="M451.66 176.78H413.68C411.79 176.78 410.27 178.31 410.27 180.19C410.27 182.07 411.8 183.6 413.68 183.6H451.66C453.55 183.6 455.07 182.07 455.07 180.19C455.07 178.31 453.54 176.78 451.66 176.78Z" fill="#888A90"/>
<path d="M451.66 193.229H413.68C411.79 193.229 410.27 194.759 410.27 196.639C410.27 198.519 411.8 200.049 413.68 200.049H451.66C453.55 200.049 455.07 198.519 455.07 196.639C455.07 194.759 453.54 193.229 451.66 193.229Z" fill="#888A90"/>
<path d="M451.66 209.68H413.68C411.79 209.68 410.27 211.21 410.27 213.09C410.27 214.97 411.8 216.5 413.68 216.5H451.66C453.55 216.5 455.07 214.97 455.07 213.09C455.07 211.21 453.54 209.68 451.66 209.68Z" fill="#888A90"/>
<path d="M451.66 226.14H413.67C411.786 226.14 410.26 227.666 410.26 229.55C410.26 231.433 411.786 232.96 413.67 232.96H451.66C453.543 232.96 455.07 231.433 455.07 229.55C455.07 227.666 453.543 226.14 451.66 226.14Z" fill="#888A90"/>
<path d="M451.66 242.59H413.68C411.79 242.59 410.27 244.12 410.27 246C410.27 247.88 411.8 249.41 413.68 249.41H451.66C453.55 249.41 455.07 247.88 455.07 246C455.07 244.12 453.54 242.59 451.66 242.59Z" fill="#888A90"/>
<path d="M451.66 259.04H413.68C411.79 259.04 410.27 260.57 410.27 262.45C410.27 264.33 411.8 265.86 413.68 265.86H451.66C453.55 265.86 455.07 264.33 455.07 262.45C455.07 260.57 453.54 259.04 451.66 259.04Z" fill="#888A90"/>
<path d="M451.66 275.49H413.68C411.79 275.49 410.27 277.02 410.27 278.9C410.27 280.78 411.8 282.31 413.68 282.31H451.66C453.55 282.31 455.07 280.78 455.07 278.9C455.07 277.02 453.54 275.49 451.66 275.49Z" fill="#888A90"/>
<path d="M451.66 291.94H413.68C411.79 291.94 410.27 293.47 410.27 295.35C410.27 297.23 411.8 298.76 413.68 298.76H451.66C453.55 298.76 455.07 297.23 455.07 295.35C455.07 293.47 453.54 291.94 451.66 291.94Z" fill="#888A90"/>
<path d="M451.66 308.39H413.68C411.79 308.39 410.27 309.92 410.27 311.8C410.27 313.68 411.8 315.21 413.68 315.21H451.66C453.55 315.21 455.07 313.68 455.07 311.8C455.07 309.92 453.54 308.39 451.66 308.39Z" fill="#888A90"/>
<path d="M451.66 324.84H413.68C411.79 324.84 410.27 326.37 410.27 328.25C410.27 330.13 411.8 331.66 413.68 331.66H451.66C453.55 331.66 455.07 330.13 455.07 328.25C455.07 326.37 453.54 324.84 451.66 324.84Z" fill="#888A90"/>
<path d="M451.66 341.3H413.68C411.79 341.3 410.27 342.83 410.27 344.71C410.27 346.59 411.8 348.12 413.68 348.12H451.66C453.55 348.12 455.07 346.59 455.07 344.71C455.07 342.83 453.54 341.3 451.66 341.3Z" fill="#888A90"/>
<path d="M451.66 357.75H413.68C411.79 357.75 410.27 359.28 410.27 361.16C410.27 363.04 411.8 364.57 413.68 364.57H451.66C453.55 364.57 455.07 363.04 455.07 361.16C455.07 359.28 453.54 357.75 451.66 357.75Z" fill="#888A90"/>
<path d="M347.32 152.33C346.94 152.33 346.57 152.17 346.3 151.87C345.72 151.21 332.26 135.2 346.06 99.7097C346.33 99.0097 347.12 98.6697 347.81 98.9397C348.51 99.2097 348.85 99.9997 348.58 100.69C341.69 118.41 342 130.91 343.48 138.28C345.07 146.22 348.31 150.06 348.34 150.09C348.83 150.66 348.77 151.51 348.2 152C347.94 152.22 347.63 152.33 347.31 152.33H347.32Z" fill="#515A60"/>
<path d="M361.66 144.05C361.31 144.05 360.9 143.91 360.43 143.51C358.37 141.76 352.08 133.26 355.19 125.89C355.48 125.2 356.27 124.88 356.96 125.17C357.65 125.46 357.97 126.26 357.68 126.94C355.16 132.89 360.77 140.27 362.12 141.41C362.39 141.51 362.64 141.7 362.81 141.96C363.21 142.59 363.02 143.43 362.39 143.83C362.2 143.95 361.95 144.05 361.66 144.05ZM360.98 141.52C360.98 141.52 360.97 141.52 360.96 141.53C360.96 141.53 360.97 141.53 360.98 141.52Z" fill="#515A60"/>
<path d="M389.639 370.28C389.279 370.28 388.919 370.14 388.649 369.85C388.439 369.63 383.539 364.3 380.669 353.93C378.049 344.45 376.719 328.77 385.289 307.87C385.569 307.18 386.369 306.85 387.059 307.13C387.749 307.41 388.079 308.2 387.799 308.9C379.559 329 380.769 344 383.239 353.04C385.909 362.82 390.589 367.95 390.629 368C391.139 368.55 391.109 369.4 390.559 369.91C390.299 370.15 389.969 370.27 389.639 370.27V370.28Z" fill="#515A60"/>
<path d="M388.25 261.94C387.72 261.94 387.22 261.63 387 261.1C386.34 259.5 370.93 221.77 386.47 204.79C386.98 204.24 387.83 204.2 388.38 204.71C388.93 205.21 388.97 206.07 388.46 206.62C374.08 222.33 389.34 259.69 389.49 260.06C389.78 260.75 389.45 261.54 388.76 261.83C388.59 261.9 388.41 261.93 388.24 261.93L388.25 261.94Z" fill="#515A60"/>
<path d="M368.659 138.56C368.529 138.56 368.409 138.54 368.279 138.51C368.089 138.46 363.689 137.13 361.519 132.69C359.819 129.21 359.969 124.89 361.969 119.84C362.249 119.14 363.029 118.8 363.729 119.08C364.429 119.36 364.769 120.14 364.489 120.84C362.779 125.15 362.599 128.73 363.959 131.5C365.619 134.88 369.009 135.9 369.049 135.91C369.769 136.12 370.179 136.87 369.969 137.59C369.799 138.18 369.259 138.57 368.669 138.57L368.659 138.56Z" fill="#515A60"/>
<path d="M348.63 240.89C348.46 240.6 344.38 233.81 346.4 228.36C347.33 225.83 349.38 224.04 352.48 223.02L353.18 225.16C350.73 225.96 349.21 227.26 348.52 229.13C346.88 233.56 350.52 239.66 350.56 239.72L348.63 240.89Z" fill="#515A60"/>
<path d="M145.31 447.1C155.34 447.58 202.66 450.04 225.05 433.96C237.94 424.7 228.84 410.3 228.84 410.3L154.52 413.86L145.32 447.1H145.31Z" fill="#55595E"/>
<path d="M143.97 178.27C143.97 178.27 135.41 167.76 132 162.98C128.59 158.2 118.76 147.98 118.76 147.98C118.76 147.98 106.32 132.33 111.34 120.09C116.36 107.85 116.06 106.03 119.97 103.44C121.11 102.68 123.38 102.44 124.99 101.23C126.6 100.02 129.2 95.0096 129.2 95.0096C129.2 95.0096 136.69 84.5796 143.98 83.9796C151.27 83.3796 162.51 81.9796 166.12 79.5696C169.73 77.1596 179.96 68.1396 195.61 70.9396C211.26 73.7396 212.26 85.1896 211.86 88.7996C211.46 92.4096 207.71 98.8296 202.57 101.24C197.43 103.65 196.02 108.06 182.78 106.86C169.54 105.66 163.52 108.67 163.52 108.67C163.52 108.67 166.33 111.08 169.54 114.69C172.75 118.3 169.71 117.9 169.94 127.33C170.17 136.76 162.05 144.98 162.05 144.98C162.05 144.98 165.33 159.64 159.91 155.62C154.49 151.6 150.88 140.76 144.46 141.36C138.04 141.96 141.44 150.6 143.04 155.62C144.64 160.64 137.48 162.03 148.78 169.85C148.78 169.85 146.73 173.06 143.99 178.28L143.97 178.27Z" fill="#423425"/>
<path d="M110.149 442.65C110.149 442.65 191.829 442.23 219.389 424.83C246.939 407.43 205.419 197.08 205.419 197.08L136.619 208.13L110.149 442.65Z" fill="#47AED6"/>
<path d="M141.97 199.939L143.97 178.269C143.97 178.269 147.18 174.659 146.38 168.239C146.38 168.239 129.93 158.609 135.95 146.169C135.95 146.169 138.61 139.749 146.51 141.349C154.41 142.949 153.2 147.369 156.41 148.569C159.62 149.769 163.11 152.109 162.03 144.959C160.84 137.089 161.74 126.629 162.07 126.899C162.07 126.899 163.23 116.869 156.82 113.659C150.41 110.449 157.62 106.039 157.62 106.039C157.62 106.039 163.24 100.819 180.09 104.039C196.95 107.249 202.56 101.229 202.56 101.229C202.56 101.229 208.08 109.259 208.98 116.679C208.98 116.679 210.48 117.979 210.69 120.489C210.9 122.999 211.09 127.809 211.09 127.809C211.09 127.809 213.3 140.449 213.7 141.049C214.1 141.649 225.03 149.479 215.51 153.689C215.51 153.689 216.41 172.549 213.3 177.759C210.19 182.969 208.28 189.189 190.23 188.489C190.23 188.489 189.02 196.519 190.63 203.939C192.24 211.359 191.73 216.779 188.12 220.189C184.51 223.599 172.57 229.519 153.91 217.679C153.91 217.679 149.8 212.659 146.69 207.649C143.58 202.639 141.98 199.929 141.98 199.929L141.97 199.939Z" fill="#FDC7A8"/>
<path d="M190.853 140.099C192.309 139.756 193.078 137.73 192.57 135.574C192.061 133.419 190.468 131.95 189.012 132.293C187.555 132.637 186.786 134.663 187.294 136.818C187.803 138.974 189.396 140.443 190.853 140.099Z" fill="#423425"/>
<path d="M210.685 134.22C211.838 134.049 212.535 132.311 212.241 130.339C211.948 128.367 210.776 126.907 209.623 127.079C208.471 127.25 207.774 128.988 208.067 130.96C208.361 132.932 209.533 134.392 210.685 134.22Z" fill="#423425"/>
<path d="M178.48 129.08C178.48 129.08 178.68 124.47 182.09 122.96C185.5 121.45 189.21 120.55 192.92 123.46C192.92 123.46 181.49 125.67 178.47 129.08H178.48Z" fill="#423425"/>
<path d="M204.96 120.17C204.96 120.17 209.28 115.06 210.88 119.67C210.88 119.67 206.27 119.57 204.96 120.17Z" fill="#423425"/>
<path d="M201.56 128.7C202.54 130.35 206.47 137.33 213.86 143.87C215.67 145.48 218.28 146.8 217.72 149.45C217.02 151.1 213.19 152.76 211.87 154C210.64 155.01 211.08 155.66 212.2 155.56C213.77 155.42 216.85 153.57 218.22 152.57C219.68 151.6 221 149.59 220.73 147.96C220.39 145.36 218.64 144.49 216.41 143.25C210.74 140.07 202.83 129.92 201.58 128.71L201.56 128.7Z" fill="#DB9078"/>
<path d="M193.88 165.05C193.95 165.33 194.2 165.5 194.46 165.58C195.85 166.14 203.3 167.88 208.61 166.47C209.52 166.26 210.92 165.79 211.15 164.96C211.26 164.43 210.68 164.09 210.15 164.1C209.75 164.1 209.42 164.21 209.06 164.25C207.7 164.44 203.37 165.55 197.76 164.55C196.72 164.36 193.99 163.54 193.88 165.01V165.05Z" fill="#DB9078"/>
<path d="M142.87 150.849C142.87 150.849 145.08 150.349 147.58 153.159C150.08 155.969 150.69 155.589 150.69 155.589C150.69 155.589 151.59 155.359 150.69 154.159C149.79 152.959 147.38 149.549 145.07 149.139C142.76 148.729 142.26 149.939 142.26 149.939C142.26 149.939 141.73 150.809 142.86 150.839L142.87 150.849Z" fill="#DB9078"/>
<path d="M145.31 167.54C145.31 167.54 151.8 168.6 154.51 167.3C154.51 167.3 150.96 170.19 146.44 168.78C146.39 168.77 146.38 168.23 146.38 168.23L145.31 167.54Z" fill="#DB9078"/>
<path d="M156.21 171.31C156.21 171.31 163.03 194.38 189.61 197.09L190.21 188.5C190.21 188.5 172.75 189.97 156.21 171.31Z" fill="#DB9078"/>
<path d="M54.4297 346.289L56.2997 326.229C56.2997 326.229 57.3697 322.749 60.3097 322.749C60.3097 322.749 67.7997 249.449 88.1297 233.669C108.46 217.889 127.72 205.049 127.72 205.049C127.72 205.049 127.18 196.679 135.21 191.409L143.24 186.129L141.96 199.929C141.96 199.929 151.58 214.769 152.74 216.229C153.9 217.689 175.03 236.309 176.63 272.689C178.24 309.069 165.44 464.299 165.44 464.299C165.44 464.299 96.4197 464.839 90.0097 449.849L93.7597 390.409L106.8 358.949V356.139L59.1897 351.399C59.1897 351.399 55.8597 350.899 55.2397 347.649C54.6197 344.399 54.4397 346.279 54.4397 346.279L54.4297 346.289Z" fill="#84868A" stroke="#6F7175" stroke-miterlimit="10"/>
<path d="M190.219 190.609L193.869 193.819C193.869 193.819 222.419 183.919 226.429 182.849C230.439 181.779 251.839 171.309 251.839 171.309C251.839 171.309 250.769 171.269 253.709 168.229C256.649 165.189 265.479 159.569 265.479 159.569C265.479 159.569 267.279 157.589 271.039 159.569C274.799 161.549 286.339 166.989 291.959 186.019C291.959 186.019 295.169 191.669 291.959 194.879C288.749 198.089 280.459 205.309 280.459 205.309C280.459 205.309 278.319 208.249 274.569 207.179C274.569 207.179 244.049 238.479 241.639 239.279C241.639 239.279 239.569 301.419 233.799 321.489C228.029 341.559 235.249 433.889 235.249 433.889C235.249 433.889 234.979 436.829 231.499 438.169C228.019 439.509 221.329 442.179 221.329 442.179C221.329 442.179 216.249 444.589 215.979 438.429C215.709 432.269 215.179 364.999 215.179 364.999C215.179 364.999 225.029 261.369 211.139 241.509C211.139 241.509 205.389 233.909 202.499 226.369C200.359 220.789 197.739 215.049 195.119 211.979C195.119 211.979 190.059 203.669 189.919 199.129C189.779 194.589 190.199 190.579 190.199 190.579L190.219 190.609Z" fill="#84868A" stroke="#6F7175" stroke-miterlimit="10"/>
<path d="M205.41 204.409C205.41 204.409 205 231.759 202.95 228.939C197.04 220.779 190.97 204.739 190.21 201.709C188.71 195.689 190.21 190.609 190.21 190.609C190.21 190.609 201.86 198.259 205.41 204.409Z" fill="#95989E"/>
<path d="M204.09 228.509L205.21 219.489C205.31 218.649 206.21 218.149 206.98 218.509L211.44 220.569C211.77 220.719 212.12 220.389 211.98 220.049L205.43 204.419C205.43 204.419 202.87 220.349 202.98 225.499C203.09 230.649 204.1 228.519 204.1 228.519L204.09 228.509Z" fill="#6F7177"/>
<path d="M163.139 238.839L159.289 235.039C159.289 235.039 158.019 232.129 154.509 235.039C150.999 237.949 142.149 244.369 142.149 244.369C142.149 244.369 139.229 246.509 137.359 241.689C135.489 236.869 127.419 208.249 127.729 205.039C128.039 201.829 138.699 240.079 139.499 241.419C140.299 242.759 139.449 243.829 142.149 241.689C144.849 239.549 154.509 229.839 154.509 229.839C154.509 229.839 158.249 224.689 160.109 229.839C161.969 234.989 163.139 238.839 163.139 238.839Z" fill="#6F7177"/>
<path d="M199.409 393.54L239.729 309.08C239.729 309.08 241.939 303.86 246.749 303.66C251.559 303.46 307.939 296.84 307.939 296.84C307.939 296.84 312.759 296.64 310.749 301.45C308.739 306.26 272.829 382.3 272.829 382.3C272.829 382.3 272.429 385.91 265.809 387.52C259.189 389.13 205.619 398.35 205.619 398.35C205.619 398.35 197.999 399.75 199.399 393.53L199.409 393.54Z" fill="#6895C8"/>
<path d="M203.38 398.709C203.38 398.709 200.77 398.509 203.38 392.489C205.99 386.469 241.9 314.649 241.9 314.649C241.9 314.649 244.71 306.619 247.72 306.429C250.73 306.239 307.71 299.209 307.71 299.209C307.71 299.209 312.93 297.599 311.32 301.209C309.71 304.819 273.4 382.059 273.4 382.059C273.4 382.059 272.8 386.269 267.78 387.679C262.76 389.089 203.38 398.709 203.38 398.709Z" fill="#5989AA"/>
<path d="M261.81 302.259C261.81 302.259 262.21 299.749 266.22 299.099C270.23 298.449 288.49 296.849 288.49 296.849C288.49 296.849 292.7 296.249 293.41 297.649C294.12 299.049 293.71 299.82 293.41 301.14C293.11 302.46 265.22 306.269 265.22 306.269L261.81 302.259Z" fill="#FFD698"/>
<path d="M263.609 308.28C263.609 308.28 264.009 304.07 266.619 303.26C269.229 302.45 291.499 300.45 291.499 300.45C291.499 300.45 294.309 299.65 293.109 302.45C291.909 305.25 291.709 306.46 288.899 307.27C286.089 308.08 266.829 310.28 266.829 310.28C266.829 310.28 263.259 309.97 263.619 308.28H263.609Z" fill="#998B67"/>
<path d="M269.1 158.94C269.7 158.94 284.75 163.15 291.97 186.02C291.97 186.02 301 180.8 315.24 151.71C329.49 122.62 335.3 114.19 335.3 114.19C335.3 114.19 345.13 109.37 349.14 105.76C353.15 102.15 360.57 97.1295 360.57 97.1295C360.57 97.1295 367.99 92.9195 367.79 90.5095C367.59 88.0995 366.58 86.6995 363.58 87.6995C360.58 88.6995 350.34 91.3095 350.34 91.3095C350.34 91.3095 347.33 89.4495 352.15 87.3695C356.97 85.2895 363.79 83.6895 366.19 82.6795C368.59 81.6695 369.8 79.0695 369 78.0695C368.2 77.0695 367.6 74.6595 362.18 73.8595C356.76 73.0595 341.72 72.6495 341.72 72.6495C341.72 72.6495 335.3 71.4395 332.29 75.8595C329.28 80.2795 329.08 82.4795 327.68 86.8895C326.28 91.2995 318.85 103.94 315.64 108.16C312.43 112.38 293.17 134.04 293.17 134.04C293.17 134.04 283.14 145.28 281.33 147.28C279.52 149.28 269.09 158.92 269.09 158.92L269.1 158.94Z" fill="#FDC7A8"/>
<path d="M57.7695 351.01C57.7695 351.01 58.7695 375.89 60.5795 381.71C62.3895 387.53 68.1995 395.96 78.8295 396.96C89.4595 397.96 113.14 398.36 160.89 392.55L163.5 391.95C163.5 391.95 181.15 388.14 187.57 388.94C193.99 389.74 204.82 391.2 212.05 390.8C219.28 390.4 229.51 386.14 236.33 381.12C243.15 376.1 241.75 374.29 241.75 374.29C241.75 374.29 255.08 367.67 250.58 362.86C250.58 362.86 255.8 360.45 254.99 356.64C254.18 352.83 251.38 353.63 250.98 353.63C250.58 353.63 252.38 351.82 251.18 349.62C249.98 347.42 249.57 347.01 245.16 347.21C245.16 347.21 230.95 350.45 220.35 352.56L226.7 337.78C226.7 337.78 204.9 346.74 200.69 351.96C200.69 351.96 192.98 359.85 187.45 362.6C181.52 365.54 162.17 365.61 152.54 364.21C142.91 362.81 106.8 358.99 106.8 358.99V356.18C106.8 356.18 58.9195 352.3 57.7795 351.03L57.7695 351.01Z" fill="#FDC7A8"/>
<path d="M252.169 171.48C252.569 172.72 253.189 173.85 254.009 174.87C254.829 175.89 255.739 176.76 256.699 177.6C257.659 178.44 258.659 179.22 259.629 180.03C260.599 180.84 261.549 181.7 262.449 182.63C264.289 184.49 265.929 186.55 267.359 188.75C267.539 189.02 267.709 189.3 267.879 189.57C267.899 189.6 267.919 189.63 267.939 189.66C268.019 189.79 267.879 189.56 267.959 189.69C267.999 189.75 268.039 189.82 268.079 189.88C268.169 190.02 268.249 190.16 268.329 190.31C268.659 190.88 268.979 191.45 269.269 192.03C269.869 193.19 270.409 194.38 270.889 195.59C270.949 195.74 271.009 195.9 271.069 196.05C271.069 196.08 271.089 196.1 271.099 196.14C271.119 196.19 271.149 196.33 271.099 196.14C271.119 196.23 271.159 196.31 271.189 196.39C271.299 196.7 271.419 197.01 271.519 197.32C271.729 197.93 271.919 198.54 272.099 199.17C272.279 199.8 272.439 200.41 272.589 201.04C272.609 201.12 272.629 201.2 272.639 201.28C272.639 201.32 272.659 201.35 272.659 201.39C272.599 201.15 272.639 201.31 272.659 201.36C272.699 201.52 272.729 201.68 272.759 201.84C272.789 201.99 272.819 202.13 272.849 202.28C272.879 202.43 272.899 202.56 272.939 202.7C272.949 202.76 273.019 203.06 272.959 202.8C272.989 202.94 273.019 203.09 273.049 203.23C273.099 203.45 273.179 203.65 273.269 203.85C273.319 203.96 273.429 204.07 273.549 204C273.679 203.93 273.739 203.7 273.739 203.56C273.749 203.3 273.769 203.05 273.739 202.78C273.719 202.61 273.699 202.45 273.679 202.28C273.629 201.95 273.569 201.63 273.499 201.3C273.359 200.61 273.199 199.93 273.029 199.25C272.699 197.99 272.309 196.74 271.859 195.52C270.909 192.99 269.719 190.57 268.289 188.28C266.859 185.99 265.319 184.01 263.519 182.12C262.609 181.16 261.649 180.26 260.649 179.4C259.649 178.54 258.679 177.82 257.689 177.04C255.809 175.55 253.909 173.97 252.739 171.83C252.599 171.58 252.479 171.32 252.369 171.06C252.329 170.97 252.249 170.94 252.189 171.04C252.129 171.15 252.129 171.33 252.169 171.45V171.48Z" fill="#6C6F76"/>
<path d="M113.17 332.379C113.81 325.399 116.73 318.909 118.57 312.209C120.43 305.449 121.93 298.599 122.58 291.599C123.23 284.599 123.28 277.839 121.94 271.089C121.28 267.749 120.25 264.489 118.77 261.429C117.29 258.369 115.36 255.499 113.24 252.819C111.13 250.149 108.8 247.649 106.12 245.549C104.81 244.529 103.41 243.599 101.93 242.839C100.45 242.079 98.9399 241.679 97.3099 241.509C96.8099 241.459 96.8699 243.089 97.2599 243.259C99.9499 244.429 102.66 245.839 105.02 247.599C107.38 249.359 109.4 251.399 111.28 253.599C115.46 258.499 118.86 264.019 120.5 270.289C122.15 276.619 122.12 283.319 121.69 289.809C121.24 296.689 120.35 303.659 118.56 310.329C117.57 314.019 116.34 317.629 115.09 321.249C113.84 324.869 112.78 328.459 112.74 332.299C112.74 332.669 113.13 332.869 113.17 332.399V332.379Z" fill="#6C6F76"/>
<path d="M241.96 238.939C242.52 237.379 242.46 235.709 242.2 234.099C242.06 233.209 241.87 232.329 241.66 231.449C241.61 231.259 241.57 231.079 241.53 230.899C241.51 230.799 241.48 230.699 241.46 230.599C241.5 230.759 241.46 230.599 241.46 230.559C241.45 230.489 241.43 230.429 241.41 230.359C241.32 229.959 241.23 229.559 241.16 229.159C241.09 228.759 241.02 228.359 240.96 227.959C240.94 227.769 240.91 227.589 240.9 227.409C240.9 227.359 240.9 227.309 240.88 227.259C240.86 227.079 240.88 227.429 240.88 227.259C240.88 227.129 240.86 226.999 240.86 226.879C240.81 225.999 240.84 225.109 240.86 224.229C240.88 223.299 240.88 222.369 240.8 221.439C240.72 220.569 240.55 219.709 240.28 218.879C240 217.969 239.6 217.099 239.18 216.249C238.98 215.849 238.76 215.469 238.53 215.079C238.3 214.689 238.13 214.279 237.84 213.959C237.78 213.889 237.73 213.939 237.7 214.009C237.65 214.099 237.66 214.239 237.7 214.339C237.83 214.759 238.03 215.159 238.21 215.569C238.29 215.749 238.37 215.929 238.45 216.109C238.54 216.329 238.62 216.559 238.72 216.769C238.88 217.139 239.04 217.519 239.18 217.899C239.26 218.109 239.33 218.249 239.4 218.519C239.45 218.719 239.52 218.919 239.58 219.119C239.64 219.299 239.69 219.489 239.74 219.669C239.77 219.769 239.79 219.869 239.82 219.969C239.83 220.019 239.84 220.069 239.86 220.119C239.86 220.149 239.87 220.189 239.88 220.219C239.86 220.129 239.86 220.119 239.88 220.189C239.96 220.579 240.03 220.969 240.08 221.359C240.09 221.469 240.1 221.579 240.12 221.689C240.14 221.879 240.11 221.509 240.12 221.709C240.12 221.759 240.12 221.819 240.13 221.869C240.14 222.089 240.15 222.309 240.16 222.529C240.17 222.969 240.16 223.409 240.16 223.849C240.14 224.719 240.11 225.579 240.13 226.449C240.13 226.649 240.15 226.859 240.16 227.049C240.16 227.209 240.18 227.359 240.2 227.519C240.18 227.299 240.2 227.479 240.2 227.519C240.2 227.619 240.22 227.719 240.23 227.819C240.27 228.219 240.34 228.619 240.41 229.009C240.56 229.829 240.76 230.639 240.96 231.449C241.06 231.839 241.16 232.239 241.25 232.629C241.3 232.819 241.34 233.019 241.39 233.209C241.41 233.299 241.44 233.399 241.46 233.499C241.5 233.659 241.43 233.379 241.46 233.549C241.47 233.609 241.49 233.679 241.51 233.739C241.6 234.159 241.69 234.579 241.76 235.009C241.79 235.219 241.82 235.429 241.85 235.639C241.86 235.749 241.87 235.869 241.89 235.979C241.89 236.029 241.89 236.069 241.91 236.119C241.91 236.139 241.93 236.329 241.91 236.219C241.98 237.089 241.97 237.949 241.83 238.809C241.81 238.909 241.91 239.089 241.97 238.919L241.96 238.939Z" fill="#6C6F76"/>
<path d="M60.32 322.94C61.3 322.89 62.27 322.85 63.25 322.85C64.23 322.85 65.19 322.89 66.17 322.9C68.13 322.9 70.09 323.01 72.04 323.12C73.99 323.23 75.99 323.4 77.95 323.62C79.91 323.84 81.87 324.11 83.83 324.42C85.79 324.73 87.73 325.11 89.68 325.51C91.63 325.91 93.55 326.36 95.47 326.86C97.39 327.36 99.29 327.88 101.18 328.46C103.07 329.04 104.94 329.64 106.8 330.29C108.66 330.94 110.49 331.6 112.3 332.33C113.13 332.66 113.99 332.97 114.78 333.4C115.37 333.73 115.98 334.18 116.25 334.82C116.25 334.82 116.25 334.84 116.25 334.85C116.25 334.8 116.26 334.88 116.25 334.85C116.25 334.88 116.25 334.91 116.27 334.94C116.27 334.97 116.27 334.86 116.27 334.93C116.27 334.95 116.27 334.97 116.27 334.98C116.27 335.05 116.27 334.89 116.27 334.95C116.27 334.97 116.27 334.99 116.27 335.01C116.27 335.1 116.27 334.92 116.27 334.98V335.05C116.27 335.14 116.27 335.08 116.27 335.01V335.17C116.27 335.28 116.27 335.05 116.27 335.15V335.33C116.27 335.4 116.27 335.42 116.27 335.33V335.43C116.27 335.5 116.27 335.57 116.27 335.63C116.27 335.7 116.27 335.77 116.27 335.84V335.89C116.27 335.95 116.27 335.8 116.27 335.86C116.27 335.9 116.27 335.94 116.27 335.98C116.25 336.31 116.22 336.65 116.19 336.98C116.17 337.17 116.15 337.35 116.13 337.54C116.13 337.62 116.13 337.49 116.13 337.55C116.13 337.57 116.13 337.6 116.13 337.62C116.13 337.67 116.12 337.72 116.11 337.77C116.1 337.87 116.09 337.97 116.07 338.06C116.02 338.49 115.96 338.91 115.89 339.34C115.75 340.29 115.58 341.23 115.38 342.17C115.18 343.17 114.95 344.15 114.68 345.13C114.41 346.11 114.11 347.1 113.76 348.06C113.43 348.97 113.06 349.86 112.61 350.72C112.22 351.48 111.77 352.21 111.24 352.88C110.79 353.44 110.26 353.96 109.65 354.33C109.1 354.66 108.46 354.85 107.81 354.87C107.49 354.87 107.14 354.84 106.83 354.75C106.79 354.74 106.79 355.17 106.79 355.2C106.79 355.3 106.79 355.41 106.81 355.52C106.81 355.55 106.81 355.64 106.85 355.65C107.5 355.85 108.16 355.96 108.83 355.78C109.5 355.6 110.06 355.23 110.55 354.78C111.14 354.24 111.63 353.6 112.05 352.92C112.54 352.13 112.95 351.28 113.31 350.42C113.7 349.48 114.04 348.52 114.33 347.54C114.62 346.56 114.9 345.52 115.14 344.5C115.38 343.48 115.57 342.5 115.75 341.48C115.9 340.58 116.03 339.68 116.14 338.78C116.23 338 116.31 337.22 116.34 336.44C116.37 335.82 116.39 335.2 116.34 334.58C116.33 334.39 116.31 334.19 116.25 334.01C116.19 333.83 116.06 333.65 115.94 333.5C115.7 333.19 115.39 332.94 115.06 332.74C114.32 332.28 113.48 332 112.68 331.68C111.76 331.32 110.84 330.96 109.91 330.61C108.05 329.91 106.19 329.25 104.31 328.62C102.43 327.99 100.5 327.4 98.57 326.85C96.64 326.3 94.71 325.79 92.76 325.33C90.81 324.87 88.86 324.45 86.89 324.08C84.92 323.71 82.94 323.39 80.95 323.13C78.96 322.87 77 322.65 75.01 322.49C73.02 322.33 71.06 322.23 69.08 322.21C68.09 322.2 67.1 322.19 66.11 322.21C65.12 322.23 64.13 322.3 63.15 322.37C62.17 322.44 61.25 322.49 60.3 322.57C60.27 322.57 60.29 322.94 60.3 322.94H60.32Z" fill="#6C6F76"/>
<path d="M106.88 358.189C106.73 358.089 106.55 357.909 106.37 357.899C106.19 357.889 106 357.899 105.81 357.899C105.46 357.899 105.11 357.899 104.77 357.899C104.07 357.919 103.37 357.949 102.67 357.999C101.29 358.099 99.9095 358.279 98.5395 358.509C95.7795 358.989 93.0895 359.769 90.4995 360.819C89.7695 361.109 89.0595 361.419 88.3495 361.759C87.9895 361.939 87.6295 362.119 87.2795 362.299C87.0995 362.389 86.9195 362.479 86.7595 362.579C86.5695 362.699 86.3995 362.829 86.2195 362.949C86.1295 363.019 86.1495 363.279 86.1595 363.369C86.1595 363.399 86.1895 363.809 86.2495 363.789C86.3995 363.739 86.5495 363.679 86.6995 363.629C86.8695 363.569 87.0295 363.489 87.1995 363.409C87.5095 363.269 87.8195 363.119 88.1395 362.979C88.7795 362.699 89.4195 362.419 90.0695 362.159C91.3595 361.649 92.6695 361.189 93.9995 360.809C96.6795 360.029 99.4295 359.489 102.21 359.219C102.99 359.149 103.76 359.089 104.54 359.069C104.94 359.059 105.33 359.049 105.73 359.039H106.31C106.44 359.039 106.5 359.039 106.61 358.959C106.71 358.899 106.81 358.829 106.91 358.769C106.98 358.729 106.96 358.539 106.96 358.469C106.96 358.399 106.97 358.219 106.9 358.169L106.88 358.189Z" fill="#E9A98E"/>
<path d="M220.04 352.319C220.04 352.319 220.11 352.299 220.14 352.269H220.12C220.12 352.269 220.19 352.259 220.21 352.239C220.24 352.209 220.26 352.159 220.29 352.129C220.34 352.059 220.39 351.989 220.44 351.919C220.54 351.779 220.65 351.639 220.75 351.499C220.96 351.219 221.17 350.929 221.38 350.639C221.5 350.469 221.61 350.309 221.73 350.139C221.77 350.079 221.78 349.989 221.79 349.919C221.8 349.799 221.8 349.679 221.79 349.549C221.79 349.459 221.78 349.349 221.74 349.269C221.73 349.239 221.7 349.179 221.66 349.219C221.01 350.009 220.24 350.719 219.41 351.319C219.17 351.499 218.91 351.659 218.66 351.819L218.69 351.799C218.26 352.059 217.82 352.309 217.37 352.519C217.32 352.549 217.31 352.609 217.29 352.659C217.27 352.769 217.26 352.889 217.27 352.999C217.28 353.109 217.27 353.229 217.31 353.339C217.31 353.369 217.35 353.499 217.4 353.479C217.84 353.309 218.27 353.149 218.7 352.959C219.13 352.769 219.54 352.579 219.95 352.359C220.05 352.309 220.15 352.259 220.26 352.199C220.31 352.169 220.36 352.149 220.41 352.119C220.43 352.109 220.46 352.089 220.48 352.079C220.56 352.029 220.56 351.929 220.57 351.849C220.59 351.729 220.62 351.599 220.61 351.479C220.61 351.429 220.61 351.379 220.57 351.339H220.56C220.51 351.249 220.47 351.179 220.43 351.099C220.41 351.099 220.39 351.119 220.38 351.129C220.28 351.179 220.18 351.239 220.07 351.289C219.66 351.509 219.24 351.709 218.82 351.899C218.34 352.119 217.85 352.319 217.36 352.499L217.38 353.469C218.04 353.179 218.67 352.819 219.27 352.399C219.87 351.979 220.41 351.519 220.91 351.009C221.2 350.719 221.47 350.409 221.73 350.099L221.65 349.189C221.21 349.819 220.78 350.459 220.35 351.089C220.29 351.179 220.23 351.269 220.16 351.369C220.08 351.489 220.03 351.639 219.98 351.769C219.94 351.859 219.95 351.979 219.96 352.079C219.96 352.099 219.98 352.299 220.03 352.279L220.04 352.319Z" fill="#E9A98E"/>
<path d="M251.42 352.37C251.19 352.46 250.97 352.54 250.75 352.62C250.53 352.7 250.32 352.81 250.1 352.91C249.64 353.13 249.18 353.33 248.72 353.55C247.76 354.01 246.8 354.44 245.82 354.86C243.81 355.72 241.76 356.5 239.69 357.21C237.62 357.92 235.55 358.56 233.44 359.11C231.52 359.62 229.58 360.04 227.62 360.39C227.17 360.47 226.73 360.55 226.27 360.62C226.05 360.65 225.84 360.68 225.62 360.74C225.4 360.8 225.2 360.83 224.99 360.86C224.59 360.92 224.18 360.98 223.78 361.02C223.41 361.06 223.02 361.08 222.65 361.13C222.48 361.15 222.3 361.19 222.13 361.19C222.1 361.19 222.1 361.63 222.13 361.63C222.31 361.63 222.5 361.67 222.68 361.69C222.86 361.71 223.04 361.7 223.22 361.7C223.61 361.7 224.01 361.7 224.4 361.68C224.82 361.67 225.24 361.61 225.65 361.63C226.06 361.65 226.54 361.55 226.97 361.49C228.9 361.22 230.82 360.81 232.71 360.34C234.81 359.82 236.89 359.21 238.94 358.53C240.99 357.85 243.08 357.09 245.1 356.24C246.09 355.82 247.07 355.4 248.04 354.94C248.51 354.72 248.98 354.49 249.44 354.24C249.9 353.99 250.37 353.77 250.79 353.48C251 353.34 251.21 353.19 251.42 353.04C251.48 353 251.45 352.76 251.45 352.7C251.45 352.68 251.43 352.35 251.4 352.36L251.42 352.37Z" fill="#E9A98E"/>
<path d="M250.569 362.76C249.359 363.49 248.139 364.19 246.869 364.8C246.209 365.12 245.549 365.41 244.869 365.7C244.499 365.86 244.129 366.01 243.759 366.16C243.369 366.32 242.969 366.46 242.579 366.62C241.669 366.99 240.759 367.36 239.849 367.74C238.879 368.15 237.929 368.57 236.949 368.96C235.139 369.68 233.339 370.39 231.489 371C231.029 371.15 230.579 371.32 230.129 371.47C229.889 371.55 229.659 371.63 229.419 371.7C229.179 371.77 228.959 371.88 228.719 371.96C228.239 372.12 227.749 372.28 227.269 372.43C227.029 372.51 226.769 372.57 226.529 372.67C226.289 372.77 226.029 372.87 225.779 372.96C225.529 373.05 225.269 373.15 225.019 373.26C224.959 373.29 224.999 373.74 225.029 373.73C225.549 373.67 226.049 373.53 226.569 373.46C226.819 373.43 227.059 373.34 227.309 373.28C227.559 373.22 227.789 373.15 228.029 373.09C228.269 373.03 228.519 372.96 228.769 372.89C229.019 372.82 229.239 372.79 229.469 372.72C229.929 372.58 230.389 372.44 230.839 372.3C232.689 371.73 234.499 371.03 236.279 370.29C238.209 369.49 240.069 368.53 241.959 367.62C242.749 367.24 243.539 366.84 244.339 366.46C245.019 366.13 245.709 365.81 246.389 365.46C247.669 364.81 248.939 364.12 250.089 363.26C250.249 363.14 250.399 363.03 250.549 362.9C250.579 362.88 250.539 362.73 250.549 362.72L250.569 362.76Z" fill="#E9A98E"/>
<path d="M241.739 374.189C241.369 374.399 240.989 374.599 240.609 374.799C240.149 375.059 239.679 375.299 239.209 375.539C238.659 375.809 238.119 376.089 237.559 376.329C236.959 376.599 236.349 376.829 235.749 377.089C234.429 377.649 233.099 378.179 231.779 378.749C230.459 379.319 229.109 379.899 227.789 380.509C227.469 380.659 227.159 380.799 226.839 380.949C226.679 381.029 226.539 381.119 226.379 381.199C226.219 381.279 226.079 381.349 225.929 381.419C225.629 381.559 225.329 381.709 225.039 381.859C224.889 381.929 224.759 382.029 224.619 382.109C224.479 382.189 224.349 382.269 224.209 382.339C224.069 382.409 223.939 382.499 223.819 382.589C223.759 382.639 223.819 383.069 223.829 383.059C224.109 382.999 224.369 382.899 224.639 382.809C224.779 382.759 224.919 382.739 225.059 382.679C225.209 382.619 225.359 382.559 225.509 382.499C225.809 382.379 226.109 382.259 226.409 382.139C226.559 382.079 226.719 382.049 226.869 381.979C227.019 381.909 227.179 381.849 227.339 381.779C228.669 381.219 229.989 380.619 231.299 380.029C232.619 379.429 233.979 378.749 235.289 378.079C235.909 377.759 236.519 377.419 237.129 377.089C237.689 376.779 238.259 376.489 238.829 376.179C239.739 375.679 240.679 375.189 241.499 374.549C241.579 374.489 241.669 374.419 241.749 374.349C241.779 374.329 241.739 374.179 241.749 374.169L241.739 374.189Z" fill="#E9A98E"/>
<path d="M349.99 90.6297C349.93 90.4797 350 90.6697 349.98 90.5897C349.97 90.5497 349.96 90.5197 349.95 90.4897C349.91 90.3797 349.87 90.2797 349.82 90.1797C349.79 90.1197 349.77 90.0497 349.74 89.9797C349.68 89.8397 349.8 90.1597 349.75 90.0197C349.75 89.9997 349.74 89.9697 349.73 89.9497C349.73 89.9097 349.71 89.8697 349.7 89.8397C349.7 89.8397 349.75 90.0997 349.73 89.9797C349.71 89.8697 349.69 89.7597 349.66 89.6497C349.63 89.5397 349.69 89.7597 349.68 89.7597C349.68 89.7597 349.67 89.6597 349.66 89.6497C349.64 89.5097 349.67 89.8397 349.67 89.8297C349.67 89.7697 349.67 89.5097 349.67 89.7597C349.67 90.0097 349.67 89.7597 349.68 89.7097C349.68 89.6097 349.62 89.9997 349.66 89.8497C349.66 89.8197 349.67 89.7897 349.68 89.7597C349.68 89.7397 349.71 89.6897 349.7 89.6697C349.7 89.6897 349.61 89.9097 349.67 89.7797C349.69 89.7297 349.72 89.6697 349.74 89.6097C349.74 89.5897 349.77 89.5397 349.78 89.5297C349.76 89.5397 349.67 89.7197 349.74 89.5997C349.78 89.5397 349.82 89.4897 349.86 89.4297C349.95 89.3097 350.05 89.1997 350.16 89.0897L350.04 89.2097C350.72 88.5297 351.65 88.1597 352.52 87.7997C353.51 87.3797 354.53 87.0097 355.55 86.6697L355.42 86.7197C357.36 86.0697 359.33 85.5497 361.28 84.9497C362.29 84.6397 363.29 84.3197 364.28 83.9797C365.14 83.6797 366 83.3597 366.82 82.9397C367.25 82.7197 367.67 82.4597 368.05 82.1597C368.26 81.9897 368.47 81.8197 368.64 81.5997C368.72 81.4997 368.81 81.3897 368.87 81.2697C369.01 81.0397 369.08 80.7397 369.11 80.4597L368.97 80.9197C369.04 80.7897 369.1 80.6597 369.16 80.5297C369.26 80.2997 369.26 79.9597 369.18 79.7197C369.14 79.6097 369.02 79.2897 368.85 79.4197C368.8 79.4597 368.73 79.4997 368.68 79.5497H368.86C368.77 79.4897 368.61 79.4797 368.52 79.5397C368.44 79.5897 368.38 79.6497 368.31 79.7097C368.17 79.8197 368.03 79.9397 367.89 80.0497C367.58 80.2897 367.24 80.5097 366.89 80.6997C366.17 81.0797 365.4 81.3597 364.63 81.6197L364.76 81.5697C364.6 81.6197 364.44 81.6697 364.29 81.7297L364.42 81.6797C361.79 82.5597 359.1 83.2397 356.45 84.0797C355.11 84.4997 353.78 84.9597 352.48 85.4897C351.34 85.9597 350 86.4597 349.28 87.5297C348.76 88.3097 348.63 89.2497 348.72 90.1697C348.77 90.5797 348.87 91.0497 349.16 91.3597C349.25 91.4597 349.35 91.5497 349.48 91.5897C349.6 91.6297 349.65 91.6497 349.76 91.5897C349.81 91.5697 349.85 91.5297 349.9 91.4997C350.01 91.4197 350.04 91.2597 350.05 91.1397C350.07 90.9697 350.05 90.7997 349.98 90.6397L349.99 90.6297Z" fill="#E9A98E"/>
<path d="M349.53 131.28C348.77 131.28 348.1 130.73 347.97 129.96C344.62 109.97 346.32 95.97 353.01 88.35C357.94 82.74 363.75 82.9 363.99 82.91C364.86 82.94 365.54 83.68 365.51 84.55C365.48 85.42 364.76 86.11 363.88 86.07C363.68 86.07 359.22 86.02 355.32 90.52C351.21 95.26 347.14 105.86 351.09 129.44C351.23 130.3 350.65 131.12 349.79 131.26C349.7 131.27 349.61 131.28 349.53 131.28Z" fill="#515A60"/>
<path d="M368.329 86.7696L364.109 85.9796L364.699 82.8696L368.909 84.1096L368.329 86.7696Z" fill="#A8A8A8"/>
</g>
<defs>
<clipPath id="clip0_2166_9842">
<rect width="492.03" height="464.81" fill="white"/>
</clipPath>
</defs>
</svg>
