<svg xmlns="http://www.w3.org/2000/svg" viewBox="0 0 20.2 13.5">
  <g>
    <path d="M11,12.3V9.8H2a2,2,0,0,0-2,2v2a2,2,0,0,0,2,2H15a2,2,0,0,0,2-2v-.7H11.8A.79.79,0,0,1,11,12.3ZM2.6,14.4H1.7v-.9h.9Zm1.9,0H3.6v-.9h.9Zm3.7,0H7.3v-.9h.9Zm1.9,0h-1v-.9H10v.9Zm4.6-.9h.9v.9h-.9Zm-1.8,0h.9v.9h-.9Z" transform="translate(0 -2.3)"/>
    <path d="M19.3,6.9h-.2V5.5a3.22,3.22,0,0,0-3.2-3.2,3.29,3.29,0,0,0-3.2,3.2V6.9h-.2a.68.68,0,0,0-.7.7v4.2a.68.68,0,0,0,.7.7h7a.68.68,0,0,0,.7-.7V7.6A1.07,1.07,0,0,0,19.3,6.9Zm-1.6,0H14V5.5a1.9,1.9,0,0,1,3.8,0V6.9Z" transform="translate(0 -2.3)"/>
  </g>
</svg>
