<svg xmlns="http://www.w3.org/2000/svg" viewBox="0 0 19.85 16.4">
  <circle cx="9.92" cy="15.1" r="1.3"/>
  <path d="M19.7,6.1A13.42,13.42,0,0,0,10,1.8,12.89,12.89,0,0,0,.3,6.1a.78.78,0,0,0,0,1.1.78.78,0,0,0,1.1,0A11.3,11.3,0,0,1,10,3.4a11.3,11.3,0,0,1,8.6,3.8.73.73,0,0,0,.6.2.76.76,0,0,0,.5-.2A.78.78,0,0,0,19.7,6.1Z" transform="translate(-0.08 -1.8)"/>
  <path d="M16.9,9.3a9.71,9.71,0,0,0-6.9-3,9.32,9.32,0,0,0-6.9,3,.78.78,0,1,0,1.1,1.1A8.28,8.28,0,0,1,10,7.9a8.28,8.28,0,0,1,5.8,2.5.73.73,0,0,0,.6.2.76.76,0,0,0,.5-.2A.78.78,0,0,0,16.9,9.3Z" transform="translate(-0.08 -1.8)"/>
  <path d="M13.8,12.5A5.65,5.65,0,0,0,10,10.9H9.9a5.65,5.65,0,0,0-3.8,1.6.78.78,0,0,0,0,1.1.73.73,0,0,0,.6.2.76.76,0,0,0,.5-.2,4.4,4.4,0,0,1,2.7-1.2H10a4.17,4.17,0,0,1,2.7,1.2.78.78,0,1,0,1.1-1.1Z" transform="translate(-0.08 -1.8)"/>
</svg>
