<svg xmlns="http://www.w3.org/2000/svg" viewBox="0 0 20 17">
  <g>
    <path d="M19,13.2H3.1L2.5,2H1.7V13.2H1a.94.94,0,0,0-1,1v3a.94.94,0,0,0,1,1h.7V19H4.3v-.8H15.6V19h2.6v-.8H19a.94.94,0,0,0,1-1v-3A1,1,0,0,0,19,13.2ZM2.8,17h-1V15.9H2.9V17Zm2.3,0H4V15.9H5.1Zm4.3,0h-1V15.9H9.5V17Zm2.2,0H10.5V15.9h1.1ZM16,17H14.9V15.9H16Zm2.2,0H17.1V15.9h1.1Z" transform="translate(0 -2)" fill-rule="evenodd"/>
    <circle cx="10.3" cy="9.7" r="0.7"/>
    <path d="M15.7,5.7a7.34,7.34,0,0,0-5.4-2.4A7,7,0,0,0,4.9,5.7a.37.37,0,0,0,0,.6.37.37,0,0,0,.6,0,6.84,6.84,0,0,1,4.8-2.1,6.45,6.45,0,0,1,4.8,2.1.37.37,0,0,0,.3.1c.1,0,.2-.1.3-.1S15.9,5.9,15.7,5.7Z" transform="translate(0 -2)"/>
    <path d="M14.1,7.5a5.33,5.33,0,0,0-3.8-1.7A5.17,5.17,0,0,0,6.5,7.5a.37.37,0,0,0,0,.6.37.37,0,0,0,.6,0,4.48,4.48,0,0,1,3.2-1.4,4.48,4.48,0,0,1,3.2,1.4.37.37,0,0,0,.3.1c.1,0,.2-.1.3-.1A.37.37,0,0,0,14.1,7.5Z" transform="translate(0 -2)"/>
    <path d="M12.4,9.3a3,3,0,0,0-2.1-.9h-.1a2.88,2.88,0,0,0-2.1.9.63.63,0,0,0,0,.6.76.76,0,0,0,.4.1c.1,0,.2-.1.3-.1a2.33,2.33,0,0,1,1.5-.7h.1a2.33,2.33,0,0,1,1.5.7.37.37,0,0,0,.6,0C12.6,9.7,12.6,9.4,12.4,9.3Z" transform="translate(0 -2)"/>
  </g>
</svg>
