<svg xmlns="http://www.w3.org/2000/svg" viewBox="0 0 14.4 17.94">
  <path d="M9.2,17.9c0,.3-.9.8-1.2,1a.9.9,0,0,1-.5.1,3.55,3.55,0,0,1-1-.2c-1.6-.5-2-1.5-2.7-2.9a10.5,10.5,0,0,1-.9-4.6,10.23,10.23,0,0,1,.9-4.6c.7-1.4,1-2.4,2.7-2.9a3.55,3.55,0,0,1,1-.2.9.9,0,0,1,.5.1c.3.1,1.2.6,1.2,1,0,.2-.5,1.9-.6,2.3-.1.1-.1.5-.3.7s-.3.2-.5.2c-.5,0-.9-.1-1.4-.1-.1,0-.4,0-.5.1a6.89,6.89,0,0,0-.3.8,10.87,10.87,0,0,0-.4,2.6,7.83,7.83,0,0,0,.4,2.6c.1.2.1.7.3.8a.75.75,0,0,0,.5.1c.5,0,.9-.1,1.4-.1a.75.75,0,0,1,.5.1c.2.2.2.6.3.8A19.48,19.48,0,0,1,9.2,17.9Zm1.6-9.2c.2,0,.3-.1.5-.2A2.27,2.27,0,0,0,12,6.7a2.5,2.5,0,0,0-.8-1.8.56.56,0,0,0-.9,0,.56.56,0,0,0,0,.9,1.8,1.8,0,0,1,.4.9,1.09,1.09,0,0,1-.4.9.56.56,0,0,0,0,.9A.65.65,0,0,0,10.8,8.7Zm1.8,1.8c.2,0,.3-.1.5-.2a5.08,5.08,0,0,0,1.5-3.6,4.91,4.91,0,0,0-1.5-3.6.56.56,0,0,0-.9,0,.56.56,0,0,0,0,.9,3.86,3.86,0,0,1,0,5.4.56.56,0,0,0,0,.9A.4.4,0,0,0,12.6,10.5Zm1.9,1.9c.2,0,.3-.1.5-.2a7.64,7.64,0,0,0,2.3-5.5A7.64,7.64,0,0,0,15,1.2a.77.77,0,0,0-1,.1.56.56,0,0,0,0,.9,6.36,6.36,0,0,1,1.9,4.5A6.78,6.78,0,0,1,14,11.3a.56.56,0,0,0,0,.9A.76.76,0,0,0,14.5,12.4Z" transform="translate(-2.9 -1.06)"/>
</svg>
