<svg xmlns="http://www.w3.org/2000/svg" viewBox="0 0 19.1 16">
  <polygon points="3 16 0 16 0 2 1 2 1 1 3 1 3 16" fill-rule="evenodd"/>
  <polygon points="9.1 2 4.1 2 4.1 1 8.1 1 8.1 0 10.1 0 10.1 1 9.1 1 9.1 2" fill-rule="evenodd"/>
  <polygon points="17.1 5 14.1 7 14.1 5 12.1 5 9.1 7 9.1 5 7.1 5 4.1 7 4.1 9 7.1 7.2 7.1 10 9.1 10 9.1 9 12.1 7.2 12.1 10 14.1 10 14.1 9 17.1 7.2 17.1 14 4.1 14 4.1 16 17.1 16 19.1 16 19.1 14 19.1 5 17.1 5" fill-rule="evenodd"/>
  <rect x="4.9" y="11.2" width="2" height="1.7"/>
  <rect x="9.6" y="11.2" width="2" height="1.7"/>
  <rect x="14.1" y="11.2" width="2" height="1.7"/>
</svg>
