<svg width="60" height="60" viewBox="0 0 60 60" xmlns="http://www.w3.org/2000/svg">
<path d="M30.1149 4.68802C29.4668 4.68333 28.9383 5.20482 28.9336 5.85169C28.9289 6.49857 29.4493 7.02709 30.0973 7.03177C30.7442 7.03646 31.2727 6.51615 31.2774 5.86927C31.2821 5.2224 30.7618 4.69388 30.1149 4.68802Z" fill="currentColor"/>
<path d="M30.0616 11.7192C25.5369 11.6871 21.8313 15.3374 21.7971 19.8607C21.7629 24.3838 25.4152 28.0912 29.9386 28.1253C29.9595 28.1254 29.9804 28.1255 30.0014 28.1255C34.4959 28.1255 38.1691 24.4861 38.2031 19.9838C38.2372 15.4609 34.585 11.7533 30.0616 11.7192ZM30.0011 25.7819C29.9864 25.7819 29.9709 25.7817 29.9561 25.7816C26.7251 25.7572 24.1163 23.109 24.1407 19.8783C24.1649 16.6621 26.7885 14.0626 29.999 14.0626C30.0138 14.0626 30.0293 14.0627 30.044 14.0628C33.275 14.0872 35.8838 16.7354 35.8595 19.9662C35.8351 23.1824 33.2116 25.7819 30.0011 25.7819Z" fill="currentColor"/>
<path d="M35.1126 5.57697C34.503 5.36064 33.8328 5.67998 33.6165 6.29006C33.4003 6.90014 33.7196 7.56987 34.3295 7.78619C39.4913 9.61561 42.9314 14.5318 42.8901 20.0193C42.8853 20.6664 43.406 21.195 44.0532 21.2C44.0561 21.2 44.0592 21.2 44.0622 21.2C44.7051 21.2 45.2289 20.6811 45.2339 20.0369C45.2826 13.5509 41.2152 7.73991 35.1126 5.57697Z" fill="currentColor"/>
<path d="M37.1908 44.1144C44.9853 34.0814 49.8564 28.8495 49.9222 20.0717C50.0047 9.02756 41.0419 0 29.9986 0C19.0842 0 10.1618 8.83924 10.0788 19.7729C10.0118 28.7887 14.9734 34.0134 22.8217 44.1127C15.014 45.2795 10.0788 48.2112 10.0788 51.797C10.0788 54.199 12.299 56.3544 16.3306 57.8661C20.0001 59.2421 24.8549 60 30.0005 60C35.1461 60 40.0008 59.2421 43.6703 57.8661C47.7019 56.3543 49.9222 54.1989 49.9222 51.7969C49.9222 48.213 44.9915 45.282 37.1908 44.1144ZM12.4224 19.7905C12.4956 10.1426 20.3676 2.34375 29.9988 2.34375C39.744 2.34375 47.6512 10.3111 47.5785 20.0542C47.5162 28.3903 42.3503 33.5274 34.103 44.2786C32.6319 46.1953 31.281 48.0075 30.0022 49.7802C28.7272 48.0064 27.4032 46.2267 25.9102 44.2779C17.3219 33.0766 12.3589 28.3277 12.4224 19.7905ZM30.0005 57.6564C19.9398 57.6564 12.4224 54.563 12.4224 51.797C12.4224 49.7457 16.9163 47.1545 24.4724 46.2572C26.1427 48.4487 27.607 50.4397 29.0433 52.4731C29.2627 52.7837 29.6191 52.9686 29.9994 52.9689C29.9998 52.9689 30.0001 52.9689 30.0005 52.9689C30.3804 52.9689 30.7368 52.7846 30.9565 52.4747C32.3792 50.4677 33.8836 48.4276 35.5396 46.2584C43.0886 47.1567 47.5785 49.7471 47.5785 51.7971C47.5784 54.563 40.0612 57.6564 30.0005 57.6564Z" fill="currentColor"/>
</svg>
