<svg width="60" height="60" viewBox="0 0 60 60" xmlns="http://www.w3.org/2000/svg">
<path d="M35.9334 47.462L28.552 40.3857C26.8066 38.7122 24.1465 38.5319 22.2277 39.9581C22.227 39.9585 22.218 39.9647 22.2177 39.9653L22.185 39.9898C22.1458 40.0194 22.109 40.0197 22.0842 40.0156C22.0409 40.0073 22.023 39.9798 22.0168 39.9691C20.3116 37.2619 19.1586 34.2864 18.5886 31.1247C18.0193 27.9624 18.0619 24.7698 18.7169 21.636C18.7189 21.6253 18.7251 21.5971 18.7588 21.5768C18.7864 21.5607 18.8166 21.5572 18.85 21.5672L18.9009 21.582C21.2026 22.2555 23.6411 21.1554 24.6975 18.9673L29.5286 8.96397C30.2094 7.55429 29.9177 5.87113 28.8038 4.77207C28.4089 4.37235 27.9593 3.99636 27.467 3.65374C23.0581 0.591515 17.0406 1.51548 13.7675 5.75761C13.5642 6.02317 13.3754 6.30112 13.1934 6.58182L13.1913 6.58491C12.5364 7.55463 12.2113 8.16006 11.7204 9.07474L11.6158 9.26909C11.4978 9.48684 8.71424 14.6402 8.02832 18.2683C6.96504 23.896 7.05929 29.7157 8.30214 35.0975C9.61516 40.7823 12.1115 45.8404 15.721 50.1307C16.6371 51.2194 18.334 49.7943 17.4169 48.7038C14.0348 44.6846 11.6946 39.9385 10.4617 34.5987C9.28768 29.5131 9.19893 24.0089 10.2061 18.6797C10.827 15.3936 13.5357 10.3768 13.5652 10.3227L13.6726 10.1229C14.1008 9.32551 14.5511 8.55771 15.0451 7.79955L15.0527 7.78751C15.2013 7.55257 15.3598 7.32484 15.5281 7.10365C18.0801 3.80373 22.7667 3.08788 26.2022 5.47381C26.5847 5.73938 26.9308 6.02902 27.2314 6.3338C27.2355 6.33827 27.24 6.34274 27.2445 6.34721C27.6855 6.77961 27.8014 7.44421 27.5327 8.0001L22.702 18.0034C22.1179 19.2122 20.7808 19.8228 19.5246 19.4558L19.4826 19.443C18.8586 19.2569 18.1813 19.3405 17.6244 19.6728C17.0716 20.0024 16.6791 20.5524 16.5477 21.1826C15.8339 24.5964 15.7871 28.0735 16.4077 31.5179C17.0279 34.9606 18.2838 38.201 20.1414 41.1501C20.4854 41.697 21.0471 42.0775 21.6824 42.1948C22.3237 42.3128 22.9917 42.1552 23.519 41.7593L23.5493 41.7369C24.5971 40.9585 26.056 41.0627 27.0181 41.9853L34.3995 49.0616C35.3001 49.9253 35.3173 51.3821 34.727 52.4179C33.6913 54.2221 31.5447 55.4316 29.5458 55.7708C27.5104 56.1155 25.4547 55.6573 23.7581 54.4788C22.5896 53.6673 21.3237 55.486 22.4939 56.2988C24.1974 57.4818 26.1826 58.0996 28.2169 58.0996C28.7811 58.0996 29.3497 58.0518 29.9159 57.9559C32.5698 57.5056 35.2836 55.8991 36.6489 53.5214L36.6744 53.4771C37.7579 51.5892 37.5381 49.0007 35.9334 47.462Z" fill="currentColor"/>
<path d="M39.9455 11.9238C33.3711 11.9238 28.023 17.2722 28.023 23.847C28.023 24.4215 28.0647 25 28.1476 25.5714L26.171 31.9924C25.9629 32.6677 26.4764 33.3883 27.1717 33.4248L33.2989 33.7457C35.2672 35.0711 37.5582 35.7698 39.9455 35.7698C46.5199 35.7698 51.8687 30.421 51.8687 23.847C51.8687 17.2722 46.5199 11.9238 39.9455 11.9238ZM39.9455 33.5534C37.9118 33.5534 35.9645 32.9312 34.3143 31.7537C34.1427 31.6312 33.9394 31.56 33.7292 31.5493L28.7069 31.2858L30.3409 25.9791C30.5328 25.3557 30.2394 24.4951 30.2394 23.847C30.2394 18.4944 34.5933 14.1405 39.9455 14.1405C45.2977 14.1405 49.652 18.4944 49.652 23.847C49.652 29.1988 45.2977 33.5534 39.9455 33.5534Z" fill="currentColor"/>
<path d="M35.9218 23.0513C35.3191 23.0513 34.8135 23.5569 34.8135 24.1593C34.8135 24.7619 35.3195 25.268 35.9218 25.268C36.5066 25.268 37.002 24.7908 37.0278 24.2078C37.0549 23.5872 36.5441 23.0513 35.9218 23.0513Z" fill="currentColor"/>
<path d="M19.5136 51.6221C18.9109 51.6221 18.4053 52.1281 18.4053 52.7301C18.4053 53.3324 18.9113 53.8384 19.5136 53.8384C20.0984 53.8384 20.5938 53.362 20.6196 52.7786C20.6467 52.159 20.1349 51.6221 19.5136 51.6221Z" fill="currentColor"/>
<path d="M40.2809 23.0513C39.6772 23.0513 39.1729 23.5556 39.1729 24.1593C39.1729 24.7626 39.6782 25.268 40.2809 25.268C40.8664 25.2673 41.3604 24.7915 41.3858 24.2078C41.413 23.5872 40.9042 23.0513 40.2809 23.0513Z" fill="currentColor"/>
<path d="M44.6393 23.0513C44.0369 23.0513 43.5312 23.5569 43.5312 24.1593C43.5316 24.7619 44.0376 25.268 44.6393 25.268C45.2247 25.268 45.7194 24.7908 45.7452 24.2078C45.7731 23.5872 45.2622 23.0513 44.6393 23.0513Z" fill="currentColor"/>
</svg>
