<svg width="67" height="67" viewBox="0 0 67 67" xmlns="http://www.w3.org/2000/svg">
<path d="M50.8802 22.1472C50.3712 21.6342 49.5427 21.6308 49.0296 22.1397C48.5167 22.6488 48.5133 23.4774 49.0223 23.9905L49.0302 23.9986C49.2849 24.2555 49.6189 24.3835 49.9532 24.3835C50.2867 24.3835 50.6206 24.256 50.8768 24.0019C51.3899 23.4928 51.3893 22.6603 50.8802 22.1472Z" fill="currentColor"/>
<path d="M66.6172 37.8839L54.4632 25.7299C53.9522 25.2191 53.1236 25.2191 52.6125 25.7299C52.1015 26.2409 52.1015 27.0695 52.6125 27.5807L62.261 37.2291H39.2527C37.344 37.2291 35.7913 35.6763 35.7913 33.7677V10.7595L45.1063 20.0743C45.6173 20.5852 46.4459 20.5852 46.957 20.0743C47.468 19.5633 47.468 18.7347 46.957 18.2236L35.1365 6.40318C34.6255 5.8923 33.7969 5.8923 33.2859 6.40318L12.4243 27.2652C11.9133 27.7762 11.9133 28.6048 12.4243 29.1159L43.905 60.5965C44.1503 60.8419 44.4832 60.9798 44.8303 60.9798C45.1773 60.9798 45.5102 60.8419 45.7556 60.5965L66.6173 39.7346C66.8627 39.4891 67.0006 39.1564 67.0006 38.8093C67.0005 38.4623 66.8626 38.1294 66.6172 37.8839ZM33.1744 10.2163V26.882H16.5087L33.1744 10.2163ZM43.5217 56.5118L16.5087 29.4991H33.1744V33.7677C33.1744 37.1194 35.9012 39.8462 39.2529 39.8462H43.5217V56.5118ZM46.1387 56.512V39.8462H62.8043L46.1387 56.512Z" fill="currentColor"/>
<path d="M8.98101 33.2383H1.30859C0.585857 33.2383 0 33.8243 0 34.5469C0 35.2695 0.585857 35.8555 1.30859 35.8555H8.98101C9.70375 35.8555 10.2896 35.2696 10.2896 34.5469C10.2896 33.8243 9.70375 33.2383 8.98101 33.2383Z" fill="currentColor"/>
<path d="M12.8829 33.2383H12.8633C12.1405 33.2383 11.5547 33.8243 11.5547 34.5469C11.5547 35.2695 12.1405 35.8555 12.8633 35.8555H12.8829C13.6056 35.8555 14.1915 35.2695 14.1915 34.5469C14.1915 33.8243 13.6056 33.2383 12.8829 33.2383Z" fill="currentColor"/>
<path d="M5.49844 19.498H1.31055C0.587811 19.498 0.00195312 20.084 0.00195312 20.8066C0.00195312 21.5292 0.587811 22.1152 1.31055 22.1152H5.49844C6.22118 22.1152 6.80703 21.5292 6.80703 20.8066C6.80703 20.084 6.22118 19.498 5.49844 19.498Z" fill="currentColor"/>
<path d="M14.7226 19.498H9.77246C9.04972 19.498 8.46387 20.084 8.46387 20.8066C8.46387 21.5292 9.04972 22.1152 9.77246 22.1152H14.7226C15.4453 22.1152 16.0312 21.5292 16.0312 20.8066C16.0312 20.084 15.4453 19.498 14.7226 19.498Z" fill="currentColor"/>
<path d="M17.5721 40.4351H10.2441C9.52134 40.4351 8.93549 41.021 8.93549 41.7437C8.93549 42.4663 9.52134 43.0522 10.2441 43.0522H17.5721C18.2948 43.0522 18.8807 42.4663 18.8807 41.7437C18.8807 41.021 18.2947 40.4351 17.5721 40.4351Z" fill="currentColor"/>
<path d="M23.294 48.8101H4.84296C4.12022 48.8101 3.53436 49.396 3.53436 50.1187C3.53436 50.8413 4.12022 51.4272 4.84296 51.4272H23.294C24.0167 51.4272 24.6026 50.8413 24.6026 50.1187C24.6026 49.396 24.0167 48.8101 23.294 48.8101Z" fill="currentColor"/>
</svg>
