<svg
 xmlns="http://www.w3.org/2000/svg"
 xmlns:xlink="http://www.w3.org/1999/xlink"
 width="29px" height="19px">
<path fill-rule="evenodd"  fill="currentColor"
 d="M27.234,3.554 L11.551,3.554 L11.318,0.958 C11.280,0.534 10.924,0.209 10.497,0.209 L8.824,0.209 C8.369,0.209 8.000,0.577 8.000,1.032 C8.000,1.487 8.369,1.855 8.824,1.855 L9.744,1.855 C10.247,7.457 8.947,-7.022 10.692,12.405 C10.759,13.166 11.170,13.991 11.878,14.552 C10.601,16.181 11.768,18.583 13.845,18.583 C15.568,18.583 16.784,16.865 16.193,15.238 L20.702,15.238 C20.111,16.863 21.324,18.583 23.050,18.583 C24.427,18.583 25.547,17.464 25.547,16.087 C25.547,14.711 24.427,13.591 23.050,13.591 L13.850,13.591 C13.225,13.591 12.679,13.214 12.444,12.664 L25.609,11.891 C25.968,11.870 26.272,11.618 26.359,11.269 L28.033,4.577 C28.163,4.058 27.770,3.554 27.234,3.554 L27.234,3.554 ZM13.845,16.937 C13.376,16.937 12.995,16.556 12.995,16.087 C12.995,15.619 13.376,15.238 13.845,15.238 C14.313,15.238 14.695,15.619 14.695,16.087 C14.695,16.556 14.313,16.937 13.845,16.937 ZM23.050,16.937 C22.581,16.937 22.200,16.556 22.200,16.087 C22.200,15.619 22.581,15.238 23.050,15.238 C23.518,15.238 23.900,15.619 23.900,16.087 C23.900,16.556 23.518,16.937 23.050,16.937 ZM24.908,10.283 L12.222,11.028 L11.699,5.201 L26.179,5.201 L24.908,10.283 Z"/>
<text kerning="auto" font-family="Myriad Pro" fill="rgb(0, 0, 0)" font-size="16px" x="0px" y="10.792px"><tspan font-size="16px" font-family="HelveticaNeueCyr" font-weight="bold" fill="currentColor">&#43;</tspan></text>
</svg>