<?xml version="1.0" encoding="utf-8"?>
<!-- Generator: Adobe Illustrator 19.0.0, SVG Export Plug-In . SVG Version: 6.00 Build 0)  -->
<svg version="1.1" id="Слой_1" xmlns="http://www.w3.org/2000/svg" xmlns:xlink="http://www.w3.org/1999/xlink" x="0px" y="0px"
	 viewBox="40 -35 110 100" style="enable-background:new 40 -35 110 100;" xml:space="preserve">
	<path d="M94.5-29l-48,19v48l48,22l48-22v-48L94.5-29z M94.5-23l38.9,15.4l-15.3,6.5L80.6-17.5
		L94.5-23z M91.5,52.6l-39-18.2V-2.7l39,17.4V52.6z M55.6-7.6l17.2-6.8L110,2.4L94.5,9L55.6-7.6z M136.5,34.4l-39,18.2V14.7
		l39-17.4V34.4z M79.1,32l4.8,3V24.7h2.6l-5-6.7l-6,3.7l3.6,1C79.1,22.7,79.1,32,79.1,32z M58.1,22l4.8,3V14.7h2.6l-5-6.7l-6,3.7
		l3.6,1C58.1,12.7,58.1,22,58.1,22z M131.9,4.4V1.6l-15,7v2.8L131.9,4.4z M131.9,5.6l-15,7v2.8l15-7V5.6z M117.2,21.5v0.9l1.6-0.7
		c0.1,0,0.1,0,0.2,0l0.1,0.1l0.1,4.9l0.4-0.2l0.4-0.2l0-4.9c0-0.1,0-0.1,0.1-0.2c0-0.1,0.1-0.1,0.2-0.2l1.6-0.7v-0.9L117.2,21.5z
		 M101.9,32.5c0.1-1,0.8-2.1,1.7-2.7c0.5-0.4,0.9-1,1-1.6c0.1-0.6-0.2-1.1-0.7-1.1c-0.5-0.1-1.1,0.3-1.5,0.8
		c-0.4,0.6-0.6,1.2-0.4,1.7c0.3,0.8,0.1,1.9-0.7,2.9C101.6,32.5,101.7,32.5,101.9,32.5z M129,16c-0.2-0.1-0.5,0-0.7,0.2
		c-0.2,0.3-0.2,0.6,0,0.7l1.9,1.5l-1.8,3.3c-0.2,0.3-0.1,0.6,0.1,0.6c0.1,0,0.2,0,0.3,0c0.1-0.1,0.3-0.2,0.4-0.3l1.7-3.1l1.8,1.4
		c0.1,0.1,0.2,0.1,0.4,0c0.1,0,0.2-0.1,0.3-0.2c0.2-0.3,0.2-0.6,0-0.7l-1.9-1.5l1.8-3.3c0.2-0.3,0.1-0.6-0.1-0.6
		c-0.2-0.1-0.5,0.1-0.7,0.4l-1.7,3.1L129,16z M114.9,27.8c0.6,0.3,1.6,0.2,2.3-0.2l0.1-0.1V27v-0.5l-0.1,0.1
		c-0.5,0.3-1.3,0.4-1.7,0.2c-0.4-0.2-0.6-0.7-0.6-1.2l-0.1-3l-0.4,0.2L114,23l0.1,3C114,26.9,114.3,27.5,114.9,27.8z M127,21.4
		c-0.5,0.9-1.3,1.5-2,1.7c-0.8,0.2-1.4-0.2-1.6-0.9l3.6-1.7V20v-0.5l-3.6,1.7c0.1-0.9,0.7-1.8,1.5-2.3s1.6-0.6,2.1-0.2l0.3-0.5
		l0.3-0.5c-0.8-0.6-2.1-0.3-3.2,0.6c-1.1,1-1.9,2.5-1.8,3.7c0,1.3,0.8,2,2,2c1.1-0.1,2.4-1,3.2-2.4l-0.3-0.2L127,21.4z M109.8,30.9
		c1.1-0.1,2.4-1,3.2-2.4l-0.3-0.2l-0.3-0.2c-0.5,0.9-1.3,1.5-2,1.7c-0.8,0.2-1.4-0.2-1.6-0.9l3.5-1.6v-0.5v-0.5l-3.5,1.6
		c0.1-0.9,0.7-1.8,1.5-2.3s1.6-0.6,2.1-0.2l0.3-0.5l0.3-0.5c-0.8-0.6-2.1-0.3-3.2,0.6c-1.1,1-1.9,2.5-1.8,3.7
		C107.9,30.2,108.7,31,109.8,30.9z M100.4,36c0.5,0,1.1-0.5,1.4-1.1c0.6-1,1.6-1.7,2.4-1.7c0-0.2,0-0.4,0-0.6
		c-0.8,0.8-1.9,1-2.5,0.6c-0.4-0.3-0.9-0.2-1.5,0.3c-0.5,0.4-0.8,1.1-0.8,1.7C99.5,35.7,99.9,36,100.4,36z M104,30
		c0.8,0.2,1.1,1.1,0.8,2.2c-0.2,0.6,0,1.2,0.4,1.3c0.4,0.2,1-0.1,1.5-0.6s0.7-1.2,0.6-1.7s-0.5-0.8-1.1-0.6
		c-0.9,0.3-1.6-0.2-1.8-1.1C104.3,29.7,104.1,29.9,104,30z"/>
</svg>
