<svg
 xmlns="http://www.w3.org/2000/svg"
 xmlns:xlink="http://www.w3.org/1999/xlink"
 width="120px" height="89px">
<path fill-rule="evenodd" d="M108.000,38.500 L108.000,67.000 L60.000,89.000 L12.000,67.000 L12.000,38.500 L-0.000,33.000 L12.000,19.000 L60.000,-0.000 L108.000,19.000 L120.000,33.000 L108.000,38.500 ZM102.000,63.400 L102.000,41.250 L72.000,55.000 L63.000,44.500 L63.000,81.600 L102.000,63.400 ZM18.000,63.400 L57.000,81.600 L57.000,44.500 L50.657,51.900 L52.000,53.700 L49.400,53.700 L49.400,64.000 L44.600,61.000 L44.600,53.442 L28.400,46.017 L28.400,54.000 L23.600,51.000 L23.600,43.816 L18.000,41.250 L18.000,63.400 ZM8.000,31.000 L12.000,32.830 L12.000,27.000 L8.000,31.000 ZM18.000,35.574 L23.920,38.282 L26.000,37.000 L28.531,40.392 L45.287,48.056 L46.163,47.516 L51.373,41.189 L18.000,26.300 L18.000,35.574 ZM60.000,6.000 L21.100,21.400 L60.000,38.000 L98.900,21.400 L60.000,6.000 ZM68.627,41.189 L74.400,48.200 L84.000,43.808 L84.000,41.000 L99.000,33.900 L99.000,36.800 L89.760,41.173 L102.000,35.574 L102.000,26.300 L68.627,41.189 ZM108.000,32.830 L112.000,31.000 L108.000,27.000 L108.000,32.830 ZM84.000,37.000 L99.000,29.900 L99.000,32.700 L84.000,39.800 L84.000,37.000 ZM67.200,62.200 C67.800,62.600 68.900,62.400 69.700,61.600 C69.700,61.800 69.700,62.000 69.700,62.200 C68.900,62.200 67.900,62.900 67.300,63.900 C67.000,64.500 66.400,65.000 65.900,65.000 C65.400,65.000 65.000,64.700 64.900,64.200 C64.900,63.600 65.200,62.900 65.700,62.500 C66.300,62.000 66.800,61.900 67.200,62.200 ZM69.500,59.000 C69.600,58.900 69.800,58.700 69.900,58.500 C70.100,59.400 70.800,59.900 71.700,59.600 C72.300,59.400 72.700,59.700 72.800,60.200 C72.900,60.700 72.700,61.400 72.200,61.900 C71.700,62.400 71.100,62.700 70.700,62.500 C70.300,62.400 70.100,61.800 70.300,61.200 C70.600,60.100 70.300,59.200 69.500,59.000 ZM78.500,53.400 L78.200,53.900 L77.900,54.400 C77.400,54.000 76.600,54.100 75.800,54.600 C75.000,55.100 74.400,56.000 74.300,56.900 L77.800,55.300 L77.800,55.800 L77.800,56.300 L74.300,57.900 C74.500,58.600 75.100,59.000 75.900,58.800 C76.600,58.600 77.400,58.000 77.900,57.100 L78.200,57.300 L78.500,57.500 C77.700,58.900 76.400,59.800 75.300,59.900 C74.200,60.000 73.400,59.200 73.500,57.700 C73.400,56.500 74.200,55.000 75.300,54.000 C76.400,53.100 77.700,52.800 78.500,53.400 ZM79.900,51.800 L80.300,51.600 L80.400,54.600 C80.400,55.100 80.600,55.600 81.000,55.800 C81.400,56.000 82.200,55.900 82.700,55.600 L82.800,55.500 L82.800,56.000 L82.800,56.500 L82.700,56.600 C82.000,57.000 81.000,57.100 80.400,56.800 C79.800,56.500 79.500,55.900 79.600,55.000 L79.500,52.000 L79.900,51.800 ZM82.800,50.500 L87.400,48.400 L87.400,49.300 L85.800,50.000 C85.700,50.100 85.600,50.100 85.600,50.200 C85.500,50.300 85.500,50.300 85.500,50.400 L85.600,55.300 L85.200,55.500 L84.800,55.700 L84.700,50.800 L84.600,50.700 C84.500,50.700 84.500,50.700 84.400,50.700 L82.800,51.400 L82.800,50.500 ZM93.100,46.700 L92.800,47.200 L92.500,47.700 C92.000,47.300 91.200,47.400 90.400,47.900 C89.600,48.400 89.000,49.300 88.900,50.200 L92.500,48.500 L92.500,49.000 L92.500,49.500 L88.900,51.200 C89.100,51.900 89.700,52.300 90.500,52.100 C91.200,51.900 92.000,51.300 92.500,50.400 L93.000,50.400 L93.300,50.600 C92.500,52.000 91.200,52.900 90.100,53.000 C88.900,53.000 88.100,52.300 88.100,51.000 C88.000,49.800 88.800,48.300 89.900,47.300 C91.000,46.400 92.300,46.100 93.100,46.700 ZM94.500,45.000 L96.200,46.500 L97.900,43.400 C98.100,43.100 98.400,42.900 98.600,43.000 C98.800,43.000 98.900,43.300 98.700,43.600 L96.900,46.900 L98.900,48.400 C99.100,48.500 99.100,48.800 98.900,49.100 C98.800,49.200 98.700,49.300 98.600,49.300 C98.400,49.400 98.300,49.400 98.200,49.300 L96.400,47.900 L94.700,51.000 C94.600,51.100 94.400,51.200 94.300,51.300 C94.200,51.300 94.100,51.300 94.000,51.300 C93.800,51.300 93.700,51.000 93.900,50.700 L95.700,47.400 L93.800,45.900 C93.600,45.800 93.600,45.500 93.800,45.200 C94.000,45.000 94.300,44.900 94.500,45.000 ZM69.100,58.800 C68.200,59.400 67.500,60.500 67.400,61.500 C67.200,61.500 67.100,61.500 66.800,61.500 C67.600,60.500 67.800,59.400 67.500,58.600 C67.300,58.100 67.500,57.500 67.900,56.900 C68.300,56.400 68.900,56.000 69.400,56.100 C69.900,56.100 70.200,56.600 70.100,57.200 C70.000,57.800 69.600,58.400 69.100,58.800 Z"/>
<path fill-rule="evenodd"  fill="rgb(255, 255, 255)"
 d="M7.000,31.000 C7.000,31.000 45.500,49.000 45.000,49.000 C44.500,49.000 53.000,40.000 53.000,40.000 L14.000,24.000 L7.000,31.000 ZM106.000,24.000 L67.000,40.000 C67.000,40.000 75.500,49.000 75.000,49.000 C74.500,49.000 113.000,31.000 113.000,31.000 L106.000,24.000 Z"/>
</svg>