<svg xmlns="http://www.w3.org/2000/svg" viewBox="0 0 32 29.93"><path d="M38.19,22.87l-.75-2.8-8.55,2.29a4,4,0,0,0-7.36,2l-9.25,2.48.75,2.8,9.52-2.55a3.94,3.94,0,0,0,6.81-1.83Z" transform="translate(-9.5 -20.07)" fill="currentColor" fill-rule="evenodd"/><path d="M10.5,42.27a6.7,6.7,0,1,0,13.4,0c0-3.71-6.7-11.85-6.7-11.85S10.5,38.56,10.5,42.27ZM33.8,26s-6.7,8.13-6.7,11.85a6.7,6.7,0,1,0,13.4,0C40.5,34.14,33.8,26,33.8,26Z" transform="translate(-9.5 -20.07)" fill="none" stroke="currentColor" stroke-miterlimit="10" stroke-width="2"/><path d="M10.5,43.5v-2h13v2Z" transform="translate(-9.5 -20.07)" fill="currentColor" fill-rule="evenodd"/><path d="M27.5,38.5v-2h13v2Z" transform="translate(-9.5 -20.07)" fill="currentColor" fill-rule="evenodd"/></svg>