<?xml version="1.0" encoding="utf-8"?>
<!-- Generator: Adobe Illustrator 19.0.0, SVG Export Plug-In . SVG Version: 6.00 Build 0)  -->
<svg version="1.1" id="Слой_1" xmlns="http://www.w3.org/2000/svg" xmlns:xlink="http://www.w3.org/1999/xlink" x="0px" y="0px"
	 viewBox="228 -229 512 512" style="enable-background:new 228 -229 512 512;" xml:space="preserve">
<path d="M444.7,187c-50,0-90.7-40.7-90.7-90.7v-218.7h-37.3c-32.4,0-58.7,26.3-58.7,58.7v288
	c0,32.4,26.3,58.7,58.7,58.7h243.7c32.4,0,58.7-26.3,58.7-58.7V187H444.7z"/>
<path d="M704.3-170.3c0-32.4-26.3-58.7-58.7-58.7h-201c-32.4,0-58.7,26.3-58.7,58.7V96.3
	c0,32.4,26.3,58.7,58.7,58.7h201c32.4,0,58.7-26.3,58.7-58.7V-170.3z"/>
</svg>
