<svg width="35" height="23" viewBox="0 0 35 23" xmlns="http://www.w3.org/2000/svg">
<path d="M11.0006 11.647C6.02999 11.647 0.714844 16.2821 0.714844 21.9999H21.2863C21.2863 16.2821 15.9711 11.647 11.0006 11.647Z" stroke="currentColor" stroke-linecap="round" stroke-linejoin="round" fill="none"/>
<path d="M11.0003 11.3529C13.8406 11.3529 16.1431 9.03536 16.1431 6.17647C16.1431 3.31758 13.8406 1 11.0003 1C8.15996 1 5.85742 3.31758 5.85742 6.17647C5.85742 9.03536 8.15996 11.3529 11.0003 11.3529Z" stroke="currentColor" stroke-linecap="round" stroke-linejoin="round" fill="none"/>
<path d="M17 11.647C21.9706 11.647 27.2857 16.2821 27.2857 21.9999H23.9994" stroke="currentColor" stroke-linecap="round" stroke-linejoin="round" fill="none"/>
<path d="M17 11.3529C19.8403 11.3529 22.1429 9.03536 22.1429 6.17647C22.1429 3.31758 19.8403 1 17 1" stroke="currentColor" stroke-linecap="round" stroke-linejoin="round" fill="none"/>
<path d="M24 11.647C28.9706 11.647 34.2857 16.2821 34.2857 21.9999H30.9994" stroke="currentColor" stroke-linecap="round" stroke-linejoin="round" fill="none"/>
<path d="M24 11.3529C26.8403 11.3529 29.1429 9.03536 29.1429 6.17647C29.1429 3.31758 26.8403 1 24 1" stroke="currentColor" stroke-linecap="round" stroke-linejoin="round" fill="none"/>
</svg>
