<svg xmlns="http://www.w3.org/2000/svg" viewBox="0 0 456.03 434.69">
  <path d="M345.6,338.86a53.25,53.25,0,1,0,53.25,53.25C398.34,362.93,374.78,338.86,345.6,338.86Z" transform="translate(0 -10.67)"/>
  <path d="M439.3,84.91c-1,0-2.56-.51-4.1-.51H112.64l-5.12-34.31A45.85,45.85,0,0,0,62,10.67H20.48a20.48,20.48,0,0,0,0,41H62a5.44,5.44,0,0,1,5.12,4.61L98.82,272.3a56.12,56.12,0,0,0,55.29,47.62h213c26.63,0,49.67-18.95,55.3-45.06l33.28-166.4A20.24,20.24,0,0,0,439.3,84.91Z" transform="translate(0 -10.67)"/>
  <path d="M215,389.55c-1-28.16-24.58-50.69-52.74-50.69a53.56,53.56,0,0,0-51.2,55.3,52.49,52.49,0,0,0,52.23,50.69h1C193.54,443.31,216.58,418.73,215,389.55Z" transform="translate(0 -10.67)"/>
</svg>
