<svg xmlns="http://www.w3.org/2000/svg" viewBox="0 0 170 97">
  <path d="M165.83,85.61h-9.32a13.9,13.9,0,0,1-27.34,0h-50a13.9,13.9,0,0,1-27.34,0H39.13A4.28,4.28,0,0,1,35,81.26V66.09H18.71a4.35,4.35,0,0,1,0-8.7H39.16a4.27,4.27,0,0,1,4.17,4.35v15.2h8.25a3.47,3.47,0,0,1,.9.11,13.79,13.79,0,0,1,26-.08,3,3,0,0,1,.52,0h39.3V8.7h-75V23.87a4.27,4.27,0,0,1-4.17,4.35H18.71a4.36,4.36,0,0,1,0-8.71H35V4.35A4.28,4.28,0,0,1,39.13,0h83.33a4.28,4.28,0,0,1,4.17,4.35v9.87h17.49a24.16,24.16,0,0,1,18.4,8c4.87,5.52,7.48,13.42,7.48,22.82V81.26A4.28,4.28,0,0,1,165.83,85.61ZM65.49,76.5a5.92,5.92,0,1,0,5.67,5.92A5.8,5.8,0,0,0,65.49,76.5Zm77.35,11.83a5.92,5.92,0,1,0-5.67-5.91A5.85,5.85,0,0,0,142.84,88.33Zm18.81-43.2c0-13.9-6.54-22.21-17.49-22.21H126.67v54h3.19a13.78,13.78,0,0,1,25.95,0h5.84ZM72.2,35a4.5,4.5,0,0,1,0-6.17,4.06,4.06,0,0,1,5.91,0L88.34,39.54l0,0c.07.1.18.18.25.29s.07.1.1.18a.59.59,0,0,1,.14.18l.1.21c0,.08.07.11.11.19l.1.21c0,.08,0,.11.07.19a1.72,1.72,0,0,1,.07.21s0,.11.07.18,0,.15,0,.22,0,.15,0,.22,0,.18,0,.25a.4.4,0,0,1,0,.18,3.24,3.24,0,0,1,0,.88c0,.07,0,.11,0,.18s0,.18,0,.25,0,.15,0,.22a.45.45,0,0,1,0,.22s0,.11-.07.18,0,.14-.07.22,0,.1-.07.18l-.1.21c0,.08-.07.11-.11.19l-.1.21a.77.77,0,0,0-.14.19c0,.07-.07.1-.1.18s-.18.18-.25.29l0,0L77.59,57.13a4.13,4.13,0,0,1-3,1.27,4.08,4.08,0,0,1-3-1.27,4.47,4.47,0,0,1,0-6.16l3.58-4H4.17a4.35,4.35,0,0,1,0-8.7H75.3Z" transform="translate(0 0)" fill-rule="evenodd"/>
</svg>
