<svg
 xmlns="http://www.w3.org/2000/svg"
 xmlns:xlink="http://www.w3.org/1999/xlink"
 width="75px" height="75px">
<path fill-rule="evenodd" d="M75.000,37.501 C75.000,58.177 58.176,75.000 37.500,75.000 C16.824,75.000 -0.000,58.177 -0.000,37.501 C-0.000,37.501 -0.000,37.501 -0.000,37.500 C-0.000,37.500 -0.000,37.499 -0.000,37.499 C-0.000,37.499 -0.000,37.499 -0.000,37.499 C-0.000,37.499 -0.000,37.498 -0.000,37.498 C-0.000,37.213 0.004,36.927 0.011,36.642 C0.013,36.561 0.015,36.480 0.017,36.398 C0.024,36.171 0.032,35.943 0.043,35.716 C0.046,35.652 0.048,35.588 0.052,35.524 C0.066,35.255 0.083,34.987 0.103,34.719 C0.110,34.621 0.119,34.524 0.126,34.427 C0.141,34.243 0.158,34.060 0.176,33.876 C0.186,33.769 0.196,33.662 0.207,33.555 C0.233,33.306 0.261,33.057 0.293,32.808 C0.307,32.696 0.323,32.584 0.338,32.473 C0.359,32.315 0.381,32.157 0.404,31.999 C0.423,31.870 0.443,31.742 0.463,31.614 C0.488,31.459 0.514,31.304 0.540,31.149 C0.571,30.973 0.602,30.796 0.635,30.620 C0.667,30.448 0.699,30.275 0.734,30.103 C0.759,29.977 0.786,29.852 0.812,29.727 C0.844,29.578 0.876,29.429 0.910,29.280 C0.936,29.165 0.961,29.049 0.988,28.935 C1.045,28.692 1.104,28.450 1.166,28.209 C1.188,28.121 1.212,28.034 1.235,27.946 C1.284,27.760 1.334,27.574 1.386,27.389 C1.410,27.302 1.435,27.215 1.460,27.128 C1.531,26.881 1.604,26.635 1.680,26.389 C1.684,26.378 1.687,26.366 1.691,26.355 C1.778,26.075 1.869,25.796 1.963,25.518 C1.972,25.490 1.982,25.463 1.991,25.435 C2.962,22.580 4.279,19.839 5.928,17.270 C5.966,17.211 6.007,17.156 6.049,17.102 C12.100,7.804 22.157,1.342 33.753,0.187 C33.783,0.183 33.812,0.176 33.842,0.173 C34.712,0.090 35.592,0.037 36.478,0.014 C36.499,0.014 36.520,0.013 36.540,0.012 C36.859,0.004 37.179,-0.000 37.500,-0.000 C37.786,-0.000 38.071,0.004 38.356,0.011 C38.438,0.013 38.520,0.015 38.602,0.017 C38.828,0.024 39.054,0.032 39.279,0.043 C39.345,0.046 39.411,0.048 39.477,0.052 C39.744,0.066 40.011,0.083 40.278,0.103 C40.378,0.110 40.478,0.119 40.578,0.127 C40.758,0.142 40.937,0.158 41.115,0.175 C41.226,0.185 41.338,0.196 41.448,0.208 C41.695,0.234 41.941,0.261 42.187,0.292 C42.306,0.307 42.424,0.324 42.542,0.340 C42.692,0.360 42.842,0.381 42.992,0.403 C43.126,0.423 43.259,0.443 43.393,0.464 C43.537,0.487 43.681,0.511 43.825,0.536 C44.026,0.570 44.226,0.606 44.427,0.644 C44.580,0.673 44.734,0.701 44.887,0.732 C45.021,0.759 45.154,0.787 45.287,0.815 C45.425,0.844 45.562,0.874 45.699,0.905 C45.824,0.933 45.949,0.961 46.074,0.990 C46.310,1.046 46.546,1.103 46.781,1.163 C46.881,1.189 46.981,1.216 47.081,1.242 C47.252,1.287 47.423,1.334 47.594,1.381 C47.691,1.409 47.788,1.436 47.885,1.464 C48.111,1.529 48.336,1.596 48.560,1.665 C48.591,1.675 48.623,1.684 48.655,1.694 C48.926,1.778 49.197,1.867 49.466,1.958 C49.507,1.972 49.547,1.986 49.588,2.000 C49.847,2.088 50.106,2.179 50.363,2.273 C50.371,2.276 50.380,2.279 50.389,2.282 C52.947,3.220 55.409,4.438 57.730,5.928 C57.791,5.967 57.849,6.010 57.906,6.053 C67.200,12.105 73.658,22.160 74.813,33.754 C74.817,33.783 74.824,33.811 74.826,33.841 C74.910,34.708 74.962,35.584 74.985,36.468 C74.986,36.492 74.987,36.516 74.988,36.539 C74.996,36.856 75.000,37.172 75.000,37.490 C75.000,37.493 75.000,37.496 75.000,37.499 C75.000,37.499 75.000,37.499 75.000,37.499 C75.000,37.499 75.000,37.499 75.000,37.499 C75.000,37.499 75.000,37.500 75.000,37.500 C75.000,37.501 75.000,37.501 75.000,37.501 ZM69.886,37.442 C69.885,37.187 69.882,36.932 69.876,36.679 C69.875,36.625 69.872,36.572 69.870,36.519 C69.864,36.292 69.856,36.066 69.844,35.841 C69.844,35.828 69.843,35.814 69.842,35.801 C69.271,24.812 63.197,15.256 54.331,9.840 C54.289,9.815 54.248,9.790 54.206,9.765 C54.038,9.663 53.868,9.563 53.698,9.464 C53.652,9.437 53.607,9.411 53.561,9.385 C53.358,9.268 53.154,9.154 52.948,9.042 C52.904,9.018 52.860,8.994 52.816,8.971 C52.659,8.886 52.502,8.803 52.343,8.721 C52.259,8.678 52.175,8.635 52.090,8.592 C51.969,8.530 51.847,8.470 51.725,8.410 C51.633,8.365 51.540,8.319 51.447,8.274 C51.268,8.188 51.089,8.104 50.908,8.022 C50.782,7.965 50.655,7.909 50.529,7.853 C50.455,7.821 50.382,7.788 50.308,7.756 C50.169,7.696 50.030,7.637 49.890,7.579 C49.848,7.562 49.806,7.545 49.763,7.527 C45.892,5.940 41.735,5.116 37.500,5.116 C23.552,5.116 11.634,13.980 7.085,26.371 C7.082,26.377 7.080,26.383 7.078,26.389 C6.995,26.616 6.915,26.844 6.837,27.073 C6.827,27.101 6.817,27.130 6.807,27.158 C6.727,27.397 6.649,27.636 6.574,27.877 C6.571,27.885 6.569,27.892 6.567,27.900 C6.500,28.115 6.436,28.332 6.373,28.550 C6.353,28.620 6.333,28.690 6.313,28.760 C6.266,28.930 6.219,29.101 6.174,29.272 C6.157,29.337 6.139,29.403 6.123,29.468 C6.067,29.683 6.015,29.899 5.964,30.115 C5.944,30.202 5.925,30.289 5.905,30.375 C5.873,30.520 5.841,30.665 5.810,30.810 C5.790,30.906 5.770,31.002 5.751,31.098 C5.714,31.280 5.679,31.462 5.645,31.645 C5.626,31.751 5.608,31.857 5.589,31.963 C5.562,32.120 5.536,32.278 5.511,32.436 C5.495,32.534 5.480,32.632 5.466,32.730 C5.443,32.886 5.421,33.042 5.400,33.199 C5.389,33.278 5.378,33.357 5.368,33.437 C5.340,33.659 5.315,33.883 5.291,34.107 C5.283,34.188 5.275,34.269 5.267,34.349 C5.251,34.522 5.235,34.695 5.221,34.868 C5.215,34.941 5.209,35.015 5.203,35.088 C5.186,35.325 5.170,35.563 5.158,35.801 C5.156,35.848 5.154,35.895 5.152,35.941 C5.142,36.146 5.134,36.351 5.128,36.557 C5.126,36.623 5.125,36.689 5.123,36.754 C5.117,37.002 5.114,37.251 5.114,37.500 C5.114,37.536 5.115,37.571 5.115,37.606 C5.116,37.849 5.118,38.092 5.124,38.334 C5.128,38.504 5.137,38.673 5.144,38.842 C5.148,38.949 5.150,39.056 5.156,39.163 C5.169,39.429 5.186,39.693 5.206,39.957 C5.207,39.967 5.207,39.977 5.208,39.986 C6.290,54.164 16.544,65.817 30.032,69.013 C30.086,69.026 30.140,69.041 30.195,69.053 C30.329,69.084 30.465,69.112 30.599,69.141 C30.727,69.169 30.854,69.199 30.982,69.225 C31.675,69.367 32.377,69.485 33.086,69.582 C33.260,69.606 33.434,69.628 33.608,69.649 C33.897,69.684 34.188,69.715 34.480,69.742 C35.475,69.835 36.482,69.884 37.500,69.884 C38.507,69.884 39.502,69.836 40.486,69.745 C40.789,69.717 41.091,69.686 41.392,69.649 C41.566,69.628 41.740,69.606 41.914,69.582 C42.623,69.485 43.325,69.367 44.019,69.225 C44.045,69.220 44.070,69.213 44.096,69.208 C44.785,69.065 45.465,68.899 46.137,68.713 C46.331,68.659 46.525,68.603 46.718,68.546 C47.361,68.354 47.997,68.145 48.624,67.916 C48.645,67.908 48.667,67.899 48.688,67.891 C49.410,67.625 50.119,67.334 50.815,67.019 C50.830,67.012 50.844,67.005 50.859,66.998 C61.354,62.227 68.873,52.015 69.792,39.987 C69.794,39.956 69.795,39.926 69.797,39.895 C69.815,39.652 69.832,39.408 69.844,39.163 C69.850,39.043 69.853,38.923 69.858,38.803 C69.864,38.647 69.872,38.491 69.876,38.334 C69.882,38.087 69.884,37.840 69.885,37.592 C69.885,37.561 69.886,37.531 69.886,37.500 C69.886,37.481 69.886,37.461 69.886,37.442 ZM52.852,53.642 C51.831,54.663 50.172,54.667 49.146,53.651 L38.592,42.477 L28.039,53.651 C27.014,54.667 25.355,54.663 24.334,53.642 C23.314,52.621 23.318,50.970 24.343,49.953 L34.997,38.672 L24.340,27.389 C23.314,26.372 23.310,24.721 24.331,23.700 C25.352,22.678 27.011,22.675 28.037,23.691 L38.592,34.866 L49.145,23.691 C50.171,22.675 51.830,22.678 52.850,23.700 C53.871,24.721 53.867,26.372 52.841,27.389 L42.186,38.671 L52.843,49.953 C53.869,50.970 53.873,52.621 52.852,53.642 Z"/>
</svg>