<svg
 xmlns="http://www.w3.org/2000/svg"
 xmlns:xlink="http://www.w3.org/1999/xlink"
 width="22px" height="17px" fill="currentColor">
<path d="M18.857,-0.000 L3.143,-0.000 C1.414,-0.000 -0.000,1.391 -0.000,3.091 L-0.000,13.909 C-0.000,15.609 1.414,17.000 3.143,17.000 L18.857,17.000 C20.586,17.000 22.000,15.609 22.000,13.909 L22.000,3.091 C22.000,1.391 20.586,-0.000 18.857,-0.000 ZM3.614,13.909 L2.514,12.827 L5.657,9.736 L6.757,10.818 L3.614,13.909 ZM2.671,4.636 L3.614,3.400 L11.104,9.293 L18.071,3.863 L19.171,5.100 L11.000,11.436 L2.671,4.636 ZM18.228,13.909 L15.085,10.818 L16.185,9.736 L19.328,12.827 L18.228,13.909 Z"/>
</svg>