<svg
 xmlns="http://www.w3.org/2000/svg"
 xmlns:xlink="http://www.w3.org/1999/xlink"
 width="76px" height="75px">
<path fill-rule="evenodd" d="M64.054,10.967 C49.416,-3.666 25.602,-3.666 10.968,10.963 C-3.670,25.592 -3.668,49.397 10.969,64.029 C25.602,78.657 49.416,78.657 64.052,64.026 C78.688,49.397 78.687,25.594 64.054,10.967 ZM59.958,59.935 C47.580,72.307 27.440,72.309 15.062,59.936 C2.682,47.562 2.683,27.428 15.062,15.056 C27.439,2.685 47.579,2.683 59.959,15.057 C72.337,27.430 72.335,47.564 59.958,59.935 ZM54.482,52.327 C54.947,53.403 54.452,54.651 53.376,55.116 C52.300,55.583 51.052,55.086 50.586,54.011 C48.539,49.281 43.702,46.223 38.260,46.223 C32.693,46.223 27.826,49.278 25.863,54.006 C25.524,54.822 24.734,55.315 23.903,55.315 C23.631,55.315 23.356,55.262 23.089,55.152 C22.006,54.702 21.493,53.460 21.943,52.379 C24.568,46.062 30.973,41.981 38.260,41.981 C45.395,41.981 51.763,46.042 54.482,52.327 ZM23.508,27.341 C23.508,24.920 25.473,22.956 27.896,22.956 C30.318,22.956 32.282,24.919 32.282,27.341 C32.282,29.764 30.318,31.727 27.896,31.727 C25.473,31.727 23.508,29.764 23.508,27.341 ZM43.402,27.341 C43.402,24.920 45.368,22.956 47.791,22.956 C50.212,22.956 52.177,24.919 52.177,27.341 C52.177,29.764 50.213,31.727 47.791,31.727 C45.368,31.727 43.402,29.764 43.402,27.341 Z"/>
</svg>