<svg xmlns="http://www.w3.org/2000/svg" viewBox="0 0 41 36.92"><path d="M34.06,5.3a10,10,0,0,0-7.4-3.22,9.32,9.32,0,0,0-5.81,2A11.68,11.68,0,0,0,18.5,6.54a11.68,11.68,0,0,0-2.35-2.45,9.32,9.32,0,0,0-5.81-2A10,10,0,0,0,2.94,5.3,11.55,11.55,0,0,0,0,13.2c0,3.13,1.17,6,3.67,9a78.64,78.64,0,0,0,9.19,8.62c1.27,1.08,2.71,2.31,4.21,3.62a2.16,2.16,0,0,0,2.86,0c1.5-1.31,2.94-2.54,4.21-3.62a78.64,78.64,0,0,0,9.19-8.62c2.5-3,3.67-5.89,3.67-9A11.55,11.55,0,0,0,34.06,5.3Z" transform="translate(2 -0.08)" fill="none" stroke="currentColor" stroke-miterlimit="10" stroke-width="4"/></svg>