<?xml version="1.0" encoding="utf-8"?>
<!-- Generator: Adobe Illustrator 19.0.0, SVG Export Plug-In . SVG Version: 6.00 Build 0)  -->
<svg version="1.1" id="Capa_1" xmlns="http://www.w3.org/2000/svg" xmlns:xlink="http://www.w3.org/1999/xlink" x="0px" y="0px"
	 viewBox="201 -206 512 512" style="enable-background:new 201 -206 512 512;" xml:space="preserve">
	<path d="M696.3,188.8c11.1-23.4,16.7-48.6,16.7-74.8c0-93.6-74.3-170.3-167.3-174.8C524.7-136.3,455.8-189,377-189
		c-97,0-176,78.5-176,175c0,26.2,5.6,51.4,16.7,74.8L201.3,143c-2.1,10.5,7.1,19.7,17.6,17.7l83.3-16.5
		c20.9,9.9,43.1,15.4,66.2,16.5c29.1,104.9,146.2,157.6,243.4,111.5c91.2,18,84.1,16.7,86.2,16.7c9.5,0,16.6-8.7,14.7-17.9
		L696.3,188.8z M311.1,115.2c-3-1.5-6.4-2-9.7-1.4l-66.2,13.1l13-65.2c0.7-3.3,0.2-6.8-1.4-9.8C236.3,31.4,231,9.2,231-14
		c0-80,65.5-145,146-145c62.9,0,118.3,40.9,137.7,99.4C423-47.9,353.9,34.9,362.8,130.3C344.7,128.5,327.4,123.5,311.1,115.2
		L311.1,115.2z M665.8,189.7l13,65.2l-66.2-13.1c-3.3-0.7-6.7-0.2-9.7,1.4C582.4,253.7,560.2,259,537,259c-80,0-145-65-145-145
		S457-31,537-31c80.5,0,146,65,146,145c0,23.2-5.3,45.4-15.8,65.9C665.7,182.9,665.2,186.3,665.8,189.7z"/>
</svg>
