<svg width="16" height="16" viewBox="0 0 16 16" xmlns="http://www.w3.org/2000/svg">
<path d="M2.07142 7C1.48086 7 1 7.69046 1 8.53845V13.4615C1 14.3095 1.48086 15 2.07142 15H3.35714C3.59843 15 3.82042 14.8831 4 14.6886V7H2.07142Z" fill="currentColor"/>
<path d="M14.8462 9.375C14.8462 8.96523 14.6997 8.5834 14.4455 8.3018C14.7329 7.9534 14.8794 7.48634 14.8394 7.00022C14.7674 6.13362 14.0627 5.45453 13.2345 5.45453H9.43323C9.62153 4.82111 9.92306 3.65999 9.92306 2.72726C9.92306 1.2484 9.92501 0 9.213 0C8.57363 0 8.11699 0.398864 8.09732 0.415228C8.02471 0.480011 7.98225 0.578193 7.98225 0.681808L6.84616 2.99384L5.07385 7.24772L5 7.2893V14.597C5.50091 14.8589 6.13475 15 6.53845 15H12.1871C12.8572 15 13.4437 14.4995 13.5815 13.8089C13.6523 13.4536 13.6111 13.0957 13.4702 12.7848C13.9249 12.5311 14.2308 12.0123 14.2308 11.4205C14.2308 11.1791 14.1809 10.948 14.0862 10.7386C14.5409 10.485 14.8462 9.96613 14.8462 9.375Z" fill="currentColor"/>
</svg>
