<svg xmlns="http://www.w3.org/2000/svg" viewBox="0 0 17.5 17.5">
  <path d="M17.3,6.5a8.69,8.69,0,0,1,1.9,2.8,9.28,9.28,0,0,1,.7,3.3,8,8,0,0,1-1.2,4.3,9.79,9.79,0,0,1-3.2,3.2,8.31,8.31,0,0,1-4.4,1.2A8.11,8.11,0,0,1,7,20.2L2.4,21.4l1.3-4.5a8.3,8.3,0,0,1,0-8.6A8.92,8.92,0,0,1,6.9,5.1a8.48,8.48,0,0,1,4.3-1.2,7.84,7.84,0,0,1,3.3.7A10.65,10.65,0,0,1,17.3,6.5ZM11.1,19.8a6.53,6.53,0,0,0,3.6-1,8.39,8.39,0,0,0,2.7-2.6,6.53,6.53,0,0,0,1-3.6,6.6,6.6,0,0,0-.6-2.7,7.76,7.76,0,0,0-1.6-2.4,8.68,8.68,0,0,0-2.3-1.6,6.36,6.36,0,0,0-2.8-.5,6.53,6.53,0,0,0-3.6,1A8.07,8.07,0,0,0,4.9,9a6.53,6.53,0,0,0-1,3.6A7,7,0,0,0,5,16.4l.2.3-.7,2.7,2.7-.7.3.2A7.4,7.4,0,0,0,11.1,19.8Zm4-5.4.1.1c.2.1.3.1.3.2v.4a1.42,1.42,0,0,1-.2.6,3.19,3.19,0,0,1-.6.7,2,2,0,0,1-.8.4,2.05,2.05,0,0,1-1.1,0c-.4-.1-.9-.3-1.6-.5A10.72,10.72,0,0,1,7.7,13l-.1-.1a3.7,3.7,0,0,1-.9-2.2,2.87,2.87,0,0,1,.7-1.8h0A.86.86,0,0,1,8,8.6h.5a.37.37,0,0,1,.3.1A.77.77,0,0,1,9,9l.7,1.6c.1.2.1.3,0,.4a1.79,1.79,0,0,1-.5.7l-.2.2a.31.31,0,0,0,.1.2,5.34,5.34,0,0,0,1.3,1.6,15.77,15.77,0,0,0,1.6,1,.45.45,0,0,0,.5,0c.3-.4.6-.7.7-.9s.1-.2.2-.2h.3C13.8,13.8,14.3,14,15.1,14.4Z" transform="translate(-2.4 -3.9)"/>
</svg>
