<?xml version="1.0" encoding="utf-8"?>
<!-- Generator: Adobe Illustrator 19.0.0, SVG Export Plug-In . SVG Version: 6.00 Build 0)  -->
<svg version="1.1" id="Слой_1" xmlns="http://www.w3.org/2000/svg" xmlns:xlink="http://www.w3.org/1999/xlink" x="0px" y="0px"
	 viewBox="0 0 16 16" style="enable-background:new 0 0 16 16;" xml:space="preserve">
<path d="M13.5,13.4c0.1,0.3-0.5,1.2-0.7,1.5c-0.1,0.2-0.2,0.2-0.4,0.3c-0.3,0.1-0.7,0.2-1,0.3c-1.7,0.2-2.5-0.5-3.8-1.5
	c-1.3-1.1-2.2-2.4-2.9-3.9C4,8.4,3.5,7,3.5,5.2c0-1.6-0.2-2.7,1.2-4C4.9,1,5.2,0.8,5.5,0.6C5.7,0.5,5.8,0.5,6,0.5
	c0.3,0,1.4,0,1.6,0.4C7.6,1.1,8,2.9,8,3.4c0,0.1,0.1,0.5,0,0.8c0,0.2-0.2,0.3-0.4,0.4C7.2,4.8,6.8,4.9,6.4,5.1C6.3,5.1,6,5.3,6,5.4
	C5.9,5.6,6,6.1,6,6.3C6.2,7.2,6.4,8.1,6.8,9c0.4,0.9,0.9,1.6,1.5,2.3c0.2,0.1,0.4,0.6,0.6,0.6c0.1,0,0.3,0,0.5-0.1
	c0.5-0.2,0.8-0.5,1.2-0.7c0.2-0.1,0.4-0.2,0.5-0.1c0.3,0.1,0.5,0.5,0.6,0.6C12.1,11.7,13.4,13.1,13.5,13.4z"/>
</svg>
