<svg xmlns="http://www.w3.org/2000/svg" viewBox="0 0 438.47 512.1">
  <path d="M466.5,49.4a37.22,37.22,0,0,0-28.3-13.1H402.4V25.1A25.18,25.18,0,0,0,377.3,0H134.7a25.18,25.18,0,0,0-25.1,25.1V36.3H73.8A37.22,37.22,0,0,0,45.5,49.4,36.6,36.6,0,0,0,37.2,79a191.83,191.83,0,0,0,97.4,136.9,259.53,259.53,0,0,0,16,32.1c19,32,42.6,54.1,68.6,64.8a54.18,54.18,0,0,1-41.8,57.9h-.2a11.81,11.81,0,0,0-9.1,11.5v54.4h-22a35.51,35.51,0,0,0-35.5,35.5v28.1a11.91,11.91,0,0,0,11.8,11.9h268a11.93,11.93,0,0,0,11.9-11.9V472.1a35.51,35.51,0,0,0-35.5-35.5h-22V382.2a11.81,11.81,0,0,0-9.1-11.5h-.1a54.13,54.13,0,0,1-41.8-58.4c25.5-10.9,48.8-32.8,67.5-64.3a259.53,259.53,0,0,0,16-32.1A191.83,191.83,0,0,0,474.7,79,36.54,36.54,0,0,0,466.5,49.4ZM60.7,75.2a13,13,0,0,1,2.9-10.5A13.47,13.47,0,0,1,73.8,60h35.8V81.8a375.43,375.43,0,0,0,12.6,97.6A167.78,167.78,0,0,1,60.7,75.2Zm306.2,385a11.93,11.93,0,0,1,11.9,11.9v16.2H134.4V472.1a11.93,11.93,0,0,1,11.9-11.9ZM321.2,394v42.5H192V394ZM223,370.3a78.15,78.15,0,0,0,20.2-51.2,90.39,90.39,0,0,0,12.7.9,107,107,0,0,0,13.9-1,78.6,78.6,0,0,0,20.3,51.3ZM378.7,81.8c0,58.4-13.4,113.1-37.7,154-23.2,39-53.4,60.5-85,60.5s-61.8-21.5-85-60.5c-24.3-41-37.7-95.7-37.7-154V25.1a1.37,1.37,0,0,1,1.4-1.4H377.3a1.37,1.37,0,0,1,1.4,1.4Zm72.6-6.6a167.92,167.92,0,0,1-61.6,104.2c8.3-30.3,12.6-63.4,12.6-97.6V60h35.8a13.32,13.32,0,0,1,10.2,4.7A12.35,12.35,0,0,1,451.3,75.2Z" transform="translate(-36.73 0)"/>
  <path d="M270.8,218.5H244.7V120.3A90.58,90.58,0,0,1,211,140.1V116.4c6.8-2.2,14.2-6.4,22.2-12.7s13.5-13.5,16.4-21.8h21.2Z" transform="translate(-36.73 0)"/>
</svg>
