<?xml version="1.0" encoding="utf-8"?>
<!-- Generator: Adobe Illustrator 19.0.0, SVG Export Plug-In . SVG Version: 6.00 Build 0)  -->
<svg version="1.1" id="Capa_1" xmlns="http://www.w3.org/2000/svg" xmlns:xlink="http://www.w3.org/1999/xlink" x="0px" y="0px"
	 viewBox="138 -143.1 386.1 386.1" style="enable-background:new 138 -143.1 386.1 386.1;" xml:space="preserve">
<g>
	<g>
		<path d="M446.9-88.1H160.4c-12.5,0-22.4,10.5-22.4,22.9v175.9c0,0.1,0,0.2,0,0.3c0.1,12.2,10.2,22,22.4,21.9H172V-10.8
			c0-23.5,19.2-42.3,42.7-42.3h254.4v-12.1C469.1-77.6,459.4-88.1,446.9-88.1z"/>
	</g>
</g>
<g>
	<g>
		<path d="M478.1,118.9c-6.8-5.7-16.9-4.8-22.6,2c-0.5,0.6-1,1.1-1.5,1.5c-4.3,3.5-10.6,2.8-14.1-1.5c-3-3.7-7.6-5.9-12.4-5.9
			c-9,0-16.2,7.2-16.1,16.2c0,8.9,7.3,16.1,16.2,16.1c4.8,0.1,9.4-2.1,12.4-5.8c1.9-2.3,4.7-3.6,7.7-3.6c2.9-0.1,5.8,1.2,7.7,3.5
			c0.7,0.8,1.3,1.5,2.1,2.1c6.8,5.7,16.9,4.8,22.6-2C485.8,134.8,484.9,124.6,478.1,118.9z"/>
	</g>
</g>
<g>
	<g>
		<path d="M501.3-33.1H214.8h-0.1c-12.5-0.1-22.6,9.9-22.7,22.3V3.9h332h0.1v-14.7C524.1-23.3,513.8-33.1,501.3-33.1z"/>
	</g>
</g>
<g>
	<g>
		<rect x="192" y="23.9" width="332" height="26"/>
	</g>
</g>
<g>
	<g>
		<path d="M192,69.9V165c0,12.6,10.1,22.8,22.7,22.9h286.5c12.6-0.1,22.7-10.3,22.8-22.9V69.9L192,69.9L192,69.9z M497.9,151.4
			c-11.2,16.5-33.7,20.9-50.2,9.7c-6,4.1-13,6.2-20.2,6.2c-20,0-36.1-16.3-36.1-36.2c0-19.9,16.1-36.1,36.1-36.1
			c7.2,0,14.2,2.1,20.2,6.2c12.3-8.3,28.3-8.3,40.5,0C504.7,112.3,509.1,134.9,497.9,151.4z"/>
	</g>
</g>
</svg>
