<svg
 xmlns="http://www.w3.org/2000/svg"
 xmlns:xlink="http://www.w3.org/1999/xlink"
 width="22px" height="28px">
<path fill-rule="evenodd" d="M19.583,26.267 L17.240,26.263 C17.326,26.125 17.389,25.972 17.389,25.798 L17.389,19.634 C17.389,19.138 16.983,18.735 16.484,18.735 L4.666,18.735 C4.167,18.735 3.761,19.138 3.761,19.634 L3.761,25.798 C3.761,25.962 3.817,26.107 3.894,26.239 L1.592,26.235 C0.923,26.233 -0.123,24.823 0.082,24.188 L3.179,14.617 C3.384,13.982 3.539,13.665 4.202,13.561 L7.715,13.012 C5.934,11.858 4.730,9.778 4.730,7.376 C4.730,3.734 7.471,0.782 10.852,0.782 C14.232,0.782 16.973,3.734 16.973,7.376 C16.973,9.813 15.732,11.917 13.908,13.059 L16.924,13.561 C17.585,13.671 18.131,13.984 18.339,14.617 L21.629,24.637 C21.836,25.270 20.252,26.268 19.583,26.267 ZM15.546,8.352 C15.586,8.085 14.868,7.328 14.506,7.356 C13.653,7.421 12.710,7.852 10.849,7.852 C9.319,7.852 8.129,7.587 7.289,7.454 C6.673,7.357 6.027,8.086 6.066,8.353 C6.431,10.819 8.414,12.704 10.806,12.704 C13.198,12.704 15.182,10.819 15.546,8.352 ZM4.629,19.634 C4.629,19.615 4.647,19.597 4.666,19.597 L16.522,19.634 L16.484,25.836 L4.629,25.798 L4.629,19.634 ZM18.829,27.752 L2.784,27.752 L2.784,26.914 L18.829,26.914 L18.829,27.752 Z"/>
</svg>