<svg xmlns="http://www.w3.org/2000/svg" viewBox="0 0 492.09 512.18">
  <path d="M475.2,264.5a15.44,15.44,0,0,1,0-17l18.7-28.7a49,49,0,0,0-23.6-72.5l-32-12.3a15.51,15.51,0,0,1-10-13.8L426.5,86a49,49,0,0,0-61.7-44.8l-33.1,8.9a15.7,15.7,0,0,1-16.2-5.3L293.9,18.1a49,49,0,0,0-76.2,0L196.1,44.8a15.64,15.64,0,0,1-16.2,5.3l-33.1-8.9A49,49,0,0,0,85.1,86l-1.8,34.2a15.51,15.51,0,0,1-10,13.8l-32,12.3a49,49,0,0,0-23.6,72.5l18.7,28.7a15.44,15.44,0,0,1,0,17L17.7,293.2a49,49,0,0,0,23.6,72.5l32,12.3a15.51,15.51,0,0,1,10,13.8L85.1,426a49,49,0,0,0,61.7,44.8l33.1-8.9a15.64,15.64,0,0,1,16.2,5.3l21.6,26.7a49,49,0,0,0,76.2,0l21.6-26.7a15.83,15.83,0,0,1,16.2-5.3l33.1,8.9A49,49,0,0,0,426.5,426l1.8-34.2a15.62,15.62,0,0,1,10-13.8l32-12.3a49,49,0,0,0,23.6-72.5Zm-16.8,70-32,12.3A49,49,0,0,0,395,390l-1.8,34.2a15.53,15.53,0,0,1-19.6,14.2l-33.1-8.9A49.1,49.1,0,0,0,289.7,446l-21.6,26.7a15.56,15.56,0,0,1-24.2,0L222.3,446a49,49,0,0,0-38.1-18.2,46.23,46.23,0,0,0-12.7,1.7l-33.1,8.9a15.53,15.53,0,0,1-19.6-14.2L117,390a49,49,0,0,0-31.4-43.2l-32-12.3a15.61,15.61,0,0,1-7.5-23.1l18.7-28.7a49,49,0,0,0,0-53.5L46.1,200.5a15.63,15.63,0,0,1,7.5-23.1l32-12.3A49,49,0,0,0,117,121.9l1.8-34.2a15.53,15.53,0,0,1,19.6-14.2l33.1,8.9a49.1,49.1,0,0,0,50.8-16.5l21.6-26.7a15.56,15.56,0,0,1,24.2,0l21.6,26.7a49,49,0,0,0,50.8,16.5l33.1-8.9a15.53,15.53,0,0,1,19.6,14.2L395,122a49,49,0,0,0,31.4,43.2l32,12.3a15.61,15.61,0,0,1,7.5,23.1l-18.7,28.7a49,49,0,0,0,0,53.5l18.7,28.7A15.51,15.51,0,0,1,458.4,334.5Z" transform="translate(-9.76 0.09)"/>
  <path d="M339.5,170.8a16.72,16.72,0,0,0-23.6,0l-156,156a16.72,16.72,0,0,0,0,23.6,16.5,16.5,0,0,0,11.8,4.9,16.33,16.33,0,0,0,11.8-4.9l156-156A16.72,16.72,0,0,0,339.5,170.8Z" transform="translate(-9.76 0.09)"/>
  <path d="M188.4,165.9a33.4,33.4,0,1,0,33.4,33.4A33.46,33.46,0,0,0,188.4,165.9Z" transform="translate(-9.76 0.09)"/>
  <path d="M311,288.5a33.4,33.4,0,1,0,33.4,33.4A33.46,33.46,0,0,0,311,288.5Z" transform="translate(-9.76 0.09)"/>
</svg>
