<svg
 xmlns="http://www.w3.org/2000/svg"
 xmlns:xlink="http://www.w3.org/1999/xlink"
 width="27px" height="32px">
<path fill-rule="evenodd" d="M18.974,31.982 C14.800,31.982 11.338,28.603 11.338,24.528 C11.338,20.452 14.800,17.073 18.974,17.073 C23.149,17.073 26.610,20.353 26.610,24.528 C26.610,28.603 23.149,31.982 18.974,31.982 ZM23.149,24.428 L20.196,26.615 L20.196,20.850 L18.160,20.850 L18.160,26.615 L15.207,24.428 L14.596,25.223 L18.160,27.808 L18.669,28.205 L19.585,28.205 L20.094,27.808 L23.759,25.223 L23.149,24.428 ZM10.523,24.528 C10.523,26.118 10.930,27.509 11.745,28.802 L5.738,28.802 C2.887,28.802 0.647,26.615 0.647,23.832 L0.647,5.940 C0.647,3.157 2.887,0.970 5.738,0.970 L16.938,0.970 C19.789,0.970 22.029,3.157 22.029,5.940 L22.029,16.774 C21.112,16.377 20.094,16.178 18.974,16.178 C14.290,16.178 10.523,19.955 10.523,24.528 ZM17.956,6.139 L4.720,6.139 L4.720,8.127 L17.956,8.127 L17.956,6.139 ZM17.956,9.121 L4.720,9.121 L4.720,11.109 L17.956,11.109 L17.956,9.121 ZM17.956,12.103 L4.720,12.103 L4.720,14.091 L17.956,14.091 L17.956,12.103 Z"/>
</svg>