<svg
 xmlns="http://www.w3.org/2000/svg"
 xmlns:xlink="http://www.w3.org/1999/xlink"
 width="37px" height="33px">
<path fill-rule="evenodd" d="M35.670,3.421 L19.171,19.921 C18.950,20.140 18.662,20.250 18.374,20.250 C18.086,20.250 17.798,20.140 17.579,19.920 L10.830,13.170 C10.390,12.730 10.390,12.018 10.830,11.578 C11.269,11.139 11.981,11.139 12.421,11.578 L18.376,17.533 L34.079,1.830 C34.518,1.390 35.231,1.390 35.670,1.830 C36.110,2.269 36.110,2.982 35.670,3.421 ZM24.184,4.503 C21.889,3.028 19.231,2.250 16.499,2.250 C8.643,2.250 2.250,8.643 2.250,16.500 C2.250,24.357 8.643,30.750 16.499,30.750 C24.356,30.750 30.749,24.357 30.749,16.500 C30.749,16.030 30.726,15.565 30.683,15.108 C30.623,14.488 31.076,13.939 31.694,13.879 C32.315,13.822 32.862,14.272 32.922,14.890 C32.973,15.420 32.999,15.957 32.999,16.500 C32.999,25.598 25.597,33.000 16.499,33.000 C7.402,33.000 -0.000,25.598 -0.000,16.500 C-0.000,7.402 7.402,-0.000 16.499,-0.000 C19.663,-0.000 22.741,0.901 25.400,2.608 C25.922,2.944 26.075,3.640 25.739,4.164 C25.402,4.687 24.707,4.839 24.184,4.503 Z"/>
</svg>