<svg xmlns="http://www.w3.org/2000/svg" viewBox="0 0 17.04 18">
  <path d="M16.4,11a3.4,3.4,0,0,0,.1-1,3.4,3.4,0,0,0-.1-1l1.7-1.3a1.09,1.09,0,0,0,.3-1.3L17.3,4.6A1.14,1.14,0,0,0,16,4.1l-2,.8a5.85,5.85,0,0,0-1.7-1L12,1.8a.88.88,0,0,0-.9-.8H8.9a1.06,1.06,0,0,0-1,.9l-.3,2a9.5,9.5,0,0,0-1.7,1l-2-.8a.93.93,0,0,0-1.2.4L1.6,6.4a1,1,0,0,0,.3,1.3L3.6,9a3.4,3.4,0,0,0-.1,1,3.4,3.4,0,0,0,.1,1L1.9,12.3a1.09,1.09,0,0,0-.3,1.3l1.1,1.8a1.14,1.14,0,0,0,1.3.5l2-.8a5.85,5.85,0,0,0,1.7,1L8,18.2a.88.88,0,0,0,.9.8H11a1.06,1.06,0,0,0,1-.9l.3-2.1A5.85,5.85,0,0,0,14,15l2,.8a.93.93,0,0,0,1.2-.4l1.1-1.8a1,1,0,0,0-.3-1.3ZM10,13.5A3.5,3.5,0,1,1,13.5,10,3.54,3.54,0,0,1,10,13.5Z" transform="translate(-1.46 -1)"/>
</svg>
