<?xml version="1.0" encoding="utf-8"?>
<!-- Generator: Adobe Illustrator 16.0.1, SVG Export Plug-In . SVG Version: 6.00 Build 0)  -->
<!DOCTYPE svg PUBLIC "-//W3C//DTD SVG 1.1//EN" "http://www.w3.org/Graphics/SVG/1.1/DTD/svg11.dtd" [
	<!ENTITY ns_flows "http://ns.adobe.com/Flows/1.0/">
	<!ENTITY ns_extend "http://ns.adobe.com/Extensibility/1.0/">
	<!ENTITY ns_ai "http://ns.adobe.com/AdobeIllustrator/10.0/">
	<!ENTITY ns_graphs "http://ns.adobe.com/Graphs/1.0/">
	<!ENTITY ns_vars "http://ns.adobe.com/Variables/1.0/">
	<!ENTITY ns_imrep "http://ns.adobe.com/ImageReplacement/1.0/">
	<!ENTITY ns_sfw "http://ns.adobe.com/SaveForWeb/1.0/">
	<!ENTITY ns_custom "http://ns.adobe.com/GenericCustomNamespace/1.0/">
	<!ENTITY ns_adobe_xpath "http://ns.adobe.com/XPath/1.0/">
]>
<svg version="1.1" id="Слой_1" xmlns:x="&ns_extend;" xmlns:i="&ns_ai;" xmlns:graph="&ns_graphs;"
	 xmlns="http://www.w3.org/2000/svg" xmlns:xlink="http://www.w3.org/1999/xlink" xmlns:a="http://ns.adobe.com/AdobeSVGViewerExtensions/3.0/"
	 x="0px" y="0px" width="30px" height="30px" viewBox="0 0 30 30" style="enable-background:new 0 0 30 30;" xml:space="preserve">
<path d="M15.938,1.438C8.171,1.438,1.875,7.734,1.875,15.5c0,7.768,6.296,14.063,14.063,14.063
	C23.704,29.563,30,23.268,30,15.5C30,7.734,23.704,1.438,15.938,1.438z M18.678,24.484c-0.826,0.33-1.488,0.582-1.979,0.756
	c-0.492,0.175-1.064,0.261-1.716,0.261c-1.002,0-1.78-0.249-2.336-0.742c-0.555-0.495-0.832-1.125-0.832-1.887
	c0-0.295,0.02-0.599,0.062-0.908s0.109-0.657,0.201-1.047l1.034-3.709c0.092-0.354,0.17-0.69,0.232-1.01
	c0.063-0.316,0.094-0.607,0.094-0.869c0-0.474-0.097-0.805-0.289-0.991s-0.561-0.28-1.105-0.28c-0.268,0-0.542,0.043-0.821,0.127
	c-0.281,0.084-0.521,0.166-0.724,0.242l0.276-1.144c0.677-0.279,1.324-0.519,1.943-0.717c0.619-0.199,1.203-0.299,1.757-0.299
	c0.994,0,1.761,0.243,2.3,0.73c0.539,0.487,0.809,1.12,0.809,1.898c0,0.161-0.02,0.445-0.057,0.851
	c-0.036,0.408-0.105,0.779-0.207,1.119l-1.028,3.693c-0.084,0.297-0.16,0.635-0.228,1.018c-0.066,0.379-0.1,0.668-0.1,0.863
	c0,0.49,0.107,0.824,0.323,1.002c0.218,0.18,0.594,0.268,1.126,0.268c0.25,0,0.535-0.045,0.852-0.133
	c0.315-0.09,0.545-0.166,0.688-0.234L18.678,24.484z M18.494,9.48c-0.479,0.454-1.057,0.681-1.732,0.681
	c-0.679,0-1.258-0.227-1.742-0.681c-0.484-0.452-0.727-1.001-0.727-1.645c0-0.642,0.242-1.192,0.727-1.65
	C15.504,5.729,16.084,5.5,16.762,5.5c0.676,0,1.254,0.229,1.732,0.685c0.482,0.458,0.72,1.008,0.72,1.65
	C19.214,8.479,18.977,9.028,18.494,9.48z"/>
</svg>
