<svg xmlns="http://www.w3.org/2000/svg" viewBox="0 0 53.9 55">
  <path d="M49.3,2v8.1A27.48,27.48,0,1,0,51.4,42H43.9A21.51,21.51,0,1,1,28,6a21.21,21.21,0,0,1,16.7,8H37.2v5h17V2Z" transform="translate(-0.5)" fill-rule="evenodd"/>
  <g>
    <path d="M26.8,24.2c2.2,0,3.7,1.2,3.7,3.1a2.09,2.09,0,0,1-1.6,2.2,2.59,2.59,0,0,1,2,2.6c0,2.1-1.7,3.6-4.2,3.6s-4.1-1.5-4.1-3.9v-.2h2.2c0,1.4.7,2.1,1.9,2.1A1.74,1.74,0,0,0,28.6,32c0-1.2-1-1.7-2-1.7H26V28.7h.4c1.3,0,2-.5,2-1.4a1.43,1.43,0,0,0-1.6-1.4c-1.1,0-1.7.7-1.7,1.9H22.9A3.55,3.55,0,0,1,26.8,24.2Z" transform="translate(-0.5)"/>
    <path d="M37.5,27.2A1.5,1.5,0,0,0,36,25.9c-1.2,0-2,1.1-2.1,3.3a3.13,3.13,0,0,1,2.5-1.3,3.47,3.47,0,0,1,3.5,3.7,3.89,3.89,0,0,1-4,4c-2.7,0-4.2-2.1-4.2-5.6,0-3.7,1.6-5.9,4.4-5.9a3.29,3.29,0,0,1,3.6,3H37.5Zm-3.4,4.5a1.88,1.88,0,0,0,1.8,2.1,1.94,1.94,0,0,0,1.8-2.1,1.82,1.82,0,1,0-3.6,0Z" transform="translate(-0.5)"/>
    <path d="M48.7,29.9c0,3.6-1.5,5.7-4.1,5.7s-4.1-2.1-4.1-5.7c0-2.6.9-5.7,4.1-5.7S48.7,27.3,48.7,29.9Zm-5.9.1c0,2.5.6,3.8,1.9,3.8s1.9-1.3,1.9-3.9S46,26,44.7,26C42.8,26,42.8,28.7,42.8,30Z" transform="translate(-0.5)"/>
    <path d="M54.4,27.7a2.44,2.44,0,0,1-2.5,2.6,2.39,2.39,0,0,1-2.5-2.6,2.5,2.5,0,1,1,5,0Zm-3.6,0c0,1,.4,1.6,1.2,1.6s1.2-.6,1.2-1.6-.4-1.5-1.2-1.5S50.8,26.8,50.8,27.7Z" transform="translate(-0.5)"/>
  </g>
</svg>
