<svg width="23" height="24" viewBox="0 0 23 24" xmlns="http://www.w3.org/2000/svg">
<path d="M19.0182 4.32019C20.0364 5.34419 20.9273 6.62419 21.4364 7.90419C21.9455 9.18419 22.3273 10.7202 22.3273 12.1282C22.3273 14.1762 21.8182 15.9682 20.8 17.6322C19.7818 19.2962 18.3818 20.7042 16.7273 21.7282C15.0727 22.7522 13.1637 23.2642 11.1273 23.2642C9.2182 23.2642 7.43638 22.7522 5.90911 21.8562L0.0545654 23.3922L1.70911 17.6322C0.690929 15.9682 0.181838 14.0482 0.181838 12.1282C0.181838 10.2082 0.690929 8.28819 1.70911 6.62419C2.72729 4.96019 4.00002 3.55219 5.78184 2.52819C7.56366 1.50419 9.34547 0.992188 11.2546 0.992188C12.6546 0.992188 14.0546 1.24819 15.4546 1.88819C16.8546 2.52819 17.8727 3.29619 19.0182 4.32019ZM11.1273 21.3442C12.7818 21.3442 14.3091 20.9602 15.7091 20.0642C17.1091 19.1682 18.2546 18.1442 19.1455 16.7362C20.0364 15.3282 20.4182 13.7922 20.4182 12.1282C20.4182 10.9762 20.1637 9.82419 19.6546 8.67219C19.1455 7.52019 18.5091 6.49619 17.6182 5.60019C16.7273 4.70419 15.7091 4.06419 14.6909 3.55219C13.6727 3.04019 12.4 2.91219 11.1273 2.91219C9.47275 2.91219 7.94547 3.29619 6.54547 4.19219C5.14547 5.08819 4.12729 6.11219 3.23638 7.52019C2.34547 8.92819 1.96366 10.4642 1.96366 12.1282C1.96366 13.9202 2.47275 15.5842 3.36366 16.9922L3.6182 17.3762L2.72729 20.8322L6.16366 19.9362L6.54547 20.1922C7.94547 20.9602 9.47275 21.3442 11.1273 21.3442ZM16.2182 14.4322L16.3455 14.5602C16.6 14.6882 16.7273 14.6882 16.7273 14.8162C16.7273 14.9442 16.7273 15.0722 16.7273 15.3282C16.7273 15.5842 16.6 15.8402 16.4727 16.0962C16.3455 16.3522 16.0909 16.6082 15.7091 16.9922C15.3273 17.3762 14.9455 17.3762 14.6909 17.5042C14.1818 17.6322 13.8 17.6322 13.2909 17.5042C12.7818 17.3762 12.1455 17.1202 11.2546 16.8642C9.72729 15.9682 8.20002 14.6882 6.80002 12.6402L6.67275 12.5122C5.90911 11.4882 5.52729 10.5922 5.52729 9.69619C5.52729 8.80019 5.90911 8.03219 6.4182 7.39219C6.67275 7.13619 6.92729 7.00819 7.18184 7.00819H7.8182C7.94547 7.00819 8.07275 7.00819 8.20002 7.13619C8.32729 7.26419 8.32729 7.26419 8.45457 7.52019L9.34547 9.56819C9.47275 9.82419 9.47275 9.95219 9.34547 10.0802C9.2182 10.4642 8.96366 10.7202 8.70911 10.9762C8.58184 11.1042 8.45457 11.2322 8.45457 11.2322C8.45457 11.2322 8.45457 11.3602 8.58184 11.4882C9.09093 12.3842 9.60002 13.0242 10.2364 13.5362C10.7455 13.9202 11.3818 14.3042 12.2727 14.8162C12.5273 14.9442 12.7818 14.9442 12.9091 14.8162C13.2909 14.3042 13.6727 13.9202 13.8 13.6642C13.9273 13.5362 13.9273 13.4082 14.0546 13.4082C14.1818 13.4082 14.3091 13.4082 14.4364 13.4082C14.5637 13.6642 15.2 13.9202 16.2182 14.4322Z" fill="currentColor"/>
</svg>
