<svg
 xmlns="http://www.w3.org/2000/svg"
 xmlns:xlink="http://www.w3.org/1999/xlink"
 width="34px" height="30px">
<path fill-rule="evenodd" d="M17.003,19.977 C16.270,19.977 15.675,19.375 15.675,18.632 L15.675,8.744 C15.675,8.001 16.270,7.399 17.003,7.399 C17.737,7.399 18.331,8.001 18.331,8.744 L18.331,18.632 C18.331,19.375 17.737,19.977 17.003,19.977 ZM17.004,24.686 C16.270,24.686 15.675,24.084 15.675,23.341 C15.675,22.598 16.269,21.995 17.003,21.995 L17.004,21.995 C17.737,21.995 18.332,22.598 18.332,23.341 C18.332,24.084 17.737,24.686 17.004,24.686 ZM33.043,27.558 C32.005,29.110 30.345,30.000 28.490,30.000 L5.516,30.000 C3.492,30.000 1.695,28.930 0.709,27.139 C-0.278,25.346 -0.232,23.233 0.833,21.486 L12.320,2.647 C13.330,0.989 15.081,-0.000 17.003,-0.000 C18.925,-0.000 20.676,0.989 21.686,2.647 L30.182,16.580 C30.567,17.212 30.374,18.041 29.750,18.431 C29.126,18.822 28.308,18.626 27.922,17.994 L19.427,4.061 C18.904,3.203 17.998,2.690 17.003,2.690 C16.008,2.690 15.102,3.203 14.579,4.061 L3.093,22.900 C2.541,23.805 2.517,24.899 3.028,25.828 C3.539,26.756 4.469,27.309 5.516,27.309 L28.490,27.309 C29.450,27.309 30.308,26.850 30.844,26.049 C31.380,25.248 31.493,24.246 31.147,23.369 C30.875,22.678 31.207,21.896 31.888,21.620 C32.570,21.345 33.342,21.681 33.614,22.371 C34.287,24.078 34.073,26.017 33.043,27.558 Z"/>
</svg>