<svg width="24" height="17" viewBox="0 0 24 17" xmlns="http://www.w3.org/2000/svg">
<path d="M12.0773 0.000366211H12.2108C13.4438 0.00490398 19.6917 0.0502819 21.3763 0.507084C21.8856 0.646497 22.3497 0.91824 22.7222 1.29516C23.0946 1.67207 23.3625 2.14096 23.499 2.65496C23.6505 3.22975 23.757 3.99058 23.829 4.77561L23.844 4.93292L23.877 5.3262L23.889 5.48351C23.9865 6.86601 23.9985 8.16079 24 8.44364V8.55709C23.9985 8.85053 23.985 10.233 23.877 11.673L23.865 11.8318L23.8515 11.9892C23.7765 12.8544 23.6655 13.7135 23.499 14.3458C23.3629 14.86 23.0952 15.3291 22.7227 15.7061C22.3501 16.083 21.8858 16.3547 21.3763 16.4936C19.6362 16.9656 13.0223 16.9989 12.1058 17.0004H11.8927C11.4292 17.0004 9.51209 16.9913 7.50197 16.9217L7.24695 16.9126L7.11645 16.9066L6.85993 16.896L6.60341 16.8854C4.93831 16.8113 3.35271 16.6918 2.62216 16.4921C2.11287 16.3533 1.6487 16.0819 1.27617 15.7052C0.903632 15.3285 0.63581 14.8597 0.499531 14.3458C0.333021 13.715 0.222014 12.8544 0.147009 11.9892L0.135008 11.8303L0.123008 11.673C0.0489745 10.6481 0.0079503 9.62101 0 8.59339L0 8.40734C0.00300019 8.08214 0.0150009 6.95828 0.096006 5.71796L0.106507 5.56216L0.111007 5.48351L0.123008 5.3262L0.15601 4.93292L0.171011 4.77561C0.243015 3.99058 0.349522 3.22823 0.501031 2.65496C0.63708 2.14075 0.9048 1.67164 1.27735 1.29466C1.6499 0.917682 2.11419 0.646079 2.62366 0.507084C3.35421 0.310447 4.93981 0.18944 6.60491 0.11381L6.85993 0.103222L7.11795 0.094147L7.24695 0.0896092L7.50347 0.0790211C8.93112 0.0326974 10.3594 0.00698056 11.7877 0.00187887H12.0773V0.000366211ZM9.6006 4.85578V12.1434L15.8365 8.50112L9.6006 4.85578Z" fill="currentColor"/>
</svg>
