<?xml version="1.0" encoding="utf-8"?><svg viewBox="0 0 21 18" xmlns="http://www.w3.org/2000/svg" xmlns:xlink="http://www.w3.org/1999/xlink"><style>:root>svg{display:none}:root>svg:target{display:block}</style><svg viewBox="0 0 15 15" id="ic_cat1" xmlns="http://www.w3.org/2000/svg"><path fill-rule="evenodd" d="M3.068.996C1.377.996-.014 2.379-.014 4.058c0 1.679 1.391 3.062 3.082 3.062h.099c1.69 0 3.082-1.383 3.082-3.062C6.149 2.379 4.758.996 3.068.996zm8.748 6.025c1.789 0 3.082-1.383 3.082-3.062 0-1.679-1.392-3.062-3.082-3.062h-.099c-1.69 0-3.082 1.383-3.082 3.062.099 1.778 1.491 3.062 3.181 3.062zM3.068 8.799c-1.691 0-3.082 1.284-3.082 2.963 0 1.678 1.391 3.061 3.082 3.061h.099c1.69 0 3.082-1.383 3.082-3.061-.1-1.679-1.491-2.963-3.181-2.963zm8.748 0c-1.789 0-3.082 1.382-3.082 3.061s1.392 3.062 3.082 3.062h.099c1.69 0 3.082-1.383 3.082-3.062-.099-1.777-1.491-3.061-3.181-3.061z"/></svg><svg viewBox="0 0 20 5" id="ic_cat2" xmlns="http://www.w3.org/2000/svg"><path fill-rule="evenodd" d="M0 0v5h20V0H0zm8.4 1.1h4.3V2H8.4v-.9zM3.1 4h-2V2h2v2zm3 0h-2V2h2v2zm12.6 0H8.4v-.9h10.3V4zm0-2h-4.3v-.9h4.3V2z"/></svg><svg viewBox="0 0 20 9" id="ic_cat3" xmlns="http://www.w3.org/2000/svg"><path fill-rule="evenodd" d="M19 .945H1c-.6 0-1 .505-1 1.01v5.05c0 .606.4 1.01 1 1.01h.7v.909h2.6v-.909h11.4v.909h2.6v-.909h.7c.6 0 1-.404 1-1.01v-5.05c0-.606-.4-1.01-1-1.01zM3.1 6.298H1.3V4.48h1.8v1.818zm7.3 0H8.6V4.48h1.8v1.818zm2.9.101h-1.9V4.48h1.9v1.919zm2.6-.101h-1.8V4.48h1.8v1.818zm2.9.101h-1.9V4.48h1.9v1.919z"/></svg><svg viewBox="0 0 21 15" id="ic_cat4" xmlns="http://www.w3.org/2000/svg"><path fill-rule="evenodd" d="M20.288 11.077h-6.937c-.396 0-.694-.309-.694-.722V6.019c0-.413.298-.722.694-.722h.198V3.852c0-1.755 1.487-3.304 3.172-3.304 1.684 0 3.171 1.445 3.171 3.304v1.445h.198c.396 0 .694.309.892.722v4.336c0 .413-.297.722-.694.722zm-1.685-7.225c0-1.136-.891-1.962-1.882-1.962-1.09 0-1.883.929-1.883 1.962v1.445h3.765V3.852zm-.792 7.845v.722c0 1.136-.892 2.065-1.982 2.065H2.946c-1.09 0-1.982-.929-1.982-2.065v-2.064c0-1.136.892-2.065 1.982-2.065h8.919v2.581c0 .413.297.826.792.826h5.154zm-2.28 1.342h.892v-.929h-.892v.929zm-1.783 0h.891v-.929h-.891v.929zM3.54 12.11h-.892v.929h.892v-.929zm1.883 0h-.892v.929h.892v-.929zm3.667 0h-.892v.929h.892v-.929zm1.784 0h-.892v.929h.892v-.929z"/></svg><svg viewBox="0 0 15 18" id="ic_cat5" xmlns="http://www.w3.org/2000/svg"><path fill-rule="evenodd" d="M6.923 16.9c0 .3-.878.8-1.171 1-.195.1-.292.1-.487.1-.293 0-.683-.1-.976-.2-1.561-.5-1.951-1.5-2.634-2.9-.683-1.5-.878-3-.878-4.6 0-1.7.195-3.1.878-4.6.683-1.4.975-2.4 2.634-2.9.293-.1.683-.2.976-.2.195 0 .292 0 .487.1.293.1 1.171.6 1.171 1 0 .2-.488 1.9-.585 2.3-.098.1-.098.5-.293.7-.097.2-.293.2-.488.2-.487 0-.878-.1-1.366-.1-.097 0-.39 0-.487.1-.098.1-.195.6-.293.8-.195.8-.39 1.7-.39 2.6 0 .9.097 1.7.39 2.6.098.2.098.7.293.8.097.1.292.1.487.1.488 0 .879-.1 1.366-.1.195 0 .391 0 .488.1.195.2.195.6.293.8.097.3.585 2 .585 2.3zm1.561-9.2c.195 0 .293-.1.488-.2.488-.4.683-1.1.683-1.8s-.293-1.3-.781-1.8c-.292-.3-.682-.3-.878 0-.292.3-.292.7 0 .9.196.3.391.6.391.9 0 .3-.098.7-.391.9-.292.3-.292.7 0 .9.196.2.391.2.488.2zm1.756 1.8c.195 0 .293-.1.488-.2.976-1 1.463-2.3 1.463-3.6 0-1.3-.487-2.7-1.463-3.6-.293-.3-.683-.3-.878 0-.293.3-.293.7 0 .9.683.7 1.073 1.7 1.073 2.7 0 1-.39 2-1.073 2.7-.293.3-.293.7 0 .9.098.2.293.2.39.2zm1.854 1.9c.195 0 .293-.1.488-.2 1.463-1.5 2.244-3.4 2.244-5.5s-.781-4-2.244-5.5a.738.738 0 0 0-.976.1c-.293.3-.293.7 0 .9a6.44 6.44 0 0 1 1.854 4.5c0 1.7-.683 3.3-1.854 4.6-.293.3-.293.7 0 .9.098.1.293.2.488.2z"/></svg><svg viewBox="0 0 20 17" id="ic_cat6" xmlns="http://www.w3.org/2000/svg"><path fill-rule="evenodd" d="M19.7 6.014c-.1.098-.3.196-.5.196s-.4 0-.6-.196c-2.2-2.445-5.3-3.717-8.6-3.717S3.6 3.569 1.4 6.014c-.3.294-.8.294-1.1 0a.756.756 0 0 1 0-1.076C2.8 2.199 6.3.732 10 .732c3.7 0 7.1 1.565 9.7 4.206.3.294.3.783 0 1.076zm-9.7-.88c2.6 0 5 1.076 6.9 2.935.3.293.3.782 0 1.076-.1.098-.3.195-.5.195s-.4 0-.6-.195c-1.6-1.566-3.7-2.446-5.8-2.446-2.1 0-4.2.88-5.8 2.446-.3.293-.8.293-1.1 0a.756.756 0 0 1 0-1.076C5 6.112 7.4 5.134 10 5.134zm-.1 4.5h.1c1.3 0 2.8.587 3.8 1.565.3.294.3.783 0 1.076-.3.294-.8.294-1.1 0-.7-.685-1.8-1.174-2.7-1.174h-.1c-.9 0-1.9.489-2.7 1.174-.1.098-.3.196-.5.196s-.4 0-.6-.196a.756.756 0 0 1 0-1.076c1-.978 2.5-1.565 3.8-1.565zm.1 4.598c.718 0 1.3.569 1.3 1.271 0 .703-.582 1.272-1.3 1.272-.718 0-1.3-.569-1.3-1.272 0-.702.582-1.271 1.3-1.271z"/></svg><svg viewBox="0 0 19 5" id="ic_cat7" xmlns="http://www.w3.org/2000/svg"><path fill-rule="evenodd" d="M16.546 4.927c-1.342 0-2.447-1.032-2.525-2.461 0-1.35 1.104-2.462 2.446-2.462h.079c1.341 0 2.446 1.112 2.446 2.462s-1.026 2.461-2.446 2.461zm-7.144 0c-1.341 0-2.446-1.032-2.525-2.461 0-1.35 1.105-2.462 2.446-2.462h.079c1.341 0 2.446 1.112 2.446 2.462s-1.026 2.461-2.446 2.461zm-6.865.08h-.079C1.117 5.007.012 3.895.012 2.545S1.117.083 2.458.083c1.342 0 2.446 1.112 2.525 2.462 0 1.35-1.105 2.462-2.446 2.462z"/></svg></svg>