<svg width="818" height="671" viewBox="0 0 818 671" fill="none" xmlns="http://www.w3.org/2000/svg">
<ellipse cx="504.5" cy="360" rx="163.5" ry="167" fill="white" fill-opacity="0.9"/>
<path d="M736.993 179.112L719.047 251.223L662.727 176.551L736.993 179.112Z" fill="white"/>
<path d="M656.993 170.112L639.047 242.223L582.727 167.551L656.993 170.112Z" fill="#EFF6F8"/>
<ellipse cx="739" cy="133.5" rx="79" ry="80.5" fill="white" fill-opacity="0.3"/>
<path d="M696 272.5C696 313.645 663.765 347 624 347C584.235 347 552 313.645 552 272.5C552 231.355 584.235 198 624 198C663.765 198 696 231.355 696 272.5Z" fill="#E3F8FF" fill-opacity="0.5"/>
<path d="M368 480.5C368 585.71 285.62 671 184 671C82.3796 671 0 585.71 0 480.5C0 375.29 82.3796 290 184 290C285.62 290 368 375.29 368 480.5Z" fill="#E3F8FF" fill-opacity="0.5"/>
<path d="M208 74.5C208 115.645 175.765 149 136 149C96.2355 149 64 115.645 64 74.5C64 33.3548 96.2355 0 136 0C175.765 0 208 33.3548 208 74.5Z" fill="#E3F8FF" fill-opacity="0.3"/>
<path d="M527.786 97.468L600.384 99.9719L545.329 26.9768L527.786 97.468Z" fill="#F4F4F4" fill-opacity="0.7"/>
<path d="M430.468 600.149L417.625 528.652L357.863 597.847L430.468 600.149Z" fill="#F4F4F4" fill-opacity="0.7"/>
<path d="M597.786 93.468L670.384 95.9719L615.329 22.9768L597.786 93.468Z" fill="#FBFBFB"/>
<path d="M742.467 611.287L724.445 540.916L669.887 614.284L742.467 611.287Z" fill="#FBFBFB"/>
</svg>
