<svg width="185" height="117" viewBox="0 0 185 117" fill="none" xmlns="http://www.w3.org/2000/svg">
<path d="M14.5222 12.9508C45.7412 -18.0163 122.166 12.1654 127.649 44.7032C133.468 78.5874 65.5467 132.443 28.0616 112.808C-1.14323 97.437 -10.6544 37.9713 14.5222 12.9508Z" fill="#FFA51C"/>
<path d="M178.935 57.8854C173.884 64.5122 168.038 70.437 162.37 72.224C159.201 73.2239 156.409 72.7984 153.858 70.8944C151.599 69.2137 150.48 67.565 150.543 66.0014C150.71 61.7041 158.877 56.609 164.848 52.886C171.018 49.0354 175.473 46.2486 175.756 42.8873C175.829 41.9938 175.641 40.6748 174.302 39.4728C173.309 38.5899 171.949 38.1751 170.182 38.1751C165.005 38.1751 156.284 41.6959 142.888 47.3016C126.992 53.9603 105.22 63.0869 98.5583 58.2683C97.1361 57.2472 97.1361 56.46 97.1361 56.1728C97.1465 52.4818 105.847 46.2911 112.833 41.3236C121.293 35.3031 128.603 30.1016 129.126 25.0385C129.293 23.4323 128.77 21.9325 127.63 20.6879C123.008 15.6779 108.043 22.2835 81.9832 34.3883C62.0093 43.6638 31.8185 57.6939 28.1061 50.9288C27.0185 48.9291 26.9035 46.9825 27.761 44.9721C31.6094 35.9945 52.2943 28.421 62.3649 25.5278L61.1623 21.4644C52.7231 23.9322 28.8381 31.8036 23.9336 43.2702C22.5323 46.5357 22.71 49.8119 24.4564 52.9924C29.6434 62.4805 51.3009 53.3115 83.7296 38.2389C94.0197 33.4523 103.735 28.9422 111.442 26.0915C122.663 21.9431 124.42 23.4004 124.587 23.5706C124.953 23.9641 125.005 24.2513 124.974 24.5704C124.65 27.7083 116.775 33.3034 110.448 37.8134C101.465 44.2063 92.9845 50.2374 92.9635 56.1409C92.9635 57.6407 93.5073 59.8213 96.1426 61.7253C104.686 67.8948 124.922 59.4171 144.488 51.2266C154.422 47.0676 169.418 40.7812 171.541 42.6533C170.903 44.1105 165.967 47.1846 162.663 49.2482C155.144 53.9391 146.621 59.2682 146.37 65.8206C146.244 68.8946 147.939 71.756 151.4 74.3195C153.805 76.1065 156.409 77 159.17 77C160.916 77 162.726 76.649 164.597 75.9363C171.98 73.1175 179.238 64.9377 185 56.6728L178.935 57.8854Z" fill="#E8E8E8"/>
</svg>
