<svg width="75" height="157" viewBox="0 0 75 157" fill="none" xmlns="http://www.w3.org/2000/svg">
<g clip-path="url(#clip0_474_40)">
<path fill-rule="evenodd" clip-rule="evenodd" d="M36.5656 0C43.298 0 48.7543 4.59975 48.7543 10.278C48.7543 15.9563 43.298 20.556 36.5656 20.556C29.8332 20.556 24.377 15.9563 24.377 10.278C24.377 4.59975 29.8332 0 36.5656 0Z" fill="black"/>
<path fill-rule="evenodd" clip-rule="evenodd" d="M9.37731 35.5076C14.5561 35.5076 18.7546 37.2129 18.7546 43.9143C18.7546 50.625 14.5561 52.3211 9.37731 52.3211C4.19852 52.3211 0 50.6342 0 43.9236C0 37.2129 4.19852 35.5076 9.37731 35.5076Z" fill="black"/>
<path fill-rule="evenodd" clip-rule="evenodd" d="M52.4997 37.3789C58.7143 37.3789 63.7544 41.9787 63.7544 47.6569C63.7544 53.3352 58.7143 57.9349 52.4997 57.9349C46.2852 57.9349 41.2451 53.3352 41.2451 47.6569C41.2451 41.9787 46.2852 37.3789 52.4997 37.3789Z" fill="black"/>
<path fill-rule="evenodd" clip-rule="evenodd" d="M22.9073 71.1902C27.4758 67.798 33.94 68.7383 37.334 73.2919C40.7372 77.8456 39.7939 84.2889 35.2255 87.6719C30.657 91.0641 24.1928 90.1239 20.7988 85.5702C17.4049 81.0166 18.3389 74.5824 22.9073 71.1902Z" fill="black"/>
<path fill-rule="evenodd" clip-rule="evenodd" d="M17.8111 104.661C25.5793 104.661 28.1224 111.03 28.1224 117.741C28.1224 124.452 25.5793 128.959 17.8111 128.959C10.0429 128.959 3.74512 123.521 3.74512 116.81C3.75437 110.099 10.0429 104.661 17.8111 104.661Z" fill="black"/>
<path fill-rule="evenodd" clip-rule="evenodd" d="M56.2546 117.75C66.6122 117.75 75.0093 124.47 75.0093 137.375C75.0093 150.28 66.6122 157 56.2546 157C45.897 157 37.5 150.28 37.5 137.375C37.5 124.47 45.897 117.75 56.2546 117.75Z" fill="black"/>
</g>
<defs>
<clipPath id="clip0_474_40">
<rect width="75" height="157" fill="white"/>
</clipPath>
</defs>
</svg>
