<svg width="298" height="734" viewBox="0 0 298 734" fill="none" xmlns="http://www.w3.org/2000/svg">
<path d="M72.7912 604.322C91.754 577.044 140.023 573.476 147.149 585.676C152.723 595.172 128.588 606.336 123.933 636.895C118.474 672.46 146.172 689.609 135.541 711.363C127.094 728.685 99.6265 738.238 84.3987 730.008C72.5039 723.563 71.0098 705.493 68.1367 669.467C65.321 634.535 63.9418 617.04 72.7912 604.322Z" fill="#FF9A00"/>
<path d="M181.417 8.41247C201.66 -11.7029 251.217 7.9023 254.772 29.038C258.545 51.0483 214.503 86.0315 190.196 73.2772C171.259 63.2924 165.091 24.6651 181.417 8.41247Z" fill="#FFA51C"/>
<path d="M285.885 365.366C276.625 377.358 265.908 388.079 255.516 391.313C249.707 393.122 244.588 392.352 239.91 388.907C235.769 385.866 233.717 382.882 233.832 380.053C234.139 372.276 249.113 363.056 260.06 356.319C271.372 349.351 279.539 344.308 280.057 338.226C280.191 336.609 279.846 334.222 277.392 332.047C275.57 330.45 273.078 329.699 269.838 329.699C260.348 329.699 244.358 336.07 219.798 346.214C190.656 358.263 150.739 374.779 138.526 366.059C135.919 364.211 135.919 362.787 135.919 362.267C135.938 355.588 151.889 344.385 164.696 335.396C180.207 324.502 193.608 315.089 194.567 305.927C194.874 303.021 193.915 300.307 191.825 298.054C183.351 288.988 155.915 300.942 108.138 322.846C71.5184 339.631 16.1676 365.02 9.36138 352.778C7.36744 349.159 7.15655 345.636 8.72869 341.999C15.7841 325.753 53.7072 312.048 72.1702 306.812L69.9654 299.46C54.4933 303.925 10.7034 318.169 1.71158 338.919C-0.857525 344.828 -0.531594 350.757 2.6702 356.512C12.1797 373.681 51.8858 357.089 111.339 329.814C130.205 321.153 148.016 312.991 162.146 307.833C182.718 300.326 185.939 302.963 186.246 303.271C186.917 303.983 187.013 304.503 186.956 305.08C186.361 310.758 171.924 320.883 160.325 329.044C143.856 340.613 128.307 351.527 128.269 362.209C128.269 364.923 129.266 368.869 134.097 372.315C149.761 383.479 186.86 368.138 222.731 353.317C240.945 345.79 268.438 334.415 272.33 337.802C271.161 340.439 262.111 346.002 256.053 349.736C242.268 358.225 226.642 367.868 226.182 379.725C225.952 385.288 229.058 390.466 235.404 395.105C239.814 398.339 244.588 399.955 249.649 399.955C252.851 399.955 256.168 399.32 259.6 398.031C273.136 392.93 286.441 378.128 297.005 363.172L285.885 365.366Z" fill="white"/>
</svg>
