<svg width="151" height="178" viewBox="0 0 151 178" fill="none" xmlns="http://www.w3.org/2000/svg">
<path d="M137.544 177.99C127.586 178.168 120.394 156.35 119.785 154.426C114.897 139.175 117.053 124.862 121.562 96.85C122.78 89.2972 123.636 85.5289 126.006 70.6821C128.64 54.2503 129.94 45.9536 129.561 41.8942C127.981 25.3169 119.62 20.19 123.34 10.5186C125.513 4.87419 131.125 -0.608456 135.766 0.0546368C143.535 1.17057 146.58 19.2843 148.193 28.8426C149.493 36.5247 151.929 52.0346 147.304 72.4611C143.436 89.5398 139.47 88.6341 137.544 102.996C134.943 122.242 139.947 139.628 140.21 140.501C144.588 155.235 151.057 161.979 147.304 170.162C145.592 173.866 141.774 177.909 137.544 177.99Z" fill="#FF9A00"/>
<path d="M133.796 130.851C129.462 136.45 124.446 141.455 119.583 142.965C116.864 143.81 114.468 143.45 112.279 141.842C110.341 140.422 109.381 139.029 109.435 137.708C109.578 134.078 116.586 129.773 121.709 126.628C127.003 123.375 130.826 121.02 131.068 118.181C131.131 117.426 130.969 116.311 129.821 115.296C128.968 114.55 127.802 114.2 126.286 114.2C121.844 114.2 114.361 117.174 102.867 121.91C89.2279 127.535 70.5466 135.246 64.8309 131.175C63.6106 130.312 63.6106 129.647 63.6106 129.405C63.6196 126.286 71.0849 121.056 77.0788 116.86C84.3377 111.773 90.6097 107.379 91.0584 103.101C91.2019 101.745 90.7533 100.477 89.7753 99.426C85.8093 95.1934 72.9692 100.774 50.609 111C33.471 118.837 7.56651 130.69 4.38117 124.974C3.448 123.285 3.3493 121.64 4.08507 119.942C7.38706 112.357 25.1352 105.959 33.776 103.515L32.7442 100.082C25.5031 102.167 5.00927 108.817 0.801028 118.504C-0.401326 121.263 -0.248789 124.031 1.24967 126.718C5.70017 134.734 24.2828 126.987 52.1075 114.254C60.9367 110.21 69.2724 106.399 75.8854 103.991C85.5132 100.486 87.0206 101.718 87.1642 101.861C87.4782 102.194 87.5231 102.436 87.4962 102.706C87.218 105.357 80.4615 110.084 75.033 113.894C67.3253 119.295 60.0484 124.39 60.0304 129.378C60.0304 130.645 60.497 132.487 62.7582 134.096C70.0889 139.308 87.4513 132.145 104.239 125.226C112.764 121.712 125.631 116.401 127.452 117.983C126.905 119.214 122.67 121.811 119.834 123.554C113.383 127.517 106.07 132.02 105.854 137.555C105.747 140.152 107.2 142.57 110.17 144.735C112.234 146.245 114.468 147 116.837 147C118.336 147 119.888 146.703 121.494 146.101C127.829 143.72 134.056 136.809 139 129.827L133.796 130.851Z" fill="black"/>
</svg>
