<svg width="205" height="187" viewBox="0 0 205 187" fill="none" xmlns="http://www.w3.org/2000/svg">
<path d="M200.001 72.1979L200.003 72.2118C202.059 84.1604 197.651 98.522 188.112 113.274C178.637 127.927 164.452 142.395 148.053 154.311C131.652 166.228 113.246 175.439 95.4367 179.775C77.6075 184.116 60.7591 183.49 47.0276 176.313C25.454 164.976 10.4053 136.762 5.89304 105.637C1.38701 74.5557 7.675 42.4936 26.4251 23.8961C49.5888 0.967466 90.4801 0.0851838 127.91 12.2899C146.433 18.3299 163.604 27.4416 176.602 38.0991C189.686 48.8274 198.062 60.7149 200.001 72.1979Z" stroke="#FF9A00" stroke-width="9"/>
</svg>
