<svg width="245" height="200" viewBox="0 0 245 200" fill="none" xmlns="http://www.w3.org/2000/svg">
<path d="M205.518 69.0573L205.52 69.0696C207.505 80.6175 203.246 94.4458 194.106 108.597C185.023 122.66 171.433 136.536 155.729 147.96C140.024 159.384 122.39 168.222 105.317 172.383C88.2297 176.548 72.0436 175.959 58.8311 169.047C38.0791 158.134 23.6569 131.009 19.3351 101.163C15.0193 71.3584 21.0307 40.5508 39.054 22.6536C61.3238 0.583967 100.566 -0.222197 136.387 11.4715C154.127 17.2628 170.578 26.0012 183.038 36.23C195.575 46.5216 203.647 57.9606 205.518 69.0573Z" stroke="#FF9A00" stroke-width="8"/>
<path d="M235.827 171.328C228.188 181.268 219.347 190.155 210.776 192.836C205.984 194.336 201.761 193.698 197.902 190.842C194.486 188.321 192.794 185.848 192.888 183.502C193.141 177.056 205.493 169.413 214.524 163.829C223.855 158.053 230.592 153.873 231.019 148.831C231.13 147.491 230.845 145.512 228.821 143.709C227.318 142.385 225.262 141.763 222.59 141.763C214.761 141.763 201.571 147.044 181.312 155.452C157.272 165.441 124.345 179.13 114.27 171.902C112.119 170.371 112.119 169.19 112.119 168.759C112.135 163.223 125.294 153.937 135.858 146.485C148.653 137.455 159.708 129.652 160.499 122.058C160.752 119.648 159.961 117.399 158.237 115.532C151.247 108.017 128.615 117.925 89.2029 136.083C58.9956 149.996 13.3367 171.041 7.72221 160.893C6.07741 157.894 5.90345 154.974 7.2003 151.958C13.0204 138.492 44.3031 127.132 59.5333 122.792L57.7146 116.697C44.9516 120.398 8.82929 132.205 1.41188 149.405C-0.707374 154.304 -0.438513 159.218 2.20265 163.989C10.0471 178.221 42.8007 164.467 91.8441 141.858C107.406 134.678 122.099 127.913 133.755 123.637C150.725 117.415 153.382 119.601 153.635 119.856C154.188 120.446 154.267 120.877 154.22 121.356C153.73 126.062 141.821 134.455 132.252 141.22C118.667 150.809 105.841 159.856 105.809 168.711C105.809 170.961 106.631 174.232 110.617 177.088C123.538 186.342 154.141 173.626 183.731 161.34C198.756 155.101 221.435 145.672 224.646 148.48C223.681 150.666 216.216 155.277 211.218 158.372C199.847 165.409 186.958 173.402 186.578 183.231C186.388 187.842 188.95 192.134 194.185 195.979C197.823 198.66 201.761 200 205.936 200C208.577 200 211.313 199.473 214.144 198.404C225.31 194.176 236.286 181.907 245 169.509L235.827 171.328Z" fill="black"/>
</svg>
