<svg width="128" height="235" viewBox="0 0 128 235" fill="none" xmlns="http://www.w3.org/2000/svg">
<path d="M14.5222 130.951C45.7412 99.9837 122.166 130.165 127.649 162.703C133.468 196.587 65.5467 250.443 28.0616 230.808C-1.14323 215.437 -10.6544 155.971 14.5222 130.951Z" fill="#FFA51C"/>
<g clip-path="url(#clip0_509_7)">
<path fill-rule="evenodd" clip-rule="evenodd" d="M89.5656 0C96.298 0 101.754 4.59975 101.754 10.278C101.754 15.9563 96.298 20.556 89.5656 20.556C82.8332 20.556 77.377 15.9563 77.377 10.278C77.377 4.59975 82.8332 0 89.5656 0Z" fill="black"/>
<path fill-rule="evenodd" clip-rule="evenodd" d="M62.3773 35.5075C67.5561 35.5075 71.7546 37.2128 71.7546 43.9143C71.7546 50.6249 67.5561 52.321 62.3773 52.321C57.1985 52.321 53 50.6342 53 43.9235C53 37.2128 57.1985 35.5075 62.3773 35.5075Z" fill="black"/>
<path fill-rule="evenodd" clip-rule="evenodd" d="M105.5 37.3788C111.714 37.3788 116.754 41.9785 116.754 47.6568C116.754 53.335 111.714 57.9348 105.5 57.9348C99.2852 57.9348 94.2451 53.335 94.2451 47.6568C94.2451 41.9785 99.2852 37.3788 105.5 37.3788Z" fill="black"/>
<path fill-rule="evenodd" clip-rule="evenodd" d="M75.9073 71.1902C80.4758 67.798 86.94 68.7382 90.334 73.2919C93.7372 77.8455 92.7939 84.2889 88.2255 87.6719C83.657 91.0641 77.1928 90.1238 73.7988 85.5702C70.4049 81.0165 71.3389 74.5824 75.9073 71.1902Z" fill="black"/>
<path fill-rule="evenodd" clip-rule="evenodd" d="M70.8111 104.661C78.5793 104.661 81.1224 111.03 81.1224 117.741C81.1224 124.451 78.5793 128.959 70.8111 128.959C63.0429 128.959 56.7451 123.52 56.7451 116.81C56.7544 110.099 63.0429 104.661 70.8111 104.661Z" fill="black"/>
<path fill-rule="evenodd" clip-rule="evenodd" d="M109.255 117.75C119.612 117.75 128.009 124.47 128.009 137.375C128.009 150.28 119.612 157 109.255 157C98.897 157 90.5 150.28 90.5 137.375C90.5 124.47 98.897 117.75 109.255 117.75Z" fill="black"/>
</g>
<defs>
<clipPath id="clip0_509_7">
<rect width="75" height="157" fill="white" transform="translate(53)"/>
</clipPath>
</defs>
</svg>
