<svg width="75" height="157" viewBox="0 0 75 157" fill="none" xmlns="http://www.w3.org/2000/svg">
<g clip-path="url(#clip0_450_73)">
<path fill-rule="evenodd" clip-rule="evenodd" d="M36.5656 0C43.298 0 48.7543 4.59975 48.7543 10.278C48.7543 15.9563 43.298 20.556 36.5656 20.556C29.8332 20.556 24.377 15.9563 24.377 10.278C24.377 4.59975 29.8332 0 36.5656 0Z" fill="black"/>
<path fill-rule="evenodd" clip-rule="evenodd" d="M9.37731 35.5076C14.5561 35.5076 18.7546 37.2129 18.7546 43.9143C18.7546 50.625 14.5561 52.3211 9.37731 52.3211C4.19852 52.3211 0 50.6342 0 43.9236C0 37.2129 4.19852 35.5076 9.37731 35.5076Z" fill="black"/>
<path fill-rule="evenodd" clip-rule="evenodd" d="M52.4997 37.3788C58.7143 37.3788 63.7544 41.9785 63.7544 47.6568C63.7544 53.335 58.7143 57.9348 52.4997 57.9348C46.2852 57.9348 41.2451 53.335 41.2451 47.6568C41.2451 41.9785 46.2852 37.3788 52.4997 37.3788Z" fill="black"/>
<path fill-rule="evenodd" clip-rule="evenodd" d="M22.9073 71.1901C27.4758 67.7979 33.94 68.7381 37.334 73.2918C40.7372 77.8455 39.7939 84.2888 35.2255 87.6718C30.657 91.064 24.1928 90.1238 20.7988 85.5701C17.4049 81.0164 18.3389 74.5823 22.9073 71.1901Z" fill="black"/>
<path fill-rule="evenodd" clip-rule="evenodd" d="M17.8111 104.661C25.5793 104.661 28.1224 111.03 28.1224 117.741C28.1224 124.451 25.5793 128.959 17.8111 128.959C10.0429 128.959 3.74512 123.52 3.74512 116.81C3.75437 110.099 10.0429 104.661 17.8111 104.661Z" fill="black"/>
<path fill-rule="evenodd" clip-rule="evenodd" d="M56.2546 117.75C66.6122 117.75 75.0093 124.47 75.0093 137.375C75.0093 150.28 66.6122 157 56.2546 157C45.897 157 37.5 150.28 37.5 137.375C37.5 124.47 45.897 117.75 56.2546 117.75Z" fill="black"/>
</g>
<defs>
<clipPath id="clip0_450_73">
<rect width="75" height="157" fill="white"/>
</clipPath>
</defs>
</svg>
