<svg width="140" height="799" viewBox="0 0 140 799" fill="none" xmlns="http://www.w3.org/2000/svg">
<path d="M36.5439 798.99C26.5863 799.168 19.3938 777.35 18.7848 775.426C13.8966 760.175 16.0527 745.862 20.5624 717.85C21.7804 710.297 22.6362 706.529 25.0063 691.682C27.6397 675.25 28.94 666.954 28.5614 662.894C26.9813 646.317 18.6203 641.19 22.34 631.519C24.5125 625.874 30.125 620.392 34.7664 621.055C42.535 622.171 45.5799 640.284 47.1928 649.843C48.4931 657.525 50.929 673.035 46.304 693.461C42.4362 710.54 38.4696 709.634 36.5439 723.996C33.9434 743.242 38.9469 760.628 39.2103 761.501C43.5883 776.235 50.0567 782.979 46.304 791.162C44.5923 794.866 40.7739 798.909 36.5439 798.99Z" fill="#FF9A00"/>
<path d="M135.179 49.6537L135.181 49.6675C136.5 57.3482 133.69 66.8108 127.266 76.7681C120.905 86.6267 111.349 96.4077 100.266 104.479C89.1824 112.551 76.7802 118.761 64.8365 121.676C52.875 124.595 41.7556 124.128 32.7854 119.431C18.6246 111.973 8.48691 93.193 5.43679 72.1057C2.39329 51.0642 6.69341 29.651 19.0538 17.3621C34.2901 2.24593 61.512 1.4615 86.9077 9.76131C99.4142 13.8487 110.978 20.0068 119.697 27.1732C128.503 34.41 133.935 42.2699 135.179 49.6537Z" stroke="#FF9A00" stroke-width="9"/>
</svg>
