<svg width="327" height="451" viewBox="0 0 327 451" fill="none" xmlns="http://www.w3.org/2000/svg">
<path d="M0 109.794C0 106.594 2.59406 104 5.79399 104H57C66.9411 104 75 112.059 75 122V173.206C75 176.406 72.4059 179 69.206 179C30.9846 179 0 148.015 0 109.794Z" fill="#DBFDFF"/>
<path d="M296.5 365.5C296.5 357.768 302.768 351.5 310.5 351.5C318.232 351.5 324.5 357.768 324.5 365.5V434.5C324.5 442.232 318.232 448.5 310.5 448.5C302.768 448.5 296.5 442.232 296.5 434.5V365.5Z" stroke="#EDEDED" stroke-width="5"/>
<circle cx="211.5" cy="15.5" r="15.5" fill="#FFD9FB"/>
</svg>
