<svg width="110" height="212" viewBox="0 0 110 212" fill="none" xmlns="http://www.w3.org/2000/svg">
<path d="M50 79C50 67.402 59.402 58 71 58H89C100.598 58 110 67.402 110 79C110 90.598 100.598 100 89 100H71C59.402 100 50 90.598 50 79Z" fill="#FFE8FD"/>
<path d="M0 12.5C0 5.59644 5.59644 0 12.5 0C19.4036 0 25 5.59644 25 12.5C25 19.4036 19.4036 25 12.5 25C5.59644 25 0 19.4036 0 12.5Z" fill="#FFFDCA"/>
<path d="M15.5 156C15.5 151.306 19.3056 147.5 24 147.5C28.6944 147.5 32.5 151.306 32.5 156V201C32.5 205.694 28.6944 209.5 24 209.5C19.3056 209.5 15.5 205.694 15.5 201V156Z" fill="white" stroke="#EDEDED" stroke-width="5"/>
</svg>
