<svg width="462" height="453" viewBox="0 0 462 453" fill="none" xmlns="http://www.w3.org/2000/svg">
<path d="M16 432C16 420.402 25.402 411 37 411H55C66.598 411 76 420.402 76 432C76 443.598 66.598 453 55 453H37C25.402 453 16 443.598 16 432Z" fill="#FFEFED"/>
<path d="M0 66.3333C0 45.1624 17.1624 28 38.3333 28C42.5675 28 46 31.4325 46 35.6667V62C46 68.6274 40.6274 74 34 74H7.66667C3.43248 74 0 70.5675 0 66.3333Z" fill="#DBFDFF"/>
<path d="M90 99C90 85.1929 101.193 74 115 74H172C185.807 74 197 85.1929 197 99V155C197 168.807 185.807 180 172 180H115C101.193 180 90 168.807 90 155V99Z" fill="#DAFFD9"/>
<path d="M328 25C328 11.1929 339.193 0 353 0H437C450.807 0 462 11.1929 462 25V109C462 122.807 450.807 134 437 134H353C339.193 134 328 122.807 328 109V25Z" fill="#DBFDFF"/>
<path d="M90 401.5C90 387.969 100.969 377 114.5 377H234.5C248.031 377 259 387.969 259 401.5C259 415.031 248.031 426 234.5 426H114.5C100.969 426 90 415.031 90 401.5Z" fill="#FFFDCA"/>
<path d="M349 314C349 300.193 360.193 289 374 289H407C420.807 289 432 300.193 432 314V347C432 360.807 420.807 372 407 372H374C360.193 372 349 360.807 349 347V314Z" fill="#F7F7F7"/>
</svg>
