<?xml version="1.0" encoding="utf-8"?><svg viewBox="0 0 20.2 18" xmlns="http://www.w3.org/2000/svg" xmlns:xlink="http://www.w3.org/1999/xlink"><style>:root>svg{display:none}:root>svg:target{display:block}</style><svg viewBox="0 0 20 5" id="ic_cat1" xmlns="http://www.w3.org/2000/svg"><path d="M0 0v5h20V0zm10 1.1h3.2V2H10zM3.1 4h-2V2h2zm3 0h-2V2h2zm12.6 0H8.4v-.9h10.3zm0-2h-3.3v-.9h3.3z"/></svg><svg viewBox="0 0 20 14" id="ic_cat10" xmlns="http://www.w3.org/2000/svg"><path d="M12.1 6h1v3h-1zM14.1 0h1v1h-1zM6.9 0h1v1h-1zM14.1 6h1v3h-1zM12.1 0h1v1h-1zM4.9 6h1v3h-1z"/><path fill-rule="evenodd" d="M16.1 0v12h-5V0H8.9v12h-5V0H0v14h20V0h-3.9z"/><path d="M4.9 0h1v1h-1zM6.9 6h1v3h-1z"/></svg><svg viewBox="0 0 20 13.8" id="ic_cat11" xmlns="http://www.w3.org/2000/svg"><g fill-rule="evenodd"><path d="M18 3.9h-6.3l-.4 1.5 3.2.1-2.8 4.4H18a2 2 0 0 0 2-2v-2a2 2 0 0 0-2-2zM9.5 8.2l-2.8-.1 2.5-4.2H2a2 2 0 0 0-2 2v2a2 2 0 0 0 2 2h7.1z"/><path d="M10.7 5.9L12.1 0 7.6 7.7h2.5l-1.5 6.1 5.1-7.9h-3z"/></g></svg><svg viewBox="0 0 15 15" id="ic_cat12" xmlns="http://www.w3.org/2000/svg"><path d="M7.5 0A7.55 7.55 0 0 0 0 7.5 7.55 7.55 0 0 0 7.5 15a7.5 7.5 0 0 0 0-15zm0 10A2.5 2.5 0 1 1 10 7.5 2.48 2.48 0 0 1 7.5 10z" fill-rule="evenodd"/></svg><svg viewBox="0 0 20 16.9" id="ic_cat13" xmlns="http://www.w3.org/2000/svg"><path d="M9.6 12.7h4.6V11H1.5V1.5h15v1.7H18V1.3A1.32 1.32 0 0 0 16.7 0H1.3A1.26 1.26 0 0 0 0 1.3v10.1a1.32 1.32 0 0 0 1.3 1.3h7v2.4H5.1v1h7.8v-1H9.6z"/><path d="M14 2.9v14h6v-14zm4.2 13h-2.4v-3.1h2.4zm.8-7.3h-4v-2h4zm0-2.8h-4v-2h4z" fill-rule="evenodd"/></svg><svg viewBox="0 0 16 17" id="ic_cat14" xmlns="http://www.w3.org/2000/svg"><path d="M0 0v17h4v-1h8v1h4V0zm1 5h1v6H1zm14 10H1v-2h1v1h12V2H2v1H1V1h14zM8.8 8A2.1 2.1 0 1 1 13 8a2.1 2.1 0 0 1-4.2 0z" fill-rule="evenodd"/></svg><svg viewBox="0 0 19.1 16" id="ic_cat15" xmlns="http://www.w3.org/2000/svg"><path fill-rule="evenodd" d="M3 16H0V2h1V1h2v15zM9.1 2h-5V1h4V0h2v1h-1v1zM17.1 5l-3 2V5h-2l-3 2V5h-2l-3 2v2l3-1.8V10h2V9l3-1.8V10h2V9l3-1.8V14h-13v2h15V5h-2z"/><path d="M4.9 11.2h2v1.7h-2zM9.6 11.2h2v1.7h-2zM14.1 11.2h2v1.7h-2z"/></svg><svg viewBox="0 0 20 7.9" id="ic_cat2" xmlns="http://www.w3.org/2000/svg"><path d="M19 0H1a.94.94 0 0 0-1 1v5a.94.94 0 0 0 1 1h.7v.9h2.6V7h11.3v.9h2.6V7h.8a.94.94 0 0 0 1-1V1a1 1 0 0 0-1-1zM3.1 5.3H1.3V3.5h1.8zm7.4 0H8.6V3.5h1.8v1.8zm2.7 0h-1.9V3.4h1.9zm2.8 0h-1.8V3.5H16zm2.7 0h-1.9V3.4h1.9z" fill-rule="evenodd"/></svg><svg viewBox="0 0 20.2 13.5" id="ic_cat3" xmlns="http://www.w3.org/2000/svg"><path d="M11 10V7.5H2a2 2 0 0 0-2 2v2a2 2 0 0 0 2 2h13a2 2 0 0 0 2-2v-.7h-5.2a.79.79 0 0 1-.8-.8zm-8.4 2.1h-.9v-.9h.9zm1.9 0h-.9v-.9h.9zm3.7 0h-.9v-.9h.9zm1.9 0h-1v-.9h.9v.9zm4.6-.9h.9v.9h-.9zm-1.8 0h.9v.9h-.9z"/><path d="M19.3 4.6h-.2V3.2A3.22 3.22 0 0 0 15.9 0a3.29 3.29 0 0 0-3.2 3.2v1.4h-.2a.68.68 0 0 0-.7.7v4.2a.68.68 0 0 0 .7.7h7a.68.68 0 0 0 .7-.7V5.3a1.07 1.07 0 0 0-.9-.7zm-1.6 0H14V3.2a1.9 1.9 0 0 1 3.8 0v1.4z"/></svg><svg viewBox="0 0 19.85 16.4" id="ic_cat4" xmlns="http://www.w3.org/2000/svg"><circle cx="9.92" cy="15.1" r="1.3"/><path d="M19.62 4.3A13.42 13.42 0 0 0 9.92 0a12.89 12.89 0 0 0-9.7 4.3.78.78 0 0 0 0 1.1.78.78 0 0 0 1.1 0 11.3 11.3 0 0 1 8.6-3.8 11.3 11.3 0 0 1 8.6 3.8.73.73 0 0 0 .6.2.76.76 0 0 0 .5-.2.78.78 0 0 0 0-1.1z"/><path d="M16.82 7.5a9.71 9.71 0 0 0-6.9-3 9.32 9.32 0 0 0-6.9 3 .78.78 0 1 0 1.1 1.1 8.28 8.28 0 0 1 5.8-2.5 8.28 8.28 0 0 1 5.8 2.5.73.73 0 0 0 .6.2.76.76 0 0 0 .5-.2.78.78 0 0 0 0-1.1zM13.72 10.7a5.65 5.65 0 0 0-3.8-1.6h-.1a5.65 5.65 0 0 0-3.8 1.6.78.78 0 0 0 0 1.1.73.73 0 0 0 .6.2.76.76 0 0 0 .5-.2 4.4 4.4 0 0 1 2.7-1.2h.1a4.17 4.17 0 0 1 2.7 1.2.78.78 0 1 0 1.1-1.1z"/></svg><svg viewBox="0 0 14.4 17.94" id="ic_cat5" xmlns="http://www.w3.org/2000/svg"><path d="M6.3 16.84c0 .3-.9.8-1.2 1a.9.9 0 0 1-.5.1 3.55 3.55 0 0 1-1-.2c-1.6-.5-2-1.5-2.7-2.9a10.5 10.5 0 0 1-.9-4.6 10.23 10.23 0 0 1 .9-4.6c.7-1.4 1-2.4 2.7-2.9a3.55 3.55 0 0 1 1-.2.9.9 0 0 1 .5.1c.3.1 1.2.6 1.2 1 0 .2-.5 1.9-.6 2.3-.1.1-.1.5-.3.7s-.3.2-.5.2c-.5 0-.9-.1-1.4-.1-.1 0-.4 0-.5.1a6.89 6.89 0 0 0-.3.8 10.87 10.87 0 0 0-.4 2.6 7.83 7.83 0 0 0 .4 2.6c.1.2.1.7.3.8a.75.75 0 0 0 .5.1c.5 0 .9-.1 1.4-.1a.75.75 0 0 1 .5.1c.2.2.2.6.3.8a19.48 19.48 0 0 1 .6 2.3zm1.6-9.2c.2 0 .3-.1.5-.2a2.27 2.27 0 0 0 .7-1.8 2.5 2.5 0 0 0-.8-1.8.56.56 0 0 0-.9 0 .56.56 0 0 0 0 .9 1.8 1.8 0 0 1 .4.9 1.09 1.09 0 0 1-.4.9.56.56 0 0 0 0 .9.65.65 0 0 0 .5.2zm1.8 1.8c.2 0 .3-.1.5-.2a5.08 5.08 0 0 0 1.5-3.6 4.91 4.91 0 0 0-1.5-3.6.56.56 0 0 0-.9 0 .56.56 0 0 0 0 .9 3.86 3.86 0 0 1 0 5.4.56.56 0 0 0 0 .9.4.4 0 0 0 .4.2zm1.9 1.9c.2 0 .3-.1.5-.2a7.64 7.64 0 0 0 2.3-5.5 7.64 7.64 0 0 0-2.3-5.5.77.77 0 0 0-1 .1.56.56 0 0 0 0 .9 6.36 6.36 0 0 1 1.9 4.5 6.78 6.78 0 0 1-1.9 4.6.56.56 0 0 0 0 .9.76.76 0 0 0 .5.2z"/></svg><svg viewBox="0 0 19.97 15.9" id="ic_cat6" xmlns="http://www.w3.org/2000/svg"><path d="M19.87 7.3l-8.9-7a1.65 1.65 0 0 0-1.9 0l-8.9 7c-.2.1-.2.3-.1.5l.8.9a.35.35 0 0 0 .2.1.37.37 0 0 0 .3-.1l1.6-.3-.1.1v6.7a.77.77 0 0 0 .8.7h12.8a.77.77 0 0 0 .8-.7V8.5l-.3-.1 1.6.3a.37.37 0 0 0 .3.1c.1 0 .2-.1.3-.1l.8-.9a.75.75 0 0 0-.1-.5zM9.97 3a.79.79 0 0 1 .8.8V8a.79.79 0 0 1-.8.8.86.86 0 0 1-.8-.8V3.8a.79.79 0 0 1 .8-.8zm5.1 5.9a5.1 5.1 0 1 1-8.2-4.1.83.83 0 0 1 1.2.2.91.91 0 0 1-.1 1.2 3.19 3.19 0 0 0-1.4 2.7 3.4 3.4 0 0 0 6.8 0 3.19 3.19 0 0 0-1.4-2.7.93.93 0 0 1-.2-1.2.93.93 0 0 1 1.2-.2 5.21 5.21 0 0 1 2.1 4.1z"/></svg><svg viewBox="0 0 9 18" id="ic_cat7" xmlns="http://www.w3.org/2000/svg"><g fill-rule="evenodd"><path d="M9 5V2a2 2 0 0 0-2-2H2a2 2 0 0 0-2 2v3zM0 6v10a2 2 0 0 0 2 2h5a2 2 0 0 0 2-2V6zm6 9.5H3v-5h3z"/></g></svg><svg viewBox="0 0 20 17" id="ic_cat8" xmlns="http://www.w3.org/2000/svg"><path d="M19 11.2H3.1L2.5 0h-.8v11.2H1a.94.94 0 0 0-1 1v3a.94.94 0 0 0 1 1h.7v.8h2.6v-.8h11.3v.8h2.6v-.8h.8a.94.94 0 0 0 1-1v-3a1 1 0 0 0-1-1zM2.8 15h-1v-1.1h1.1V15zm2.3 0H4v-1.1h1.1zm4.3 0h-1v-1.1h1.1V15zm2.2 0h-1.1v-1.1h1.1zm4.4 0h-1.1v-1.1H16zm2.2 0h-1.1v-1.1h1.1z" fill-rule="evenodd"/><circle cx="10.3" cy="9.7" r=".7"/><path d="M15.7 3.7a7.34 7.34 0 0 0-5.4-2.4 7 7 0 0 0-5.4 2.4.37.37 0 0 0 0 .6.37.37 0 0 0 .6 0 6.84 6.84 0 0 1 4.8-2.1 6.45 6.45 0 0 1 4.8 2.1.37.37 0 0 0 .3.1c.1 0 .2-.1.3-.1s.2-.4 0-.6z"/><path d="M14.1 5.5a5.33 5.33 0 0 0-3.8-1.7 5.17 5.17 0 0 0-3.8 1.7.37.37 0 0 0 0 .6.37.37 0 0 0 .6 0 4.48 4.48 0 0 1 3.2-1.4 4.48 4.48 0 0 1 3.2 1.4.37.37 0 0 0 .3.1c.1 0 .2-.1.3-.1a.37.37 0 0 0 0-.6zM12.4 7.3a3 3 0 0 0-2.1-.9h-.1a2.88 2.88 0 0 0-2.1.9.63.63 0 0 0 0 .6.76.76 0 0 0 .4.1c.1 0 .2-.1.3-.1a2.33 2.33 0 0 1 1.5-.7h.1a2.33 2.33 0 0 1 1.5.7.37.37 0 0 0 .6 0c.1-.2.1-.5-.1-.6z"/></svg><svg viewBox="0 0 20 16.5" id="ic_cat9" xmlns="http://www.w3.org/2000/svg"><path d="M18 3h-6.6L13.5.9a.35.35 0 0 0 .1-.2c0-.1 0-.1-.1-.2l-.4-.4a.35.35 0 0 0-.2-.1c-.1 0-.1 0-.2.1L10 3 7.2.2A.35.35 0 0 0 7 .1c-.1 0-.1 0-.2.1l-.3.3a.35.35 0 0 0-.1.2c0 .1 0 .1.1.2L8.6 3H2a2 2 0 0 0-2 2v9.5a2 2 0 0 0 2 2h16a2 2 0 0 0 2-2V5a2 2 0 0 0-2-2zM8.4 14V5.9l5.2 4.1z"/></svg></svg>