<svg width="136" height="136" viewBox="0 0 136 136" fill="none" xmlns="http://www.w3.org/2000/svg">
<g clip-path="url(#clip0_2098_651)">
<path d="M135.07 75.9502V59.3802L117.64 57.9802C117.19 55.5902 116.57 53.2702 115.8 51.0102L130.23 41.0602L121.95 26.7002L106.15 34.2102C104.58 32.3902 102.88 30.6802 101.07 29.1002L108.6 13.2502L94.25 4.96023L84.32 19.3502C82.07 18.5602 79.75 17.9302 77.36 17.4602L75.96 -0.00976562H59.38L57.98 17.4102C55.59 17.8602 53.27 18.4802 51.02 19.2502L41.06 4.81023L26.71 13.1002L34.21 28.9002C32.39 30.4702 30.68 32.1702 29.1 33.9802L13.26 26.4402L4.97 40.8002L19.36 50.7202C18.57 52.9702 17.94 55.3002 17.48 57.6802L0 59.0802V75.6502L17.43 77.0502C17.88 79.4402 18.5 81.7602 19.27 84.0202L4.83 93.9702L13.12 108.33L28.92 100.82C30.49 102.64 32.18 104.34 33.99 105.92L26.46 121.78L40.82 130.07L50.74 115.67C52.99 116.45 55.31 117.09 57.69 117.55L59.09 135.03H75.67L77.07 117.6C79.45 117.15 81.77 116.53 84.03 115.76L93.99 130.21L108.34 121.92L100.83 106.11C102.65 104.54 104.35 102.85 105.93 101.04L121.79 108.58L130.07 94.2202L115.68 84.3002C116.47 82.0502 117.1 79.7302 117.57 77.3402L135.05 75.9402L135.07 75.9502ZM67.39 96.8602C50.34 96.8602 36.51 83.0302 36.51 65.9802C36.51 48.9302 50.34 35.1002 67.39 35.1002C84.44 35.1002 98.27 48.9302 98.27 65.9802C98.27 83.0302 84.44 96.8602 67.39 96.8602Z" fill="#DAE5ED"/>
</g>
<defs>
<clipPath id="clip0_2098_651">
<rect width="135.07" height="135.06" fill="white"/>
</clipPath>
</defs>
</svg>
