<svg width="19" height="19" viewBox="0 0 19 19" fill="none" xmlns="http://www.w3.org/2000/svg">
<path d="M15.4252 0.527999L5.2492 18.768H4.0012L14.2012 0.527999H15.4252ZM1.7932 2.208C2.4812 1.408 3.4332 1.008 4.6492 1.008C5.8652 1.008 6.7932 1.384 7.4332 2.136C8.0732 2.888 8.3932 3.976 8.3932 5.4C8.3932 6.872 8.0572 8.016 7.3852 8.832C6.7292 9.648 5.7932 10.056 4.5772 10.056C3.3452 10.056 2.4012 9.664 1.7452 8.88C1.1052 8.096 0.785198 6.968 0.785198 5.496C0.785198 4.088 1.1212 2.992 1.7932 2.208ZM7.0972 5.448C7.0972 3.176 6.2652 2.04 4.6012 2.04C2.9372 2.04 2.1052 3.224 2.1052 5.592C2.1052 6.696 2.3132 7.544 2.7292 8.136C3.1612 8.728 3.7772 9.024 4.5772 9.024C5.3772 9.024 5.9932 8.712 6.4252 8.088C6.8732 7.464 7.0972 6.584 7.0972 5.448ZM12.3532 10.464C13.0412 9.664 13.9932 9.264 15.2092 9.264C16.4252 9.264 17.3532 9.64 17.9932 10.392C18.6332 11.144 18.9532 12.232 18.9532 13.656C18.9532 15.128 18.6172 16.272 17.9452 17.088C17.2892 17.904 16.3532 18.312 15.1372 18.312C13.9052 18.312 12.9612 17.92 12.3052 17.136C11.6652 16.352 11.3452 15.224 11.3452 13.752C11.3452 12.344 11.6812 11.248 12.3532 10.464ZM17.6572 13.704C17.6572 11.432 16.8252 10.296 15.1612 10.296C13.4972 10.296 12.6652 11.48 12.6652 13.848C12.6652 14.952 12.8732 15.8 13.2892 16.392C13.7212 16.984 14.3372 17.28 15.1372 17.28C15.9372 17.28 16.5532 16.968 16.9852 16.344C17.4332 15.72 17.6572 14.84 17.6572 13.704Z" fill="black"/>
</svg>
