<?xml version="1.0" encoding="utf-8"?>
<!-- Generator: Adobe Illustrator 19.0.0, SVG Export Plug-In . SVG Version: 6.00 Build 0)  -->
<svg version="1.1" id="Слой_1" xmlns="http://www.w3.org/2000/svg" xmlns:xlink="http://www.w3.org/1999/xlink" x="0px" y="0px"
	 viewBox="0 0 130 100" style="enable-background:new 0 0 130 100;" xml:space="preserve">
<style type="text/css">
	.st0{fill-rule:evenodd;clip-rule:evenodd;fill:#11ABDE;}
	.st1{fill-rule:evenodd;clip-rule:evenodd;fill:#FFFFFF;}
</style>
<g>
	<g id="XMLID_132_">
		<path id="XMLID_133_" class="st0" d="M49.1,67l4.8,3V59.7h2.6l-5-6.7l-6,3.7l3.6,1V67z M28.1,57l4.8,3V49.7h2.6l-5-6.7l-6,3.7
			l3.6,1V57z M64.5,6l-48,19v48l48,22l48-22V25L64.5,6z M61.5,87.6l-39-18.2V32.3l39,17.4V87.6z M25.6,27.4L64.5,12l38.9,15.4
			L64.5,44L25.6,27.4z M106.5,69.4l-39,18.2V49.7l39-17.4V69.4z M103.5,38.7l0-2.8l-15,7.1l0,2.8L103.5,38.7z M88.5,49.9l15-7.1
			v-2.9l-15,7.1V49.9z M97,56.4c-0.5,0.9-1.3,1.5-2,1.7c-0.8,0.2-1.4-0.2-1.6-0.9l3.6-1.7l0-0.5l0-0.5l-3.6,1.7
			c0.1-0.9,0.7-1.8,1.5-2.3c0.8-0.5,1.6-0.6,2.1-0.2l0.3-0.5l0.3-0.5c-0.8-0.6-2.1-0.3-3.2,0.6c-1.1,1-1.9,2.5-1.8,3.7
			c0,1.3,0.8,2,2,2c1.1-0.1,2.4-1,3.2-2.4l-0.3-0.2L97,56.4z M101.4,52.9l1.8-3.3c0.2-0.3,0.1-0.6-0.1-0.6c-0.2-0.1-0.5,0.1-0.7,0.4
			l-1.7,3.1L99,51c-0.2-0.1-0.5,0-0.7,0.2c-0.2,0.3-0.2,0.6,0,0.7l1.9,1.5l-1.8,3.3c-0.2,0.3-0.1,0.6,0.1,0.6c0.1,0,0.2,0,0.3,0
			c0.1-0.1,0.3-0.2,0.4-0.3l1.7-3.1l1.8,1.4c0.1,0.1,0.2,0.1,0.4,0c0.1,0,0.2-0.1,0.3-0.2c0.2-0.3,0.2-0.6,0-0.7L101.4,52.9z M74,65
			c0.8,0.2,1.1,1.1,0.8,2.2c-0.2,0.6,0,1.2,0.4,1.3c0.4,0.2,1-0.1,1.5-0.6c0.5-0.5,0.7-1.2,0.6-1.7c-0.1-0.5-0.5-0.8-1.1-0.6
			c-0.9,0.3-1.6-0.2-1.8-1.1C74.3,64.7,74.1,64.9,74,65z M71.9,67.5c0.1-1,0.8-2.1,1.7-2.7c0.5-0.4,0.9-1,1-1.6
			c0.1-0.6-0.2-1.1-0.7-1.1c-0.5-0.1-1.1,0.3-1.5,0.8c-0.4,0.6-0.6,1.2-0.4,1.7c0.3,0.8,0.1,1.9-0.7,2.9
			C71.6,67.5,71.7,67.5,71.9,67.5z M70.4,71c0.5,0,1.1-0.5,1.4-1.1c0.6-1,1.6-1.7,2.4-1.7c0-0.2,0-0.4,0-0.6c-0.8,0.8-1.9,1-2.5,0.6
			c-0.4-0.3-0.9-0.2-1.5,0.3c-0.5,0.4-0.8,1.1-0.8,1.7C69.5,70.7,69.9,71,70.4,71z M84.9,62.8c0.6,0.3,1.6,0.2,2.3-0.2l0.1-0.1
			l0-0.5l0-0.5l-0.1,0.1c-0.5,0.3-1.3,0.4-1.7,0.2c-0.4-0.2-0.6-0.7-0.6-1.2l-0.1-3l-0.4,0.2l-0.4,0.2l0.1,3
			C84,61.9,84.3,62.5,84.9,62.8z M88.9,56.7c0.1,0,0.1,0,0.2,0c0,0,0.1,0.1,0.1,0.1l0.1,4.9l0.4-0.2l0.4-0.2L90,56.4
			c0-0.1,0-0.1,0.1-0.2c0-0.1,0.1-0.1,0.2-0.2l1.6-0.7l0-0.9l-4.6,2.1l0,0.9L88.9,56.7z M79.8,65.9c1.1-0.1,2.4-1,3.2-2.4l-0.3-0.2
			l-0.3-0.2c-0.5,0.9-1.3,1.5-2,1.7c-0.8,0.2-1.4-0.2-1.6-0.9l3.5-1.6l0-0.5l0-0.5l-3.5,1.6c0.1-0.9,0.7-1.8,1.5-2.3
			c0.8-0.5,1.6-0.6,2.1-0.2l0.3-0.5l0.3-0.5c-0.8-0.6-2.1-0.3-3.2,0.6c-1.1,1-1.9,2.5-1.8,3.7C77.9,65.2,78.7,66,79.8,65.9z"/>
	</g>
</g>
<g>
	<g id="XMLID_37_">
		<path id="XMLID_38_" class="st0" d="M50.1,54.2L12.5,37l9-9l-5-3l-12,14l48,22l12-14l-6-3L50.1,54.2z M112.5,25l-5,3l9,9
			L78.9,54.2L70.5,44l-6,3l12,14l48-22L112.5,25z"/>
	</g>
</g>
<g>
	<g id="XMLID_29_">
		<path id="XMLID_34_" class="st1" d="M11.5,37c0,0,38.5,18,38,18c-0.5,0,8-9,8-9l-39-16L11.5,37z M110.5,30l-39,16c0,0,8.5,9,8,9
			c-0.5,0,38-18,38-18L110.5,30z"/>
	</g>
</g>
</svg>
