<?xml version="1.0" encoding="utf-8"?>
<!-- Generator: Adobe Illustrator 19.0.0, SVG Export Plug-In . SVG Version: 6.00 Build 0)  -->
<svg version="1.1" xmlns="http://www.w3.org/2000/svg" xmlns:xlink="http://www.w3.org/1999/xlink" x="0px" y="0px"
	 viewBox="0 0 27 32" style="enable-background:new 0 0 27 32;" xml:space="preserve">
<style type="text/css">
	.st0{display:none;}
	.st1{display:inline;fill-rule:evenodd;clip-rule:evenodd;fill:#F7941F;}
	.st2{fill-rule:evenodd;clip-rule:evenodd;fill:#F7941F;}
</style>
<g id="Слой_1" class="st0">
	<path id="XMLID_6_" class="st1" d="M10.5,27.2H5.4c-2.6,0-4.7-2.1-4.7-4.7V5.5c0-2.6,2.1-4.7,4.7-4.7h10.2c2.6,0,4.7,2.1,4.7,4.7
		v10.2c0.2,0.1,0.5,0.2,0.7,0.2V5c0-2.8-2.2-5-5-5H5C2.2,0,0,2.2,0,5v18c0,2.8,2.2,5,5,5h5.9C10.7,27.7,10.6,27.5,10.5,27.2z"/>
	<path id="XMLID_8_" class="st1" d="M18,15.3c-4.6,0-8.3,3.7-8.3,8.3c0,4.6,3.7,8.3,8.3,8.3s8.3-3.7,8.3-8.3
		C26.3,19.1,22.6,15.3,18,15.3z M18,31.2c-4.1,0-7.5-3.4-7.5-7.5c0-4.1,3.4-7.5,7.5-7.5s7.5,3.4,7.5,7.5
		C25.5,27.8,22.1,31.2,18,31.2z"/>
	<rect id="XMLID_11_" x="4" y="5.2" class="st1" width="13" height="2"/>
	<rect id="XMLID_10_" x="4" y="8.2" class="st1" width="13" height="2"/>
	<rect id="XMLID_9_" x="4" y="11.2" class="st1" width="13" height="2"/>
	<polygon id="XMLID_2_" class="st1" points="22.6,24.4 22,23.6 19.1,25.8 19.2,20 17.2,20 17.2,25.8 14.3,23.6 13.7,24.4 17.2,27 
		17.2,27 17.7,27.4 18.6,27.4 19.1,27 19.1,27 	"/>
</g>
<g id="Слой_2">
	<g id="XMLID_1_">
		<path id="XMLID_22_" class="st2" d="M18,15.3c1.1,0,2.1,0.2,3,0.6V5c0-2.8-2.2-5-5-5H5C2.2,0,0,2.2,0,5v18c0,2.8,2.2,5,5,5h5.9
			c-0.8-1.3-1.2-2.7-1.2-4.3C9.7,19.1,13.4,15.3,18,15.3z M4,5.2h13v2H4V5.2z M4,8.2h13v2H4V8.2z M4,13.2v-2h13v2H4z"/>
		<path id="XMLID_27_" class="st2" d="M18,16.2c-4.1,0-7.5,3.4-7.5,7.5c0,4.1,3.4,7.5,7.5,7.5s7.5-3.4,7.5-7.5
			C25.5,19.5,22.1,16.2,18,16.2z M19.1,27l-0.5,0.4h-0.9L17.2,27l-3.5-2.6l0.6-0.8l2.9,2.2V20h2l0,5.8l2.9-2.2l0.6,0.8L19.1,27z"/>
	</g>
</g>
</svg>
