<svg
 xmlns="http://www.w3.org/2000/svg"
 xmlns:xlink="http://www.w3.org/1999/xlink"
 width="21px" height="25px">
<path fill-rule="evenodd"  fill="rgb(1, 102, 145)"
 d="M14.326,24.866 C11.912,24.866 9.849,23.493 8.786,21.487 C8.825,21.634 8.868,21.773 8.924,21.858 L4.435,21.858 C2.305,21.858 0.631,20.161 0.631,18.002 L0.631,4.119 C0.631,1.959 2.305,0.263 4.435,0.263 L12.805,0.263 C14.935,0.263 16.609,1.959 16.609,4.119 L16.609,12.517 C18.970,13.461 20.641,15.796 20.641,18.465 C20.641,22.013 17.826,24.866 14.326,24.866 ZM11.930,1.381 L5.310,1.419 C3.331,1.419 1.734,3.039 1.734,5.044 L1.721,17.169 C1.721,19.174 3.319,20.794 5.297,20.794 L8.455,20.794 C8.177,20.071 8.011,19.290 8.011,18.465 C8.011,14.917 10.826,12.063 14.326,12.063 C14.726,12.063 15.114,12.111 15.493,12.184 L15.506,5.006 C15.506,3.001 13.908,1.381 11.930,1.381 ZM14.326,13.147 C11.417,13.147 9.004,15.593 9.004,18.542 C9.004,21.491 11.417,23.936 14.326,23.936 C17.235,23.936 19.648,21.491 19.648,18.542 C19.648,15.593 17.235,13.147 14.326,13.147 ZM14.783,21.396 L14.098,21.396 L13.718,21.087 L11.055,19.082 L11.511,17.693 L13.718,19.390 L13.718,15.688 L15.239,15.688 L15.163,19.390 L17.370,17.693 L17.826,19.082 L15.163,21.087 L14.783,21.396 ZM3.674,10.094 L13.565,10.094 L13.565,11.637 L3.674,11.637 L3.674,10.094 ZM3.674,7.165 L13.565,7.165 L13.565,8.708 L3.674,8.708 L3.674,7.165 ZM3.674,4.273 L13.565,4.273 L13.565,5.816 L3.674,5.816 L3.674,4.273 Z"/>
</svg>