<svg
 xmlns="http://www.w3.org/2000/svg"
 xmlns:xlink="http://www.w3.org/1999/xlink"
 width="24px" height="36px">
<path fill-rule="evenodd"  fill="rgb(2, 3, 3)"
 d="M20.785,0.622 C19.740,0.017 18.524,-0.145 17.362,0.169 C16.198,0.482 15.223,1.233 14.623,2.281 L1.103,25.798 C1.030,25.928 0.984,26.070 0.966,26.217 L0.015,34.777 C-0.029,35.204 0.176,35.618 0.547,35.832 C0.713,35.927 0.898,35.976 1.084,35.976 C1.308,35.976 1.533,35.905 1.721,35.765 L8.627,30.658 C8.744,30.570 8.844,30.459 8.920,30.329 L22.435,6.812 C23.680,4.648 22.938,1.871 20.785,0.622 ZM2.424,32.568 L2.920,28.095 L6.030,29.900 L2.424,32.568 ZM7.597,28.316 L3.503,25.942 L14.349,7.071 L18.441,9.445 L7.597,28.316 ZM20.575,5.733 L19.515,7.575 L15.424,5.201 L16.483,3.360 C16.798,2.810 17.308,2.418 17.919,2.254 C18.529,2.089 19.164,2.174 19.711,2.490 C20.257,2.808 20.648,3.319 20.811,3.932 C20.975,4.544 20.892,5.184 20.575,5.733 Z"/>
</svg>