<svg
 xmlns="http://www.w3.org/2000/svg"
 xmlns:xlink="http://www.w3.org/1999/xlink"
 width="29px" height="23px">
<path fill-rule="evenodd"  fill="rgb(4, 4, 5)"
 d="M27.007,23.000 L19.676,23.000 C18.612,23.000 17.747,22.121 17.747,21.042 L17.747,17.167 L14.082,17.167 L14.082,20.888 L16.204,20.888 C16.737,20.888 17.169,19.326 17.169,19.867 C17.169,20.408 16.737,22.846 16.204,22.846 L5.916,22.846 C5.383,22.846 4.951,22.408 4.951,21.867 C4.951,21.326 5.383,20.888 5.916,20.888 L8.038,20.888 L8.038,17.167 L1.929,17.167 C0.865,17.167 -0.000,16.289 -0.000,15.209 L-0.000,1.958 C-0.000,0.878 0.865,-0.000 1.929,-0.000 L19.677,-0.000 C20.740,-0.000 21.606,0.878 21.606,1.958 L21.606,2.154 L27.007,2.154 C28.087,2.154 29.000,3.051 29.000,4.112 L29.000,21.042 C29.000,22.103 28.087,23.000 27.007,23.000 ZM9.967,20.888 L12.153,20.888 L12.153,17.167 L9.967,17.167 L9.967,20.888 ZM19.677,6.332 L19.676,6.332 L19.676,4.112 C19.676,4.112 19.677,4.112 19.677,4.112 C19.677,3.436 19.677,2.719 19.677,1.958 L1.929,1.958 L1.929,15.209 C2.295,15.209 13.218,15.209 17.747,15.209 C18.861,15.209 19.589,15.209 19.677,15.209 L19.679,15.193 C19.681,15.044 19.679,13.927 19.677,6.332 ZM27.071,4.143 C27.025,4.099 27.426,4.110 21.606,4.112 L21.606,6.332 L27.071,6.332 L27.071,4.143 ZM27.071,8.290 L21.606,8.290 L21.606,15.209 C21.606,16.289 20.740,17.167 19.677,17.167 L19.676,17.167 L19.676,21.042 C27.505,21.042 27.021,21.059 27.071,21.011 L27.071,8.290 ZM23.622,18.584 C23.143,18.729 22.599,18.493 22.418,17.932 C22.274,17.440 22.517,16.887 23.062,16.711 C23.589,16.548 24.166,16.868 24.287,17.456 C24.374,17.929 24.135,18.414 23.622,18.584 ZM23.622,16.407 C23.144,16.551 22.599,16.315 22.418,15.754 C22.274,15.262 22.517,14.709 23.062,14.533 C23.589,14.370 24.166,14.690 24.287,15.279 C24.374,15.752 24.135,16.237 23.622,16.407 Z"/>
</svg>