<svg
 xmlns="http://www.w3.org/2000/svg"
 xmlns:xlink="http://www.w3.org/1999/xlink"
 width="29px" height="22px">
<path fill-rule="evenodd"  fill="rgb(3, 3, 4)"
 d="M26.281,-0.000 L2.719,-0.000 C1.220,-0.000 -0.000,1.234 -0.000,2.750 L-0.000,19.250 C-0.000,20.766 1.220,22.000 2.719,22.000 L26.281,22.000 C27.780,22.000 29.000,20.766 29.000,19.250 L29.000,2.750 C29.000,1.234 27.780,-0.000 26.281,-0.000 ZM26.281,1.833 C26.404,1.833 26.521,1.859 26.628,1.904 L14.500,12.537 L2.371,1.904 C2.478,1.859 2.596,1.833 2.719,1.833 L26.281,1.833 ZM26.281,20.167 L2.719,20.167 C2.219,20.167 1.812,19.756 1.812,19.250 L1.812,3.841 L13.906,14.443 C14.077,14.592 14.288,14.667 14.500,14.667 C14.711,14.667 14.923,14.592 15.094,14.443 L27.187,3.841 L27.187,19.250 C27.187,19.756 26.781,20.167 26.281,20.167 Z"/>
</svg>