<svg
 xmlns="http://www.w3.org/2000/svg"
 xmlns:xlink="http://www.w3.org/1999/xlink"
 width="45px" height="45px">
<path fill-rule="evenodd"  fill="rgb(255, 255, 255)"
 d="M45.000,43.017 C44.999,41.430 44.055,40.001 42.593,39.380 L31.383,34.610 L31.383,31.815 C32.570,30.325 33.320,28.550 33.572,26.645 L35.863,26.645 C38.044,26.645 39.819,24.871 39.819,22.690 L39.819,17.020 C39.819,15.026 38.335,13.373 36.413,13.104 C36.128,4.526 31.333,-0.000 22.500,-0.000 C13.667,-0.000 8.871,4.526 8.586,13.104 C6.665,13.373 5.181,15.026 5.181,17.020 L5.181,22.690 C5.181,24.871 6.956,26.645 9.136,26.645 L11.428,26.645 C11.679,28.551 12.430,30.325 13.617,31.815 L13.617,34.610 L2.407,39.380 C0.945,40.001 0.001,41.430 -0.000,43.018 L-0.000,43.681 C-0.000,44.031 0.139,44.366 0.386,44.613 C0.633,44.860 0.969,45.000 1.318,45.000 L43.682,45.000 C44.031,45.000 44.367,44.860 44.614,44.613 C44.861,44.366 45.000,44.030 45.000,43.681 L45.000,43.017 ZM28.748,35.535 C28.749,35.567 28.823,38.766 26.933,40.735 C25.895,41.815 24.403,42.363 22.500,42.363 C20.603,42.363 19.116,41.819 18.079,40.746 C16.166,38.768 16.251,35.563 16.252,35.535 C16.253,35.517 16.254,35.499 16.254,35.481 L16.254,34.176 C18.059,35.319 20.212,35.932 22.500,35.932 C24.788,35.932 26.941,35.319 28.746,34.176 L28.746,35.481 C28.746,35.499 28.747,35.517 28.748,35.535 ZM31.029,24.621 L28.521,26.293 C27.725,26.824 26.798,27.105 25.840,27.105 L23.610,27.105 C22.882,27.105 22.292,27.695 22.292,28.424 C22.292,29.152 22.882,29.742 23.610,29.742 L25.840,29.742 C27.320,29.742 28.753,29.308 29.984,28.487 L30.489,28.150 C29.299,31.220 26.257,33.296 22.500,33.296 C17.637,33.296 13.970,29.819 13.970,25.209 L13.970,14.521 C14.490,12.105 15.243,10.569 16.151,10.077 C17.055,9.586 18.368,10.096 19.639,10.590 C20.628,10.974 21.563,11.337 22.500,11.337 C23.445,11.337 24.369,10.970 25.347,10.582 C26.618,10.077 27.820,9.599 28.710,10.064 C29.358,10.402 30.283,11.455 31.029,14.538 L31.029,24.621 ZM37.182,17.020 L37.182,22.690 C37.182,23.416 36.590,24.008 35.863,24.008 L33.666,24.008 L33.666,15.701 L35.863,15.701 C36.590,15.701 37.182,16.293 37.182,17.020 ZM13.574,5.866 C15.399,3.723 18.402,2.636 22.500,2.636 C26.597,2.636 29.601,3.723 31.426,5.866 C32.864,7.553 33.651,9.973 33.773,13.065 L33.369,13.065 C32.573,10.237 31.468,8.528 29.929,7.726 C27.968,6.703 25.975,7.495 24.373,8.131 C23.669,8.411 22.940,8.701 22.500,8.701 C22.057,8.701 21.313,8.412 20.593,8.132 C18.935,7.487 16.871,6.686 14.893,7.759 C13.402,8.569 12.322,10.310 11.607,13.065 L11.227,13.065 C11.348,9.973 12.136,7.553 13.574,5.866 ZM7.818,22.690 L7.818,17.020 C7.818,16.293 8.410,15.701 9.136,15.701 L11.334,15.701 L11.334,24.008 L9.136,24.008 C8.410,24.008 7.818,23.416 7.818,22.690 ZM3.439,41.806 L13.768,37.411 C13.999,38.842 14.574,40.788 15.983,42.363 L2.811,42.363 C2.951,42.119 3.168,41.921 3.439,41.806 ZM29.017,42.363 C30.426,40.788 31.001,38.842 31.232,37.411 L41.561,41.806 C41.831,41.921 42.049,42.119 42.189,42.363 L29.017,42.363 Z"/>
</svg>