<svg
 xmlns="http://www.w3.org/2000/svg"
 xmlns:xlink="http://www.w3.org/1999/xlink"
 width="43px" height="45px">
<path fill-rule="evenodd"  fill="rgb(255, 255, 255)"
 d="M40.671,21.752 C40.377,22.206 40.377,22.793 40.671,23.246 L42.306,25.773 C43.792,28.069 42.797,31.162 40.246,32.144 L37.447,33.221 C36.944,33.415 36.601,33.889 36.573,34.430 L36.419,37.440 C36.278,40.176 33.663,42.091 31.026,41.377 L28.131,40.595 C27.611,40.455 27.056,40.636 26.717,41.057 L24.833,43.400 C23.119,45.531 19.884,45.535 18.168,43.400 L16.283,41.057 C15.944,40.636 15.389,40.455 14.869,40.595 L11.974,41.377 C9.342,42.089 6.722,40.181 6.582,37.440 L6.427,34.430 C6.400,33.889 6.057,33.415 5.554,33.221 L2.754,32.144 C0.209,31.165 -0.795,28.073 0.694,25.773 L2.329,23.246 C2.623,22.793 2.623,22.206 2.329,21.752 L0.694,19.226 C-0.792,16.930 0.203,13.836 2.754,12.855 L5.554,11.777 C6.057,11.584 6.399,11.109 6.427,10.568 L6.582,7.559 C6.722,4.824 9.336,2.908 11.974,3.622 L14.869,4.404 C15.389,4.544 15.944,4.363 16.283,3.942 L18.168,1.598 C19.881,-0.533 23.116,-0.536 24.833,1.598 L26.717,3.942 C27.056,4.363 27.611,4.544 28.131,4.404 L31.026,3.621 C33.658,2.909 36.278,4.818 36.418,7.559 L36.573,10.568 C36.600,11.109 36.943,11.583 37.446,11.777 L40.246,12.855 C42.792,13.834 43.795,16.925 42.306,19.226 L40.671,21.752 ZM38.221,20.150 L39.856,17.624 C40.329,16.894 40.012,15.910 39.201,15.598 L36.401,14.520 C34.820,13.912 33.741,12.420 33.654,10.720 L33.500,7.710 C33.455,6.840 32.624,6.232 31.785,6.458 L28.890,7.240 C27.254,7.683 25.510,7.113 24.445,5.789 L22.560,3.445 C22.015,2.767 20.986,2.766 20.440,3.445 L18.555,5.789 C17.491,7.113 15.746,7.683 14.110,7.240 L11.215,6.458 C10.378,6.232 9.545,6.838 9.500,7.710 L9.346,10.720 C9.259,12.420 8.180,13.912 6.599,14.520 L3.799,15.598 C2.989,15.910 2.670,16.893 3.144,17.624 L4.779,20.150 C5.702,21.577 5.702,23.421 4.779,24.848 L3.144,27.374 C2.671,28.105 2.988,29.088 3.799,29.401 L6.599,30.478 C8.180,31.087 9.259,32.579 9.346,34.279 L9.500,37.288 C9.545,38.159 10.376,38.767 11.215,38.541 L14.110,37.759 C14.478,37.659 14.851,37.611 15.221,37.611 C16.496,37.611 17.730,38.184 18.556,39.210 L20.440,41.554 C20.985,42.231 22.014,42.233 22.560,41.554 L24.445,39.210 C25.509,37.886 27.254,37.316 28.890,37.759 L31.785,38.541 C32.622,38.767 33.455,38.160 33.500,37.288 L33.654,34.279 C33.741,32.579 34.820,31.087 36.401,30.478 L39.201,29.401 C40.011,29.089 40.330,28.106 39.856,27.374 L38.221,24.848 C37.298,23.421 37.298,21.577 38.221,20.150 ZM15.162,30.800 C14.877,31.087 14.503,31.230 14.129,31.230 C13.755,31.230 13.381,31.087 13.096,30.800 C12.525,30.226 12.525,29.296 13.096,28.723 L26.734,15.015 C27.304,14.441 28.229,14.441 28.800,15.015 C29.371,15.588 29.371,16.518 28.800,17.092 L15.162,30.800 ZM15.590,20.459 C13.979,20.459 12.668,19.142 12.668,17.522 C12.668,15.902 13.979,14.584 15.590,14.584 C17.202,14.584 18.513,15.902 18.512,17.522 C18.512,19.142 17.202,20.459 15.590,20.459 ZM26.306,25.356 C27.917,25.356 29.228,26.673 29.228,28.293 C29.228,29.913 27.917,31.230 26.306,31.230 C24.694,31.230 23.383,29.913 23.383,28.293 C23.383,26.673 24.694,25.356 26.306,25.356 Z"/>
</svg>