<svg width="79" height="47" viewBox="0 0 79 47" fill="none" xmlns="http://www.w3.org/2000/svg">
<g clip-path="url(#clip0_434_188)">
<path d="M63.9651 12.1956L63.2725 15.4527C69.6882 20.62 73.4671 26.1672 73.0186 27.4111C72.4422 29.0164 66.8943 35.4431 52.7309 38.5862L51.1347 41.958C68.1979 38.7362 74.99 30.7849 75.8363 28.4396C77.3766 24.1768 69.0461 16.1385 63.9651 12.1956Z" fill="#FFA51C"/>
<path d="M66.9706 26.3808C59.0198 24.2507 54.9526 21.4536 50.6421 18.5026C47.7243 16.5021 44.6996 14.4277 40.3886 12.4887C37.4489 11.1684 34.8173 10.3226 32.3524 9.79854C27.1389 8.69005 22.6395 9.03175 17.3844 9.41727C13.6566 9.6879 9.56356 9.99334 4.51713 9.83025L3.8849 12.8038C9.31903 13.0186 13.6711 12.6967 17.607 12.409C25.212 11.8381 30.7067 11.432 39.1609 15.2334C43.2301 17.0596 46.1381 19.0581 48.9488 20.9848C53.2768 23.9497 57.7447 27.0262 66.1902 29.2819C67.3613 29.5923 68.5288 29.8712 69.6928 30.1187C70.935 30.3828 72.166 30.6036 73.3914 30.8028L74.0174 27.8586C71.6959 27.4775 69.3302 27.0154 66.9706 26.3808Z" fill="#FFA51C"/>
</g>
<defs>
<clipPath id="clip0_434_188">
<rect width="73.66" height="31.77" fill="white" transform="translate(6.60742) rotate(12.0036)"/>
</clipPath>
</defs>
</svg>
