<svg
 xmlns="http://www.w3.org/2000/svg"
 xmlns:xlink="http://www.w3.org/1999/xlink"
 width="45px" height="31px">
<path fill-rule="evenodd"  fill="rgb(255, 255, 255)"
 d="M43.582,26.819 L39.443,26.819 C38.792,29.219 36.605,31.000 33.986,31.000 C31.368,31.000 29.181,29.219 28.530,26.819 L20.062,26.819 C19.412,29.219 17.224,31.000 14.606,31.000 C11.988,31.000 9.801,29.219 9.150,26.819 L5.436,26.819 C4.653,26.819 4.018,26.188 4.018,25.410 C4.018,24.632 4.653,24.001 5.436,24.001 L9.120,24.001 C9.738,21.553 11.953,19.727 14.606,19.727 C17.259,19.727 19.474,21.553 20.092,24.001 L28.501,24.001 C29.118,21.553 31.334,19.727 33.986,19.727 C36.639,19.727 38.854,21.553 39.472,24.001 L42.164,24.001 L42.164,16.734 L40.099,14.090 L29.070,14.090 C28.287,14.090 27.652,13.460 27.652,12.681 L27.652,2.818 L5.436,2.818 C4.653,2.818 4.018,2.187 4.018,1.409 C4.018,0.631 4.653,-0.000 5.436,-0.000 L29.070,-0.000 C29.854,-0.000 30.488,0.630 30.488,1.409 L30.488,2.818 L36.539,2.818 C37.075,2.818 37.565,3.118 37.806,3.594 L42.060,12.001 L42.058,12.003 L44.702,15.387 C44.895,15.634 45.000,15.938 45.000,16.251 L45.000,25.410 C45.000,26.188 44.365,26.819 43.582,26.819 ZM14.606,22.545 C13.042,22.545 11.770,23.809 11.770,25.363 C11.770,26.917 13.042,28.181 14.606,28.181 C16.170,28.181 17.442,26.917 17.442,25.363 C17.442,23.809 16.170,22.545 14.606,22.545 ZM33.986,22.545 C32.422,22.545 31.150,23.809 31.150,25.363 C31.150,26.917 32.422,28.181 33.986,28.181 C35.550,28.181 36.822,26.917 36.822,25.363 C36.822,23.809 35.550,22.545 33.986,22.545 ZM35.664,5.636 L30.488,5.636 L30.488,11.272 L38.516,11.272 L35.664,5.636 ZM17.253,7.186 C17.253,7.964 16.618,8.595 15.835,8.595 L3.734,8.595 C2.951,8.595 2.316,7.964 2.316,7.186 C2.316,6.408 2.951,5.777 3.734,5.777 L15.835,5.777 C16.618,5.777 17.253,6.408 17.253,7.186 ZM14.937,12.728 C14.937,13.507 14.302,14.138 13.519,14.138 L1.418,14.138 C0.635,14.138 -0.000,13.507 -0.000,12.728 C-0.000,11.950 0.635,11.319 1.418,11.319 L13.519,11.319 C14.302,11.319 14.937,11.950 14.937,12.728 ZM3.734,16.862 L10.257,16.862 C11.041,16.862 11.675,17.493 11.675,18.271 C11.675,19.049 11.041,19.680 10.257,19.680 L3.734,19.680 C2.951,19.680 2.316,19.049 2.316,18.271 C2.316,17.493 2.951,16.862 3.734,16.862 Z"/>
</svg>