<svg width="80" height="55" viewBox="0 0 80 55" fill="none" xmlns="http://www.w3.org/2000/svg">
<g clip-path="url(#clip0_434_185)">
<path d="M55.4363 4.89684L56.522 8.0449C64.6832 9.1654 70.7809 11.9707 71.0379 13.2678C71.3714 14.9404 69.9305 23.3074 59.4143 33.3019L59.7848 37.014C72.7451 25.4572 74.4664 15.1425 73.9825 12.6966C73.1048 8.24975 61.8228 5.6562 55.4363 4.89684Z" fill="#FFA51C"/>
<path d="M65.3239 15.5026C57.4128 17.776 52.4858 17.4759 47.2709 17.1693C43.7394 16.9592 40.0782 16.7409 35.3846 17.3017C32.185 17.6859 29.494 18.3177 27.1117 19.1393C22.0729 20.877 18.3935 23.4893 14.0892 26.5286C11.0344 28.6822 7.68464 31.0539 3.27635 33.5156L4.26745 36.3895C9.03465 33.7723 12.598 31.2529 15.8223 28.9774C22.0447 24.5678 26.5435 21.3873 35.7475 20.2865C40.1758 19.7537 43.6978 19.9671 47.0995 20.1691C52.3366 20.4786 57.7509 20.8116 66.1507 18.3909C67.3141 18.0531 68.4583 17.6903 69.5833 17.3023C70.7839 16.8883 71.9526 16.4429 73.1053 15.9819L72.124 13.1364C69.9382 14.0065 67.6729 14.83 65.3239 15.5026Z" fill="#FFA51C"/>
</g>
<defs>
<clipPath id="clip0_434_185">
<rect width="73.66" height="31.77" fill="white" transform="translate(0 24.0147) rotate(-19.0274)"/>
</clipPath>
</defs>
</svg>
