<svg width="74" height="32" viewBox="0 0 74 32" fill="none" xmlns="http://www.w3.org/2000/svg">
<g clip-path="url(#clip0_434_182)">
<path d="M58.6403 0V3.33C65.9903 7.05 70.8403 11.69 70.6603 13C70.4303 14.69 66.3403 22.13 53.1403 28.15L52.2803 31.78C68.3003 25.08 73.2903 15.89 73.6303 13.42C74.2503 8.93 64.4303 2.8 58.6403 0Z" fill="#FFA51C"/>
<path d="M64.53 13.25C56.31 12.82 51.75 10.93 46.92 8.94C43.65 7.59 40.26 6.19 35.64 5.19C32.49 4.51 29.74 4.23 27.22 4.23C21.89 4.23 17.56 5.5 12.5 6.97C8.91 8.01 4.97 9.16 0 10.05V13.09C5.36 12.17 9.55 10.95 13.34 9.85C20.66 7.71 25.95 6.17 35.01 8.13C39.37 9.07 42.63 10.42 45.78 11.72C50.63 13.72 55.64 15.8 64.37 16.25C65.58 16.31 66.78 16.34 67.97 16.34C69.24 16.34 70.49 16.3 71.73 16.24V13.23C69.38 13.34 66.97 13.38 64.53 13.25Z" fill="#FFA51C"/>
</g>
<defs>
<clipPath id="clip0_434_182">
<rect width="73.66" height="31.77" fill="white"/>
</clipPath>
</defs>
</svg>
