<?xml version="1.0" encoding="utf-8"?>
<!-- Generator: Adobe Illustrator 19.0.0, SVG Export Plug-In . SVG Version: 6.00 Build 0)  -->
<svg version="1.1" id="Слой_1" xmlns="http://www.w3.org/2000/svg" xmlns:xlink="http://www.w3.org/1999/xlink" x="0px" y="0px"
	 viewBox="214 -225.3 468.3 468.3" style="enable-background:new 214 -225.3 468.3 468.3;" xml:space="preserve">
<style type="text/css">
	.st0{display:none;}
	.st1{display:inline;fill:#0082C6;}
	.st2{display:inline;fill:#FFFFFF;}
	.st3{display:inline;fill:#26A2DC;}
	.st4{display:inline;fill:#F68621;}
	.st5{font-family:'AGHelveticaBold';}
	.st6{font-size:99px;}
	.st7{fill:#FFFFFF;}
	.st8{display:inline;fill:#EBF0F3;}
	.st9{fill:#0082C6;}
	.st10{fill:#26A2DC;}
	.st11{fill:#F68621;}
</style>
<g id="pdf" class="st0">
	<polygon class="st1" points="346.4,-225.3 270.5,-149.4 270.5,243 613.9,243 613.9,-225.3 	"/>
	<path class="st2" d="M578.9,12.6C571.2,3.8,560-2.2,547.3-4.5c-20-3.6-39.1-4.9-57-4.6c-16.3-16.4-32-35.9-42.8-57.2
		c9.4-31,14.4-57.8,17.2-72.9c1.4-7.8-0.7-16-5.8-22.1c-4.8-5.7-11.7-9-18.9-9l0,0c-7.1,0-13.1,2.9-17.3,8.3
		c-14.4,18.3-4.5,62.5-2.4,71.2c2.2,8.8,5.2,17.4,9,25.7c-7.5,23.5-17.5,49-31.1,73.1c-45.4,16.6-72.4,39.3-74.7,41.2
		c-7.5,7.3-11.3,14.7-11.1,21.9c0.1,4.1,1.6,10.1,7.9,15.6c4.9,4.2,11.1,6.4,17.4,6.4c6.4,0,12.9-2.2,18.2-6.5
		c21.9-18,39.5-40.4,53.6-64.2c21.1-7.2,46.1-12.9,74.2-14.2c20.2,19.6,40.4,34.5,53,43.2c13.4,9.2,31.3,8,42.7-2.8
		C589.9,38.6,589.8,25.1,578.9,12.6z M345.1,73.6c-4.1,3.3-10,3.6-13.5,0.5c-1.4-1.2-2.1-2.3-2.1-3.2c0-0.8,0.3-3.8,5.5-8.8
		c0.4-0.3,17.3-14.6,47-28.4C371.4,48.4,359.2,62,345.1,73.6z M436.1-151.3c0.9-1.1,1.8-1.8,3.9-1.8c3,0,4.9,1.8,5.8,2.9
		c1.8,2.2,2.6,5.2,2.1,8.1l0,0c-2,11-5.3,28.5-10.6,49.3c-0.2-0.6-0.3-1.2-0.5-1.8C432.4-113,429.2-142.6,436.1-151.3z M421.4,0.8
		c7.5-15.1,13.7-30.3,19-45.1c8.1,13.1,17.7,25.4,27.8,36.5C451.3-6.1,435.6-3.1,421.4,0.8z M567.5,36.4c-5.5,5.3-14.4,5.7-21.2,1.1
		c-9.3-6.4-22.9-16.4-37.5-29.1c11.4,0.5,23.2,1.8,35.4,4c8.9,1.6,16.6,5.7,21.7,11.6C572.7,31.5,569.7,34.3,567.5,36.4z"/>
	<polygon class="st3" points="346.4,-149.4 346.4,-225.3 270.5,-149.4 	"/>
	<path class="st4" d="M628.9,216.6H432.5c-8.3,0-15.1-6.8-15.1-15.1v-84.1c0-8.3,6.8-15.1,15.1-15.1h196.4c8.3,0,15.1,6.8,15.1,15.1
		v84.1C644,209.8,637.3,216.6,628.9,216.6z"/>
	<text transform="matrix(1 0 0 1 429.476 196.1009)" class="st2 st5 st6">PDF</text>
</g>
<g id="zip" class="st0">
	<polygon class="st1" points="337.3,-224.8 261.4,-148.9 261.4,243.5 604.8,243.5 604.8,-224.8 	"/>
	<path class="st7" d="M979-429c-7.7-8.8-18.9-14.8-31.6-17.1c-20-3.6-39.1-4.9-57-4.6c-16.3-16.4-32-35.9-42.8-57.2
		c9.4-31,14.4-57.8,17.2-72.9c1.4-7.8-0.7-16-5.8-22.1c-4.8-5.7-11.7-9-18.9-9l0,0c-7.1,0-13.1,2.9-17.3,8.3
		c-14.4,18.3-4.5,62.5-2.4,71.2c2.2,8.8,5.2,17.4,9,25.7c-7.5,23.5-17.5,49-31.1,73.1c-45.4,16.6-72.4,39.3-74.7,41.2
		c-7.5,7.3-11.3,14.7-11.1,21.9c0.1,4.1,1.6,10.1,7.9,15.6c4.9,4.2,11.1,6.4,17.4,6.4c6.4,0,12.9-2.2,18.2-6.5
		c21.9-18,39.5-40.4,53.6-64.2c21.1-7.2,46.1-12.9,74.2-14.2c20.2,19.6,40.4,34.5,53,43.2c13.4,9.2,31.3,8,42.7-2.8
		C990-403,989.9-416.5,979-429z M745.2-368c-4.1,3.3-10,3.6-13.5,0.5c-1.4-1.2-2.1-2.3-2.1-3.2c0-0.8,0.3-3.8,5.5-8.8
		c0.4-0.3,17.3-14.6,47-28.4C771.5-393.2,759.3-379.6,745.2-368z M836.2-592.9c0.9-1.1,1.8-1.8,3.9-1.8c3,0,4.9,1.8,5.8,2.9
		c1.8,2.2,2.6,5.2,2.1,8.1l0,0c-2,11-5.3,28.5-10.6,49.3c-0.2-0.6-0.3-1.2-0.5-1.8C832.5-554.6,829.3-584.2,836.2-592.9z
		 M821.5-440.8c7.5-15.1,13.7-30.3,19-45.1c8.1,13.1,17.7,25.4,27.8,36.5C851.4-447.7,835.7-444.7,821.5-440.8z M967.6-405.2
		c-5.5,5.3-14.4,5.7-21.2,1.1c-9.3-6.4-22.9-16.4-37.5-29.1c11.4,0.5,23.2,1.8,35.4,4c8.9,1.6,16.6,5.7,21.7,11.6
		C972.8-410.1,969.8-407.3,967.6-405.2z"/>
	<polygon class="st3" points="337.3,-148.9 337.3,-224.8 261.4,-148.9 	"/>
	<path class="st4" d="M619.8,217.1H423.4c-8.3,0-15.1-6.8-15.1-15.1v-84.1c0-8.3,6.8-15.1,15.1-15.1h196.4c8.3,0,15.1,6.8,15.1,15.1
		V202C634.9,210.3,628.2,217.1,619.8,217.1z"/>
	<g>
		<path class="st8" d="M886-308.3c4.4,3.7,6.6,9.4,6.6,17c0,7.7-2.3,13.3-6.8,16.9s-11.4,5.4-20.7,5.4h-11.2v18.6h-10.7v-63.4H865
			C874.6-313.9,881.6-312,886-308.3z M878.4-282.2c2.1-2.3,3.2-5.6,3.2-10s-1.4-7.5-4.1-9.3c-2.7-1.8-7-2.7-12.8-2.7h-10.9v25.4
			h12.4C872.3-278.8,876.3-279.9,878.4-282.2z"/>
		<path class="st8" d="M953.2-305.6c6.1,5.5,9.2,13.2,9.2,23.1c0,9.9-3,17.6-8.9,23.4c-5.9,5.7-15,8.6-27.2,8.6h-21v-63.4H927
			C938.4-313.9,947.1-311.1,953.2-305.6z M951.6-282.2c0-14.5-8.3-21.8-24.9-21.8H916v43.4h11.9c7.7,0,13.6-1.8,17.6-5.5
			C949.5-269.7,951.6-275.1,951.6-282.2z"/>
		<path class="st8" d="M986.8-303.9v17.4h28.1v9.9h-28.1v26.1h-10.7v-63.4h42.3l-0.1,10H986.8L986.8-303.9z"/>
	</g>
	<rect x="444.7" y="-207.5" class="st2" width="32.8" height="13.5"/>
	<rect x="412" y="-225.8" class="st2" width="32.8" height="10.1"/>
	<rect x="412" y="-187.2" class="st2" width="32.8" height="13.5"/>
	<rect x="444.7" y="-165.1" class="st2" width="32.8" height="13.5"/>
	<rect x="444.7" y="-122.4" class="st2" width="32.8" height="13.5"/>
	<rect x="412" y="-144.1" class="st2" width="32.8" height="13.5"/>
	<path class="st2" d="M444.7-97.9c-23.2,0-34.2,18.8-34.2,42l-7.8,70.4c0,23.2,18.8,42,42,42s42-18.8,42-42L479-55.8
		C479-79.1,467.9-97.9,444.7-97.9z M458.6,38h-27.8v-58.7h27.8V38z"/>
	<text transform="matrix(1 0 0 1 447.717 195.6009)" class="st2 st5 st6">ZIP</text>
	<path class="st7" d="M994-435c-7.7-8.8-18.9-14.8-31.6-17.1c-20-3.6-39.1-4.9-57-4.6c-16.3-16.4-32-35.9-42.8-57.2
		c9.4-31,14.4-57.8,17.2-72.9c1.4-7.8-0.7-16-5.8-22.1c-4.8-5.7-11.7-9-18.9-9l0,0c-7.1,0-13.1,2.9-17.3,8.3
		c-14.4,18.3-4.5,62.5-2.4,71.2c2.2,8.8,5.2,17.4,9,25.7c-7.5,23.5-17.5,49-31.1,73.1c-45.4,16.6-72.4,39.3-74.7,41.2
		c-7.5,7.3-11.3,14.7-11.1,21.9c0.1,4.1,1.6,10.1,7.9,15.6c4.9,4.2,11.1,6.4,17.4,6.4c6.4,0,12.9-2.2,18.2-6.5
		c21.9-18,39.5-40.4,53.6-64.2c21.1-7.2,46.1-12.9,74.2-14.2c20.2,19.6,40.4,34.5,53,43.2c13.4,9.2,31.3,8,42.7-2.8
		C1005-409,1004.9-422.5,994-435z M760.2-374c-4.1,3.3-10,3.6-13.5,0.5c-1.4-1.2-2.1-2.3-2.1-3.2c0-0.8,0.3-3.8,5.5-8.8
		c0.4-0.3,17.3-14.6,47-28.4C786.5-399.2,774.3-385.6,760.2-374z M851.2-598.9c0.9-1.1,1.8-1.8,3.9-1.8c3,0,4.9,1.8,5.8,2.9
		c1.8,2.2,2.6,5.2,2.1,8.1l0,0c-2,11-5.3,28.5-10.6,49.3c-0.2-0.6-0.3-1.2-0.5-1.8C847.5-560.6,844.3-590.2,851.2-598.9z
		 M836.5-446.8c7.5-15.1,13.7-30.3,19-45.1c8.1,13.1,17.7,25.4,27.8,36.5C866.4-453.7,850.7-450.7,836.5-446.8z M982.6-411.2
		c-5.5,5.3-14.4,5.7-21.2,1.1c-9.3-6.4-22.9-16.4-37.5-29.1c11.4,0.5,23.2,1.8,35.4,4c8.9,1.6,16.6,5.7,21.7,11.6
		C987.8-416.1,984.8-413.3,982.6-411.2z"/>
	<g>
		<path class="st8" d="M901-314.3c4.4,3.7,6.6,9.4,6.6,17c0,7.7-2.3,13.3-6.8,16.9s-11.4,5.4-20.7,5.4h-11.2v18.6h-10.7v-63.4H880
			C889.6-319.9,896.6-318,901-314.3z M893.4-288.2c2.1-2.3,3.2-5.6,3.2-10s-1.4-7.5-4.1-9.3c-2.7-1.8-7-2.7-12.8-2.7h-10.9v25.4
			h12.4C887.3-284.8,891.3-285.9,893.4-288.2z"/>
		<path class="st8" d="M968.2-311.6c6.1,5.5,9.2,13.2,9.2,23.1c0,9.9-3,17.6-8.9,23.4c-5.9,5.7-15,8.6-27.2,8.6h-21v-63.4H942
			C953.4-319.9,962.1-317.1,968.2-311.6z M966.6-288.2c0-14.5-8.3-21.8-24.9-21.8H931v43.4h11.9c7.7,0,13.6-1.8,17.6-5.5
			C964.5-275.7,966.6-281.1,966.6-288.2z"/>
		<path class="st8" d="M1001.8-309.9v17.4h28.1v9.9h-28.1v26.1h-10.7v-63.4h42.3l-0.1,10H1001.8L1001.8-309.9z"/>
	</g>
</g>
<g id="rfb">
	<polygon class="st9" points="342.8,-225.3 266.9,-149.4 266.9,243 610.4,243 610.4,-225.3 	"/>
	<polygon class="st10" points="342.8,-149.4 342.8,-225.3 266.9,-149.4 	"/>
	<path class="st11" d="M625.4,216.6H428.9c-8.3,0-15.1-6.8-15.1-15.1v-84.1c0-8.3,6.8-15.1,15.1-15.1h196.5
		c8.3,0,15.1,6.8,15.1,15.1v84.1C640.5,209.8,633.7,216.6,625.4,216.6z"/>
	<text transform="matrix(1 0 0 1 428.5316 195.1009)" class="st7 st5 st6">RFB</text>
	<path class="st7" d="M475.1-15c0.6-3.5,0.8-7.1,0.8-10.8c0-3.6-0.3-7.2-0.8-10.7l17.8-14c4.2-3.3,5.3-9.2,2.7-13.9l-11.5-19.9
		c-2.7-4.6-8.4-6.6-13.4-4.6l-21,8.5c-5.7-4.6-11.9-8.2-18.5-10.7l-3.2-22.4c-0.8-5.3-5.3-9.2-10.7-9.2h-23c-5.3,0-9.9,4-10.7,9.3
		L380.4-91c-6.6,2.5-12.9,6.2-18.4,10.7l-21.1-8.5c-4.9-2-10.7,0-13.3,4.6l-11.5,19.9c-2.7,4.6-1.5,10.6,2.7,13.9l17.9,13.9
		c-0.6,3.5-0.8,7.1-0.8,10.8c0,3.6,0.3,7.2,0.8,10.7L318.9-1c-4.2,3.3-5.3,9.2-2.7,13.9l11.5,19.9c2.7,4.6,8.4,6.6,13.4,4.6l21-8.5
		c5.7,4.6,11.9,8.2,18.5,10.7l3.2,22.4c0.8,5.3,5.3,9.2,10.7,9.2h23c5.3,0,9.9-4,10.7-9.3l3.2-22.4c6.6-2.5,12.9-6.2,18.4-10.7
		l21.1,8.5c5,2,10.7,0,13.3-4.6l11.5-19.9c2.7-4.6,1.5-10.6-2.7-13.9L475.1-15z M405.9,11.9c-20.8,0-37.7-16.9-37.7-37.7
		s16.9-37.7,37.7-37.7s37.7,16.9,37.7,37.7S426.7,11.9,405.9,11.9z"/>
	<path class="st7" d="M558.9-128.5c0.2-1.7,0.5-3.3,0.5-5.1c0-1.7-0.3-3.4-0.5-5.1l9.7-7.3c2.2-1.6,2.8-4.6,1.4-7l-8.7-15.1
		c-1.4-2.3-4.3-3.3-6.8-2.3l-11.2,4.7c-2.7-2.1-5.6-3.9-8.8-5.2l-1.5-11.9c-0.3-2.7-2.6-4.7-5.3-4.7h-17.4c-2.7,0-5,2-5.3,4.7
		l-1.5,11.9c-3.2,1.3-6.1,3.2-8.8,5.2l-11.2-4.7c-2.5-1.1-5.4-0.1-6.8,2.3L468-153c-1.4,2.3-0.8,5.3,1.4,7l9.7,7.3
		c-0.2,1.7-0.5,3.3-0.5,5.1c0,1.7,0.3,3.4,0.5,5.1l-9.7,7.3c-2.2,1.6-2.8,4.6-1.4,7l8.7,15.1c1.4,2.3,4.3,3.3,6.8,2.3l11.2-4.7
		c2.7,2.1,5.6,3.9,8.8,5.2l1.5,11.9c0.3,2.7,2.6,4.7,5.3,4.7h17.4c2.7,0,5-2,5.3-4.7l1.5-11.9c3.2-1.3,6.1-3.2,8.8-5.2l11.2,4.7
		c2.5,1.1,5.4,0.1,6.8-2.3l8.7-15.1c1.4-2.3,0.8-5.3-1.4-7L558.9-128.5z M519-112c-11.9,0-21.5-9.6-21.5-21.5S507.1-155,519-155
		c11.9,0,21.5,9.6,21.5,21.5S530.9-112,519-112z"/>
</g>
</svg>
