<svg width="20" height="8" viewBox="0 0 20 8" fill="none" xmlns="http://www.w3.org/2000/svg">
<g id="ic_cat2" clip-path="url(#clip0_140_2071)">
<path id="Vector" fill-rule="evenodd" clip-rule="evenodd" d="M19.0001 5.64242e-06H1.0001C0.866488 -0.00883328 0.732533 0.0109746 0.6072 0.058103C0.481867 0.105231 0.368049 0.178593 0.273367 0.273275C0.178684 0.367957 0.105323 0.481775 0.0581946 0.607108C0.0110662 0.732441 -0.00874172 0.866397 9.71952e-05 1.00001V6.00001C-0.00874172 6.13361 0.0110662 6.26757 0.0581946 6.3929C0.105323 6.51824 0.178684 6.63205 0.273367 6.72674C0.368049 6.82142 0.481867 6.89478 0.6072 6.94191C0.732533 6.98904 0.866488 7.00884 1.0001 7.00001H1.7001V7.90001H4.3001V7.00001H15.6001V7.90001H18.2001V7.00001H19.0001C19.1337 7.00884 19.2677 6.98904 19.393 6.94191C19.5183 6.89478 19.6321 6.82142 19.7268 6.72674C19.8215 6.63205 19.8949 6.51824 19.942 6.3929C19.9891 6.26757 20.0089 6.13361 20.0001 6.00001V1.00001C20.0001 0.734789 19.8947 0.480435 19.7072 0.292899C19.5197 0.105362 19.2653 5.64242e-06 19.0001 5.64242e-06ZM3.1001 5.30001H1.3001V3.50001H3.1001V5.30001ZM10.5001 5.30001H8.6001V3.50001H10.4001V5.30001H10.5001ZM13.2001 5.30001H11.3001V3.40001H13.2001V5.30001ZM16.0001 5.30001H14.2001V3.50001H16.0001V5.30001ZM18.7001 5.30001H16.8001V3.40001H18.7001V5.30001Z" fill="white"/>
</g>
<defs>
<clipPath id="clip0_140_2071">
<rect width="20" height="7.9" fill="white"/>
</clipPath>
</defs>
</svg>
