<svg width="20" height="16" viewBox="0 0 20 16" fill="none" xmlns="http://www.w3.org/2000/svg">
<g id="ic_cat6" clip-path="url(#clip0_140_2060)">
<path id="Vector" d="M19.8696 7.30001L10.9696 0.300011C10.6915 0.104188 10.3597 -0.000915527 10.0196 -0.000915527C9.67948 -0.000915527 9.34767 0.104188 9.06959 0.300011L0.169592 7.30001C-0.0304083 7.40001 -0.0304083 7.60001 0.0695917 7.80001L0.869592 8.70001C0.923531 8.75432 0.993784 8.78944 1.06959 8.80001C1.12388 8.80655 1.17894 8.80097 1.23081 8.78368C1.28269 8.76638 1.33008 8.73781 1.36959 8.70001L2.96959 8.40001L2.86959 8.50001V15.2C2.8874 15.3972 2.98045 15.5799 3.12942 15.7102C3.27839 15.8406 3.47183 15.9085 3.66959 15.9H16.4696C16.6674 15.9085 16.8608 15.8406 17.0098 15.7102C17.1587 15.5799 17.2518 15.3972 17.2696 15.2V8.50001L16.9696 8.40001L18.5696 8.70001C18.6091 8.73781 18.6565 8.76638 18.7084 8.78368C18.7602 8.80097 18.8153 8.80655 18.8696 8.80001C18.9696 8.80001 19.0696 8.70001 19.1696 8.70001L19.9696 7.80001C19.9957 7.62678 19.9603 7.44988 19.8696 7.30001ZM9.96959 3.00001C10.075 2.99867 10.1797 3.01844 10.2773 3.05817C10.375 3.0979 10.4637 3.15678 10.5383 3.23133C10.6128 3.30589 10.6717 3.39461 10.7114 3.49228C10.7512 3.58995 10.7709 3.69458 10.7696 3.80001V8.00001C10.7709 8.10544 10.7512 8.21007 10.7114 8.30774C10.6717 8.40541 10.6128 8.49413 10.5383 8.56869C10.4637 8.64325 10.375 8.70212 10.2773 8.74185C10.1797 8.78158 10.075 8.80135 9.96959 8.80001C9.76204 8.78597 9.56661 8.69718 9.41952 8.55008C9.27242 8.40299 9.18363 8.20756 9.16959 8.00001V3.80001C9.16825 3.69458 9.18802 3.58995 9.22775 3.49228C9.26748 3.39461 9.32636 3.30589 9.40091 3.23133C9.47547 3.15678 9.5642 3.0979 9.66186 3.05817C9.75953 3.01844 9.86416 2.99867 9.96959 3.00001ZM15.0696 8.90001C15.061 9.76502 14.8326 10.6136 14.4057 11.366C13.9789 12.1184 13.3677 12.7499 12.6296 13.2011C11.8915 13.6522 11.0507 13.9082 10.1865 13.9449C9.32219 13.9817 8.46278 13.798 7.68905 13.4111C6.91533 13.0242 6.25272 12.4469 5.76355 11.7335C5.27438 11.02 4.97473 10.1938 4.89278 9.33266C4.81083 8.4715 4.94927 7.60365 5.29509 6.81072C5.6409 6.0178 6.18272 5.32587 6.86959 4.80001C6.95998 4.73024 7.06379 4.67987 7.17454 4.65205C7.28528 4.62423 7.40057 4.61956 7.51321 4.63833C7.62584 4.6571 7.73338 4.69891 7.82912 4.76115C7.92485 4.82338 8.00672 4.9047 8.06959 5.00001C8.20198 5.17788 8.26487 5.39796 8.24646 5.61892C8.22804 5.83988 8.12959 6.04651 7.96959 6.20001C7.52992 6.49794 7.17158 6.90093 6.92711 7.37243C6.68263 7.84392 6.55974 8.36899 6.56959 8.90001C6.56959 9.80175 6.92781 10.6665 7.56543 11.3042C8.20305 11.9418 9.06786 12.3 9.96959 12.3C10.8713 12.3 11.7361 11.9418 12.3738 11.3042C13.0114 10.6665 13.3696 9.80175 13.3696 8.90001C13.3794 8.36899 13.2566 7.84392 13.0121 7.37243C12.7676 6.90093 12.4093 6.49794 11.9696 6.20001C11.7977 6.05735 11.6829 5.85759 11.6462 5.63725C11.6094 5.41691 11.6533 5.19071 11.7696 5.00001C11.9122 4.82811 12.112 4.71331 12.3324 4.67658C12.5527 4.63986 12.7789 4.68367 12.9696 4.80001C13.6105 5.27671 14.1332 5.89439 14.4973 6.60531C14.8615 7.31623 15.0573 8.10136 15.0696 8.90001Z" fill="white"/>
</g>
<defs>
<clipPath id="clip0_140_2060">
<rect width="19.97" height="15.9" fill="white"/>
</clipPath>
</defs>
</svg>
