<svg width="20" height="20" viewBox="0 0 20 20" fill="none" xmlns="http://www.w3.org/2000/svg">
<g id="ic_cat16">
<path id="Vector" d="M14.2 0.900024H6.2C5.2 0.900024 4.5 1.70002 4.5 2.60002V17.6C4.5 18.6 5.3 19.3 6.2 19.3H14.2C15.2 19.3 15.9 18.5 15.9 17.6V2.60002C15.9 1.70002 15.1 0.900024 14.2 0.900024ZM10.1 14.7C10.7 14.7 11.2 15.2 11.2 15.8C11.2 16.4 10.7 16.9 10.1 16.9C9.5 16.9 9 16.4 9 15.8C9 15.2 9.5 14.7 10.1 14.7ZM7.3 11.2C7 11.2 6.7 10.9 6.7 10.6V8.30002C6.7 8.00002 7 7.70002 7.3 7.70002H13.1C13.4 7.70002 13.7 8.00002 13.7 8.30002V10.6C13.7 10.9 13.4 11.2 13.1 11.2H7.3ZM13.6 6.10002C13.6 6.40002 13.3 6.70002 13 6.70002H7.2C6.9 6.70002 6.6 6.40002 6.6 6.10002V3.80002C6.6 3.50002 6.9 3.20002 7.2 3.20002H13C13.3 3.20002 13.6 3.50002 13.6 3.80002V6.10002Z" fill="white"/>
<path id="Vector_2" d="M7.7998 4.30005H12.3998V5.40005H7.7998V4.30005Z" fill="white"/>
<path id="Vector_3" d="M7.7998 8.90002H12.3998V10H7.7998V8.90002Z" fill="white"/>
</g>
</svg>
