<svg width="20" height="17" viewBox="0 0 20 17" fill="none" xmlns="http://www.w3.org/2000/svg">
<g id="ic_cat9" clip-path="url(#clip0_140_2085)">
<path id="Vector" d="M18 3H11.4L13.5 0.9C13.5543 0.846061 13.5894 0.775808 13.6 0.7C13.6 0.6 13.6 0.6 13.5 0.5L13.1 0.1C13.0461 0.0456946 12.9758 0.0105679 12.9 0C12.8 0 12.8 0 12.7 0.1L10 3L7.2 0.2C7.14606 0.145695 7.07581 0.110568 7 0.1C6.9 0.1 6.9 0.1 6.8 0.2L6.5 0.5C6.44569 0.553939 6.41057 0.624192 6.4 0.7C6.4 0.8 6.4 0.8 6.5 0.9L8.6 3H2C1.46957 3 0.960859 3.21071 0.585786 3.58579C0.210714 3.96086 0 4.46957 0 5L0 14.5C0 15.0304 0.210714 15.5391 0.585786 15.9142C0.960859 16.2893 1.46957 16.5 2 16.5H18C18.5304 16.5 19.0391 16.2893 19.4142 15.9142C19.7893 15.5391 20 15.0304 20 14.5V5C20 4.46957 19.7893 3.96086 19.4142 3.58579C19.0391 3.21071 18.5304 3 18 3ZM8.4 14V5.9L13.6 10L8.4 14Z" fill="white"/>
</g>
<defs>
<clipPath id="clip0_140_2085">
<rect width="20" height="16.5" fill="white"/>
</clipPath>
</defs>
</svg>
