<svg width="15" height="18" viewBox="0 0 15 18" fill="none" xmlns="http://www.w3.org/2000/svg">
<g id="ic_cat5" clip-path="url(#clip0_140_2062)">
<path id="Vector" d="M6.29955 16.84C6.29955 17.14 5.39955 17.64 5.09955 17.84C4.94601 17.9208 4.77237 17.9556 4.59955 17.94C4.25833 17.9218 3.92152 17.8545 3.59955 17.74C1.99955 17.24 1.59955 16.24 0.899547 14.84C0.256767 13.3941 -0.0508984 11.8216 -0.000452574 10.24C-0.0605036 8.65769 0.247582 7.08302 0.899547 5.64001C1.59955 4.24001 1.89955 3.24001 3.59955 2.74001C3.92152 2.62556 4.25833 2.5582 4.59955 2.54001C4.77237 2.52444 4.94601 2.55917 5.09955 2.64001C5.39955 2.74001 6.29955 3.24001 6.29955 3.64001C6.29955 3.84001 5.79955 5.54001 5.69955 5.94001C5.59955 6.04001 5.59955 6.44001 5.39955 6.64001C5.19955 6.84001 5.09955 6.84001 4.89955 6.84001C4.39955 6.84001 3.99955 6.74001 3.49955 6.74001C3.39955 6.74001 3.09955 6.74001 2.99955 6.84001C2.88309 7.10021 2.7829 7.36739 2.69955 7.64001C2.46145 8.48729 2.32713 9.36034 2.29955 10.24C2.2853 11.123 2.42054 12.0021 2.69955 12.84C2.79955 13.04 2.79955 13.54 2.99955 13.64C3.14942 13.7307 3.32632 13.7661 3.49955 13.74C3.99955 13.74 4.39955 13.64 4.89955 13.64C5.07278 13.6139 5.24967 13.6493 5.39955 13.74C5.59955 13.94 5.59955 14.34 5.69955 14.54C5.94618 15.2937 6.14655 16.0618 6.29955 16.84ZM7.89955 7.64001C8.09955 7.64001 8.19955 7.54001 8.39955 7.44001C8.6414 7.20991 8.82953 6.92929 8.95052 6.61817C9.07152 6.30704 9.1224 5.97305 9.09955 5.64001C9.09505 5.30144 9.02181 4.96731 8.8843 4.6579C8.74678 4.34848 8.54784 4.07023 8.29955 3.84001C8.24746 3.76969 8.17963 3.71256 8.10148 3.6732C8.02333 3.63383 7.93705 3.61332 7.84955 3.61332C7.76204 3.61332 7.67576 3.63383 7.59761 3.6732C7.51946 3.71256 7.45163 3.76969 7.39955 3.84001C7.32923 3.89209 7.2721 3.95993 7.23274 4.03807C7.19337 4.11622 7.17286 4.20251 7.17286 4.29001C7.17286 4.37751 7.19337 4.4638 7.23274 4.54194C7.2721 4.62009 7.32923 4.68793 7.39955 4.74001C7.61396 4.99699 7.75248 5.30866 7.79955 5.64001C7.80819 5.81089 7.77648 5.98141 7.70699 6.13776C7.6375 6.29412 7.53218 6.43191 7.39955 6.54001C7.32923 6.59209 7.2721 6.65993 7.23274 6.73807C7.19337 6.81622 7.17286 6.90251 7.17286 6.99001C7.17286 7.07751 7.19337 7.1638 7.23274 7.24194C7.2721 7.32009 7.32923 7.38793 7.39955 7.44001C7.46376 7.50714 7.54161 7.55972 7.62786 7.59422C7.71411 7.62872 7.80675 7.64434 7.89955 7.64001ZM9.69955 9.44001C9.89955 9.44001 9.99955 9.34001 10.1995 9.24001C10.6744 8.76834 11.0514 8.20749 11.3088 7.58969C11.5662 6.97188 11.699 6.3093 11.6995 5.64001C11.7087 4.96931 11.5803 4.30385 11.3223 3.68469C11.0643 3.06553 10.6822 2.50579 10.1995 2.04001C10.1475 1.96969 10.0796 1.91256 10.0015 1.8732C9.92333 1.83383 9.83705 1.81332 9.74955 1.81332C9.66204 1.81332 9.57576 1.83383 9.49761 1.8732C9.41946 1.91256 9.35163 1.96969 9.29955 2.04001C9.22923 2.09209 9.1721 2.15993 9.13274 2.23807C9.09337 2.31622 9.07286 2.40251 9.07286 2.49001C9.07286 2.57751 9.09337 2.6638 9.13274 2.74194C9.1721 2.82009 9.22923 2.88793 9.29955 2.94001C10.0056 3.66137 10.401 4.63061 10.401 5.64001C10.401 6.6494 10.0056 7.61864 9.29955 8.34001C9.22923 8.39209 9.1721 8.45993 9.13274 8.53807C9.09337 8.61622 9.07286 8.70251 9.07286 8.79001C9.07286 8.87751 9.09337 8.9638 9.13274 9.04194C9.1721 9.12009 9.22923 9.18793 9.29955 9.24001C9.33872 9.30939 9.39772 9.3655 9.46899 9.40113C9.54025 9.43676 9.62054 9.4503 9.69955 9.44001ZM11.5995 11.34C11.7995 11.34 11.8995 11.24 12.0995 11.14C12.832 10.4242 13.413 9.56844 13.8081 8.6236C14.2033 7.67876 14.4044 6.66413 14.3995 5.64001C14.4044 4.61589 14.2033 3.60125 13.8081 2.65641C13.413 1.71157 12.832 0.855815 12.0995 0.140008C11.9485 0.0341503 11.7645 -0.0139799 11.581 0.00437213C11.3975 0.0227242 11.2266 0.106339 11.0995 0.240008C11.0292 0.29209 10.9721 0.359926 10.9327 0.438073C10.8934 0.51622 10.8729 0.602506 10.8729 0.690008C10.8729 0.777511 10.8934 0.863796 10.9327 0.941943C10.9721 1.02009 11.0292 1.08793 11.0995 1.14001C11.6972 1.72786 12.1727 2.42805 12.4988 3.20033C12.8249 3.97261 12.995 4.80173 12.9995 5.64001C12.9722 7.35876 12.2931 9.00297 11.0995 10.24C11.0292 10.2921 10.9721 10.3599 10.9327 10.4381C10.8934 10.5162 10.8729 10.6025 10.8729 10.69C10.8729 10.7775 10.8934 10.8638 10.9327 10.9419C10.9721 11.0201 11.0292 11.0879 11.0995 11.14C11.2362 11.2655 11.4141 11.3366 11.5995 11.34Z" fill="white"/>
</g>
<defs>
<clipPath id="clip0_140_2062">
<rect width="14.4" height="17.94" fill="white"/>
</clipPath>
</defs>
</svg>
