<svg width="20" height="14" viewBox="0 0 20 14" fill="none" xmlns="http://www.w3.org/2000/svg">
<g id="ic_cat10" clip-path="url(#clip0_140_2079)">
<path id="Vector" d="M12.1004 6H13.1004V9H12.1004V6ZM14.1004 0H15.1004V1H14.1004V0ZM6.90039 0H7.90039V1H6.90039V0ZM14.1004 6H15.1004V9H14.1004V6ZM12.1004 0H13.1004V1H12.1004V0ZM4.90039 6H5.90039V9H4.90039V6Z" fill="white"/>
<path id="Vector_2" fill-rule="evenodd" clip-rule="evenodd" d="M16.1 0V12H11.1V0H8.9V12H3.9V0H0V14H20V0H16.1Z" fill="white"/>
<path id="Vector_3" d="M4.90039 0H5.90039V1H4.90039V0ZM6.90039 6H7.90039V9H6.90039V6Z" fill="white"/>
</g>
<defs>
<clipPath id="clip0_140_2079">
<rect width="20" height="14" fill="white"/>
</clipPath>
</defs>
</svg>
