<svg width="20" height="14" viewBox="0 0 20 14" fill="none" xmlns="http://www.w3.org/2000/svg">
<g id="ic_cat11" clip-path="url(#clip0_140_2075)">
<g id="Group">
<path id="Vector" fill-rule="evenodd" clip-rule="evenodd" d="M18 3.90002H11.7L11.3 5.40002L14.5 5.50002L11.7 9.90002H18C18.5304 9.90002 19.0391 9.68931 19.4142 9.31424C19.7893 8.93917 20 8.43046 20 7.90002V5.90002C20 5.36959 19.7893 4.86088 19.4142 4.48581C19.0391 4.11074 18.5304 3.90002 18 3.90002ZM9.5 8.20002L6.7 8.10002L9.2 3.90002H2C1.46957 3.90002 0.960859 4.11074 0.585786 4.48581C0.210714 4.86088 0 5.36959 0 5.90002L0 7.90002C0 8.43046 0.210714 8.93917 0.585786 9.31424C0.960859 9.68931 1.46957 9.90002 2 9.90002H9.1L9.5 8.20002Z" fill="white"/>
<path id="Vector_2" fill-rule="evenodd" clip-rule="evenodd" d="M10.6996 5.9L12.0996 0L7.59961 7.7H10.0996L8.59961 13.8L13.6996 5.9H10.6996Z" fill="white"/>
</g>
</g>
<defs>
<clipPath id="clip0_140_2075">
<rect width="20" height="13.8" fill="white"/>
</clipPath>
</defs>
</svg>
