<svg width="20" height="17" viewBox="0 0 20 17" fill="none" xmlns="http://www.w3.org/2000/svg">
<g id="ic_cat8" clip-path="url(#clip0_140_2052)">
<path id="Vector" fill-rule="evenodd" clip-rule="evenodd" d="M19.0001 11.2H3.1001L2.5001 0H1.7001V11.2H1.0001C0.866488 11.1912 0.732533 11.211 0.6072 11.2581C0.481867 11.3052 0.368049 11.3786 0.273367 11.4733C0.178684 11.568 0.105323 11.6818 0.0581946 11.8071C0.0110662 11.9324 -0.00874172 12.0664 9.71952e-05 12.2V15.2C-0.00874172 15.3336 0.0110662 15.4676 0.0581946 15.5929C0.105323 15.7182 0.178684 15.832 0.273367 15.9267C0.368049 16.0214 0.481867 16.0948 0.6072 16.1419C0.732533 16.189 0.866488 16.2088 1.0001 16.2H1.7001V17H4.3001V16.2H15.6001V17H18.2001V16.2H19.0001C19.1337 16.2088 19.2677 16.189 19.393 16.1419C19.5183 16.0948 19.6321 16.0214 19.7268 15.9267C19.8215 15.832 19.8949 15.7182 19.942 15.5929C19.9891 15.4676 20.0089 15.3336 20.0001 15.2V12.2C20.0001 11.9348 19.8947 11.6804 19.7072 11.4929C19.5197 11.3054 19.2653 11.2 19.0001 11.2ZM2.8001 15H1.8001V13.9H2.9001V15H2.8001ZM5.1001 15H4.0001V13.9H5.1001V15ZM9.4001 15H8.4001V13.9H9.5001V15H9.4001ZM11.6001 15H10.5001V13.9H11.6001V15ZM16.0001 15H14.9001V13.9H16.0001V15ZM18.2001 15H17.1001V13.9H18.2001V15Z" fill="white"/>
<path id="Vector_2" d="M10.2996 10.4C10.6862 10.4 10.9996 10.0866 10.9996 9.7C10.9996 9.3134 10.6862 9 10.2996 9C9.91301 9 9.59961 9.3134 9.59961 9.7C9.59961 10.0866 9.91301 10.4 10.2996 10.4Z" fill="white"/>
<path id="Vector_3" d="M15.6995 3.70003C15.0149 2.94762 14.1813 2.34575 13.2517 1.93259C12.3221 1.51944 11.3168 1.30403 10.2995 1.30003C9.27889 1.28213 8.26668 1.48768 7.33386 1.90227C6.40104 2.31686 5.57018 2.93044 4.89953 3.70003C4.85203 3.73431 4.81335 3.77939 4.78668 3.83155C4.76 3.8837 4.74609 3.94144 4.74609 4.00003C4.74609 4.05861 4.76 4.11635 4.78668 4.16851C4.81335 4.22066 4.85203 4.26574 4.89953 4.30003C4.93382 4.34752 4.97889 4.3862 5.03105 4.41288C5.0832 4.43955 5.14095 4.45346 5.19953 4.45346C5.25811 4.45346 5.31585 4.43955 5.36801 4.41288C5.42017 4.3862 5.46524 4.34752 5.49953 4.30003C6.12235 3.65173 6.86687 3.13256 7.69049 2.77223C8.51412 2.41189 9.4007 2.21745 10.2995 2.20003C11.202 2.19477 12.0955 2.37897 12.9224 2.7407C13.7492 3.10244 14.4909 3.63366 15.0995 4.30003C15.139 4.33783 15.1864 4.3664 15.2383 4.38369C15.2902 4.40098 15.3452 4.40656 15.3995 4.40003C15.4995 4.40003 15.5995 4.30003 15.6995 4.30003C15.7995 4.30003 15.8995 3.90003 15.6995 3.70003Z" fill="white"/>
<path id="Vector_4" d="M14.1001 5.49999C13.6132 4.97617 13.0258 4.55572 12.3729 4.26366C11.7201 3.9716 11.0152 3.81391 10.3001 3.79999C9.58348 3.8045 8.87562 3.95796 8.22145 4.25061C7.56728 4.54327 6.9811 4.96873 6.50012 5.49999C6.45262 5.53428 6.41394 5.57935 6.38726 5.63151C6.36059 5.68366 6.34668 5.74141 6.34668 5.79999C6.34668 5.85857 6.36059 5.91631 6.38726 5.96847C6.41394 6.02062 6.45262 6.0657 6.50012 6.09999C6.5344 6.14749 6.57948 6.18616 6.63164 6.21284C6.68379 6.23951 6.74153 6.25342 6.80012 6.25342C6.8587 6.25342 6.91644 6.23951 6.9686 6.21284C7.02075 6.18616 7.06583 6.14749 7.10012 6.09999C7.51257 5.66424 8.00836 5.31577 8.55806 5.07528C9.10775 4.83479 9.70016 4.70717 10.3001 4.69999C10.9001 4.70717 11.4925 4.83479 12.0422 5.07528C12.5919 5.31577 13.0877 5.66424 13.5001 6.09999C13.5396 6.13779 13.587 6.16636 13.6389 6.18365C13.6908 6.20094 13.7458 6.20652 13.8001 6.19999C13.9001 6.19999 14.0001 6.09999 14.1001 6.09999C14.1476 6.0657 14.1863 6.02062 14.213 5.96847C14.2396 5.91631 14.2536 5.85857 14.2536 5.79999C14.2536 5.74141 14.2396 5.68366 14.213 5.63151C14.1863 5.57935 14.1476 5.53428 14.1001 5.49999ZM12.4001 7.29999C11.8462 6.73475 11.0914 6.41126 10.3001 6.39999H10.2001C9.8072 6.39882 9.4182 6.47806 9.05705 6.63284C8.6959 6.78762 8.37025 7.01466 8.10012 7.29999C8.05023 7.39211 8.0241 7.49522 8.0241 7.59999C8.0241 7.70475 8.05023 7.80786 8.10012 7.89999C8.22169 7.96954 8.36011 8.00415 8.50012 7.99999C8.60012 7.99999 8.70012 7.89999 8.80012 7.89999C9.19759 7.49093 9.73129 7.24186 10.3001 7.19999H10.4001C10.9689 7.24186 11.5026 7.49093 11.9001 7.89999C11.9344 7.94749 11.9795 7.98616 12.0316 8.01284C12.0838 8.03951 12.1415 8.05342 12.2001 8.05342C12.2587 8.05342 12.3164 8.03951 12.3686 8.01284C12.4208 7.98616 12.4658 7.94749 12.5001 7.89999C12.6001 7.69999 12.6001 7.39999 12.4001 7.29999Z" fill="white"/>
</g>
<defs>
<clipPath id="clip0_140_2052">
<rect width="20" height="17" fill="white"/>
</clipPath>
</defs>
</svg>
