<svg width="21" height="14" viewBox="0 0 21 14" fill="none" xmlns="http://www.w3.org/2000/svg">
<g id="ic_cat3" clip-path="url(#clip0_140_2068)">
<path id="Vector" d="M11 10V7.5H2C1.46957 7.5 0.960859 7.71071 0.585786 8.08579C0.210714 8.46086 0 8.96957 0 9.5L0 11.5C0 12.0304 0.210714 12.5391 0.585786 12.9142C0.960859 13.2893 1.46957 13.5 2 13.5H15C15.5304 13.5 16.0391 13.2893 16.4142 12.9142C16.7893 12.5391 17 12.0304 17 11.5V10.8H11.8C11.6946 10.8013 11.5899 10.7816 11.4923 10.7418C11.3946 10.7021 11.3059 10.6432 11.2313 10.5687C11.1568 10.4941 11.0979 10.4054 11.0582 10.3077C11.0184 10.2101 10.9987 10.1054 11 10ZM2.6 12.1H1.7V11.2H2.6V12.1ZM4.5 12.1H3.6V11.2H4.5V12.1ZM8.2 12.1H7.3V11.2H8.2V12.1ZM10.1 12.1H9.1V11.2H10V12.1H10.1ZM14.7 11.2H15.6V12.1H14.7V11.2ZM12.9 11.2H13.8V12.1H12.9V11.2Z" fill="white"/>
<path id="Vector_2" d="M19.3001 4.6H19.1001V3.2C19.0949 2.35293 18.756 1.54204 18.1571 0.943054C17.5581 0.344071 16.7472 0.00524519 15.9001 0C15.0586 0.022722 14.2578 0.367158 13.6625 0.96242C13.0673 1.55768 12.7228 2.35848 12.7001 3.2V4.6H12.5001C12.4074 4.59723 12.3152 4.61345 12.229 4.64764C12.1428 4.68184 12.0645 4.7333 11.999 4.79886C11.9334 4.86443 11.882 4.9427 11.8478 5.02888C11.8136 5.11506 11.7973 5.20732 11.8001 5.3V9.5C11.7973 9.59268 11.8136 9.68494 11.8478 9.77112C11.882 9.8573 11.9334 9.93557 11.999 10.0011C12.0645 10.0667 12.1428 10.1182 12.229 10.1524C12.3152 10.1866 12.4074 10.2028 12.5001 10.2H19.5001C19.5928 10.2028 19.685 10.1866 19.7712 10.1524C19.8574 10.1182 19.9357 10.0667 20.0012 10.0011C20.0668 9.93557 20.1183 9.8573 20.1525 9.77112C20.1867 9.68494 20.2029 9.59268 20.2001 9.5V5.3C20.1313 5.11034 20.0104 4.94399 19.8511 4.82014C19.6919 4.69628 19.5009 4.61997 19.3001 4.6ZM17.7001 4.6H14.0001V3.2C14.0001 2.69609 14.2003 2.21282 14.5566 1.8565C14.9129 1.50018 15.3962 1.3 15.9001 1.3C16.404 1.3 16.8873 1.50018 17.2436 1.8565C17.5999 2.21282 17.8001 2.69609 17.8001 3.2V4.6H17.7001Z" fill="white"/>
</g>
<defs>
<clipPath id="clip0_140_2068">
<rect width="20.2" height="13.5" fill="white"/>
</clipPath>
</defs>
</svg>
