<svg width="15" height="15" viewBox="0 0 15 15" fill="none" xmlns="http://www.w3.org/2000/svg">
<g id="ic_cat12" clip-path="url(#clip0_140_2073)">
<path id="Vector" fill-rule="evenodd" clip-rule="evenodd" d="M7.5 0C5.51492 0.0131033 3.61487 0.807487 2.21118 2.21118C0.807487 3.61487 0.0131033 5.51492 0 7.5C0.0131033 9.48508 0.807487 11.3851 2.21118 12.7888C3.61487 14.1925 5.51492 14.9869 7.5 15C9.48912 15 11.3968 14.2098 12.8033 12.8033C14.2098 11.3968 15 9.48912 15 7.5C15 5.51088 14.2098 3.60322 12.8033 2.1967C11.3968 0.790176 9.48912 0 7.5 0ZM7.5 10C7.00555 10 6.5222 9.85338 6.11107 9.57867C5.69995 9.30397 5.37952 8.91352 5.1903 8.45671C5.00108 7.99989 4.95157 7.49723 5.04804 7.01227C5.1445 6.52732 5.3826 6.08186 5.73223 5.73223C6.08186 5.3826 6.52732 5.1445 7.01227 5.04804C7.49723 4.95157 7.99989 5.00108 8.45671 5.1903C8.91352 5.37952 9.30397 5.69995 9.57867 6.11107C9.85338 6.5222 10 7.00555 10 7.5C10.0027 7.82905 9.93982 8.15533 9.81513 8.45985C9.69043 8.76437 9.50639 9.04103 9.27371 9.27371C9.04103 9.50639 8.76437 9.69043 8.45985 9.81513C8.15533 9.93982 7.82905 10.0027 7.5 10Z" fill="white"/>
</g>
<defs>
<clipPath id="clip0_140_2073">
<rect width="15" height="15" fill="white"/>
</clipPath>
</defs>
</svg>
