<svg width="20" height="17" viewBox="0 0 20 17" fill="none" xmlns="http://www.w3.org/2000/svg">
<g id="ic_cat4" clip-path="url(#clip0_140_2064)">
<path id="Vector" d="M9.92012 16.4C10.6381 16.4 11.2201 15.818 11.2201 15.1C11.2201 14.382 10.6381 13.8 9.92012 13.8C9.20215 13.8 8.62012 14.382 8.62012 15.1C8.62012 15.818 9.20215 16.4 9.92012 16.4Z" fill="white"/>
<path id="Vector_2" d="M19.6201 4.3C18.3804 2.96159 16.8809 1.88998 15.2131 1.15065C13.5453 0.411323 11.7443 0.0197997 9.92008 2.84621e-06C8.0907 -0.0126435 6.27958 0.36426 4.60713 1.10566C2.93467 1.84706 1.43918 2.93597 0.220082 4.3C0.0747452 4.44615 -0.00683594 4.64389 -0.00683594 4.85C-0.00683594 5.05612 0.0747452 5.25385 0.220082 5.4C0.366233 5.54534 0.563968 5.62692 0.770082 5.62692C0.976195 5.62692 1.17393 5.54534 1.32008 5.4C2.39675 4.18636 3.72212 3.2188 5.2061 2.56309C6.69007 1.90738 8.29784 1.57891 9.92008 1.6C11.5423 1.57891 13.1501 1.90738 14.6341 2.56309C16.118 3.2188 17.4434 4.18636 18.5201 5.4C18.5987 5.4762 18.6934 5.53373 18.7973 5.56835C18.9012 5.60297 19.0115 5.61379 19.1201 5.6C19.3056 5.5966 19.4834 5.52546 19.6201 5.4C19.7654 5.25385 19.847 5.05612 19.847 4.85C19.847 4.64389 19.7654 4.44615 19.6201 4.3Z" fill="white"/>
<path id="Vector_3" d="M16.8203 7.50001C15.9276 6.56607 14.8575 5.81967 13.6726 5.30453C12.4878 4.78939 11.2121 4.51588 9.92025 4.50001C8.6248 4.49305 7.34211 4.75624 6.15407 5.27279C4.96602 5.78933 3.89871 6.54787 3.02025 7.50001C2.93889 7.57003 2.87285 7.65609 2.82627 7.7528C2.7797 7.84951 2.75358 7.9548 2.74957 8.06207C2.74555 8.16934 2.76372 8.27628 2.80294 8.3762C2.84216 8.47613 2.90158 8.56688 2.97748 8.64279C3.05338 8.71869 3.14414 8.77811 3.24406 8.81733C3.34399 8.85654 3.45093 8.87471 3.5582 8.8707C3.66547 8.86668 3.77075 8.84057 3.86747 8.79399C3.96418 8.74742 4.05024 8.68138 4.12025 8.60001C5.64734 7.03309 7.73255 6.13429 9.92025 6.10001C12.108 6.13429 14.1932 7.03309 15.7203 8.60001C15.7989 8.67621 15.8936 8.73374 15.9975 8.76836C16.1013 8.80298 16.2116 8.8138 16.3203 8.80001C16.5057 8.79661 16.6836 8.72547 16.8203 8.60001C16.9656 8.45386 17.0472 8.25613 17.0472 8.05001C17.0472 7.8439 16.9656 7.64616 16.8203 7.50001ZM13.7203 10.7C12.7004 9.70704 11.3432 9.13563 9.92025 9.10001H9.82025C8.39726 9.13563 7.04015 9.70704 6.02025 10.7C5.87492 10.8462 5.79334 11.0439 5.79334 11.25C5.79334 11.4561 5.87492 11.6539 6.02025 11.8C6.09887 11.8762 6.19361 11.9337 6.29747 11.9684C6.40133 12.003 6.51165 12.0138 6.62025 12C6.80575 11.9966 6.98359 11.9255 7.12025 11.8C7.85503 11.1008 8.80884 10.6768 9.82025 10.6H9.92025C10.9365 10.6571 11.8969 11.0839 12.6203 11.8C12.6903 11.8814 12.7763 11.9474 12.873 11.994C12.9698 12.0406 13.075 12.0667 13.1823 12.0707C13.2896 12.0747 13.3965 12.0565 13.4964 12.0173C13.5964 11.9781 13.6871 11.9187 13.763 11.8428C13.8389 11.7669 13.8984 11.6761 13.9376 11.5762C13.9768 11.4763 13.995 11.3693 13.9909 11.2621C13.9869 11.1548 13.9608 11.0495 13.9142 10.9528C13.8677 10.8561 13.8016 10.77 13.7203 10.7Z" fill="white"/>
</g>
<defs>
<clipPath id="clip0_140_2064">
<rect width="19.85" height="16.4" fill="white"/>
</clipPath>
</defs>
</svg>
