<svg width="104" height="91" viewBox="0 0 104 91" fill="none" xmlns="http://www.w3.org/2000/svg">
<g opacity="0.3" clip-path="url(#clip0_851_331)">
<path d="M0 28.7542L52 91L104 28.7542L81.0916 0H22.9084L0 28.7542Z" fill="white"/>
<path d="M32.0998 28.7543H0L52 91L32.0998 28.7543Z" fill="#6FF7FF"/>
<path d="M104 28.7543H71.9002L52 91L104 28.7543Z" fill="#3CC8D8"/>
<path d="M71.8999 28.7543H32.0996L51.9998 91L71.8999 28.7543Z" fill="#52E6F8"/>
<path d="M22.9084 0L0 28.7542H32.0998L22.9084 0Z" fill="#52E6F8"/>
<path d="M71.9004 28.7542H104L81.0918 0L71.9004 28.7542Z" fill="#0CA7A6"/>
<path d="M81.0916 0H52L71.9002 28.7542L81.0916 0Z" fill="#52E6F8"/>
<path d="M32.0996 28.7542L51.9998 0H22.9082L32.0996 28.7542Z" fill="#6FF7FF"/>
<path d="M32.0996 28.7542H71.8999L51.9998 0L32.0996 28.7542Z" fill="#3CC8D8"/>
</g>
<defs>
<clipPath id="clip0_851_331">
<rect width="104" height="91" fill="white"/>
</clipPath>
</defs>
</svg>
