<svg width="75" height="91" viewBox="0 0 75 91" fill="none" xmlns="http://www.w3.org/2000/svg">
<g opacity="0.3" clip-path="url(#clip0_850_294)">
<path d="M55.4868 61.249H19.2061V85.2787L28.6558 81.0469H46.0944L55.5441 85.2841V67.1836C55.5244 67.1836 55.5065 61.2419 55.4868 61.249Z" fill="#FBB500"/>
<path d="M37.374 61.249H19.2041V85.2787L28.6556 81.0415H37.374V61.249Z" fill="#FBB500"/>
<path d="M28.6553 61.2455V91L37.3737 87.0898L46.0939 91V61.2526L28.6553 61.2455Z" fill="#FFCE47"/>
<path d="M37.3737 61.249L28.6553 61.2455V91L37.3737 87.0898V61.249Z" fill="#FFE29E"/>
<path d="M0 35.2554L5.43825 24.9663L7.13569 13.4705L17.643 8.32152L25.8218 0L37.3741 1.96752L48.9264 0L57.107 8.32152L67.6125 13.4705L69.3117 24.9663L74.75 35.2554L69.3117 45.5444L67.6125 57.0403L57.107 62.1893L48.9264 70.5108L37.3741 68.5433L25.8218 70.5108L17.643 62.1893L7.13569 57.0403L5.43825 45.5444L0 35.2554Z" fill="#FBB500"/>
<path d="M37.3741 1.96752L25.8218 0L17.643 8.32152L7.13569 13.4705L5.43825 24.9663L0 35.2554L5.43825 45.5444L7.13569 57.0403L17.643 62.1893L25.8218 70.5108L37.3741 68.5433V1.96752Z" fill="#FFCE47"/>
<path d="M37.3762 63.261C52.9747 63.261 65.6197 50.7224 65.6197 35.2554C65.6197 19.7883 52.9747 7.24976 37.3762 7.24976C21.7778 7.24976 9.13281 19.7883 9.13281 35.2554C9.13281 50.7224 21.7778 63.261 37.3762 63.261Z" fill="#FFCE47"/>
<path d="M37.3745 7.25159C29.8843 7.25159 22.7009 10.202 17.4046 15.4537C12.1083 20.7055 9.13281 27.8283 9.13281 35.2554C9.13281 42.6825 12.1083 49.8054 17.4046 55.0571C22.7009 60.3089 29.8843 63.2593 37.3745 63.2593V7.25159Z" fill="#FFE29E"/>
<path d="M37.3745 14.3662C33.2076 14.3648 29.1339 15.5887 25.6686 17.8832C22.2033 20.1777 19.502 23.4396 17.9064 27.2565C16.3109 31.0734 15.8927 35.2737 16.7047 39.3262C17.5168 43.3788 19.5226 47.1016 22.4685 50.0237C25.4144 52.9458 29.1681 54.936 33.2548 55.7426C37.3415 56.5491 41.5776 56.1359 45.4275 54.555C49.2773 52.9742 52.5678 50.2968 54.883 46.8615C57.1981 43.4261 58.4338 39.3871 58.4338 35.2553C58.4277 29.7183 56.2072 24.4097 52.2593 20.4938C48.3115 16.5778 42.9585 14.3742 37.3745 14.3662Z" fill="#FBB500"/>
<path d="M37.3741 14.3662C31.7869 14.3662 26.4286 16.567 22.4779 20.4845C18.5271 24.402 16.3076 29.7152 16.3076 35.2553C16.3076 40.7955 18.5271 46.1087 22.4779 50.0262C26.4286 53.9436 31.7869 56.1445 37.3741 56.1445V14.3662Z" fill="#FFCE47"/>
</g>
<defs>
<clipPath id="clip0_850_294">
<rect width="74.75" height="91" fill="white"/>
</clipPath>
</defs>
</svg>
