<svg width="104" height="90" viewBox="0 0 104 90" fill="none" xmlns="http://www.w3.org/2000/svg">
<g opacity="0.3" clip-path="url(#clip0_851_313)">
<path d="M69.0297 30.235H62.6618V16.6945C62.6618 13.922 61.5382 11.263 59.5383 9.30245C57.5384 7.34194 54.826 6.24054 51.9977 6.24054C49.1694 6.24054 46.457 7.34194 44.4571 9.30245C42.4572 11.263 41.3336 13.922 41.3336 16.6945V30.235H34.9697V16.6945C34.9697 12.2669 36.764 8.02055 39.9577 4.88972C43.1514 1.75888 47.4831 0 51.9997 0C56.5164 0 60.848 1.75888 64.0418 4.88972C67.2355 8.02055 69.0297 12.2669 69.0297 16.6945V30.235Z" fill="#C23700"/>
<path d="M104 20.5057H0V90H104V20.5057Z" fill="#FF7224"/>
<path d="M52 20.5057H0V90H52V20.5057Z" fill="#FF9755"/>
<path d="M104 20.5057H0V55.2528H104V20.5057Z" fill="#DB6000"/>
<path d="M52 20.5057H0V55.2528H52V20.5057Z" fill="#FF7224"/>
<path d="M68.6891 46.7643H35.3096V63.7396H68.6891V46.7643Z" fill="#C23700"/>
<path d="M62.8143 52.1326H41.1855V58.3751H62.8143V52.1326Z" fill="#FFDB9C"/>
</g>
<defs>
<clipPath id="clip0_851_313">
<rect width="104" height="90" fill="white"/>
</clipPath>
</defs>
</svg>
