<svg width="104" height="92" viewBox="0 0 104 92" fill="none" xmlns="http://www.w3.org/2000/svg">
<g opacity="0.3" clip-path="url(#clip0_851_341)">
<path d="M50.3608 90.7017C6.54265 68.152 0 43.9094 0 31.4647C0 0.18343 32.8067 -9.67414 52 10.604C71.2298 -9.71115 104 0.20681 104 31.4647C104 43.9094 97.4573 68.1539 53.6392 90.7017C53.135 90.9607 52.572 91.0962 52 91.0962C51.428 91.0962 50.865 90.9607 50.3608 90.7017Z" fill="#FF7976"/>
<path d="M52 10.6038V91.0949C52.5716 91.0972 53.1349 90.9633 53.6392 90.7053C97.4573 68.1517 104 43.9091 104 31.4644C104 0.206565 71.2298 -9.7114 52 10.6038Z" fill="#FF5752"/>
</g>
<defs>
<clipPath id="clip0_851_341">
<rect width="104" height="91.0949" fill="white"/>
</clipPath>
</defs>
</svg>
