<svg width="85" height="91" viewBox="0 0 85 91" fill="none" xmlns="http://www.w3.org/2000/svg">
<g opacity="0.3" clip-path="url(#clip0_863_2)">
<path d="M78.9275 78.8661C78.7496 78.8661 78.586 78.8661 78.417 78.8892C77.7919 77.1096 76.629 75.568 75.089 74.4774C73.5489 73.3869 71.7079 72.8014 69.8204 72.8018C67.5543 72.8018 65.6546 73.6282 64.0716 74.9968C63.9827 75.0759 63.8678 75.1195 63.7487 75.1195C63.6297 75.1195 63.5148 75.0759 63.4259 74.9968C61.8428 73.63 59.9432 72.8018 57.6788 72.8018C56.9035 72.801 56.1313 72.899 55.3807 73.0932H29.6194C28.8688 72.8992 28.0966 72.8013 27.3213 72.8018C25.0552 72.8018 23.1573 73.63 21.5743 74.9968C21.4846 75.0752 21.3697 75.1187 21.2505 75.1194C21.1318 75.1191 21.0174 75.0755 20.9286 74.9968C19.3437 73.6282 17.4441 72.8018 15.178 72.8018C13.2908 72.8018 11.4502 73.3873 9.9103 74.4774C8.37042 75.5675 7.20723 77.1084 6.58137 78.8874C6.41417 78.8732 6.24341 78.8643 6.07087 78.8643C4.48063 78.864 2.95377 79.4872 1.81854 80.6C0.683312 81.7127 0.0303673 83.2261 8.14514e-05 84.8148C-0.0639527 88.2167 2.78735 91 6.19183 91H78.8083C82.2128 91 85.0641 88.2167 84.9983 84.8148C84.9671 83.2266 84.3138 81.7139 83.1787 80.6016C82.0436 79.4893 80.5173 78.8662 78.9275 78.8661Z" fill="#ECF0F9"/>
<path d="M78.9273 78.8661C78.7494 78.8661 78.5858 78.8661 78.4168 78.8892C77.7917 77.1096 76.6287 75.568 75.0887 74.4775C73.5487 73.387 71.7077 72.8015 69.8202 72.8018C69.1184 72.7988 68.4189 72.8818 67.7373 73.0489C69.2165 73.4062 70.5829 74.1273 71.7121 75.1467C72.8413 76.1661 73.6976 77.4514 74.203 78.8857C74.372 78.8715 74.5409 78.8626 74.7135 78.8626C76.3033 78.8627 77.8296 79.4859 78.9647 80.5981C80.0998 81.7104 80.7531 83.2231 80.7843 84.8113C80.8483 88.2132 77.997 90.9965 74.5943 90.9965H78.8081C82.2126 90.9965 85.0639 88.2132 84.9981 84.8113C84.9669 83.2231 84.3136 81.7104 83.1785 80.5981C82.0434 79.4859 80.5171 78.8627 78.9273 78.8626V78.8661Z" fill="#D8E4F0"/>
<path d="M34.9113 86.306H29.7779C29.285 86.3057 28.8004 86.1796 28.3699 85.9397C27.9395 85.6998 27.5775 85.354 27.3183 84.9351C27.0591 84.5162 26.9112 84.0381 26.8888 83.5462C26.8663 83.0542 26.9699 82.5646 27.1898 82.1239L30.6459 75.2189C30.816 74.9057 31.1013 74.6708 31.4415 74.5639C31.7817 74.4569 32.1502 74.4862 32.4692 74.6455C32.7882 74.8049 33.0327 75.0819 33.1512 75.418C33.2696 75.7542 33.2528 76.1231 33.1041 76.4471L29.6498 83.3574C29.6363 83.3783 29.6292 83.4027 29.6292 83.4276C29.6292 83.4525 29.6363 83.4768 29.6498 83.4978C29.662 83.5193 29.6799 83.537 29.7016 83.549C29.7233 83.5609 29.7478 83.5665 29.7725 83.5653H34.9059C35.2618 83.5781 35.5988 83.7284 35.8461 83.9845C36.0933 84.2406 36.2315 84.5825 36.2315 84.9383C36.2315 85.2941 36.0933 85.6361 35.8461 85.8922C35.5988 86.1483 35.2618 86.2985 34.9059 86.3113L34.9113 86.306Z" fill="#D8E4F0"/>
<path d="M34.911 87.8239C34.5463 87.8239 34.1966 87.6791 33.9388 87.4215C33.6809 87.1638 33.536 86.8144 33.536 86.45V81.9C33.5294 81.7155 33.56 81.5316 33.6261 81.3592C33.6922 81.1869 33.7923 81.0296 33.9205 80.8967C34.0488 80.7639 34.2025 80.6582 34.3725 80.586C34.5426 80.5139 34.7254 80.4767 34.9101 80.4767C35.0948 80.4767 35.2777 80.5139 35.4477 80.586C35.6177 80.6582 35.7714 80.7639 35.8997 80.8967C36.0279 81.0296 36.1281 81.1869 36.1941 81.3592C36.2602 81.5316 36.2908 81.7155 36.2842 81.9V86.45C36.2842 86.814 36.1396 87.1632 35.8821 87.4208C35.6246 87.6784 35.2754 87.8234 34.911 87.8239Z" fill="#D8E4F0"/>
<path d="M55.2219 86.306H50.0885C49.9039 86.3126 49.7198 86.282 49.5473 86.216C49.3748 86.15 49.2174 86.0499 49.0844 85.9218C48.9515 85.7936 48.8457 85.64 48.7735 85.4701C48.7013 85.3003 48.6641 85.1176 48.6641 84.933C48.6641 84.7484 48.7013 84.5657 48.7735 84.3958C48.8457 84.2259 48.9515 84.0723 49.0844 83.9442C49.2174 83.816 49.3748 83.716 49.5473 83.65C49.7198 83.584 49.9039 83.5534 50.0885 83.56H55.2219C55.2465 83.5603 55.2708 83.5543 55.2924 83.5424C55.3139 83.5305 55.3321 83.5133 55.345 83.4923C55.3579 83.4714 55.3651 83.4474 55.366 83.4228C55.3669 83.3983 55.3613 83.3739 55.3499 83.352L51.8957 76.4471C51.747 76.1231 51.7301 75.7542 51.8486 75.418C51.967 75.0819 52.2116 74.8049 52.5306 74.6455C52.8496 74.4862 53.218 74.4569 53.5582 74.5639C53.8984 74.6708 54.1837 74.9057 54.3538 75.2189L57.8081 82.1239C58.0285 82.5644 58.1326 83.054 58.1104 83.546C58.0882 84.038 57.9406 84.5162 57.6815 84.9352C57.4224 85.3542 57.0604 85.7 56.6299 85.9399C56.1995 86.1799 55.7148 86.3059 55.2219 86.306Z" fill="#D8E4F0"/>
<path d="M50.0888 87.8239C49.7242 87.8239 49.3744 87.6791 49.1166 87.4215C48.8587 87.1638 48.7139 86.8144 48.7139 86.45V81.9C48.7139 81.5356 48.8587 81.1862 49.1166 80.9285C49.3744 80.6709 49.7242 80.5261 50.0888 80.5261C50.4535 80.5261 50.8032 80.6709 51.0611 80.9285C51.3189 81.1862 51.4638 81.5356 51.4638 81.9V86.45C51.4638 86.8144 51.3189 87.1638 51.0611 87.4215C50.8032 87.6791 50.4535 87.8239 50.0888 87.8239Z" fill="#D8E4F0"/>
<path d="M41.0598 80.6167L39.459 75.8339V74.9186H45.5351V75.8339L43.9343 80.6167C43.8338 80.919 43.6406 81.1819 43.3822 81.3682C43.1237 81.5546 42.8131 81.6549 42.4944 81.6549C42.1757 81.6549 41.8651 81.5546 41.6066 81.3682C41.3481 81.1819 41.155 80.919 41.0545 80.6167H41.0598Z" fill="#FFCB5B"/>
<path d="M31.4322 66.7339L29.3902 73.902C29.3258 74.1277 29.3147 74.3653 29.3578 74.596C29.4009 74.8267 29.497 75.0443 29.6386 75.2316C29.7801 75.4189 29.9633 75.5708 30.1736 75.6753C30.3839 75.7798 30.6157 75.8341 30.8506 75.8339H54.1519C54.3868 75.8341 54.6185 75.7798 54.8288 75.6753C55.0392 75.5708 55.2223 75.4189 55.3639 75.2316C55.5055 75.0443 55.6016 74.8267 55.6447 74.596C55.6878 74.3653 55.6767 74.1277 55.6122 73.902L53.5685 66.7339V65.8186H31.4322V66.7339Z" fill="#99B4CD"/>
<path d="M55.6097 73.902L53.5659 66.7339V65.8186H49.3574V66.7339L51.4047 73.902C51.4688 74.1277 51.4796 74.3651 51.4364 74.5957C51.3931 74.8263 51.297 75.0437 51.1555 75.2309C51.014 75.4181 50.831 75.57 50.6209 75.6746C50.4107 75.7792 50.1792 75.8338 49.9444 75.8339H54.1529C54.3875 75.8336 54.6188 75.7789 54.8287 75.6741C55.0385 75.5694 55.2212 75.4174 55.3624 75.2302C55.5036 75.043 55.5994 74.8256 55.6423 74.5951C55.6852 74.3646 55.674 74.1274 55.6097 73.902Z" fill="#7FA4C7"/>
<path d="M60.589 51.7047L66.9835 62.1128C67.266 62.5726 67.4207 63.0994 67.4315 63.6388C67.4424 64.1782 67.3092 64.7108 67.0455 65.1816C66.7818 65.6524 66.3973 66.0445 65.9314 66.3173C65.4656 66.5902 64.9354 66.734 64.3955 66.7339H20.605C20.0651 66.734 19.5349 66.5902 19.0691 66.3173C18.6033 66.0445 18.2187 65.6524 17.955 65.1816C17.6914 64.7108 17.5581 64.1782 17.569 63.6388C17.5799 63.0994 17.7345 62.5726 18.017 62.1128L24.4204 51.7047H60.589Z" fill="#D3E2EB"/>
<path d="M66.9831 62.1128L60.5886 51.7047H56.373L62.7676 62.1128C63.05 62.5725 63.2046 63.0991 63.2156 63.6384C63.2265 64.1776 63.0934 64.7101 62.83 65.1808C62.5665 65.6516 62.1822 66.0437 61.7166 66.3167C61.2511 66.5896 60.7211 66.7337 60.1813 66.7339H64.3898C64.9302 66.7349 65.461 66.5918 65.9276 66.3194C66.3942 66.0469 66.7795 65.6549 67.0438 65.1839C67.3081 64.713 67.4418 64.18 67.4312 63.6402C67.4205 63.1003 67.2659 62.573 66.9831 62.1128Z" fill="#B0C4D8"/>
<path d="M53.5662 66.734C58.8882 59.5695 62.2322 49.2147 62.2322 37.6957C62.2322 20.0502 54.3862 5.13123 43.6036 0.239975C43.2571 0.0819206 42.8807 0.00012207 42.4999 0.00012207C42.119 0.00012207 41.7426 0.0819206 41.3962 0.239975C30.6118 5.13123 22.7676 20.0502 22.7676 37.6957C22.7676 49.2147 26.1116 59.5695 31.4318 66.734H53.5662Z" fill="#ECF0F9"/>
<path d="M43.6042 0.239975C43.2577 0.0819206 42.8813 0.00012207 42.5005 0.00012207C42.1196 0.00012207 41.7432 0.0819206 41.3968 0.239975C41.0588 0.392827 40.7244 0.55575 40.3936 0.728745C50.6568 6.06078 58.0172 20.6012 58.0172 37.6975C58.0172 49.2165 54.6732 59.5713 49.353 66.7357H53.5668C58.8888 59.5713 62.2328 49.2165 62.2328 37.6975C62.2328 20.052 54.3868 5.133 43.6042 0.241753V0.239975Z" fill="#D8E4F0"/>
<path d="M42.5096 45.4787C49.2162 45.4787 54.6529 40.0461 54.6529 33.3447C54.6529 26.6434 49.2162 21.2108 42.5096 21.2108C35.803 21.2108 30.3662 26.6434 30.3662 33.3447C30.3662 40.0461 35.803 45.4787 42.5096 45.4787Z" fill="#99B4CD"/>
<path d="M42.5206 39.4215C45.8754 39.4215 48.595 36.704 48.595 33.3519C48.595 29.9997 45.8754 27.2822 42.5206 27.2822C39.1659 27.2822 36.4463 29.9997 36.4463 33.3519C36.4463 36.704 39.1659 39.4215 42.5206 39.4215Z" fill="#4C9CD6"/>
<path d="M43.6037 0.239975C43.2572 0.0819206 42.8808 0.00012207 42.5 0.00012207C42.1191 0.00012207 41.7427 0.0819206 41.3963 0.239975C35.7382 2.80646 30.8893 8.13316 27.5596 15.1697H57.4422C54.1088 8.13316 49.2707 2.80646 43.6037 0.239975Z" fill="#F04D4E"/>
<path d="M40.7084 0.570576C40.6034 0.622119 40.4985 0.673662 40.3936 0.728759C45.6212 3.4481 50.0947 8.54907 53.2271 15.1661H57.4409C54.1093 8.13317 49.2587 2.80647 43.6042 0.236435C43.2577 0.0783806 42.8813 -0.00341797 42.5005 -0.00341797C42.1196 -0.00341797 41.7432 0.0783806 41.3968 0.236435C41.2189 0.314638 41.0517 0.396396 40.8791 0.479931L40.7084 0.570576Z" fill="#DB343F"/>
<path d="M31.4323 66.7339H53.5667C54.971 64.828 56.1964 62.7968 57.2274 60.666H27.7734C28.8038 62.7967 30.0286 64.8279 31.4323 66.7339Z" fill="#F04D4E"/>
<path d="M53.0065 60.666C51.9761 62.7967 50.7513 64.8279 49.3477 66.7339H53.5615C54.9663 64.8284 56.1918 62.7971 57.2221 60.666H53.0065Z" fill="#DB343F"/>
<path d="M45.5356 66.734V54.6C45.5454 54.1956 45.4741 53.7932 45.3259 53.4166C45.1778 53.0401 44.9558 52.697 44.673 52.4074C44.3901 52.1179 44.0522 51.8878 43.679 51.7307C43.3059 51.5736 42.9051 51.4927 42.5002 51.4927C42.0952 51.4927 41.6944 51.5736 41.3213 51.7307C40.9481 51.8878 40.6102 52.1179 40.3274 52.4074C40.0445 52.697 39.8225 53.0401 39.6744 53.4166C39.5262 53.7932 39.455 54.1956 39.4648 54.6V66.734H45.5356Z" fill="#D3E2EB"/>
<path d="M42.4996 27.3C41.7809 27.2996 41.0679 27.4266 40.3936 27.675C41.5542 28.1072 42.5549 28.8836 43.2614 29.9002C43.968 30.9167 44.3466 32.1248 44.3466 33.3625C44.3466 34.6001 43.968 35.8082 43.2614 36.8248C42.5549 37.8413 41.5542 38.6178 40.3936 39.05C41.2266 39.3587 42.1174 39.4809 43.0029 39.4081C43.8884 39.3353 44.7471 39.0692 45.5185 38.6286C46.2899 38.188 46.9551 37.5837 47.4673 36.8582C47.9794 36.1327 48.3259 35.3037 48.4825 34.4298C48.639 33.5558 48.6017 32.6582 48.3733 31.8003C48.1448 30.9423 47.7306 30.1449 47.1601 29.4643C46.5895 28.7837 45.8765 28.2365 45.0712 27.8613C44.2659 27.4861 43.3881 27.2921 42.4996 27.2928V27.3Z" fill="#3689C9"/>
<path d="M42.4995 21.234C41.7901 21.2316 41.0819 21.2911 40.3828 21.4117C43.1912 21.9097 45.7345 23.3797 47.5667 25.5639C49.3988 27.7482 50.403 30.5072 50.403 33.3572C50.403 36.2073 49.3988 38.9663 47.5667 41.1506C45.7345 43.3348 43.1912 44.8048 40.3828 45.3028C42.0413 45.5968 43.7429 45.5429 45.3794 45.1443C47.0159 44.7458 48.5515 44.0113 49.8886 42.9876C51.2257 41.964 52.335 40.6736 53.1459 39.1984C53.9569 37.7232 54.4518 36.0955 54.5992 34.4189C54.7466 32.7422 54.5433 31.0533 54.0021 29.4594C53.4609 27.8655 52.5938 26.4016 51.4558 25.1607C50.3178 23.9198 48.9338 22.9291 47.3919 22.2516C45.85 21.574 44.1839 21.2244 42.4995 21.2251V21.234Z" fill="#87ABCD"/>
<path d="M25.4058 73.0915H29.6196C28.869 72.8974 28.0967 72.7995 27.3214 72.8C26.6172 72.7976 25.9154 72.8811 25.2314 73.0488L25.4058 73.0915Z" fill="#D8E4F0"/>
</g>
<defs>
<clipPath id="clip0_863_2">
<rect width="85" height="91" fill="white"/>
</clipPath>
</defs>
</svg>
