<svg width="123" height="43" viewBox="0 0 123 43" fill="none" xmlns="http://www.w3.org/2000/svg">
<path d="M118.395 28.8288C114.56 33.7418 110.121 38.1343 105.818 39.4592C103.412 40.2005 101.292 39.885 99.3548 38.4734C97.6398 37.2274 96.7902 36.0051 96.8378 34.8459C96.9649 31.6599 103.166 27.8825 107.7 25.1224C112.384 22.2677 115.767 20.2015 115.981 17.7095C116.037 17.0471 115.894 16.0692 114.877 15.1781C114.123 14.5236 113.091 14.216 111.749 14.216C107.819 14.216 101.197 16.8263 91.0258 20.9822C78.9571 25.9189 62.4261 32.6851 57.3683 29.1127C56.2885 28.3557 56.2885 27.7721 56.2885 27.5592C56.2964 24.8227 62.9025 20.2331 68.2064 16.5503C74.6298 12.0868 80.1798 8.23053 80.5768 4.47679C80.7039 3.286 80.3069 2.17407 79.4414 1.2514C75.9319 -2.46291 64.5699 2.43431 44.7835 11.4086C29.6182 18.2852 6.69555 28.6869 3.87687 23.6714C3.05111 22.1888 2.96377 20.7456 3.61485 19.2552C6.53675 12.5994 22.242 6.98454 29.8882 4.83954L28.9751 1.82708C22.5675 3.65664 4.43266 9.4923 0.708823 17.9934C-0.35513 20.4144 -0.220151 22.8433 1.10582 25.2012C5.04404 32.2356 21.4877 25.4378 46.1095 14.2633C53.9224 10.7146 61.2986 7.37096 67.1504 5.2575C75.6699 2.18195 77.0038 3.26234 77.1309 3.38851C77.4088 3.6803 77.4485 3.89322 77.4247 4.1298C77.1785 6.45618 71.1997 10.6042 66.3961 13.9479C59.5756 18.6874 53.1363 23.1588 53.1205 27.5355C53.1205 28.6474 53.5333 30.2641 55.5342 31.6757C62.0211 36.2496 77.385 29.9644 92.2406 23.8922C99.7836 20.8087 111.169 16.1481 112.781 17.536C112.297 18.6164 108.549 20.8955 106.04 22.4254C100.331 25.9031 93.8604 29.854 93.6698 34.7118C93.5745 36.9908 94.8608 39.1122 97.4889 41.0127C99.3151 42.3376 101.292 43 103.388 43C104.714 43 106.088 42.7398 107.509 42.2114C113.115 40.1216 118.625 34.0573 123 27.9298L118.395 28.8288Z" fill="#FFA51C"/>
</svg>
