<svg width="204" height="72" viewBox="0 0 204 72" fill="none" xmlns="http://www.w3.org/2000/svg">
<path d="M196.362 48.2715C190.002 56.4979 182.64 63.8528 175.503 66.0712C171.513 67.3124 167.997 66.7842 164.784 64.4206C161.939 62.3343 160.53 60.2876 160.609 58.3465C160.82 53.0119 171.105 46.687 178.624 42.0654C186.393 37.2854 192.003 33.8258 192.359 29.6532C192.451 28.544 192.214 26.9066 190.528 25.4145C189.277 24.3185 187.565 23.8036 185.34 23.8036C178.821 23.8036 167.839 28.1743 150.97 35.133C130.953 43.3991 103.536 54.7285 95.1475 48.7469C93.3565 47.4792 93.3565 46.5021 93.3565 46.1456C93.3697 41.5636 104.326 33.8786 113.123 27.7121C123.776 20.2384 132.981 13.7814 133.64 7.49601C133.85 5.50213 133.192 3.6403 131.756 2.09537C125.936 -4.12395 107.092 4.07605 74.2751 19.1028C49.1229 30.6171 11.1048 48.0338 6.42992 39.6358C5.06038 37.1533 4.91552 34.7369 5.99536 32.2412C10.8414 21.0966 36.8891 11.695 49.5706 8.10342L48.0562 3.0593C37.4291 6.12275 7.35173 15.8941 1.17561 30.1285C-0.588997 34.1823 -0.365129 38.2493 1.83404 42.1974C8.36572 53.9759 35.6381 42.5936 76.4743 23.8828C89.4323 17.9408 101.666 12.3421 111.371 8.80326C125.501 3.6535 127.714 5.46252 127.924 5.67379C128.385 6.16236 128.451 6.51888 128.412 6.91502C128.003 10.8103 118.087 17.7559 110.12 23.3546C98.8084 31.2905 88.1286 38.7775 88.1022 46.106C88.1022 47.9678 88.787 50.6747 92.1055 53.0383C102.864 60.6969 128.346 50.173 152.984 40.0055C165.495 34.8425 184.379 27.0387 187.052 29.3627C186.249 31.1717 180.033 34.9878 175.872 37.5495C166.403 43.3726 155.671 49.9881 155.355 58.1221C155.197 61.9382 157.33 65.4902 161.689 68.6725C164.718 70.8908 167.997 72 171.473 72C173.672 72 175.951 71.5643 178.308 70.6796C187.605 67.1804 196.744 57.0261 204 46.7662L196.362 48.2715Z" fill="black"/>
</svg>
