<?xml version="1.0" encoding="utf-8"?><svg viewBox="0 0 512 513.3" xmlns="http://www.w3.org/2000/svg" xmlns:xlink="http://www.w3.org/1999/xlink"><style>:root>svg{display:none}:root>svg:target{display:block}</style><svg viewBox="40 -35 110 100" id="ic_buy" xmlns="http://www.w3.org/2000/svg"><path d="M94.5-29l-48 19v48l48 22 48-22v-48l-48-19zm0 6l38.9 15.4-15.3 6.5-37.5-16.4L94.5-23zm-3 75.6l-39-18.2V-2.7l39 17.4v37.9zM55.6-7.6l17.2-6.8L110 2.4 94.5 9 55.6-7.6zm80.9 42l-39 18.2V14.7l39-17.4v37.1zM79.1 32l4.8 3V24.7h2.6l-5-6.7-6 3.7 3.6 1V32zm-21-10l4.8 3V14.7h2.6l-5-6.7-6 3.7 3.6 1V22zm73.8-17.6V1.6l-15 7v2.8l15-7zm0 1.2l-15 7v2.8l15-7V5.6zm-14.7 15.9v.9l1.6-.7h.2l.1.1.1 4.9.4-.2.4-.2v-4.9c0-.1 0-.1.1-.2 0-.1.1-.1.2-.2l1.6-.7v-.9l-4.7 2.1zm-15.3 11c.1-1 .8-2.1 1.7-2.7.5-.4.9-1 1-1.6.1-.6-.2-1.1-.7-1.1-.5-.1-1.1.3-1.5.8-.4.6-.6 1.2-.4 1.7.3.8.1 1.9-.7 2.9h.6zM129 16c-.2-.1-.5 0-.7.2-.2.3-.2.6 0 .7l1.9 1.5-1.8 3.3c-.2.3-.1.6.1.6h.3c.1-.1.3-.2.4-.3l1.7-3.1 1.8 1.4c.1.1.2.1.4 0 .1 0 .2-.1.3-.2.2-.3.2-.6 0-.7l-1.9-1.5 1.8-3.3c.2-.3.1-.6-.1-.6-.2-.1-.5.1-.7.4l-1.7 3.1L129 16zm-14.1 11.8c.6.3 1.6.2 2.3-.2l.1-.1v-1l-.1.1c-.5.3-1.3.4-1.7.2-.4-.2-.6-.7-.6-1.2l-.1-3-.4.2-.4.2.1 3c-.1.9.2 1.5.8 1.8zm12.1-6.4c-.5.9-1.3 1.5-2 1.7-.8.2-1.4-.2-1.6-.9l3.6-1.7v-1l-3.6 1.7c.1-.9.7-1.8 1.5-2.3s1.6-.6 2.1-.2l.3-.5.3-.5c-.8-.6-2.1-.3-3.2.6-1.1 1-1.9 2.5-1.8 3.7 0 1.3.8 2 2 2 1.1-.1 2.4-1 3.2-2.4l-.3-.2h-.5zm-17.2 9.5c1.1-.1 2.4-1 3.2-2.4l-.3-.2-.3-.2c-.5.9-1.3 1.5-2 1.7-.8.2-1.4-.2-1.6-.9l3.5-1.6v-1l-3.5 1.6c.1-.9.7-1.8 1.5-2.3s1.6-.6 2.1-.2l.3-.5.3-.5c-.8-.6-2.1-.3-3.2.6-1.1 1-1.9 2.5-1.8 3.7-.1 1.5.7 2.3 1.8 2.2zm-9.4 5.1c.5 0 1.1-.5 1.4-1.1.6-1 1.6-1.7 2.4-1.7v-.6c-.8.8-1.9 1-2.5.6-.4-.3-.9-.2-1.5.3-.5.4-.8 1.1-.8 1.7.1.5.5.8 1 .8zm3.6-6c.8.2 1.1 1.1.8 2.2-.2.6 0 1.2.4 1.3.4.2 1-.1 1.5-.6s.7-1.2.6-1.7-.5-.8-1.1-.6c-.9.3-1.6-.2-1.8-1.1-.1.2-.3.4-.4.5z"/></svg><svg viewBox="0 0 29 19" id="ic_buy2" xmlns="http://www.w3.org/2000/svg"><path fill-rule="evenodd" fill="currentColor" d="M27.234 3.554H11.551L11.318.958a.823.823 0 0 0-.821-.749H8.824a.823.823 0 1 0 0 1.646h.92l.948 10.55c.067.761.478 1.586 1.186 2.147-1.277 1.629-.11 4.031 1.967 4.031 1.723 0 2.939-1.718 2.348-3.345h4.509c-.591 1.625.622 3.345 2.348 3.345a2.499 2.499 0 0 0 2.497-2.496 2.5 2.5 0 0 0-2.497-2.496h-9.2a1.53 1.53 0 0 1-1.406-.927l13.165-.773a.823.823 0 0 0 .75-.622l1.674-6.692a.823.823 0 0 0-.799-1.023zM13.845 16.937a.85.85 0 1 1 .001-1.701.85.85 0 0 1-.001 1.701zm9.205 0a.85.85 0 1 1 .001-1.701.85.85 0 0 1-.001 1.701zm1.858-6.654l-12.686.745-.523-5.827h14.48l-1.271 5.082z"/><text font-family="Myriad Pro" font-size="16" y="10.792"><tspan font-family="HelveticaNeueCyr" font-weight="bold" fill="currentColor">+</tspan></text></svg><svg viewBox="0 0 120 89" id="ic_buy_open" xmlns="http://www.w3.org/2000/svg"><path fill-rule="evenodd" d="M108 38.5V67L60 89 12 67V38.5L0 33l12-14L60 0l48 19 12 14-12 5.5zm-6 24.9V41.25L72 55l-9-10.5v37.1l39-18.2zm-84 0l39 18.2V44.5l-6.343 7.4L52 53.7h-2.6V64l-4.8-3v-7.558l-16.2-7.425V54l-4.8-3v-7.184L18 41.25V63.4zM8 31l4 1.83V27l-4 4zm10 4.574l5.92 2.708L26 37l2.531 3.392 16.756 7.664.876-.54 5.21-6.327L18 26.3v9.274zM60 6L21.1 21.4 60 38l38.9-16.6L60 6zm8.627 35.189L74.4 48.2l9.6-4.392V41l15-7.1v2.9l-9.24 4.373L102 35.574V26.3L68.627 41.189zM108 32.83l4-1.83-4-4v5.83zM84 37l15-7.1v2.8l-15 7.1V37zM67.2 62.2c.6.4 1.7.2 2.5-.6v.6c-.8 0-1.8.7-2.4 1.7-.3.6-.9 1.1-1.4 1.1-.5 0-.9-.3-1-.8 0-.6.3-1.3.8-1.7.6-.5 1.1-.6 1.5-.3zm2.3-3.2c.1-.1.3-.3.4-.5.2.9.9 1.4 1.8 1.1.6-.2 1 .1 1.1.6.1.5-.1 1.2-.6 1.7s-1.1.8-1.5.6c-.4-.1-.6-.7-.4-1.3.3-1.1 0-2-.8-2.2zm9-5.6l-.3.5-.3.5c-.5-.4-1.3-.3-2.1.2s-1.4 1.4-1.5 2.3l3.5-1.6v1l-3.5 1.6c.2.7.8 1.1 1.6.9.7-.2 1.5-.8 2-1.7l.3.2.3.2c-.8 1.4-2.1 2.3-3.2 2.4-1.1.1-1.9-.7-1.8-2.2-.1-1.2.7-2.7 1.8-3.7 1.1-.9 2.4-1.2 3.2-.6zm1.4-1.6l.4-.2.1 3c0 .5.2 1 .6 1.2.4.2 1.2.1 1.7-.2l.1-.1v1l-.1.1c-.7.4-1.7.5-2.3.2-.6-.3-.9-.9-.8-1.8l-.1-3 .4-.2zm2.9-1.3l4.6-2.1v.9l-1.6.7c-.1.1-.2.1-.2.2-.1.1-.1.1-.1.2l.1 4.9-.4.2-.4.2-.1-4.9-.1-.1h-.2l-1.6.7v-.9zm10.3-3.8l-.3.5-.3.5c-.5-.4-1.3-.3-2.1.2s-1.4 1.4-1.5 2.3l3.6-1.7v1l-3.6 1.7c.2.7.8 1.1 1.6.9.7-.2 1.5-.8 2-1.7h.5l.3.2c-.8 1.4-2.1 2.3-3.2 2.4-1.2 0-2-.7-2-2-.1-1.2.7-2.7 1.8-3.7 1.1-.9 2.4-1.2 3.2-.6zm1.4-1.7l1.7 1.5 1.7-3.1c.2-.3.5-.5.7-.4.2 0 .3.3.1.6l-1.8 3.3 2 1.5c.2.1.2.4 0 .7-.1.1-.2.2-.3.2-.2.1-.3.1-.4 0l-1.8-1.4-1.7 3.1c-.1.1-.3.2-.4.3H94c-.2 0-.3-.3-.1-.6l1.8-3.3-1.9-1.5c-.2-.1-.2-.4 0-.7.2-.2.5-.3.7-.2zM69.1 58.8c-.9.6-1.6 1.7-1.7 2.7h-.6c.8-1 1-2.1.7-2.9-.2-.5 0-1.1.4-1.7.4-.5 1-.9 1.5-.8.5 0 .8.5.7 1.1-.1.6-.5 1.2-1 1.6z"/><path fill-rule="evenodd" fill="#FFF" d="M7 31s38.5 18 38 18 8-9 8-9L14 24l-7 7zm99-7L67 40s8.5 9 8 9 38-18 38-18l-7-7z"/></svg><svg viewBox="0 0 456.03 434.69" id="ic_cart" xmlns="http://www.w3.org/2000/svg"><path d="M345.6 328.19a53.25 53.25 0 1 0 53.25 53.25c-.51-29.18-24.07-53.25-53.25-53.25zM439.3 74.24c-1 0-2.56-.51-4.1-.51H112.64l-5.12-34.31A45.85 45.85 0 0 0 62 0H20.48a20.5 20.5 0 0 0 0 41H62a5.44 5.44 0 0 1 5.12 4.61l31.7 216.02a56.12 56.12 0 0 0 55.29 47.62h213c26.63 0 49.67-18.95 55.3-45.06l33.28-166.4a20.24 20.24 0 0 0-16.39-23.55zM215 378.88c-1-28.16-24.58-50.69-52.74-50.69a53.56 53.56 0 0 0-51.2 55.3 52.49 52.49 0 0 0 52.23 50.69h1c29.25-1.54 52.29-26.12 50.71-55.3z"/></svg><svg viewBox="0 0 32 29.93" id="ic_compare" xmlns="http://www.w3.org/2000/svg"><path d="M28.69 2.8L27.94 0l-8.55 2.29a4 4 0 0 0-7.36 2L2.78 6.77l.75 2.8 9.52-2.55a3.94 3.94 0 0 0 6.81-1.83z" fill="currentColor" fill-rule="evenodd"/><path d="M1 22.2a6.7 6.7 0 1 0 13.4 0c0-3.71-6.7-11.85-6.7-11.85S1 18.49 1 22.2zM24.3 5.93s-6.7 8.13-6.7 11.85a6.7 6.7 0 1 0 13.4 0c0-3.71-6.7-11.85-6.7-11.85z" fill="none" stroke="currentColor" stroke-miterlimit="10" stroke-width="2"/><path d="M1 23.43v-2h13v2zM18 18.43v-2h13v2z" fill="currentColor" fill-rule="evenodd"/></svg><svg viewBox="0 0 25 24" id="ic_compare2" xmlns="http://www.w3.org/2000/svg"><path fill-rule="evenodd" fill="currentColor" d="M21.5 24V10.167H25V24h-3.5zM14.333 0h3.5v24h-3.5V0zM7.167 7h3.5v17h-3.5V7zM0 17h3.5v7H0v-7z"/></svg><svg viewBox="228 -229 512 512" id="ic_copy" xmlns="http://www.w3.org/2000/svg"><path d="M444.7 187c-50 0-90.7-40.7-90.7-90.7v-218.7h-37.3c-32.4 0-58.7 26.3-58.7 58.7v288c0 32.4 26.3 58.7 58.7 58.7h243.7c32.4 0 58.7-26.3 58.7-58.7V187H444.7z"/><path d="M704.3-170.3c0-32.4-26.3-58.7-58.7-58.7h-201c-32.4 0-58.7 26.3-58.7 58.7V96.3c0 32.4 26.3 58.7 58.7 58.7h201c32.4 0 58.7-26.3 58.7-58.7v-266.6z"/></svg><svg viewBox="0 0 170 97" id="ic_delivery" xmlns="http://www.w3.org/2000/svg"><path d="M165.83 85.61h-9.32a13.9 13.9 0 0 1-27.34 0h-50a13.9 13.9 0 0 1-27.34 0h-12.7A4.28 4.28 0 0 1 35 81.26V66.09H18.71a4.35 4.35 0 0 1 0-8.7h20.45a4.27 4.27 0 0 1 4.17 4.35v15.2h8.25a3.47 3.47 0 0 1 .9.11 13.79 13.79 0 0 1 26-.08 3 3 0 0 1 .52 0h39.3V8.7h-75v15.17a4.27 4.27 0 0 1-4.17 4.35H18.71a4.36 4.36 0 0 1 0-8.71H35V4.35A4.28 4.28 0 0 1 39.13 0h83.33a4.28 4.28 0 0 1 4.17 4.35v9.87h17.49a24.16 24.16 0 0 1 18.4 8c4.87 5.52 7.48 13.42 7.48 22.82v36.22a4.28 4.28 0 0 1-4.17 4.35zM65.49 76.5a5.92 5.92 0 1 0 5.67 5.92 5.8 5.8 0 0 0-5.67-5.92zm77.35 11.83a5.92 5.92 0 1 0-5.67-5.91 5.85 5.85 0 0 0 5.67 5.91zm18.81-43.2c0-13.9-6.54-22.21-17.49-22.21h-17.49v54h3.19a13.78 13.78 0 0 1 25.95 0h5.84zM72.2 35a4.5 4.5 0 0 1 0-6.17 4.06 4.06 0 0 1 5.91 0l10.23 10.71c.07.1.18.18.25.29s.07.1.1.18a.59.59 0 0 1 .14.18l.1.21c0 .08.07.11.11.19l.1.21c0 .08 0 .11.07.19a1.72 1.72 0 0 1 .07.21s0 .11.07.18 0 .15 0 .22v.47a.4.4 0 0 1 0 .18 3.24 3.24 0 0 1 0 .88v.65a.45.45 0 0 1 0 .22s0 .11-.07.18 0 .14-.07.22 0 .1-.07.18l-.1.21c0 .08-.07.11-.11.19l-.1.21a.77.77 0 0 0-.14.19c0 .07-.07.1-.1.18s-.18.18-.25.29L77.59 57.13a4.13 4.13 0 0 1-3 1.27 4.08 4.08 0 0 1-3-1.27 4.47 4.47 0 0 1 0-6.16l3.58-4h-71a4.35 4.35 0 0 1 0-8.7H75.3z" fill-rule="evenodd"/></svg><svg viewBox="0 0 18 15" id="ic_download" xmlns="http://www.w3.org/2000/svg"><path fill-rule="evenodd" fill="currentColor" d="M8.379 14.5H9.43v-.394l8.142-7.485-1.05-.92-7.092 6.566V.115H7.985v11.89L1.682 6.227.5 7.146l7.485 6.96v.394h.394z"/></svg><svg viewBox="0 0 22 17" id="ic_email" xmlns="http://www.w3.org/2000/svg"><path fill-rule="evenodd" d="M18.857 0H3.143C1.414 0 0 1.391 0 3.091v10.818C0 15.609 1.414 17 3.143 17h15.714C20.586 17 22 15.609 22 13.909V3.091C22 1.391 20.586 0 18.857 0zM3.614 13.909l-1.1-1.082 3.143-3.091 1.1 1.082-3.143 3.091zm-.943-9.273L3.614 3.4l7.49 5.893 6.967-5.43 1.1 1.237L11 11.436l-8.329-6.8zm15.557 9.273l-3.143-3.091 1.1-1.082 3.143 3.091-1.1 1.082z"/></svg><svg viewBox="0 0 75 75" id="ic_error" xmlns="http://www.w3.org/2000/svg"><path fill-rule="evenodd" d="M75 37.501C75 58.177 58.176 75 37.5 75S0 58.177 0 37.501V37.5v-.001-.001c0-.285.004-.571.011-.856l.006-.244c.007-.227.015-.455.026-.682l.009-.192c.014-.269.031-.537.051-.805l.023-.292c.015-.184.032-.367.05-.551l.031-.321c.026-.249.054-.498.086-.747.014-.112.03-.224.045-.335l.066-.474.059-.385.077-.465c.031-.176.062-.353.095-.529.032-.172.064-.345.099-.517.025-.126.052-.251.078-.376.032-.149.064-.298.098-.447.026-.115.051-.231.078-.345.057-.243.116-.485.178-.726.022-.088.046-.175.069-.263.049-.186.099-.372.151-.557l.074-.261c.071-.247.144-.493.22-.739l.011-.034c.087-.28.178-.559.272-.837l.028-.083a37.405 37.405 0 0 1 3.937-8.165c.038-.059.079-.114.121-.168C12.1 7.804 22.157 1.342 33.753.187c.03-.004.059-.011.089-.014a38.21 38.21 0 0 1 4.514-.162l.246.006c.226.007.452.015.677.026l.198.009c.267.014.534.031.801.051l.3.024a44.648 44.648 0 0 1 1.609.165c.119.015.237.032.355.048a34.747 34.747 0 0 1 1.885.304c.153.029.307.057.46.088a47.052 47.052 0 0 1 .812.173l.375.085c.236.056.472.113.707.173l.3.079c.171.045.342.092.513.139l.291.083c.226.065.451.132.675.201l.095.029c.271.084.542.173.811.264l.122.042c.259.088.518.179.775.273l.026.009a37.449 37.449 0 0 1 7.341 3.646c.061.039.119.082.176.125C67.2 12.105 73.658 22.16 74.813 33.754c.004.029.011.057.013.087a37.3 37.3 0 0 1 .159 2.627l.003.071c.008.317.012.633.012.951v.011zm-5.114-.059a38.62 38.62 0 0 0-.01-.763c-.001-.054-.004-.107-.006-.16a25.272 25.272 0 0 0-.028-.718c-.571-10.989-6.645-20.545-15.511-25.961l-.125-.075a32.28 32.28 0 0 0-1.863-1.044l-.253-.129c-.121-.062-.243-.122-.365-.182l-.278-.136c-.179-.086-.358-.17-.539-.252l-.379-.169-.221-.097a30.778 30.778 0 0 0-.545-.229A32.297 32.297 0 0 0 37.5 5.116c-13.948 0-25.866 8.864-30.415 21.255l-.007.018c-.083.227-.163.455-.241.684l-.03.085a35.44 35.44 0 0 0-.434 1.392l-.06.21a42.8 42.8 0 0 0-.139.512l-.051.196c-.056.215-.108.431-.159.647l-.059.26-.095.435-.059.288c-.037.182-.072.364-.106.547l-.056.318a35.863 35.863 0 0 0-.189 1.236l-.032.238a36.08 36.08 0 0 0-.101.912c-.016.173-.032.346-.046.519l-.018.22a33.67 33.67 0 0 0-.045.713l-.006.14c-.01.205-.018.41-.024.616l-.005.197c-.006.248-.009.497-.009.746l.001.106c.001.243.003.486.009.728.004.17.013.339.02.508.004.107.006.214.012.321.013.266.03.53.05.794l.002.029C6.29 54.164 16.544 65.817 30.032 69.013c.054.013.108.028.163.04.134.031.27.059.404.088.128.028.255.058.383.084a32.28 32.28 0 0 0 3.498.517 32.438 32.438 0 0 0 9.539-.517l.077-.017a32.113 32.113 0 0 0 2.622-.662 33.461 33.461 0 0 0 1.906-.63l.064-.025a31.921 31.921 0 0 0 2.127-.872l.044-.021c10.495-4.771 18.014-14.983 18.933-27.011l.005-.092c.018-.243.035-.487.047-.732.006-.12.009-.24.014-.36.006-.156.014-.312.018-.469.006-.247.008-.494.009-.742l.001-.092v-.058zm-17.034 16.2a2.63 2.63 0 0 1-3.706.009L38.592 42.477 28.039 53.651a2.628 2.628 0 0 1-3.705-.009 2.602 2.602 0 0 1 .009-3.689l10.654-11.281L24.34 27.389a2.6 2.6 0 0 1-.009-3.689 2.629 2.629 0 0 1 3.706-.009l10.555 11.175 10.553-11.175a2.627 2.627 0 0 1 3.705.009 2.6 2.6 0 0 1-.009 3.689L42.186 38.671l10.657 11.282a2.6 2.6 0 0 1 .009 3.689z"/></svg><svg viewBox="0 0 76 75" id="ic_error2" xmlns="http://www.w3.org/2000/svg"><path fill-rule="evenodd" d="M64.054 10.967C49.416-3.666 25.602-3.666 10.968 10.963c-14.638 14.629-14.636 38.434.001 53.066 14.633 14.628 38.447 14.628 53.083-.003 14.636-14.629 14.635-38.432.002-53.059zm-4.096 48.968c-12.378 12.372-32.518 12.374-44.896.001-12.38-12.374-12.379-32.508 0-44.88 12.377-12.371 32.517-12.373 44.897.001 12.378 12.373 12.376 32.507-.001 44.878zm-5.476-7.608a2.12 2.12 0 0 1-1.106 2.789 2.121 2.121 0 0 1-2.79-1.105c-2.047-4.73-6.884-7.788-12.326-7.788-5.567 0-10.434 3.055-12.397 7.783a2.124 2.124 0 0 1-2.774 1.146 2.121 2.121 0 0 1-1.146-2.773c2.625-6.317 9.03-10.398 16.317-10.398 7.135 0 13.503 4.061 16.222 10.346zM23.508 27.341a4.387 4.387 0 0 1 8.774 0 4.387 4.387 0 1 1-8.774 0zm19.894 0a4.388 4.388 0 0 1 8.775 0 4.388 4.388 0 0 1-8.775 0z"/></svg><svg viewBox="0 0 41 36.92" id="ic_favorite" xmlns="http://www.w3.org/2000/svg"><path d="M36.06 5.22A10 10 0 0 0 28.66 2a9.32 9.32 0 0 0-5.81 2 11.68 11.68 0 0 0-2.35 2.46 11.68 11.68 0 0 0-2.35-2.45 9.32 9.32 0 0 0-5.81-2 10 10 0 0 0-7.4 3.21A11.55 11.55 0 0 0 2 13.12c0 3.13 1.17 6 3.67 9a78.64 78.64 0 0 0 9.19 8.62c1.27 1.08 2.71 2.31 4.21 3.62a2.16 2.16 0 0 0 2.86 0c1.5-1.31 2.94-2.54 4.21-3.62a78.64 78.64 0 0 0 9.19-8.62c2.5-3 3.67-5.89 3.67-9a11.55 11.55 0 0 0-2.94-7.9z" fill="none" stroke="currentColor" stroke-miterlimit="10" stroke-width="4"/></svg><svg viewBox="0 0 19 24" id="ic_garanti" xmlns="http://www.w3.org/2000/svg"><path d="M17.5 3.1c-2 0-5.6-.4-8-3.1a10.78 10.78 0 0 1-8 3.1A10.07 10.07 0 0 1 0 3v10.5C0 19.7 9.5 24 9.5 24S19 19.7 19 13.5V3a10.07 10.07 0 0 1-1.5.1zm.4 10.4c0 5.5-8.4 9.3-8.4 9.3S1.1 19 1.1 13.5V4.2a7.31 7.31 0 0 0 1.3.1 9.83 9.83 0 0 0 7.1-2.7 9.42 9.42 0 0 0 7.1 2.7 7.31 7.31 0 0 0 1.3-.1z"/></svg><svg viewBox="0 0 19 24" id="ic_garanti_active" xmlns="http://www.w3.org/2000/svg"><path fill-rule="evenodd" d="M17.5 3.1c-2 0-5.6-.4-8-3.1-2.5 2.7-6 3.1-8 3.1C.6 3.1 0 3 0 3v10.5C0 19.7 9.5 24 9.5 24S19 19.7 19 13.5V3s-.6.1-1.5.1z"/></svg><svg viewBox="201 -206 512 512" id="ic_help" xmlns="http://www.w3.org/2000/svg"><path d="M696.3 188.8c11.1-23.4 16.7-48.6 16.7-74.8 0-93.6-74.3-170.3-167.3-174.8C524.7-136.3 455.8-189 377-189c-97 0-176 78.5-176 175 0 26.2 5.6 51.4 16.7 74.8L201.3 143c-2.1 10.5 7.1 19.7 17.6 17.7l83.3-16.5c20.9 9.9 43.1 15.4 66.2 16.5 29.1 104.9 146.2 157.6 243.4 111.5 91.2 18 84.1 16.7 86.2 16.7 9.5 0 16.6-8.7 14.7-17.9l-16.4-82.2zm-385.2-73.6c-3-1.5-6.4-2-9.7-1.4l-66.2 13.1 13-65.2c.7-3.3.2-6.8-1.4-9.8C236.3 31.4 231 9.2 231-14c0-80 65.5-145 146-145 62.9 0 118.3 40.9 137.7 99.4C423-47.9 353.9 34.9 362.8 130.3c-18.1-1.8-35.4-6.8-51.7-15.1zm354.7 74.5l13 65.2-66.2-13.1c-3.3-.7-6.7-.2-9.7 1.4-20.5 10.5-42.7 15.8-65.9 15.8-80 0-145-65-145-145S457-31 537-31c80.5 0 146 65 146 145 0 23.2-5.3 45.4-15.8 65.9-1.5 3-2 6.4-1.4 9.8z"/></svg><svg viewBox="0 0 22.7 19.7" id="ic_home" xmlns="http://www.w3.org/2000/svg"><path d="M.6 10.1L0 9.3 11.2.1l.6.8z" fill-rule="evenodd"/><path d="M22 10l.7-.8L11.3 0l-.7.8zM2.8 9.7h1v10h-1zM18.8 9.7h1v10h-1zM3.8 19.7v-1h6v1zM8.8 12.7v-1h5v1zM12.8 19.7v-1h6v1zM12.8 12.7h1v6h-1zM8.8 12.7h1v6h-1z" fill-rule="evenodd"/></svg><svg viewBox="0 0 12 15" id="ic_location" xmlns="http://www.w3.org/2000/svg"><path d="M6 0a6 6 0 0 0-6 6c0 3.3 6 9 6 9s6-5.7 6-9a6 6 0 0 0-6-6zm0 9.7a4 4 0 1 1 4-4 4 4 0 0 1-4 4z" fill-rule="evenodd"/></svg><svg viewBox="0 0 17.5 17.5" id="ic_messenger1" xmlns="http://www.w3.org/2000/svg"><path d="M14.9 2.6a8.69 8.69 0 0 1 1.9 2.8 9.28 9.28 0 0 1 .7 3.3 8 8 0 0 1-1.2 4.3 9.79 9.79 0 0 1-3.2 3.2 8.31 8.31 0 0 1-4.4 1.2 8.11 8.11 0 0 1-4.1-1.1L0 17.5 1.3 13a8.3 8.3 0 0 1 0-8.6 8.92 8.92 0 0 1 3.2-3.2A8.48 8.48 0 0 1 8.8 0a7.84 7.84 0 0 1 3.3.7 10.65 10.65 0 0 1 2.8 1.9zM8.7 15.9a6.53 6.53 0 0 0 3.6-1 8.39 8.39 0 0 0 2.7-2.6 6.53 6.53 0 0 0 1-3.6 6.6 6.6 0 0 0-.6-2.7 7.76 7.76 0 0 0-1.6-2.4A8.68 8.68 0 0 0 11.5 2a6.36 6.36 0 0 0-2.8-.5 6.53 6.53 0 0 0-3.6 1 8.07 8.07 0 0 0-2.6 2.6 6.53 6.53 0 0 0-1 3.6 7 7 0 0 0 1.1 3.8l.2.3-.7 2.7 2.7-.7.3.2a7.4 7.4 0 0 0 3.6.9zm4-5.4l.1.1c.2.1.3.1.3.2v.4a1.42 1.42 0 0 1-.2.6 3.19 3.19 0 0 1-.6.7 2 2 0 0 1-.8.4 2.05 2.05 0 0 1-1.1 0c-.4-.1-.9-.3-1.6-.5a10.72 10.72 0 0 1-3.5-3.3L5.2 9a3.7 3.7 0 0 1-.9-2.2A2.87 2.87 0 0 1 5 5a.86.86 0 0 1 .6-.3h.5a.37.37 0 0 1 .3.1.77.77 0 0 1 .2.3l.7 1.6c.1.2.1.3 0 .4a1.79 1.79 0 0 1-.5.7l-.2.2a.31.31 0 0 0 .1.2A5.34 5.34 0 0 0 8 9.8a15.77 15.77 0 0 0 1.6 1 .45.45 0 0 0 .5 0c.3-.4.6-.7.7-.9s.1-.2.2-.2h.3c.1.2.6.4 1.4.8z"/></svg><svg viewBox="0 0 17.46 14.83" id="ic_messenger2" xmlns="http://www.w3.org/2000/svg"><path d="M14.72 13.97a1.23 1.23 0 0 1-.5.8 1 1 0 0 1-.9-.1l-4-3-2 1.9-.3.3a.75.75 0 0 1-.5.1l.3-4.1 7.5-6.8c.1-.1.1-.1.1-.2s-.1-.1-.2-.1-.2.1-.4.1l-9.2 5.8-4-1.3c-.4-.1-.7-.3-.6-.6s.3-.5.8-.7l15.5-6c.4-.1.7-.1.9.1a1.38 1.38 0 0 1 .2 1.2z"/></svg><svg viewBox="0 0 27 32" id="ic_payment_method1" xmlns="http://www.w3.org/2000/svg"><path fill-rule="evenodd" d="M18.974 31.982c-4.174 0-7.636-3.379-7.636-7.454 0-4.076 3.462-7.455 7.636-7.455 4.175 0 7.636 3.28 7.636 7.455 0 4.075-3.461 7.454-7.636 7.454zm4.175-7.554l-2.953 2.187V20.85H18.16v5.765l-2.953-2.187-.611.795 3.564 2.585.509.397h.916l.509-.397 3.665-2.585-.61-.795zm-12.626.1c0 1.59.407 2.981 1.222 4.274H5.738c-2.851 0-5.091-2.187-5.091-4.97V5.94c0-2.783 2.24-4.97 5.091-4.97h11.2c2.851 0 5.091 2.187 5.091 4.97v10.834c-.917-.397-1.935-.596-3.055-.596-4.684 0-8.451 3.777-8.451 8.35zm7.433-18.389H4.72v1.988h13.236V6.139zm0 2.982H4.72v1.988h13.236V9.121zm0 2.982H4.72v1.988h13.236v-1.988z"/></svg><svg viewBox="138 -143.1 386.1 386.1" id="ic_payment_method2" xmlns="http://www.w3.org/2000/svg"><path d="M446.9-88.1H160.4c-12.5 0-22.4 10.5-22.4 22.9V111c.1 12.2 10.2 22 22.4 21.9H172V-10.8c0-23.5 19.2-42.3 42.7-42.3h254.4v-12.1c0-12.4-9.7-22.9-22.2-22.9zM478.1 118.9c-6.8-5.7-16.9-4.8-22.6 2-.5.6-1 1.1-1.5 1.5-4.3 3.5-10.6 2.8-14.1-1.5-3-3.7-7.6-5.9-12.4-5.9-9 0-16.2 7.2-16.1 16.2 0 8.9 7.3 16.1 16.2 16.1 4.8.1 9.4-2.1 12.4-5.8 1.9-2.3 4.7-3.6 7.7-3.6 2.9-.1 5.8 1.2 7.7 3.5.7.8 1.3 1.5 2.1 2.1 6.8 5.7 16.9 4.8 22.6-2 5.7-6.7 4.8-16.9-2-22.6z"/><path d="M501.3-33.1H214.7c-12.5-.1-22.6 9.9-22.7 22.3V3.9h332.1v-14.7c0-12.5-10.3-22.3-22.8-22.3zM192 23.9h332v26H192zM192 69.9V165c0 12.6 10.1 22.8 22.7 22.9h286.5c12.6-.1 22.7-10.3 22.8-22.9V69.9H192zm305.9 81.5c-11.2 16.5-33.7 20.9-50.2 9.7-6 4.1-13 6.2-20.2 6.2-20 0-36.1-16.3-36.1-36.2 0-19.9 16.1-36.1 36.1-36.1 7.2 0 14.2 2.1 20.2 6.2 12.3-8.3 28.3-8.3 40.5 0 16.5 11.1 20.9 33.7 9.7 50.2z"/></svg><svg viewBox="0 0 22 28" id="ic_payment_method3" xmlns="http://www.w3.org/2000/svg"><path fill-rule="evenodd" d="M19.583 26.267l-2.343-.004a.873.873 0 0 0 .149-.465v-6.164a.903.903 0 0 0-.905-.899H4.666a.903.903 0 0 0-.905.899v6.164c0 .164.056.309.133.441l-2.302-.004c-.669-.002-1.715-1.412-1.51-2.047l3.097-9.571c.205-.635.36-.952 1.023-1.056l3.513-.549C5.934 11.858 4.73 9.778 4.73 7.376c0-3.642 2.741-6.594 6.122-6.594 3.38 0 6.121 2.952 6.121 6.594 0 2.437-1.241 4.541-3.065 5.683l3.016.502c.661.11 1.207.423 1.415 1.056l3.29 10.02c.207.633-1.377 1.631-2.046 1.63zM15.546 8.352c.04-.267-.678-1.024-1.04-.996-.853.065-1.796.496-3.657.496-1.53 0-2.72-.265-3.56-.398-.616-.097-1.262.632-1.223.899.365 2.466 2.348 4.351 4.74 4.351 2.392 0 4.376-1.885 4.74-4.352zM4.629 19.634c0-.019.018-.037.037-.037l11.856.037-.038 6.202-11.855-.038v-6.164zm14.2 8.118H2.784v-.838h16.045v.838z"/></svg><svg viewBox="0 0 16 16" id="ic_phone" xmlns="http://www.w3.org/2000/svg"><path d="M13.5 13.4c.1.3-.5 1.2-.7 1.5-.1.2-.2.2-.4.3-.3.1-.7.2-1 .3-1.7.2-2.5-.5-3.8-1.5-1.3-1.1-2.2-2.4-2.9-3.9C4 8.4 3.5 7 3.5 5.2c0-1.6-.2-2.7 1.2-4 .2-.2.5-.4.8-.6.2-.1.3-.1.5-.1.3 0 1.4 0 1.6.4 0 .2.4 2 .4 2.5 0 .1.1.5 0 .8 0 .2-.2.3-.4.4-.4.2-.8.3-1.2.5-.1 0-.4.2-.4.3-.1.2 0 .7 0 .9.2.9.4 1.8.8 2.7.4.9.9 1.6 1.5 2.3.2.1.4.6.6.6.1 0 .3 0 .5-.1.5-.2.8-.5 1.2-.7.2-.1.4-.2.5-.1.3.1.5.5.6.6.4.1 1.7 1.5 1.8 1.8z"/></svg><svg viewBox="0 0 492.09 512.18" id="ic_pluses1" xmlns="http://www.w3.org/2000/svg"><path d="M465.44 264.59a15.44 15.44 0 0 1 0-17l18.7-28.7a49 49 0 0 0-23.6-72.5l-32-12.3a15.51 15.51 0 0 1-10-13.8l-1.8-34.2a49 49 0 0 0-61.7-44.8l-33.1 8.9a15.7 15.7 0 0 1-16.2-5.3l-21.6-26.7a49 49 0 0 0-76.2 0l-21.6 26.7a15.64 15.64 0 0 1-16.2 5.3l-33.1-8.9a49 49 0 0 0-61.7 44.8l-1.8 34.2a15.51 15.51 0 0 1-10 13.8l-32 12.3a49 49 0 0 0-23.6 72.5l18.7 28.7a15.44 15.44 0 0 1 0 17l-18.7 28.7a49 49 0 0 0 23.6 72.5l32 12.3a15.51 15.51 0 0 1 10 13.8l1.8 34.2a49 49 0 0 0 61.7 44.8l33.1-8.9a15.64 15.64 0 0 1 16.2 5.3l21.6 26.7a49 49 0 0 0 76.2 0l21.6-26.7a15.83 15.83 0 0 1 16.2-5.3l33.1 8.9a49 49 0 0 0 61.7-44.8l1.8-34.2a15.62 15.62 0 0 1 10-13.8l32-12.3a49 49 0 0 0 23.6-72.5zm-16.8 70l-32 12.3a49 49 0 0 0-31.4 43.2l-1.8 34.2a15.53 15.53 0 0 1-19.6 14.2l-33.1-8.9a49.1 49.1 0 0 0-50.8 16.5l-21.6 26.7a15.56 15.56 0 0 1-24.2 0l-21.6-26.7a49 49 0 0 0-38.1-18.2 46.23 46.23 0 0 0-12.7 1.7l-33.1 8.9a15.53 15.53 0 0 1-19.6-14.2l-1.8-34.2a49 49 0 0 0-31.4-43.2l-32-12.3a15.61 15.61 0 0 1-7.5-23.1l18.7-28.7a49 49 0 0 0 0-53.5l-18.7-28.7a15.63 15.63 0 0 1 7.5-23.1l32-12.3a49 49 0 0 0 31.4-43.2l1.8-34.2a15.53 15.53 0 0 1 19.6-14.2l33.1 8.9a49.1 49.1 0 0 0 50.8-16.5l21.6-26.7a15.56 15.56 0 0 1 24.2 0l21.6 26.7a49 49 0 0 0 50.8 16.5l33.1-8.9a15.53 15.53 0 0 1 19.6 14.2l1.8 34.3a49 49 0 0 0 31.4 43.2l32 12.3a15.61 15.61 0 0 1 7.5 23.1l-18.7 28.7a49 49 0 0 0 0 53.5l18.7 28.7a15.51 15.51 0 0 1-7.5 23z"/><path d="M329.74 170.89a16.72 16.72 0 0 0-23.6 0l-156 156a16.72 16.72 0 0 0 0 23.6 16.5 16.5 0 0 0 11.8 4.9 16.33 16.33 0 0 0 11.8-4.9l156-156a16.72 16.72 0 0 0 0-23.6zM178.64 165.99a33.4 33.4 0 1 0 33.4 33.4 33.46 33.46 0 0 0-33.4-33.4zM301.24 288.59a33.4 33.4 0 1 0 33.4 33.4 33.46 33.46 0 0 0-33.4-33.4z"/></svg><svg viewBox="0 0 438.47 512.1" id="ic_pluses2" xmlns="http://www.w3.org/2000/svg"><path d="M429.77 49.4a37.22 37.22 0 0 0-28.3-13.1h-35.8V25.1A25.18 25.18 0 0 0 340.57 0H97.97a25.18 25.18 0 0 0-25.1 25.1v11.2h-35.8a37.22 37.22 0 0 0-28.3 13.1A36.6 36.6 0 0 0 .47 79a191.83 191.83 0 0 0 97.4 136.9 259.53 259.53 0 0 0 16 32.1c19 32 42.6 54.1 68.6 64.8a54.18 54.18 0 0 1-41.8 57.9h-.2a11.81 11.81 0 0 0-9.1 11.5v54.4h-22a35.51 35.51 0 0 0-35.5 35.5v28.1a11.91 11.91 0 0 0 11.8 11.9h268a11.93 11.93 0 0 0 11.9-11.9v-28.1a35.51 35.51 0 0 0-35.5-35.5h-22v-54.4a11.81 11.81 0 0 0-9.1-11.5h-.1a54.13 54.13 0 0 1-41.8-58.4c25.5-10.9 48.8-32.8 67.5-64.3a259.53 259.53 0 0 0 16-32.1A191.83 191.83 0 0 0 437.97 79a36.54 36.54 0 0 0-8.2-29.6zM23.97 75.2a13 13 0 0 1 2.9-10.5 13.47 13.47 0 0 1 10.2-4.7h35.8v21.8a375.43 375.43 0 0 0 12.6 97.6 167.78 167.78 0 0 1-61.5-104.2zm306.2 385a11.93 11.93 0 0 1 11.9 11.9v16.2H97.67v-16.2a11.93 11.93 0 0 1 11.9-11.9zm-45.7-66.2v42.5h-129.2V394zm-98.2-23.7a78.15 78.15 0 0 0 20.2-51.2 90.39 90.39 0 0 0 12.7.9 107 107 0 0 0 13.9-1 78.6 78.6 0 0 0 20.3 51.3zm155.7-288.5c0 58.4-13.4 113.1-37.7 154-23.2 39-53.4 60.5-85 60.5s-61.8-21.5-85-60.5c-24.3-41-37.7-95.7-37.7-154V25.1a1.37 1.37 0 0 1 1.4-1.4h242.6a1.37 1.37 0 0 1 1.4 1.4zm72.6-6.6a167.92 167.92 0 0 1-61.6 104.2c8.3-30.3 12.6-63.4 12.6-97.6V60h35.8a13.32 13.32 0 0 1 10.2 4.7 12.35 12.35 0 0 1 3 10.5z"/><path d="M234.07 218.5h-26.1v-98.2a90.58 90.58 0 0 1-33.7 19.8v-23.7c6.8-2.2 14.2-6.4 22.2-12.7s13.5-13.5 16.4-21.8h21.2z"/></svg><svg viewBox="0 0 511.34 513.3" id="ic_search" xmlns="http://www.w3.org/2000/svg"><path d="M494 404.5L409.5 320c15.4-30.7 25.7-66.5 25.7-102.4a217.6 217.6 0 1 0-217.6 217.6c35.8 0 71.7-10.2 102.4-25.6l84.5 84.5c25.6 25.6 64 25.6 89.6 0a66.69 66.69 0 0 0-.1-89.6zM217.6 384A166.4 166.4 0 1 1 384 217.6 166 166 0 0 1 217.6 384z"/></svg><svg viewBox="0 0 17.04 18" id="ic_settings" xmlns="http://www.w3.org/2000/svg"><path d="M14.94 10a3.4 3.4 0 0 0 .1-1 3.4 3.4 0 0 0-.1-1l1.7-1.3a1.09 1.09 0 0 0 .3-1.3l-1.1-1.8a1.14 1.14 0 0 0-1.3-.5l-2 .8a5.85 5.85 0 0 0-1.7-1l-.3-2.1a.88.88 0 0 0-.9-.8h-2.2a1.06 1.06 0 0 0-1 .9l-.3 2a9.5 9.5 0 0 0-1.7 1l-2-.8a.93.93 0 0 0-1.2.4L.14 5.4a1 1 0 0 0 .3 1.3L2.14 8a3.4 3.4 0 0 0-.1 1 3.4 3.4 0 0 0 .1 1l-1.7 1.3a1.09 1.09 0 0 0-.3 1.3l1.1 1.8a1.14 1.14 0 0 0 1.3.5l2-.8a5.85 5.85 0 0 0 1.7 1l.3 2.1a.88.88 0 0 0 .9.8h2.1a1.06 1.06 0 0 0 1-.9l.3-2.1a5.85 5.85 0 0 0 1.7-1l2 .8a.93.93 0 0 0 1.2-.4l1.1-1.8a1 1 0 0 0-.3-1.3zm-6.4 2.5a3.5 3.5 0 1 1 3.5-3.5 3.54 3.54 0 0 1-3.5 3.5z"/></svg><svg viewBox="0 0 37 33" id="ic_success" xmlns="http://www.w3.org/2000/svg"><path fill-rule="evenodd" d="M35.67 3.421l-16.499 16.5a1.13 1.13 0 0 1-1.592-.001l-6.749-6.75a1.125 1.125 0 1 1 1.591-1.592l5.955 5.955L34.079 1.83a1.124 1.124 0 1 1 1.591 1.591zM24.184 4.503a14.185 14.185 0 0 0-7.685-2.253C8.643 2.25 2.25 8.643 2.25 16.5s6.393 14.25 14.249 14.25c7.857 0 14.25-6.393 14.25-14.25 0-.47-.023-.935-.066-1.392a1.125 1.125 0 1 1 2.239-.218c.051.53.077 1.067.077 1.61 0 9.098-7.402 16.5-16.5 16.5C7.402 33 0 25.598 0 16.5 0 7.402 7.402 0 16.499 0c3.164 0 6.242.901 8.901 2.608a1.125 1.125 0 1 1-1.216 1.895z"/></svg><svg viewBox="0 0 31 31" id="ic_theme" xmlns="http://www.w3.org/2000/svg"><path d="M15.5 0A15.5 15.5 0 1 0 31 15.5 15.45 15.45 0 0 0 15.5 0zm7.2 21.8a9.13 9.13 0 0 1-6.7 2.8A9.3 9.3 0 0 1 16 6a9.14 9.14 0 0 1 7.4 3.7c-8.9-2.9-15 11.3-.7 12.1z" fill-rule="evenodd"/></svg><svg viewBox="0 0 30 30" id="ic_tooltip" xmlns="http://www.w3.org/2000/svg"><path d="M15.938 1.438C8.171 1.438 1.875 7.734 1.875 15.5c0 7.768 6.296 14.063 14.063 14.063C23.704 29.563 30 23.268 30 15.5c0-7.766-6.296-14.062-14.062-14.062zm2.74 23.046c-.826.33-1.488.582-1.979.756-.492.175-1.064.261-1.716.261-1.002 0-1.78-.249-2.336-.742-.555-.495-.832-1.125-.832-1.887 0-.295.02-.599.062-.908s.109-.657.201-1.047l1.034-3.709c.092-.354.17-.69.232-1.01a4.48 4.48 0 0 0 .094-.869c0-.474-.097-.805-.289-.991s-.561-.28-1.105-.28c-.268 0-.542.043-.821.127-.281.084-.521.166-.724.242l.276-1.144a25.56 25.56 0 0 1 1.943-.717 5.74 5.74 0 0 1 1.757-.299c.994 0 1.761.243 2.3.73.539.487.809 1.12.809 1.898 0 .161-.02.445-.057.851a5.594 5.594 0 0 1-.207 1.119l-1.028 3.693c-.084.297-.16.635-.228 1.018-.066.379-.1.668-.1.863 0 .49.107.824.323 1.002.218.18.594.268 1.126.268.25 0 .535-.045.852-.133.315-.09.545-.166.688-.234l-.275 1.142zM18.494 9.48a2.429 2.429 0 0 1-1.732.681 2.454 2.454 0 0 1-1.742-.681c-.484-.452-.727-1.001-.727-1.645 0-.642.242-1.192.727-1.65a2.45 2.45 0 0 1 1.742-.685 2.42 2.42 0 0 1 1.732.685c.482.458.72 1.008.72 1.65 0 .644-.237 1.193-.72 1.645z"/></svg><svg viewBox="0 0 53.9 55" id="ic_view360" xmlns="http://www.w3.org/2000/svg"><path d="M48.8 2v8.1A27.48 27.48 0 1 0 50.9 42h-7.5A21.51 21.51 0 1 1 27.5 6a21.21 21.21 0 0 1 16.7 8h-7.5v5h17V2z" fill-rule="evenodd"/><path d="M26.3 24.2c2.2 0 3.7 1.2 3.7 3.1a2.09 2.09 0 0 1-1.6 2.2 2.59 2.59 0 0 1 2 2.6c0 2.1-1.7 3.6-4.2 3.6s-4.1-1.5-4.1-3.9v-.2h2.2c0 1.4.7 2.1 1.9 2.1a1.74 1.74 0 0 0 1.9-1.7c0-1.2-1-1.7-2-1.7h-.6v-1.6h.4c1.3 0 2-.5 2-1.4a1.43 1.43 0 0 0-1.6-1.4c-1.1 0-1.7.7-1.7 1.9h-2.2a3.55 3.55 0 0 1 3.9-3.6zM37 27.2a1.5 1.5 0 0 0-1.5-1.3c-1.2 0-2 1.1-2.1 3.3a3.13 3.13 0 0 1 2.5-1.3 3.47 3.47 0 0 1 3.5 3.7 3.89 3.89 0 0 1-4 4c-2.7 0-4.2-2.1-4.2-5.6 0-3.7 1.6-5.9 4.4-5.9a3.29 3.29 0 0 1 3.6 3H37zm-3.4 4.5a1.88 1.88 0 0 0 1.8 2.1 1.94 1.94 0 0 0 1.8-2.1 1.82 1.82 0 1 0-3.6 0zM48.2 29.9c0 3.6-1.5 5.7-4.1 5.7S40 33.5 40 29.9c0-2.6.9-5.7 4.1-5.7s4.1 3.1 4.1 5.7zm-5.9.1c0 2.5.6 3.8 1.9 3.8s1.9-1.3 1.9-3.9-.6-3.9-1.9-3.9c-1.9 0-1.9 2.7-1.9 4zM53.9 27.7a2.44 2.44 0 0 1-2.5 2.6 2.39 2.39 0 0 1-2.5-2.6 2.5 2.5 0 1 1 5 0zm-3.6 0c0 1 .4 1.6 1.2 1.6s1.2-.6 1.2-1.6-.4-1.5-1.2-1.5-1.2.6-1.2 1.5z"/></svg><svg viewBox="0 0 25 25" id="ic_visited" xmlns="http://www.w3.org/2000/svg"><path d="M12.5 0A12.5 12.5 0 1 0 25 12.5 12.5 12.5 0 0 0 12.5 0zm.9 14h-7v-2h5V4h2z" fill-rule="evenodd"/></svg><svg viewBox="0 0 34 30" id="ic_warning" xmlns="http://www.w3.org/2000/svg"><path fill-rule="evenodd" d="M17.003 19.977a1.337 1.337 0 0 1-1.328-1.345V8.744c0-.743.595-1.345 1.328-1.345.734 0 1.328.602 1.328 1.345v9.888c0 .743-.594 1.345-1.328 1.345zm.001 4.709a1.337 1.337 0 0 1-1.329-1.345c0-.743.594-1.346 1.328-1.346h.001c.733 0 1.328.603 1.328 1.346 0 .743-.595 1.345-1.328 1.345zm16.039 2.872C32.005 29.11 30.345 30 28.49 30H5.516c-2.024 0-3.821-1.07-4.807-2.861a5.577 5.577 0 0 1 .124-5.653L12.32 2.647A5.452 5.452 0 0 1 17.003 0c1.922 0 3.673.989 4.683 2.647l8.496 13.933a1.355 1.355 0 0 1-.432 1.851 1.318 1.318 0 0 1-1.828-.437L19.427 4.061a2.824 2.824 0 0 0-2.424-1.371c-.995 0-1.901.513-2.424 1.371L3.093 22.9a2.888 2.888 0 0 0-.065 2.928 2.809 2.809 0 0 0 2.488 1.481H28.49c.96 0 1.818-.459 2.354-1.26a2.906 2.906 0 0 0 .303-2.68 1.352 1.352 0 0 1 .741-1.749 1.323 1.323 0 0 1 1.726.751 5.626 5.626 0 0 1-.571 5.187z"/></svg></svg>