<svg width="0" height="0" class="hidden">
  <symbol xmlns="http://www.w3.org/2000/svg" viewBox="0 0 67 67" id="ic_academy_email">
    <path d="M50.8802 22.1472C50.3712 21.6342 49.5427 21.6308 49.0296 22.1397C48.5167 22.6488 48.5133 23.4774 49.0223 23.9905L49.0302 23.9986C49.2849 24.2555 49.6189 24.3835 49.9532 24.3835C50.2867 24.3835 50.6206 24.256 50.8768 24.0019C51.3899 23.4928 51.3893 22.6603 50.8802 22.1472Z" fill="currentColor"></path>
    <path d="M66.6172 37.8839L54.4632 25.7299C53.9522 25.2191 53.1236 25.2191 52.6125 25.7299C52.1015 26.2409 52.1015 27.0695 52.6125 27.5807L62.261 37.2291H39.2527C37.344 37.2291 35.7913 35.6763 35.7913 33.7677V10.7595L45.1063 20.0743C45.6173 20.5852 46.4459 20.5852 46.957 20.0743C47.468 19.5633 47.468 18.7347 46.957 18.2236L35.1365 6.40318C34.6255 5.8923 33.7969 5.8923 33.2859 6.40318L12.4243 27.2652C11.9133 27.7762 11.9133 28.6048 12.4243 29.1159L43.905 60.5965C44.1503 60.8419 44.4832 60.9798 44.8303 60.9798C45.1773 60.9798 45.5102 60.8419 45.7556 60.5965L66.6173 39.7346C66.8627 39.4891 67.0006 39.1564 67.0006 38.8093C67.0005 38.4623 66.8626 38.1294 66.6172 37.8839ZM33.1744 10.2163V26.882H16.5087L33.1744 10.2163ZM43.5217 56.5118L16.5087 29.4991H33.1744V33.7677C33.1744 37.1194 35.9012 39.8462 39.2529 39.8462H43.5217V56.5118ZM46.1387 56.512V39.8462H62.8043L46.1387 56.512Z" fill="currentColor"></path>
    <path d="M8.98101 33.2383H1.30859C0.585857 33.2383 0 33.8243 0 34.5469C0 35.2695 0.585857 35.8555 1.30859 35.8555H8.98101C9.70375 35.8555 10.2896 35.2696 10.2896 34.5469C10.2896 33.8243 9.70375 33.2383 8.98101 33.2383Z" fill="currentColor"></path>
    <path d="M12.8829 33.2383H12.8633C12.1405 33.2383 11.5547 33.8243 11.5547 34.5469C11.5547 35.2695 12.1405 35.8555 12.8633 35.8555H12.8829C13.6056 35.8555 14.1915 35.2695 14.1915 34.5469C14.1915 33.8243 13.6056 33.2383 12.8829 33.2383Z" fill="currentColor"></path>
    <path d="M5.49844 19.498H1.31055C0.587811 19.498 0.00195312 20.084 0.00195312 20.8066C0.00195312 21.5292 0.587811 22.1152 1.31055 22.1152H5.49844C6.22118 22.1152 6.80703 21.5292 6.80703 20.8066C6.80703 20.084 6.22118 19.498 5.49844 19.498Z" fill="currentColor"></path>
    <path d="M14.7226 19.498H9.77246C9.04972 19.498 8.46387 20.084 8.46387 20.8066C8.46387 21.5292 9.04972 22.1152 9.77246 22.1152H14.7226C15.4453 22.1152 16.0312 21.5292 16.0312 20.8066C16.0312 20.084 15.4453 19.498 14.7226 19.498Z" fill="currentColor"></path>
    <path d="M17.5721 40.4351H10.2441C9.52134 40.4351 8.93549 41.021 8.93549 41.7437C8.93549 42.4663 9.52134 43.0522 10.2441 43.0522H17.5721C18.2948 43.0522 18.8807 42.4663 18.8807 41.7437C18.8807 41.021 18.2947 40.4351 17.5721 40.4351Z" fill="currentColor"></path>
    <path d="M23.294 48.8101H4.84296C4.12022 48.8101 3.53436 49.396 3.53436 50.1187C3.53436 50.8413 4.12022 51.4272 4.84296 51.4272H23.294C24.0167 51.4272 24.6026 50.8413 24.6026 50.1187C24.6026 49.396 24.0167 48.8101 23.294 48.8101Z" fill="currentColor"></path>
  </symbol>
  <symbol xmlns="http://www.w3.org/2000/svg" viewBox="0 0 60 60" id="ic_academy_location">
    <path d="M30.1149 4.68802C29.4668 4.68333 28.9383 5.20482 28.9336 5.85169C28.9289 6.49857 29.4493 7.02709 30.0973 7.03177C30.7442 7.03646 31.2727 6.51615 31.2774 5.86927C31.2821 5.2224 30.7618 4.69388 30.1149 4.68802Z" fill="currentColor"></path>
    <path d="M30.0616 11.7192C25.5369 11.6871 21.8313 15.3374 21.7971 19.8607C21.7629 24.3838 25.4152 28.0912 29.9386 28.1253C29.9595 28.1254 29.9804 28.1255 30.0014 28.1255C34.4959 28.1255 38.1691 24.4861 38.2031 19.9838C38.2372 15.4609 34.585 11.7533 30.0616 11.7192ZM30.0011 25.7819C29.9864 25.7819 29.9709 25.7817 29.9561 25.7816C26.7251 25.7572 24.1163 23.109 24.1407 19.8783C24.1649 16.6621 26.7885 14.0626 29.999 14.0626C30.0138 14.0626 30.0293 14.0627 30.044 14.0628C33.275 14.0872 35.8838 16.7354 35.8595 19.9662C35.8351 23.1824 33.2116 25.7819 30.0011 25.7819Z" fill="currentColor"></path>
    <path d="M35.1126 5.57697C34.503 5.36064 33.8328 5.67998 33.6165 6.29006C33.4003 6.90014 33.7196 7.56987 34.3295 7.78619C39.4913 9.61561 42.9314 14.5318 42.8901 20.0193C42.8853 20.6664 43.406 21.195 44.0532 21.2C44.0561 21.2 44.0592 21.2 44.0622 21.2C44.7051 21.2 45.2289 20.6811 45.2339 20.0369C45.2826 13.5509 41.2152 7.73991 35.1126 5.57697Z" fill="currentColor"></path>
    <path d="M37.1908 44.1144C44.9853 34.0814 49.8564 28.8495 49.9222 20.0717C50.0047 9.02756 41.0419 0 29.9986 0C19.0842 0 10.1618 8.83924 10.0788 19.7729C10.0118 28.7887 14.9734 34.0134 22.8217 44.1127C15.014 45.2795 10.0788 48.2112 10.0788 51.797C10.0788 54.199 12.299 56.3544 16.3306 57.8661C20.0001 59.2421 24.8549 60 30.0005 60C35.1461 60 40.0008 59.2421 43.6703 57.8661C47.7019 56.3543 49.9222 54.1989 49.9222 51.7969C49.9222 48.213 44.9915 45.282 37.1908 44.1144ZM12.4224 19.7905C12.4956 10.1426 20.3676 2.34375 29.9988 2.34375C39.744 2.34375 47.6512 10.3111 47.5785 20.0542C47.5162 28.3903 42.3503 33.5274 34.103 44.2786C32.6319 46.1953 31.281 48.0075 30.0022 49.7802C28.7272 48.0064 27.4032 46.2267 25.9102 44.2779C17.3219 33.0766 12.3589 28.3277 12.4224 19.7905ZM30.0005 57.6564C19.9398 57.6564 12.4224 54.563 12.4224 51.797C12.4224 49.7457 16.9163 47.1545 24.4724 46.2572C26.1427 48.4487 27.607 50.4397 29.0433 52.4731C29.2627 52.7837 29.6191 52.9686 29.9994 52.9689C29.9998 52.9689 30.0001 52.9689 30.0005 52.9689C30.3804 52.9689 30.7368 52.7846 30.9565 52.4747C32.3792 50.4677 33.8836 48.4276 35.5396 46.2584C43.0886 47.1567 47.5785 49.7471 47.5785 51.7971C47.5784 54.563 40.0612 57.6564 30.0005 57.6564Z" fill="currentColor"></path>
  </symbol>
  <symbol xmlns="http://www.w3.org/2000/svg" viewBox="0 0 60 60" id="ic_academy_phone">
    <path d="M35.9334 47.462L28.552 40.3857C26.8066 38.7122 24.1465 38.5319 22.2277 39.9581C22.227 39.9585 22.218 39.9647 22.2177 39.9653L22.185 39.9898C22.1458 40.0194 22.109 40.0197 22.0842 40.0156C22.0409 40.0073 22.023 39.9798 22.0168 39.9691C20.3116 37.2619 19.1586 34.2864 18.5886 31.1247C18.0193 27.9624 18.0619 24.7698 18.7169 21.636C18.7189 21.6253 18.7251 21.5971 18.7588 21.5768C18.7864 21.5607 18.8166 21.5572 18.85 21.5672L18.9009 21.582C21.2026 22.2555 23.6411 21.1554 24.6975 18.9673L29.5286 8.96397C30.2094 7.55429 29.9177 5.87113 28.8038 4.77207C28.4089 4.37235 27.9593 3.99636 27.467 3.65374C23.0581 0.591515 17.0406 1.51548 13.7675 5.75761C13.5642 6.02317 13.3754 6.30112 13.1934 6.58182L13.1913 6.58491C12.5364 7.55463 12.2113 8.16006 11.7204 9.07474L11.6158 9.26909C11.4978 9.48684 8.71424 14.6402 8.02832 18.2683C6.96504 23.896 7.05929 29.7157 8.30214 35.0975C9.61516 40.7823 12.1115 45.8404 15.721 50.1307C16.6371 51.2194 18.334 49.7943 17.4169 48.7038C14.0348 44.6846 11.6946 39.9385 10.4617 34.5987C9.28768 29.5131 9.19893 24.0089 10.2061 18.6797C10.827 15.3936 13.5357 10.3768 13.5652 10.3227L13.6726 10.1229C14.1008 9.32551 14.5511 8.55771 15.0451 7.79955L15.0527 7.78751C15.2013 7.55257 15.3598 7.32484 15.5281 7.10365C18.0801 3.80373 22.7667 3.08788 26.2022 5.47381C26.5847 5.73938 26.9308 6.02902 27.2314 6.3338C27.2355 6.33827 27.24 6.34274 27.2445 6.34721C27.6855 6.77961 27.8014 7.44421 27.5327 8.0001L22.702 18.0034C22.1179 19.2122 20.7808 19.8228 19.5246 19.4558L19.4826 19.443C18.8586 19.2569 18.1813 19.3405 17.6244 19.6728C17.0716 20.0024 16.6791 20.5524 16.5477 21.1826C15.8339 24.5964 15.7871 28.0735 16.4077 31.5179C17.0279 34.9606 18.2838 38.201 20.1414 41.1501C20.4854 41.697 21.0471 42.0775 21.6824 42.1948C22.3237 42.3128 22.9917 42.1552 23.519 41.7593L23.5493 41.7369C24.5971 40.9585 26.056 41.0627 27.0181 41.9853L34.3995 49.0616C35.3001 49.9253 35.3173 51.3821 34.727 52.4179C33.6913 54.2221 31.5447 55.4316 29.5458 55.7708C27.5104 56.1155 25.4547 55.6573 23.7581 54.4788C22.5896 53.6673 21.3237 55.486 22.4939 56.2988C24.1974 57.4818 26.1826 58.0996 28.2169 58.0996C28.7811 58.0996 29.3497 58.0518 29.9159 57.9559C32.5698 57.5056 35.2836 55.8991 36.6489 53.5214L36.6744 53.4771C37.7579 51.5892 37.5381 49.0007 35.9334 47.462Z" fill="currentColor"></path>
    <path d="M39.9455 11.9238C33.3711 11.9238 28.023 17.2722 28.023 23.847C28.023 24.4215 28.0647 25 28.1476 25.5714L26.171 31.9924C25.9629 32.6677 26.4764 33.3883 27.1717 33.4248L33.2989 33.7457C35.2672 35.0711 37.5582 35.7698 39.9455 35.7698C46.5199 35.7698 51.8687 30.421 51.8687 23.847C51.8687 17.2722 46.5199 11.9238 39.9455 11.9238ZM39.9455 33.5534C37.9118 33.5534 35.9645 32.9312 34.3143 31.7537C34.1427 31.6312 33.9394 31.56 33.7292 31.5493L28.7069 31.2858L30.3409 25.9791C30.5328 25.3557 30.2394 24.4951 30.2394 23.847C30.2394 18.4944 34.5933 14.1405 39.9455 14.1405C45.2977 14.1405 49.652 18.4944 49.652 23.847C49.652 29.1988 45.2977 33.5534 39.9455 33.5534Z" fill="currentColor"></path>
    <path d="M35.9218 23.0513C35.3191 23.0513 34.8135 23.5569 34.8135 24.1593C34.8135 24.7619 35.3195 25.268 35.9218 25.268C36.5066 25.268 37.002 24.7908 37.0278 24.2078C37.0549 23.5872 36.5441 23.0513 35.9218 23.0513Z" fill="currentColor"></path>
    <path d="M19.5136 51.6221C18.9109 51.6221 18.4053 52.1281 18.4053 52.7301C18.4053 53.3324 18.9113 53.8384 19.5136 53.8384C20.0984 53.8384 20.5938 53.362 20.6196 52.7786C20.6467 52.159 20.1349 51.6221 19.5136 51.6221Z" fill="currentColor"></path>
    <path d="M40.2809 23.0513C39.6772 23.0513 39.1729 23.5556 39.1729 24.1593C39.1729 24.7626 39.6782 25.268 40.2809 25.268C40.8664 25.2673 41.3604 24.7915 41.3858 24.2078C41.413 23.5872 40.9042 23.0513 40.2809 23.0513Z" fill="currentColor"></path>
    <path d="M44.6393 23.0513C44.0369 23.0513 43.5312 23.5569 43.5312 24.1593C43.5316 24.7619 44.0376 25.268 44.6393 25.268C45.2247 25.268 45.7194 24.7908 45.7452 24.2078C45.7731 23.5872 45.2622 23.0513 44.6393 23.0513Z" fill="currentColor"></path>
  </symbol>
  <symbol xmlns="http://www.w3.org/2000/svg" viewBox="0 0 20 21" id="ic_add">
    <path id="Vector" d="M10 4.66666V16.3333" stroke="currentColor" stroke-width="2" stroke-linecap="round" stroke-linejoin="round" fill="none"></path>
    <path id="Vector_2" d="M4.16699 10.5H15.8337" stroke="currentColor" stroke-width="2" stroke-linecap="round" stroke-linejoin="round" fill="none"></path>
  </symbol>
  <symbol xmlns="http://www.w3.org/2000/svg" viewBox="0 0 24 25" id="ic_arrow_down_circle">
    <path d="M12 22.5C17.5228 22.5 22 18.0228 22 12.5C22 6.97715 17.5228 2.5 12 2.5C6.47715 2.5 2 6.97715 2 12.5C2 18.0228 6.47715 22.5 12 22.5Z" stroke="currentColor" stroke-width="2" stroke-linecap="round" stroke-linejoin="round" fill="none"></path>
    <path d="M8 12.5L12 16.5L16 12.5" stroke="currentColor" stroke-width="2" stroke-linecap="round" stroke-linejoin="round" fill="none"></path>
    <path d="M12 8.5V16.5" stroke="currentColor" stroke-width="2" stroke-linecap="round" stroke-linejoin="round" fill="none"></path>
  </symbol>
  <symbol xmlns="http://www.w3.org/2000/svg" viewBox="0 0 41 9" id="ic_arrow_hor">
    <path d="M40.3536 4.85355C40.5488 4.65829 40.5488 4.34171 40.3536 4.14645L37.1716 0.964466C36.9763 0.769204 36.6597 0.769204 36.4645 0.964466C36.2692 1.15973 36.2692 1.47631 36.4645 1.67157L39.2929 4.5L36.4645 7.32843C36.2692 7.52369 36.2692 7.84027 36.4645 8.03553C36.6597 8.2308 36.9763 8.2308 37.1716 8.03553L40.3536 4.85355ZM0 5H40V4H0V5Z" fill="currentColor"></path>
  </symbol>
  <symbol version="1.1" id="ic_buy" xmlns="http://www.w3.org/2000/svg" xmlns:xlink="http://www.w3.org/1999/xlink" x="0px" y="0px" xml:space="preserve" viewBox="40 -35 110 100">
    <path d="M94.5-29l-48,19v48l48,22l48-22v-48L94.5-29z M94.5-23l38.9,15.4l-15.3,6.5L80.6-17.5
		L94.5-23z M91.5,52.6l-39-18.2V-2.7l39,17.4V52.6z M55.6-7.6l17.2-6.8L110,2.4L94.5,9L55.6-7.6z M136.5,34.4l-39,18.2V14.7
		l39-17.4V34.4z M79.1,32l4.8,3V24.7h2.6l-5-6.7l-6,3.7l3.6,1C79.1,22.7,79.1,32,79.1,32z M58.1,22l4.8,3V14.7h2.6l-5-6.7l-6,3.7
		l3.6,1C58.1,12.7,58.1,22,58.1,22z M131.9,4.4V1.6l-15,7v2.8L131.9,4.4z M131.9,5.6l-15,7v2.8l15-7V5.6z M117.2,21.5v0.9l1.6-0.7
		c0.1,0,0.1,0,0.2,0l0.1,0.1l0.1,4.9l0.4-0.2l0.4-0.2l0-4.9c0-0.1,0-0.1,0.1-0.2c0-0.1,0.1-0.1,0.2-0.2l1.6-0.7v-0.9L117.2,21.5z
		 M101.9,32.5c0.1-1,0.8-2.1,1.7-2.7c0.5-0.4,0.9-1,1-1.6c0.1-0.6-0.2-1.1-0.7-1.1c-0.5-0.1-1.1,0.3-1.5,0.8
		c-0.4,0.6-0.6,1.2-0.4,1.7c0.3,0.8,0.1,1.9-0.7,2.9C101.6,32.5,101.7,32.5,101.9,32.5z M129,16c-0.2-0.1-0.5,0-0.7,0.2
		c-0.2,0.3-0.2,0.6,0,0.7l1.9,1.5l-1.8,3.3c-0.2,0.3-0.1,0.6,0.1,0.6c0.1,0,0.2,0,0.3,0c0.1-0.1,0.3-0.2,0.4-0.3l1.7-3.1l1.8,1.4
		c0.1,0.1,0.2,0.1,0.4,0c0.1,0,0.2-0.1,0.3-0.2c0.2-0.3,0.2-0.6,0-0.7l-1.9-1.5l1.8-3.3c0.2-0.3,0.1-0.6-0.1-0.6
		c-0.2-0.1-0.5,0.1-0.7,0.4l-1.7,3.1L129,16z M114.9,27.8c0.6,0.3,1.6,0.2,2.3-0.2l0.1-0.1V27v-0.5l-0.1,0.1
		c-0.5,0.3-1.3,0.4-1.7,0.2c-0.4-0.2-0.6-0.7-0.6-1.2l-0.1-3l-0.4,0.2L114,23l0.1,3C114,26.9,114.3,27.5,114.9,27.8z M127,21.4
		c-0.5,0.9-1.3,1.5-2,1.7c-0.8,0.2-1.4-0.2-1.6-0.9l3.6-1.7V20v-0.5l-3.6,1.7c0.1-0.9,0.7-1.8,1.5-2.3s1.6-0.6,2.1-0.2l0.3-0.5
		l0.3-0.5c-0.8-0.6-2.1-0.3-3.2,0.6c-1.1,1-1.9,2.5-1.8,3.7c0,1.3,0.8,2,2,2c1.1-0.1,2.4-1,3.2-2.4l-0.3-0.2L127,21.4z M109.8,30.9
		c1.1-0.1,2.4-1,3.2-2.4l-0.3-0.2l-0.3-0.2c-0.5,0.9-1.3,1.5-2,1.7c-0.8,0.2-1.4-0.2-1.6-0.9l3.5-1.6v-0.5v-0.5l-3.5,1.6
		c0.1-0.9,0.7-1.8,1.5-2.3s1.6-0.6,2.1-0.2l0.3-0.5l0.3-0.5c-0.8-0.6-2.1-0.3-3.2,0.6c-1.1,1-1.9,2.5-1.8,3.7
		C107.9,30.2,108.7,31,109.8,30.9z M100.4,36c0.5,0,1.1-0.5,1.4-1.1c0.6-1,1.6-1.7,2.4-1.7c0-0.2,0-0.4,0-0.6
		c-0.8,0.8-1.9,1-2.5,0.6c-0.4-0.3-0.9-0.2-1.5,0.3c-0.5,0.4-0.8,1.1-0.8,1.7C99.5,35.7,99.9,36,100.4,36z M104,30
		c0.8,0.2,1.1,1.1,0.8,2.2c-0.2,0.6,0,1.2,0.4,1.3c0.4,0.2,1-0.1,1.5-0.6s0.7-1.2,0.6-1.7s-0.5-0.8-1.1-0.6
		c-0.9,0.3-1.6-0.2-1.8-1.1C104.3,29.7,104.1,29.9,104,30z"></path>
  </symbol>
  <symbol xmlns="http://www.w3.org/2000/svg" xmlns:xlink="http://www.w3.org/1999/xlink" viewBox="0 0 120px 89px" id="ic_buy_open">
    <path fill-rule="evenodd" d="M108.000,38.500 L108.000,67.000 L60.000,89.000 L12.000,67.000 L12.000,38.500 L-0.000,33.000 L12.000,19.000 L60.000,-0.000 L108.000,19.000 L120.000,33.000 L108.000,38.500 ZM102.000,63.400 L102.000,41.250 L72.000,55.000 L63.000,44.500 L63.000,81.600 L102.000,63.400 ZM18.000,63.400 L57.000,81.600 L57.000,44.500 L50.657,51.900 L52.000,53.700 L49.400,53.700 L49.400,64.000 L44.600,61.000 L44.600,53.442 L28.400,46.017 L28.400,54.000 L23.600,51.000 L23.600,43.816 L18.000,41.250 L18.000,63.400 ZM8.000,31.000 L12.000,32.830 L12.000,27.000 L8.000,31.000 ZM18.000,35.574 L23.920,38.282 L26.000,37.000 L28.531,40.392 L45.287,48.056 L46.163,47.516 L51.373,41.189 L18.000,26.300 L18.000,35.574 ZM60.000,6.000 L21.100,21.400 L60.000,38.000 L98.900,21.400 L60.000,6.000 ZM68.627,41.189 L74.400,48.200 L84.000,43.808 L84.000,41.000 L99.000,33.900 L99.000,36.800 L89.760,41.173 L102.000,35.574 L102.000,26.300 L68.627,41.189 ZM108.000,32.830 L112.000,31.000 L108.000,27.000 L108.000,32.830 ZM84.000,37.000 L99.000,29.900 L99.000,32.700 L84.000,39.800 L84.000,37.000 ZM67.200,62.200 C67.800,62.600 68.900,62.400 69.700,61.600 C69.700,61.800 69.700,62.000 69.700,62.200 C68.900,62.200 67.900,62.900 67.300,63.900 C67.000,64.500 66.400,65.000 65.900,65.000 C65.400,65.000 65.000,64.700 64.900,64.200 C64.900,63.600 65.200,62.900 65.700,62.500 C66.300,62.000 66.800,61.900 67.200,62.200 ZM69.500,59.000 C69.600,58.900 69.800,58.700 69.900,58.500 C70.100,59.400 70.800,59.900 71.700,59.600 C72.300,59.400 72.700,59.700 72.800,60.200 C72.900,60.700 72.700,61.400 72.200,61.900 C71.700,62.400 71.100,62.700 70.700,62.500 C70.300,62.400 70.100,61.800 70.300,61.200 C70.600,60.100 70.300,59.200 69.500,59.000 ZM78.500,53.400 L78.200,53.900 L77.900,54.400 C77.400,54.000 76.600,54.100 75.800,54.600 C75.000,55.100 74.400,56.000 74.300,56.900 L77.800,55.300 L77.800,55.800 L77.800,56.300 L74.300,57.900 C74.500,58.600 75.100,59.000 75.900,58.800 C76.600,58.600 77.400,58.000 77.900,57.100 L78.200,57.300 L78.500,57.500 C77.700,58.900 76.400,59.800 75.300,59.900 C74.200,60.000 73.400,59.200 73.500,57.700 C73.400,56.500 74.200,55.000 75.300,54.000 C76.400,53.100 77.700,52.800 78.500,53.400 ZM79.900,51.800 L80.300,51.600 L80.400,54.600 C80.400,55.100 80.600,55.600 81.000,55.800 C81.400,56.000 82.200,55.900 82.700,55.600 L82.800,55.500 L82.800,56.000 L82.800,56.500 L82.700,56.600 C82.000,57.000 81.000,57.100 80.400,56.800 C79.800,56.500 79.500,55.900 79.600,55.000 L79.500,52.000 L79.900,51.800 ZM82.800,50.500 L87.400,48.400 L87.400,49.300 L85.800,50.000 C85.700,50.100 85.600,50.100 85.600,50.200 C85.500,50.300 85.500,50.300 85.500,50.400 L85.600,55.300 L85.200,55.500 L84.800,55.700 L84.700,50.800 L84.600,50.700 C84.500,50.700 84.500,50.700 84.400,50.700 L82.800,51.400 L82.800,50.500 ZM93.100,46.700 L92.800,47.200 L92.500,47.700 C92.000,47.300 91.200,47.400 90.400,47.900 C89.600,48.400 89.000,49.300 88.900,50.200 L92.500,48.500 L92.500,49.000 L92.500,49.500 L88.900,51.200 C89.100,51.900 89.700,52.300 90.500,52.100 C91.200,51.900 92.000,51.300 92.500,50.400 L93.000,50.400 L93.300,50.600 C92.500,52.000 91.200,52.900 90.100,53.000 C88.900,53.000 88.100,52.300 88.100,51.000 C88.000,49.800 88.800,48.300 89.900,47.300 C91.000,46.400 92.300,46.100 93.100,46.700 ZM94.500,45.000 L96.200,46.500 L97.900,43.400 C98.100,43.100 98.400,42.900 98.600,43.000 C98.800,43.000 98.900,43.300 98.700,43.600 L96.900,46.900 L98.900,48.400 C99.100,48.500 99.100,48.800 98.900,49.100 C98.800,49.200 98.700,49.300 98.600,49.300 C98.400,49.400 98.300,49.400 98.200,49.300 L96.400,47.900 L94.700,51.000 C94.600,51.100 94.400,51.200 94.300,51.300 C94.200,51.300 94.100,51.300 94.000,51.300 C93.800,51.300 93.700,51.000 93.900,50.700 L95.700,47.400 L93.800,45.900 C93.600,45.800 93.600,45.500 93.800,45.200 C94.000,45.000 94.300,44.900 94.500,45.000 ZM69.100,58.800 C68.200,59.400 67.500,60.500 67.400,61.500 C67.200,61.500 67.100,61.500 66.800,61.500 C67.600,60.500 67.800,59.400 67.500,58.600 C67.300,58.100 67.500,57.500 67.900,56.900 C68.300,56.400 68.900,56.000 69.400,56.100 C69.900,56.100 70.200,56.600 70.100,57.200 C70.000,57.800 69.600,58.400 69.100,58.800 Z"></path>
    <path fill-rule="evenodd" fill="rgb(255, 255, 255)" d="M7.000,31.000 C7.000,31.000 45.500,49.000 45.000,49.000 C44.500,49.000 53.000,40.000 53.000,40.000 L14.000,24.000 L7.000,31.000 ZM106.000,24.000 L67.000,40.000 C67.000,40.000 75.500,49.000 75.000,49.000 C74.500,49.000 113.000,31.000 113.000,31.000 L106.000,24.000 Z"></path>
  </symbol>
  <symbol xmlns="http://www.w3.org/2000/svg" xmlns:xlink="http://www.w3.org/1999/xlink" viewBox="0 0 29px 19px" id="ic_buy2">
    <path fill-rule="evenodd" fill="currentColor" d="M27.234,3.554 L11.551,3.554 L11.318,0.958 C11.280,0.534 10.924,0.209 10.497,0.209 L8.824,0.209 C8.369,0.209 8.000,0.577 8.000,1.032 C8.000,1.487 8.369,1.855 8.824,1.855 L9.744,1.855 C10.247,7.457 8.947,-7.022 10.692,12.405 C10.759,13.166 11.170,13.991 11.878,14.552 C10.601,16.181 11.768,18.583 13.845,18.583 C15.568,18.583 16.784,16.865 16.193,15.238 L20.702,15.238 C20.111,16.863 21.324,18.583 23.050,18.583 C24.427,18.583 25.547,17.464 25.547,16.087 C25.547,14.711 24.427,13.591 23.050,13.591 L13.850,13.591 C13.225,13.591 12.679,13.214 12.444,12.664 L25.609,11.891 C25.968,11.870 26.272,11.618 26.359,11.269 L28.033,4.577 C28.163,4.058 27.770,3.554 27.234,3.554 L27.234,3.554 ZM13.845,16.937 C13.376,16.937 12.995,16.556 12.995,16.087 C12.995,15.619 13.376,15.238 13.845,15.238 C14.313,15.238 14.695,15.619 14.695,16.087 C14.695,16.556 14.313,16.937 13.845,16.937 ZM23.050,16.937 C22.581,16.937 22.200,16.556 22.200,16.087 C22.200,15.619 22.581,15.238 23.050,15.238 C23.518,15.238 23.900,15.619 23.900,16.087 C23.900,16.556 23.518,16.937 23.050,16.937 ZM24.908,10.283 L12.222,11.028 L11.699,5.201 L26.179,5.201 L24.908,10.283 Z"></path><text kerning="auto" font-family="Myriad Pro" fill="rgb(0, 0, 0)" font-size="16px" x="0px" y="10.792px">
      <tspan font-size="16px" font-family="HelveticaNeueCyr" font-weight="bold" fill="currentColor">+</tspan>
    </text>
  </symbol>
  <symbol xmlns="http://www.w3.org/2000/svg" viewBox="0 0 456.03 434.69" id="ic_cart">
    <path d="M345.6,338.86a53.25,53.25,0,1,0,53.25,53.25C398.34,362.93,374.78,338.86,345.6,338.86Z" transform="translate(0 -10.67)"></path>
    <path d="M439.3,84.91c-1,0-2.56-.51-4.1-.51H112.64l-5.12-34.31A45.85,45.85,0,0,0,62,10.67H20.48a20.48,20.48,0,0,0,0,41H62a5.44,5.44,0,0,1,5.12,4.61L98.82,272.3a56.12,56.12,0,0,0,55.29,47.62h213c26.63,0,49.67-18.95,55.3-45.06l33.28-166.4A20.24,20.24,0,0,0,439.3,84.91Z" transform="translate(0 -10.67)"></path>
    <path d="M215,389.55c-1-28.16-24.58-50.69-52.74-50.69a53.56,53.56,0,0,0-51.2,55.3,52.49,52.49,0,0,0,52.23,50.69h1C193.54,443.31,216.58,418.73,215,389.55Z" transform="translate(0 -10.67)"></path>
  </symbol>
  <symbol xmlns="http://www.w3.org/2000/svg" viewBox="0 0 6 5" id="ic_check">
    <path d="M5 1L2.25 4L1 2.63636" stroke="currentColor" stroke-linecap="round" stroke-linejoin="round" fill="none"></path>
  </symbol>
  <symbol xmlns="http://www.w3.org/2000/svg" viewBox="0 0 22 23" id="ic_clear">
    <path id="Vector" d="M16.5 6L5.5 17" stroke="currentColor" stroke-width="2" stroke-linecap="round" stroke-linejoin="round" fill="none"></path>
    <path id="Vector_2" d="M5.5 6L16.5 17" stroke="currentColor" stroke-width="2" stroke-linecap="round" stroke-linejoin="round" fill="none"></path>
  </symbol>
  <symbol xmlns="http://www.w3.org/2000/svg" viewBox="0 0 32 29.93" id="ic_compare">
    <path d="M38.19,22.87l-.75-2.8-8.55,2.29a4,4,0,0,0-7.36,2l-9.25,2.48.75,2.8,9.52-2.55a3.94,3.94,0,0,0,6.81-1.83Z" transform="translate(-9.5 -20.07)" fill="currentColor" fill-rule="evenodd"></path>
    <path d="M10.5,42.27a6.7,6.7,0,1,0,13.4,0c0-3.71-6.7-11.85-6.7-11.85S10.5,38.56,10.5,42.27ZM33.8,26s-6.7,8.13-6.7,11.85a6.7,6.7,0,1,0,13.4,0C40.5,34.14,33.8,26,33.8,26Z" transform="translate(-9.5 -20.07)" fill="none" stroke="currentColor" stroke-miterlimit="10" stroke-width="2"></path>
    <path d="M10.5,43.5v-2h13v2Z" transform="translate(-9.5 -20.07)" fill="currentColor" fill-rule="evenodd"></path>
    <path d="M27.5,38.5v-2h13v2Z" transform="translate(-9.5 -20.07)" fill="currentColor" fill-rule="evenodd"></path>
  </symbol>
  <symbol xmlns="http://www.w3.org/2000/svg" viewBox="0 0 16 15" id="ic_compare2">
    <rect id="Rectangle 119" x="1" y="11" width="2" height="4" fill="currentColor"></rect>
    <rect id="Rectangle 120" x="5" y="4" width="2" height="11" fill="currentColor"></rect>
    <rect id="Rectangle 121" x="9" width="2" height="15" fill="currentColor"></rect>
    <rect id="Rectangle 122" x="13" y="6" width="2" height="9" fill="currentColor"></rect>
  </symbol>
  <symbol version="1.1" id="ic_copy" xmlns="http://www.w3.org/2000/svg" xmlns:xlink="http://www.w3.org/1999/xlink" x="0px" y="0px" xml:space="preserve" viewBox="228 -229 512 512">
    <path d="M444.7,187c-50,0-90.7-40.7-90.7-90.7v-218.7h-37.3c-32.4,0-58.7,26.3-58.7,58.7v288
	c0,32.4,26.3,58.7,58.7,58.7h243.7c32.4,0,58.7-26.3,58.7-58.7V187H444.7z"></path>
    <path d="M704.3-170.3c0-32.4-26.3-58.7-58.7-58.7h-201c-32.4,0-58.7,26.3-58.7,58.7V96.3
	c0,32.4,26.3,58.7,58.7,58.7h201c32.4,0,58.7-26.3,58.7-58.7V-170.3z"></path>
  </symbol>
  <symbol xmlns="http://www.w3.org/2000/svg" viewBox="0 0 35 23" id="ic_course_amount">
    <path d="M11.0006 11.647C6.02999 11.647 0.714844 16.2821 0.714844 21.9999H21.2863C21.2863 16.2821 15.9711 11.647 11.0006 11.647Z" stroke="currentColor" stroke-linecap="round" stroke-linejoin="round" fill="none"></path>
    <path d="M11.0003 11.3529C13.8406 11.3529 16.1431 9.03536 16.1431 6.17647C16.1431 3.31758 13.8406 1 11.0003 1C8.15996 1 5.85742 3.31758 5.85742 6.17647C5.85742 9.03536 8.15996 11.3529 11.0003 11.3529Z" stroke="currentColor" stroke-linecap="round" stroke-linejoin="round" fill="none"></path>
    <path d="M17 11.647C21.9706 11.647 27.2857 16.2821 27.2857 21.9999H23.9994" stroke="currentColor" stroke-linecap="round" stroke-linejoin="round" fill="none"></path>
    <path d="M17 11.3529C19.8403 11.3529 22.1429 9.03536 22.1429 6.17647C22.1429 3.31758 19.8403 1 17 1" stroke="currentColor" stroke-linecap="round" stroke-linejoin="round" fill="none"></path>
    <path d="M24 11.647C28.9706 11.647 34.2857 16.2821 34.2857 21.9999H30.9994" stroke="currentColor" stroke-linecap="round" stroke-linejoin="round" fill="none"></path>
    <path d="M24 11.3529C26.8403 11.3529 29.1429 9.03536 29.1429 6.17647C29.1429 3.31758 26.8403 1 24 1" stroke="currentColor" stroke-linecap="round" stroke-linejoin="round" fill="none"></path>
  </symbol>
  <symbol xmlns="http://www.w3.org/2000/svg" viewBox="0 0 170 97" id="ic_delivery">
    <path d="M165.83,85.61h-9.32a13.9,13.9,0,0,1-27.34,0h-50a13.9,13.9,0,0,1-27.34,0H39.13A4.28,4.28,0,0,1,35,81.26V66.09H18.71a4.35,4.35,0,0,1,0-8.7H39.16a4.27,4.27,0,0,1,4.17,4.35v15.2h8.25a3.47,3.47,0,0,1,.9.11,13.79,13.79,0,0,1,26-.08,3,3,0,0,1,.52,0h39.3V8.7h-75V23.87a4.27,4.27,0,0,1-4.17,4.35H18.71a4.36,4.36,0,0,1,0-8.71H35V4.35A4.28,4.28,0,0,1,39.13,0h83.33a4.28,4.28,0,0,1,4.17,4.35v9.87h17.49a24.16,24.16,0,0,1,18.4,8c4.87,5.52,7.48,13.42,7.48,22.82V81.26A4.28,4.28,0,0,1,165.83,85.61ZM65.49,76.5a5.92,5.92,0,1,0,5.67,5.92A5.8,5.8,0,0,0,65.49,76.5Zm77.35,11.83a5.92,5.92,0,1,0-5.67-5.91A5.85,5.85,0,0,0,142.84,88.33Zm18.81-43.2c0-13.9-6.54-22.21-17.49-22.21H126.67v54h3.19a13.78,13.78,0,0,1,25.95,0h5.84ZM72.2,35a4.5,4.5,0,0,1,0-6.17,4.06,4.06,0,0,1,5.91,0L88.34,39.54l0,0c.07.1.18.18.25.29s.07.1.1.18a.59.59,0,0,1,.14.18l.1.21c0,.08.07.11.11.19l.1.21c0,.08,0,.11.07.19a1.72,1.72,0,0,1,.07.21s0,.11.07.18,0,.15,0,.22,0,.15,0,.22,0,.18,0,.25a.4.4,0,0,1,0,.18,3.24,3.24,0,0,1,0,.88c0,.07,0,.11,0,.18s0,.18,0,.25,0,.15,0,.22a.45.45,0,0,1,0,.22s0,.11-.07.18,0,.14-.07.22,0,.1-.07.18l-.1.21c0,.08-.07.11-.11.19l-.1.21a.77.77,0,0,0-.14.19c0,.07-.07.1-.1.18s-.18.18-.25.29l0,0L77.59,57.13a4.13,4.13,0,0,1-3,1.27,4.08,4.08,0,0,1-3-1.27,4.47,4.47,0,0,1,0-6.16l3.58-4H4.17a4.35,4.35,0,0,1,0-8.7H75.3Z" transform="translate(0 0)" fill-rule="evenodd"></path>
  </symbol>
  <symbol xmlns="http://www.w3.org/2000/svg" viewBox="0 0 25 25" id="ic_double_arr">
    <line x1="12.8593" y1="23.4102" x2="0.8593" y2="11.4102" stroke="currentColor" stroke-width="2" fill="none"></line>
    <line x1="12.8593" y1="23.4102" x2="0.8593" y2="11.4102" stroke="currentColor" stroke-width="2" fill="none"></line>
    <line x1="12.7071" y1="0.707107" x2="1.70711" y2="11.7071" stroke="currentColor" stroke-width="2" fill="none"></line>
    <line x1="12.7071" y1="0.707107" x2="1.70711" y2="11.7071" stroke="currentColor" stroke-width="2" fill="none"></line>
    <line x1="23.8593" y1="23.4102" x2="11.8593" y2="11.4102" stroke="currentColor" stroke-width="2" fill="none"></line>
    <line x1="23.8593" y1="23.4102" x2="11.8593" y2="11.4102" stroke="currentColor" stroke-width="2" fill="none"></line>
    <line x1="23.7071" y1="0.707107" x2="12.7071" y2="11.7071" stroke="currentColor" stroke-width="2" fill="none"></line>
    <line x1="23.7071" y1="0.707107" x2="12.7071" y2="11.7071" stroke="currentColor" stroke-width="2" fill="none"></line>
  </symbol>
  <symbol xmlns="http://www.w3.org/2000/svg" xmlns:xlink="http://www.w3.org/1999/xlink" viewBox="0 0 18px 15px" id="ic_download">
    <path fill-rule="evenodd" fill="currentColor" d="M8.379,14.500 L8.379,14.500 L8.379,14.500 L9.430,14.500 L9.430,14.106 L17.572,6.621 L16.522,5.701 L9.430,12.267 L9.430,0.115 L7.985,0.115 L7.985,12.005 L1.682,6.227 L0.500,7.146 L7.985,14.106 L7.985,14.500 L8.379,14.500 Z"></path>
  </symbol>
  <symbol xmlns="http://www.w3.org/2000/svg" xmlns:xlink="http://www.w3.org/1999/xlink" fill="currentColor" viewBox="0 0 22px 17px" id="ic_email">
    <path d="M18.857,-0.000 L3.143,-0.000 C1.414,-0.000 -0.000,1.391 -0.000,3.091 L-0.000,13.909 C-0.000,15.609 1.414,17.000 3.143,17.000 L18.857,17.000 C20.586,17.000 22.000,15.609 22.000,13.909 L22.000,3.091 C22.000,1.391 20.586,-0.000 18.857,-0.000 ZM3.614,13.909 L2.514,12.827 L5.657,9.736 L6.757,10.818 L3.614,13.909 ZM2.671,4.636 L3.614,3.400 L11.104,9.293 L18.071,3.863 L19.171,5.100 L11.000,11.436 L2.671,4.636 ZM18.228,13.909 L15.085,10.818 L16.185,9.736 L19.328,12.827 L18.228,13.909 Z"></path>
  </symbol>
  <symbol xmlns="http://www.w3.org/2000/svg" xmlns:xlink="http://www.w3.org/1999/xlink" viewBox="0 0 75px 75px" id="ic_error">
    <path fill-rule="evenodd" d="M75.000,37.501 C75.000,58.177 58.176,75.000 37.500,75.000 C16.824,75.000 -0.000,58.177 -0.000,37.501 C-0.000,37.501 -0.000,37.501 -0.000,37.500 C-0.000,37.500 -0.000,37.499 -0.000,37.499 C-0.000,37.499 -0.000,37.499 -0.000,37.499 C-0.000,37.499 -0.000,37.498 -0.000,37.498 C-0.000,37.213 0.004,36.927 0.011,36.642 C0.013,36.561 0.015,36.480 0.017,36.398 C0.024,36.171 0.032,35.943 0.043,35.716 C0.046,35.652 0.048,35.588 0.052,35.524 C0.066,35.255 0.083,34.987 0.103,34.719 C0.110,34.621 0.119,34.524 0.126,34.427 C0.141,34.243 0.158,34.060 0.176,33.876 C0.186,33.769 0.196,33.662 0.207,33.555 C0.233,33.306 0.261,33.057 0.293,32.808 C0.307,32.696 0.323,32.584 0.338,32.473 C0.359,32.315 0.381,32.157 0.404,31.999 C0.423,31.870 0.443,31.742 0.463,31.614 C0.488,31.459 0.514,31.304 0.540,31.149 C0.571,30.973 0.602,30.796 0.635,30.620 C0.667,30.448 0.699,30.275 0.734,30.103 C0.759,29.977 0.786,29.852 0.812,29.727 C0.844,29.578 0.876,29.429 0.910,29.280 C0.936,29.165 0.961,29.049 0.988,28.935 C1.045,28.692 1.104,28.450 1.166,28.209 C1.188,28.121 1.212,28.034 1.235,27.946 C1.284,27.760 1.334,27.574 1.386,27.389 C1.410,27.302 1.435,27.215 1.460,27.128 C1.531,26.881 1.604,26.635 1.680,26.389 C1.684,26.378 1.687,26.366 1.691,26.355 C1.778,26.075 1.869,25.796 1.963,25.518 C1.972,25.490 1.982,25.463 1.991,25.435 C2.962,22.580 4.279,19.839 5.928,17.270 C5.966,17.211 6.007,17.156 6.049,17.102 C12.100,7.804 22.157,1.342 33.753,0.187 C33.783,0.183 33.812,0.176 33.842,0.173 C34.712,0.090 35.592,0.037 36.478,0.014 C36.499,0.014 36.520,0.013 36.540,0.012 C36.859,0.004 37.179,-0.000 37.500,-0.000 C37.786,-0.000 38.071,0.004 38.356,0.011 C38.438,0.013 38.520,0.015 38.602,0.017 C38.828,0.024 39.054,0.032 39.279,0.043 C39.345,0.046 39.411,0.048 39.477,0.052 C39.744,0.066 40.011,0.083 40.278,0.103 C40.378,0.110 40.478,0.119 40.578,0.127 C40.758,0.142 40.937,0.158 41.115,0.175 C41.226,0.185 41.338,0.196 41.448,0.208 C41.695,0.234 41.941,0.261 42.187,0.292 C42.306,0.307 42.424,0.324 42.542,0.340 C42.692,0.360 42.842,0.381 42.992,0.403 C43.126,0.423 43.259,0.443 43.393,0.464 C43.537,0.487 43.681,0.511 43.825,0.536 C44.026,0.570 44.226,0.606 44.427,0.644 C44.580,0.673 44.734,0.701 44.887,0.732 C45.021,0.759 45.154,0.787 45.287,0.815 C45.425,0.844 45.562,0.874 45.699,0.905 C45.824,0.933 45.949,0.961 46.074,0.990 C46.310,1.046 46.546,1.103 46.781,1.163 C46.881,1.189 46.981,1.216 47.081,1.242 C47.252,1.287 47.423,1.334 47.594,1.381 C47.691,1.409 47.788,1.436 47.885,1.464 C48.111,1.529 48.336,1.596 48.560,1.665 C48.591,1.675 48.623,1.684 48.655,1.694 C48.926,1.778 49.197,1.867 49.466,1.958 C49.507,1.972 49.547,1.986 49.588,2.000 C49.847,2.088 50.106,2.179 50.363,2.273 C50.371,2.276 50.380,2.279 50.389,2.282 C52.947,3.220 55.409,4.438 57.730,5.928 C57.791,5.967 57.849,6.010 57.906,6.053 C67.200,12.105 73.658,22.160 74.813,33.754 C74.817,33.783 74.824,33.811 74.826,33.841 C74.910,34.708 74.962,35.584 74.985,36.468 C74.986,36.492 74.987,36.516 74.988,36.539 C74.996,36.856 75.000,37.172 75.000,37.490 C75.000,37.493 75.000,37.496 75.000,37.499 C75.000,37.499 75.000,37.499 75.000,37.499 C75.000,37.499 75.000,37.499 75.000,37.499 C75.000,37.499 75.000,37.500 75.000,37.500 C75.000,37.501 75.000,37.501 75.000,37.501 ZM69.886,37.442 C69.885,37.187 69.882,36.932 69.876,36.679 C69.875,36.625 69.872,36.572 69.870,36.519 C69.864,36.292 69.856,36.066 69.844,35.841 C69.844,35.828 69.843,35.814 69.842,35.801 C69.271,24.812 63.197,15.256 54.331,9.840 C54.289,9.815 54.248,9.790 54.206,9.765 C54.038,9.663 53.868,9.563 53.698,9.464 C53.652,9.437 53.607,9.411 53.561,9.385 C53.358,9.268 53.154,9.154 52.948,9.042 C52.904,9.018 52.860,8.994 52.816,8.971 C52.659,8.886 52.502,8.803 52.343,8.721 C52.259,8.678 52.175,8.635 52.090,8.592 C51.969,8.530 51.847,8.470 51.725,8.410 C51.633,8.365 51.540,8.319 51.447,8.274 C51.268,8.188 51.089,8.104 50.908,8.022 C50.782,7.965 50.655,7.909 50.529,7.853 C50.455,7.821 50.382,7.788 50.308,7.756 C50.169,7.696 50.030,7.637 49.890,7.579 C49.848,7.562 49.806,7.545 49.763,7.527 C45.892,5.940 41.735,5.116 37.500,5.116 C23.552,5.116 11.634,13.980 7.085,26.371 C7.082,26.377 7.080,26.383 7.078,26.389 C6.995,26.616 6.915,26.844 6.837,27.073 C6.827,27.101 6.817,27.130 6.807,27.158 C6.727,27.397 6.649,27.636 6.574,27.877 C6.571,27.885 6.569,27.892 6.567,27.900 C6.500,28.115 6.436,28.332 6.373,28.550 C6.353,28.620 6.333,28.690 6.313,28.760 C6.266,28.930 6.219,29.101 6.174,29.272 C6.157,29.337 6.139,29.403 6.123,29.468 C6.067,29.683 6.015,29.899 5.964,30.115 C5.944,30.202 5.925,30.289 5.905,30.375 C5.873,30.520 5.841,30.665 5.810,30.810 C5.790,30.906 5.770,31.002 5.751,31.098 C5.714,31.280 5.679,31.462 5.645,31.645 C5.626,31.751 5.608,31.857 5.589,31.963 C5.562,32.120 5.536,32.278 5.511,32.436 C5.495,32.534 5.480,32.632 5.466,32.730 C5.443,32.886 5.421,33.042 5.400,33.199 C5.389,33.278 5.378,33.357 5.368,33.437 C5.340,33.659 5.315,33.883 5.291,34.107 C5.283,34.188 5.275,34.269 5.267,34.349 C5.251,34.522 5.235,34.695 5.221,34.868 C5.215,34.941 5.209,35.015 5.203,35.088 C5.186,35.325 5.170,35.563 5.158,35.801 C5.156,35.848 5.154,35.895 5.152,35.941 C5.142,36.146 5.134,36.351 5.128,36.557 C5.126,36.623 5.125,36.689 5.123,36.754 C5.117,37.002 5.114,37.251 5.114,37.500 C5.114,37.536 5.115,37.571 5.115,37.606 C5.116,37.849 5.118,38.092 5.124,38.334 C5.128,38.504 5.137,38.673 5.144,38.842 C5.148,38.949 5.150,39.056 5.156,39.163 C5.169,39.429 5.186,39.693 5.206,39.957 C5.207,39.967 5.207,39.977 5.208,39.986 C6.290,54.164 16.544,65.817 30.032,69.013 C30.086,69.026 30.140,69.041 30.195,69.053 C30.329,69.084 30.465,69.112 30.599,69.141 C30.727,69.169 30.854,69.199 30.982,69.225 C31.675,69.367 32.377,69.485 33.086,69.582 C33.260,69.606 33.434,69.628 33.608,69.649 C33.897,69.684 34.188,69.715 34.480,69.742 C35.475,69.835 36.482,69.884 37.500,69.884 C38.507,69.884 39.502,69.836 40.486,69.745 C40.789,69.717 41.091,69.686 41.392,69.649 C41.566,69.628 41.740,69.606 41.914,69.582 C42.623,69.485 43.325,69.367 44.019,69.225 C44.045,69.220 44.070,69.213 44.096,69.208 C44.785,69.065 45.465,68.899 46.137,68.713 C46.331,68.659 46.525,68.603 46.718,68.546 C47.361,68.354 47.997,68.145 48.624,67.916 C48.645,67.908 48.667,67.899 48.688,67.891 C49.410,67.625 50.119,67.334 50.815,67.019 C50.830,67.012 50.844,67.005 50.859,66.998 C61.354,62.227 68.873,52.015 69.792,39.987 C69.794,39.956 69.795,39.926 69.797,39.895 C69.815,39.652 69.832,39.408 69.844,39.163 C69.850,39.043 69.853,38.923 69.858,38.803 C69.864,38.647 69.872,38.491 69.876,38.334 C69.882,38.087 69.884,37.840 69.885,37.592 C69.885,37.561 69.886,37.531 69.886,37.500 C69.886,37.481 69.886,37.461 69.886,37.442 ZM52.852,53.642 C51.831,54.663 50.172,54.667 49.146,53.651 L38.592,42.477 L28.039,53.651 C27.014,54.667 25.355,54.663 24.334,53.642 C23.314,52.621 23.318,50.970 24.343,49.953 L34.997,38.672 L24.340,27.389 C23.314,26.372 23.310,24.721 24.331,23.700 C25.352,22.678 27.011,22.675 28.037,23.691 L38.592,34.866 L49.145,23.691 C50.171,22.675 51.830,22.678 52.850,23.700 C53.871,24.721 53.867,26.372 52.841,27.389 L42.186,38.671 L52.843,49.953 C53.869,50.970 53.873,52.621 52.852,53.642 Z"></path>
  </symbol>
  <symbol xmlns="http://www.w3.org/2000/svg" xmlns:xlink="http://www.w3.org/1999/xlink" viewBox="0 0 76px 75px" id="ic_error2">
    <path fill-rule="evenodd" d="M64.054,10.967 C49.416,-3.666 25.602,-3.666 10.968,10.963 C-3.670,25.592 -3.668,49.397 10.969,64.029 C25.602,78.657 49.416,78.657 64.052,64.026 C78.688,49.397 78.687,25.594 64.054,10.967 ZM59.958,59.935 C47.580,72.307 27.440,72.309 15.062,59.936 C2.682,47.562 2.683,27.428 15.062,15.056 C27.439,2.685 47.579,2.683 59.959,15.057 C72.337,27.430 72.335,47.564 59.958,59.935 ZM54.482,52.327 C54.947,53.403 54.452,54.651 53.376,55.116 C52.300,55.583 51.052,55.086 50.586,54.011 C48.539,49.281 43.702,46.223 38.260,46.223 C32.693,46.223 27.826,49.278 25.863,54.006 C25.524,54.822 24.734,55.315 23.903,55.315 C23.631,55.315 23.356,55.262 23.089,55.152 C22.006,54.702 21.493,53.460 21.943,52.379 C24.568,46.062 30.973,41.981 38.260,41.981 C45.395,41.981 51.763,46.042 54.482,52.327 ZM23.508,27.341 C23.508,24.920 25.473,22.956 27.896,22.956 C30.318,22.956 32.282,24.919 32.282,27.341 C32.282,29.764 30.318,31.727 27.896,31.727 C25.473,31.727 23.508,29.764 23.508,27.341 ZM43.402,27.341 C43.402,24.920 45.368,22.956 47.791,22.956 C50.212,22.956 52.177,24.919 52.177,27.341 C52.177,29.764 50.213,31.727 47.791,31.727 C45.368,31.727 43.402,29.764 43.402,27.341 Z"></path>
  </symbol>
  <symbol xmlns="http://www.w3.org/2000/svg" viewBox="0 0 26 26" id="ic_error3">
    <path d="M23 3L3 23" stroke="currentColor" stroke-width="5" stroke-linecap="round" stroke-linejoin="round" fill="none"></path>
    <path d="M3 3L23 23" stroke="currentColor" stroke-width="5" stroke-linecap="round" stroke-linejoin="round" fill="none"></path>
  </symbol>
  <symbol xmlns="http://www.w3.org/2000/svg" viewBox="0 0 41 36.92" id="ic_favorite">
    <path d="M34.06,5.3a10,10,0,0,0-7.4-3.22,9.32,9.32,0,0,0-5.81,2A11.68,11.68,0,0,0,18.5,6.54a11.68,11.68,0,0,0-2.35-2.45,9.32,9.32,0,0,0-5.81-2A10,10,0,0,0,2.94,5.3,11.55,11.55,0,0,0,0,13.2c0,3.13,1.17,6,3.67,9a78.64,78.64,0,0,0,9.19,8.62c1.27,1.08,2.71,2.31,4.21,3.62a2.16,2.16,0,0,0,2.86,0c1.5-1.31,2.94-2.54,4.21-3.62a78.64,78.64,0,0,0,9.19-8.62c2.5-3,3.67-5.89,3.67-9A11.55,11.55,0,0,0,34.06,5.3Z" transform="translate(2 -0.08)" fill="none" stroke="currentColor" stroke-miterlimit="10" stroke-width="4"></path>
  </symbol>
  <symbol xmlns="http://www.w3.org/2000/svg" viewBox="0 0 19 24" id="ic_garanti">
    <path d="M17.5,3.1c-2,0-5.6-.4-8-3.1a10.78,10.78,0,0,1-8,3.1A10.07,10.07,0,0,1,0,3V13.5C0,19.7,9.5,24,9.5,24S19,19.7,19,13.5V3A10.07,10.07,0,0,1,17.5,3.1Zm.4,10.4c0,5.5-8.4,9.3-8.4,9.3S1.1,19,1.1,13.5V4.2a7.31,7.31,0,0,0,1.3.1A9.83,9.83,0,0,0,9.5,1.6a9.42,9.42,0,0,0,7.1,2.7,7.31,7.31,0,0,0,1.3-.1Z"></path>
  </symbol>
  <symbol xmlns="http://www.w3.org/2000/svg" xmlns:xlink="http://www.w3.org/1999/xlink" viewBox="0 0 19px 24px" id="ic_garanti_active">
    <path fill-rule="evenodd" d="M17.500,3.100 C15.500,3.100 11.900,2.700 9.500,-0.000 C7.000,2.700 3.500,3.100 1.500,3.100 C0.600,3.100 -0.000,3.000 -0.000,3.000 C-0.000,3.000 -0.000,7.300 -0.000,13.500 C-0.000,19.700 9.500,24.000 9.500,24.000 C9.500,24.000 19.000,19.700 19.000,13.500 C19.000,7.300 19.000,3.000 19.000,3.000 C19.000,3.000 18.400,3.100 17.500,3.100 Z"></path>
  </symbol>
  <symbol version="1.1" id="ic_help" xmlns="http://www.w3.org/2000/svg" xmlns:xlink="http://www.w3.org/1999/xlink" x="0px" y="0px" xml:space="preserve" viewBox="201 -206 512 512">
    <path d="M696.3,188.8c11.1-23.4,16.7-48.6,16.7-74.8c0-93.6-74.3-170.3-167.3-174.8C524.7-136.3,455.8-189,377-189
		c-97,0-176,78.5-176,175c0,26.2,5.6,51.4,16.7,74.8L201.3,143c-2.1,10.5,7.1,19.7,17.6,17.7l83.3-16.5
		c20.9,9.9,43.1,15.4,66.2,16.5c29.1,104.9,146.2,157.6,243.4,111.5c91.2,18,84.1,16.7,86.2,16.7c9.5,0,16.6-8.7,14.7-17.9
		L696.3,188.8z M311.1,115.2c-3-1.5-6.4-2-9.7-1.4l-66.2,13.1l13-65.2c0.7-3.3,0.2-6.8-1.4-9.8C236.3,31.4,231,9.2,231-14
		c0-80,65.5-145,146-145c62.9,0,118.3,40.9,137.7,99.4C423-47.9,353.9,34.9,362.8,130.3C344.7,128.5,327.4,123.5,311.1,115.2
		L311.1,115.2z M665.8,189.7l13,65.2l-66.2-13.1c-3.3-0.7-6.7-0.2-9.7,1.4C582.4,253.7,560.2,259,537,259c-80,0-145-65-145-145
		S457-31,537-31c80.5,0,146,65,146,145c0,23.2-5.3,45.4-15.8,65.9C665.7,182.9,665.2,186.3,665.8,189.7z"></path>
  </symbol>
  <symbol xmlns="http://www.w3.org/2000/svg" viewBox="0 0 22.7 19.7" id="ic_home">
    <path d="M4.3,10.4l-.6-.8L14.9.4l.6.8Z" transform="translate(-3.7 -0.3)" fill-rule="evenodd"></path>
    <path d="M25.7,10.3l.7-.8L15,.3l-.7.8Z" transform="translate(-3.7 -0.3)" fill-rule="evenodd"></path>
    <path d="M6.5,10h1V20h-1Z" transform="translate(-3.7 -0.3)" fill-rule="evenodd"></path>
    <path d="M22.5,10h1V20h-1Z" transform="translate(-3.7 -0.3)" fill-rule="evenodd"></path>
    <path d="M7.5,20V19h6v1Z" transform="translate(-3.7 -0.3)" fill-rule="evenodd"></path>
    <path d="M12.5,13V12h5v1Z" transform="translate(-3.7 -0.3)" fill-rule="evenodd"></path>
    <path d="M16.5,20V19h6v1Z" transform="translate(-3.7 -0.3)" fill-rule="evenodd"></path>
    <path d="M16.5,13h1v6h-1Z" transform="translate(-3.7 -0.3)" fill-rule="evenodd"></path>
    <path d="M12.5,13h1v6h-1Z" transform="translate(-3.7 -0.3)" fill-rule="evenodd"></path>
  </symbol>
  <symbol xmlns="http://www.w3.org/2000/svg" viewBox="0 0 16 16" id="ic_like">
    <path d="M2.07142 7C1.48086 7 1 7.69046 1 8.53845V13.4615C1 14.3095 1.48086 15 2.07142 15H3.35714C3.59843 15 3.82042 14.8831 4 14.6886V7H2.07142Z" fill="currentColor"></path>
    <path d="M14.8462 9.375C14.8462 8.96523 14.6997 8.5834 14.4455 8.3018C14.7329 7.9534 14.8794 7.48634 14.8394 7.00022C14.7674 6.13362 14.0627 5.45453 13.2345 5.45453H9.43323C9.62153 4.82111 9.92306 3.65999 9.92306 2.72726C9.92306 1.2484 9.92501 0 9.213 0C8.57363 0 8.11699 0.398864 8.09732 0.415228C8.02471 0.480011 7.98225 0.578193 7.98225 0.681808L6.84616 2.99384L5.07385 7.24772L5 7.2893V14.597C5.50091 14.8589 6.13475 15 6.53845 15H12.1871C12.8572 15 13.4437 14.4995 13.5815 13.8089C13.6523 13.4536 13.6111 13.0957 13.4702 12.7848C13.9249 12.5311 14.2308 12.0123 14.2308 11.4205C14.2308 11.1791 14.1809 10.948 14.0862 10.7386C14.5409 10.485 14.8462 9.96613 14.8462 9.375Z" fill="currentColor"></path>
  </symbol>
  <symbol xmlns="http://www.w3.org/2000/svg" viewBox="0 0 12 15" id="ic_location">
    <path d="M10,2.5a6,6,0,0,0-6,6c0,3.3,6,9,6,9s6-5.7,6-9A6,6,0,0,0,10,2.5Zm0,9.7a4,4,0,1,1,4-4A4,4,0,0,1,10,12.2Z" transform="translate(-4 -2.5)" fill-rule="evenodd"></path>
  </symbol>
  <symbol xmlns="http://www.w3.org/2000/svg" viewBox="0 0 17.5 17.5" id="ic_messenger1">
    <path d="M17.3,6.5a8.69,8.69,0,0,1,1.9,2.8,9.28,9.28,0,0,1,.7,3.3,8,8,0,0,1-1.2,4.3,9.79,9.79,0,0,1-3.2,3.2,8.31,8.31,0,0,1-4.4,1.2A8.11,8.11,0,0,1,7,20.2L2.4,21.4l1.3-4.5a8.3,8.3,0,0,1,0-8.6A8.92,8.92,0,0,1,6.9,5.1a8.48,8.48,0,0,1,4.3-1.2,7.84,7.84,0,0,1,3.3.7A10.65,10.65,0,0,1,17.3,6.5ZM11.1,19.8a6.53,6.53,0,0,0,3.6-1,8.39,8.39,0,0,0,2.7-2.6,6.53,6.53,0,0,0,1-3.6,6.6,6.6,0,0,0-.6-2.7,7.76,7.76,0,0,0-1.6-2.4,8.68,8.68,0,0,0-2.3-1.6,6.36,6.36,0,0,0-2.8-.5,6.53,6.53,0,0,0-3.6,1A8.07,8.07,0,0,0,4.9,9a6.53,6.53,0,0,0-1,3.6A7,7,0,0,0,5,16.4l.2.3-.7,2.7,2.7-.7.3.2A7.4,7.4,0,0,0,11.1,19.8Zm4-5.4.1.1c.2.1.3.1.3.2v.4a1.42,1.42,0,0,1-.2.6,3.19,3.19,0,0,1-.6.7,2,2,0,0,1-.8.4,2.05,2.05,0,0,1-1.1,0c-.4-.1-.9-.3-1.6-.5A10.72,10.72,0,0,1,7.7,13l-.1-.1a3.7,3.7,0,0,1-.9-2.2,2.87,2.87,0,0,1,.7-1.8h0A.86.86,0,0,1,8,8.6h.5a.37.37,0,0,1,.3.1A.77.77,0,0,1,9,9l.7,1.6c.1.2.1.3,0,.4a1.79,1.79,0,0,1-.5.7l-.2.2a.31.31,0,0,0,.1.2,5.34,5.34,0,0,0,1.3,1.6,15.77,15.77,0,0,0,1.6,1,.45.45,0,0,0,.5,0c.3-.4.6-.7.7-.9s.1-.2.2-.2h.3C13.8,13.8,14.3,14,15.1,14.4Z" transform="translate(-2.4 -3.9)"></path>
  </symbol>
  <symbol xmlns="http://www.w3.org/2000/svg" fill="currentColor" viewBox="0 0 17.46 14.83" id="ic_messenger2">
    <path d="M16.2,19.7a1.23,1.23,0,0,1-.5.8,1,1,0,0,1-.9-.1l-4-3-2,1.9-.3.3a.75.75,0,0,1-.5.1l.3-4.1,7.5-6.8c.1-.1.1-.1.1-.2s-.1-.1-.2-.1-.2.1-.4.1L6.1,14.4l-4-1.3c-.4-.1-.7-.3-.6-.6s.3-.5.8-.7l15.5-6c.4-.1.7-.1.9.1a1.38,1.38,0,0,1,.2,1.2Z" transform="translate(-1.48 -5.73)"></path>
  </symbol>
  <symbol xmlns="http://www.w3.org/2000/svg" viewBox="0 0 22 22" id="ic_minus">
    <path id="Vector" d="M4.58203 11H17.4154" stroke="currentColor" stroke-linecap="round" stroke-linejoin="round" fill="none"></path>
  </symbol>
  <symbol xmlns="http://www.w3.org/2000/svg" viewBox="0 0 18 19" id="ic_notice">
    <path d="M9 17.25C13.1421 17.25 16.5 13.8921 16.5 9.75C16.5 5.60786 13.1421 2.25 9 2.25C4.85786 2.25 1.5 5.60786 1.5 9.75C1.5 13.8921 4.85786 17.25 9 17.25Z" stroke="currentColor" stroke-linecap="round" stroke-linejoin="round" fill="none"></path>
    <path d="M9 12.75V9.75" stroke="currentColor" stroke-linecap="round" stroke-linejoin="round" fill="none"></path>
    <path d="M9 6.75H9.00833" stroke="currentColor" stroke-linecap="round" stroke-linejoin="round" fill="none"></path>
  </symbol>
  <symbol xmlns="http://www.w3.org/2000/svg" xmlns:xlink="http://www.w3.org/1999/xlink" viewBox="0 0 27px 32px" id="ic_payment_method1">
    <path fill-rule="evenodd" d="M18.974,31.982 C14.800,31.982 11.338,28.603 11.338,24.528 C11.338,20.452 14.800,17.073 18.974,17.073 C23.149,17.073 26.610,20.353 26.610,24.528 C26.610,28.603 23.149,31.982 18.974,31.982 ZM23.149,24.428 L20.196,26.615 L20.196,20.850 L18.160,20.850 L18.160,26.615 L15.207,24.428 L14.596,25.223 L18.160,27.808 L18.669,28.205 L19.585,28.205 L20.094,27.808 L23.759,25.223 L23.149,24.428 ZM10.523,24.528 C10.523,26.118 10.930,27.509 11.745,28.802 L5.738,28.802 C2.887,28.802 0.647,26.615 0.647,23.832 L0.647,5.940 C0.647,3.157 2.887,0.970 5.738,0.970 L16.938,0.970 C19.789,0.970 22.029,3.157 22.029,5.940 L22.029,16.774 C21.112,16.377 20.094,16.178 18.974,16.178 C14.290,16.178 10.523,19.955 10.523,24.528 ZM17.956,6.139 L4.720,6.139 L4.720,8.127 L17.956,8.127 L17.956,6.139 ZM17.956,9.121 L4.720,9.121 L4.720,11.109 L17.956,11.109 L17.956,9.121 ZM17.956,12.103 L4.720,12.103 L4.720,14.091 L17.956,14.091 L17.956,12.103 Z"></path>
  </symbol>
  <symbol version="1.1" id="ic_payment_method2" xmlns="http://www.w3.org/2000/svg" xmlns:xlink="http://www.w3.org/1999/xlink" x="0px" y="0px" xml:space="preserve" viewBox="138 -143.1 386.1 386.1">
    <g>
      <g>
        <path d="M446.9-88.1H160.4c-12.5,0-22.4,10.5-22.4,22.9v175.9c0,0.1,0,0.2,0,0.3c0.1,12.2,10.2,22,22.4,21.9H172V-10.8
			c0-23.5,19.2-42.3,42.7-42.3h254.4v-12.1C469.1-77.6,459.4-88.1,446.9-88.1z"></path>
      </g>
    </g>
    <g>
      <g>
        <path d="M478.1,118.9c-6.8-5.7-16.9-4.8-22.6,2c-0.5,0.6-1,1.1-1.5,1.5c-4.3,3.5-10.6,2.8-14.1-1.5c-3-3.7-7.6-5.9-12.4-5.9
			c-9,0-16.2,7.2-16.1,16.2c0,8.9,7.3,16.1,16.2,16.1c4.8,0.1,9.4-2.1,12.4-5.8c1.9-2.3,4.7-3.6,7.7-3.6c2.9-0.1,5.8,1.2,7.7,3.5
			c0.7,0.8,1.3,1.5,2.1,2.1c6.8,5.7,16.9,4.8,22.6-2C485.8,134.8,484.9,124.6,478.1,118.9z"></path>
      </g>
    </g>
    <g>
      <g>
        <path d="M501.3-33.1H214.8h-0.1c-12.5-0.1-22.6,9.9-22.7,22.3V3.9h332h0.1v-14.7C524.1-23.3,513.8-33.1,501.3-33.1z"></path>
      </g>
    </g>
    <g>
      <g>
        <rect x="192" y="23.9" width="332" height="26"></rect>
      </g>
    </g>
    <g>
      <g>
        <path d="M192,69.9V165c0,12.6,10.1,22.8,22.7,22.9h286.5c12.6-0.1,22.7-10.3,22.8-22.9V69.9L192,69.9L192,69.9z M497.9,151.4
			c-11.2,16.5-33.7,20.9-50.2,9.7c-6,4.1-13,6.2-20.2,6.2c-20,0-36.1-16.3-36.1-36.2c0-19.9,16.1-36.1,36.1-36.1
			c7.2,0,14.2,2.1,20.2,6.2c12.3-8.3,28.3-8.3,40.5,0C504.7,112.3,509.1,134.9,497.9,151.4z"></path>
      </g>
    </g>
  </symbol>
  <symbol xmlns="http://www.w3.org/2000/svg" xmlns:xlink="http://www.w3.org/1999/xlink" viewBox="0 0 22px 28px" id="ic_payment_method3">
    <path fill-rule="evenodd" d="M19.583,26.267 L17.240,26.263 C17.326,26.125 17.389,25.972 17.389,25.798 L17.389,19.634 C17.389,19.138 16.983,18.735 16.484,18.735 L4.666,18.735 C4.167,18.735 3.761,19.138 3.761,19.634 L3.761,25.798 C3.761,25.962 3.817,26.107 3.894,26.239 L1.592,26.235 C0.923,26.233 -0.123,24.823 0.082,24.188 L3.179,14.617 C3.384,13.982 3.539,13.665 4.202,13.561 L7.715,13.012 C5.934,11.858 4.730,9.778 4.730,7.376 C4.730,3.734 7.471,0.782 10.852,0.782 C14.232,0.782 16.973,3.734 16.973,7.376 C16.973,9.813 15.732,11.917 13.908,13.059 L16.924,13.561 C17.585,13.671 18.131,13.984 18.339,14.617 L21.629,24.637 C21.836,25.270 20.252,26.268 19.583,26.267 ZM15.546,8.352 C15.586,8.085 14.868,7.328 14.506,7.356 C13.653,7.421 12.710,7.852 10.849,7.852 C9.319,7.852 8.129,7.587 7.289,7.454 C6.673,7.357 6.027,8.086 6.066,8.353 C6.431,10.819 8.414,12.704 10.806,12.704 C13.198,12.704 15.182,10.819 15.546,8.352 ZM4.629,19.634 C4.629,19.615 4.647,19.597 4.666,19.597 L16.522,19.634 L16.484,25.836 L4.629,25.798 L4.629,19.634 ZM18.829,27.752 L2.784,27.752 L2.784,26.914 L18.829,26.914 L18.829,27.752 Z"></path>
  </symbol>
  <symbol xmlns="http://www.w3.org/2000/svg" viewBox="0 0 24 25" id="ic_pdf">
    <path d="M3.625 7.79688V2.40625C3.625 1.63281 4.25781 1 5.03125 1H14.392C15.1639 1 15.9019 1.3173 16.433 1.8775L19.3535 4.95813C19.8489 5.48064 20.125 6.17317 20.125 6.89317V7.79688" stroke="currentColor" stroke-miterlimit="10" stroke-linecap="round" stroke-linejoin="round" fill="none"></path>
    <path d="M20.125 20.0469V22.1875C20.125 22.9609 19.4922 23.5938 18.7187 23.5938H5.03125C4.25781 23.5938 3.625 22.9609 3.625 22.1875V20.0469" stroke="currentColor" stroke-miterlimit="10" stroke-linecap="round" stroke-linejoin="round" fill="none"></path>
    <path d="M21.3437 20.0469H2.40625C1.63281 20.0469 1 19.4141 1 18.6406V9.20312C1 8.42969 1.63281 7.79688 2.40625 7.79688H21.3437C22.1172 7.79688 22.75 8.42969 22.75 9.20312V18.6406C22.75 19.4141 22.1172 20.0469 21.3437 20.0469Z" stroke="currentColor" stroke-miterlimit="10" stroke-linecap="round" stroke-linejoin="round" fill="none"></path>
    <path d="M20 11H17V17" stroke="currentColor" stroke-miterlimit="10" stroke-linecap="round" stroke-linejoin="round" fill="none"></path>
    <path d="M17 14H20" stroke="currentColor" stroke-miterlimit="10" stroke-linecap="round" stroke-linejoin="round" fill="none"></path>
    <path d="M15 14C15 15.6531 13.8871 16.9614 12.1215 16.9868C11.5337 16.9953 10.0147 17 10.0147 17C10.0147 17 10.0053 14.8267 10.0053 13.9934C10.0053 13.309 10 11 10 11H12.0611C13.9978 11 15 12.3469 15 14Z" stroke="currentColor" stroke-miterlimit="10" stroke-linecap="round" stroke-linejoin="round" fill="none"></path>
    <path d="M4 11V17" stroke="currentColor" stroke-miterlimit="10" stroke-linecap="round" stroke-linejoin="round"></path>
    <path d="M8 12.9956C8 14.0978 7.0683 14.9912 5.96721 14.9912C5.42113 14.9912 4.01376 15 4.01376 15C4.01376 15 4.00496 13.5511 4.00496 12.9956C4.00496 12.5393 4 11 4 11H5.96721C7.0683 11 8 11.8934 8 12.9956Z" stroke="currentColor" stroke-miterlimit="10" stroke-linecap="round" stroke-linejoin="round" fill="none"></path>
  </symbol>
  <symbol version="1.1" id="ic_phone" xmlns="http://www.w3.org/2000/svg" xmlns:xlink="http://www.w3.org/1999/xlink" x="0px" y="0px" xml:space="preserve" viewBox="0 0 16 16">
    <path d="M13.5,13.4c0.1,0.3-0.5,1.2-0.7,1.5c-0.1,0.2-0.2,0.2-0.4,0.3c-0.3,0.1-0.7,0.2-1,0.3c-1.7,0.2-2.5-0.5-3.8-1.5
	c-1.3-1.1-2.2-2.4-2.9-3.9C4,8.4,3.5,7,3.5,5.2c0-1.6-0.2-2.7,1.2-4C4.9,1,5.2,0.8,5.5,0.6C5.7,0.5,5.8,0.5,6,0.5
	c0.3,0,1.4,0,1.6,0.4C7.6,1.1,8,2.9,8,3.4c0,0.1,0.1,0.5,0,0.8c0,0.2-0.2,0.3-0.4,0.4C7.2,4.8,6.8,4.9,6.4,5.1C6.3,5.1,6,5.3,6,5.4
	C5.9,5.6,6,6.1,6,6.3C6.2,7.2,6.4,8.1,6.8,9c0.4,0.9,0.9,1.6,1.5,2.3c0.2,0.1,0.4,0.6,0.6,0.6c0.1,0,0.3,0,0.5-0.1
	c0.5-0.2,0.8-0.5,1.2-0.7c0.2-0.1,0.4-0.2,0.5-0.1c0.3,0.1,0.5,0.5,0.6,0.6C12.1,11.7,13.4,13.1,13.5,13.4z"></path>
  </symbol>
  <symbol xmlns="http://www.w3.org/2000/svg" viewBox="0 0 24 25" id="ic_plus">
    <path d="M12 22.5C17.5228 22.5 22 18.0228 22 12.5C22 6.97715 17.5228 2.5 12 2.5C6.47715 2.5 2 6.97715 2 12.5C2 18.0228 6.47715 22.5 12 22.5Z" stroke="currentColor" stroke-width="2" stroke-linecap="round" stroke-linejoin="round" fill="none"></path>
    <path d="M12 8.5V16.5" stroke="currentColor" stroke-width="2" stroke-linecap="round" stroke-linejoin="round" fill="none"></path>
    <path d="M8 12.5H16" stroke="currentColor" stroke-width="2" stroke-linecap="round" stroke-linejoin="round" fill="none"></path>
  </symbol>
  <symbol xmlns="http://www.w3.org/2000/svg" viewBox="0 0 492.09 512.18" id="ic_pluses1">
    <path d="M475.2,264.5a15.44,15.44,0,0,1,0-17l18.7-28.7a49,49,0,0,0-23.6-72.5l-32-12.3a15.51,15.51,0,0,1-10-13.8L426.5,86a49,49,0,0,0-61.7-44.8l-33.1,8.9a15.7,15.7,0,0,1-16.2-5.3L293.9,18.1a49,49,0,0,0-76.2,0L196.1,44.8a15.64,15.64,0,0,1-16.2,5.3l-33.1-8.9A49,49,0,0,0,85.1,86l-1.8,34.2a15.51,15.51,0,0,1-10,13.8l-32,12.3a49,49,0,0,0-23.6,72.5l18.7,28.7a15.44,15.44,0,0,1,0,17L17.7,293.2a49,49,0,0,0,23.6,72.5l32,12.3a15.51,15.51,0,0,1,10,13.8L85.1,426a49,49,0,0,0,61.7,44.8l33.1-8.9a15.64,15.64,0,0,1,16.2,5.3l21.6,26.7a49,49,0,0,0,76.2,0l21.6-26.7a15.83,15.83,0,0,1,16.2-5.3l33.1,8.9A49,49,0,0,0,426.5,426l1.8-34.2a15.62,15.62,0,0,1,10-13.8l32-12.3a49,49,0,0,0,23.6-72.5Zm-16.8,70-32,12.3A49,49,0,0,0,395,390l-1.8,34.2a15.53,15.53,0,0,1-19.6,14.2l-33.1-8.9A49.1,49.1,0,0,0,289.7,446l-21.6,26.7a15.56,15.56,0,0,1-24.2,0L222.3,446a49,49,0,0,0-38.1-18.2,46.23,46.23,0,0,0-12.7,1.7l-33.1,8.9a15.53,15.53,0,0,1-19.6-14.2L117,390a49,49,0,0,0-31.4-43.2l-32-12.3a15.61,15.61,0,0,1-7.5-23.1l18.7-28.7a49,49,0,0,0,0-53.5L46.1,200.5a15.63,15.63,0,0,1,7.5-23.1l32-12.3A49,49,0,0,0,117,121.9l1.8-34.2a15.53,15.53,0,0,1,19.6-14.2l33.1,8.9a49.1,49.1,0,0,0,50.8-16.5l21.6-26.7a15.56,15.56,0,0,1,24.2,0l21.6,26.7a49,49,0,0,0,50.8,16.5l33.1-8.9a15.53,15.53,0,0,1,19.6,14.2L395,122a49,49,0,0,0,31.4,43.2l32,12.3a15.61,15.61,0,0,1,7.5,23.1l-18.7,28.7a49,49,0,0,0,0,53.5l18.7,28.7A15.51,15.51,0,0,1,458.4,334.5Z" transform="translate(-9.76 0.09)"></path>
    <path d="M339.5,170.8a16.72,16.72,0,0,0-23.6,0l-156,156a16.72,16.72,0,0,0,0,23.6,16.5,16.5,0,0,0,11.8,4.9,16.33,16.33,0,0,0,11.8-4.9l156-156A16.72,16.72,0,0,0,339.5,170.8Z" transform="translate(-9.76 0.09)"></path>
    <path d="M188.4,165.9a33.4,33.4,0,1,0,33.4,33.4A33.46,33.46,0,0,0,188.4,165.9Z" transform="translate(-9.76 0.09)"></path>
    <path d="M311,288.5a33.4,33.4,0,1,0,33.4,33.4A33.46,33.46,0,0,0,311,288.5Z" transform="translate(-9.76 0.09)"></path>
  </symbol>
  <symbol xmlns="http://www.w3.org/2000/svg" viewBox="0 0 438.47 512.1" id="ic_pluses2">
    <path d="M466.5,49.4a37.22,37.22,0,0,0-28.3-13.1H402.4V25.1A25.18,25.18,0,0,0,377.3,0H134.7a25.18,25.18,0,0,0-25.1,25.1V36.3H73.8A37.22,37.22,0,0,0,45.5,49.4,36.6,36.6,0,0,0,37.2,79a191.83,191.83,0,0,0,97.4,136.9,259.53,259.53,0,0,0,16,32.1c19,32,42.6,54.1,68.6,64.8a54.18,54.18,0,0,1-41.8,57.9h-.2a11.81,11.81,0,0,0-9.1,11.5v54.4h-22a35.51,35.51,0,0,0-35.5,35.5v28.1a11.91,11.91,0,0,0,11.8,11.9h268a11.93,11.93,0,0,0,11.9-11.9V472.1a35.51,35.51,0,0,0-35.5-35.5h-22V382.2a11.81,11.81,0,0,0-9.1-11.5h-.1a54.13,54.13,0,0,1-41.8-58.4c25.5-10.9,48.8-32.8,67.5-64.3a259.53,259.53,0,0,0,16-32.1A191.83,191.83,0,0,0,474.7,79,36.54,36.54,0,0,0,466.5,49.4ZM60.7,75.2a13,13,0,0,1,2.9-10.5A13.47,13.47,0,0,1,73.8,60h35.8V81.8a375.43,375.43,0,0,0,12.6,97.6A167.78,167.78,0,0,1,60.7,75.2Zm306.2,385a11.93,11.93,0,0,1,11.9,11.9v16.2H134.4V472.1a11.93,11.93,0,0,1,11.9-11.9ZM321.2,394v42.5H192V394ZM223,370.3a78.15,78.15,0,0,0,20.2-51.2,90.39,90.39,0,0,0,12.7.9,107,107,0,0,0,13.9-1,78.6,78.6,0,0,0,20.3,51.3ZM378.7,81.8c0,58.4-13.4,113.1-37.7,154-23.2,39-53.4,60.5-85,60.5s-61.8-21.5-85-60.5c-24.3-41-37.7-95.7-37.7-154V25.1a1.37,1.37,0,0,1,1.4-1.4H377.3a1.37,1.37,0,0,1,1.4,1.4Zm72.6-6.6a167.92,167.92,0,0,1-61.6,104.2c8.3-30.3,12.6-63.4,12.6-97.6V60h35.8a13.32,13.32,0,0,1,10.2,4.7A12.35,12.35,0,0,1,451.3,75.2Z" transform="translate(-36.73 0)"></path>
    <path d="M270.8,218.5H244.7V120.3A90.58,90.58,0,0,1,211,140.1V116.4c6.8-2.2,14.2-6.4,22.2-12.7s13.5-13.5,16.4-21.8h21.2Z" transform="translate(-36.73 0)"></path>
  </symbol>
  <symbol xmlns="http://www.w3.org/2000/svg" viewBox="0 0 511.34 513.3" id="ic_search">
    <path d="M495,404.5,410.5,320c15.4-30.7,25.7-66.5,25.7-102.4A217.6,217.6,0,1,0,218.6,435.2c35.8,0,71.7-10.2,102.4-25.6l84.5,84.5c25.6,25.6,64,25.6,89.6,0A66.69,66.69,0,0,0,495,404.5ZM218.6,384A166.4,166.4,0,1,1,385,217.6,166,166,0,0,1,218.6,384Z" transform="translate(-1 0)"></path>
  </symbol>
  <symbol xmlns="http://www.w3.org/2000/svg" viewBox="0 0 17.04 18" id="ic_settings">
    <path d="M16.4,11a3.4,3.4,0,0,0,.1-1,3.4,3.4,0,0,0-.1-1l1.7-1.3a1.09,1.09,0,0,0,.3-1.3L17.3,4.6A1.14,1.14,0,0,0,16,4.1l-2,.8a5.85,5.85,0,0,0-1.7-1L12,1.8a.88.88,0,0,0-.9-.8H8.9a1.06,1.06,0,0,0-1,.9l-.3,2a9.5,9.5,0,0,0-1.7,1l-2-.8a.93.93,0,0,0-1.2.4L1.6,6.4a1,1,0,0,0,.3,1.3L3.6,9a3.4,3.4,0,0,0-.1,1,3.4,3.4,0,0,0,.1,1L1.9,12.3a1.09,1.09,0,0,0-.3,1.3l1.1,1.8a1.14,1.14,0,0,0,1.3.5l2-.8a5.85,5.85,0,0,0,1.7,1L8,18.2a.88.88,0,0,0,.9.8H11a1.06,1.06,0,0,0,1-.9l.3-2.1A5.85,5.85,0,0,0,14,15l2,.8a.93.93,0,0,0,1.2-.4l1.1-1.8a1,1,0,0,0-.3-1.3ZM10,13.5A3.5,3.5,0,1,1,13.5,10,3.54,3.54,0,0,1,10,13.5Z" transform="translate(-1.46 -1)"></path>
  </symbol>
  <symbol xmlns="http://www.w3.org/2000/svg" viewBox="0 0 24 24" id="ic_share">
    <path d="M18.5074 16.1435C17.3575 16.1435 16.3214 16.64 15.6024 17.43L9.13493 13.4243C9.3076 12.9823 9.40337 12.5022 9.40337 12C9.40337 11.4975 9.3076 11.0174 9.13493 10.5756L15.6024 6.56981C16.3214 7.35973 17.3575 7.85649 18.5074 7.85649C20.6735 7.85649 22.4357 6.09429 22.4357 3.92815C22.4357 1.76202 20.6735 0 18.5074 0C16.3412 0 14.579 1.7622 14.579 3.92834C14.579 4.43059 14.675 4.9107 14.8474 5.35271L8.38017 9.35832C7.66112 8.5684 6.62511 8.07164 5.47521 8.07164C3.30908 8.07164 1.54688 9.83403 1.54688 12C1.54688 14.1661 3.30908 15.9283 5.47521 15.9283C6.62511 15.9283 7.66112 15.4317 8.38017 14.6416L14.8474 18.6472C14.675 19.0893 14.579 19.5694 14.579 20.0718C14.579 22.2377 16.3412 24 18.5074 24C20.6735 24 22.4357 22.2377 22.4357 20.0718C22.4357 17.9057 20.6735 16.1435 18.5074 16.1435ZM16.0114 3.92834C16.0114 2.55212 17.1311 1.43243 18.5074 1.43243C19.8836 1.43243 21.0033 2.55212 21.0033 3.92834C21.0033 5.30455 19.8836 6.42424 18.5074 6.42424C17.1311 6.42424 16.0114 5.30455 16.0114 3.92834ZM5.47521 14.4959C4.09881 14.4959 2.97912 13.3762 2.97912 12C2.97912 10.6238 4.09881 9.50407 5.47521 9.50407C6.85143 9.50407 7.97093 10.6238 7.97093 12C7.97093 13.3762 6.85143 14.4959 5.47521 14.4959ZM16.0114 20.0716C16.0114 18.6954 17.1311 17.5757 18.5074 17.5757C19.8836 17.5757 21.0033 18.6954 21.0033 20.0716C21.0033 21.4478 19.8836 22.5675 18.5074 22.5675C17.1311 22.5675 16.0114 21.4478 16.0114 20.0716Z" fill="currentColor"></path>
  </symbol>
  <symbol xmlns="http://www.w3.org/2000/svg" viewBox="0 0 24 25" id="ic_slider_arrow">
    <path d="M6 15.5L12 9.5L18 15.5" stroke="currentColor" stroke-width="2" stroke-linecap="round" stroke-linejoin="round" fill="none"></path>
  </symbol>
  <symbol xmlns="http://www.w3.org/2000/svg" viewBox="0 0 23 29" id="ic_specification">
    <path fill-rule="evenodd" clip-rule="evenodd" d="M2 0H15.8127L15.8127 1.38448e-05L17.8127 2L21 5.18731L22.9994 7.18666L23 7.18731V26.75V28.75H21H2H0V26.75V2V0H2ZM21 8.62501H14.3752V2H2V26.75H21V8.62501ZM5.75129 11.5H17.2513V12.9375H5.75129V11.5ZM5.75129 15.8125H17.2513V17.25H5.75129V15.8125ZM17.2513 20.125H5.75129V21.5625H17.2513V20.125Z" fill="currentColor"></path>
  </symbol>
  <symbol xmlns="http://www.w3.org/2000/svg" xmlns:xlink="http://www.w3.org/1999/xlink" viewBox="0 0 37px 33px" id="ic_success">
    <path fill-rule="evenodd" d="M35.670,3.421 L19.171,19.921 C18.950,20.140 18.662,20.250 18.374,20.250 C18.086,20.250 17.798,20.140 17.579,19.920 L10.830,13.170 C10.390,12.730 10.390,12.018 10.830,11.578 C11.269,11.139 11.981,11.139 12.421,11.578 L18.376,17.533 L34.079,1.830 C34.518,1.390 35.231,1.390 35.670,1.830 C36.110,2.269 36.110,2.982 35.670,3.421 ZM24.184,4.503 C21.889,3.028 19.231,2.250 16.499,2.250 C8.643,2.250 2.250,8.643 2.250,16.500 C2.250,24.357 8.643,30.750 16.499,30.750 C24.356,30.750 30.749,24.357 30.749,16.500 C30.749,16.030 30.726,15.565 30.683,15.108 C30.623,14.488 31.076,13.939 31.694,13.879 C32.315,13.822 32.862,14.272 32.922,14.890 C32.973,15.420 32.999,15.957 32.999,16.500 C32.999,25.598 25.597,33.000 16.499,33.000 C7.402,33.000 -0.000,25.598 -0.000,16.500 C-0.000,7.402 7.402,-0.000 16.499,-0.000 C19.663,-0.000 22.741,0.901 25.400,2.608 C25.922,2.944 26.075,3.640 25.739,4.164 C25.402,4.687 24.707,4.839 24.184,4.503 Z"></path>
  </symbol>
  <symbol xmlns="http://www.w3.org/2000/svg" viewBox="0 0 30 22" id="ic_success2">
    <path d="M27 3L10.5 19.5L3 12" stroke="currentColor" stroke-width="5" stroke-linecap="round" stroke-linejoin="round" fill="none"></path>
  </symbol>
  <symbol xmlns="http://www.w3.org/2000/svg" viewBox="0 0 31 31" id="ic_theme">
    <path d="M30,15A15.5,15.5,0,1,0,45.5,30.5,15.45,15.45,0,0,0,30,15Zm7.2,21.8a9.13,9.13,0,0,1-6.7,2.8,9.3,9.3,0,0,1,0-18.6,9.14,9.14,0,0,1,7.4,3.7C29,21.8,22.9,36,37.2,36.8Z" transform="translate(-14.5 -15)" fill-rule="evenodd"></path>
  </symbol>
  <symbol xmlns="http://www.w3.org/2000/svg" viewBox="0 0 44 44" id="ic_time">
    <path d="M21.8333 42.6666C10.2354 42.6666 0.833344 33.2646 0.833344 21.6666C0.833344 10.0686 10.2354 0.666626 21.8333 0.666626C33.4313 0.666626 42.8333 10.0686 42.8333 21.6666C42.8333 33.2646 33.4313 42.6666 21.8333 42.6666Z" stroke="currentColor" stroke-linecap="round" stroke-linejoin="round" fill="none"></path>
    <path d="M22 9V21.5L13.6667 25.6667" stroke="currentColor" stroke-linecap="round" stroke-linejoin="round" fill="none"></path>
  </symbol>
  <symbol xmlns="http://www.w3.org/2000/svg" viewBox="0 0 26 26" id="ic_time2">
    <path d="M12.9993 23.8334C18.9824 23.8334 23.8327 18.9832 23.8327 13.0001C23.8327 7.017 18.9824 2.16675 12.9993 2.16675C7.01626 2.16675 2.16602 7.017 2.16602 13.0001C2.16602 18.9832 7.01626 23.8334 12.9993 23.8334Z" stroke="currentColor" stroke-linecap="round" stroke-linejoin="round" fill="none"></path>
    <path d="M13 6.5V13L17.3333 15.1667" stroke="currentColor" stroke-linecap="round" stroke-linejoin="round" fill="none"></path>
  </symbol>
  <symbol version="1.1" id="ic_tooltip" xmlnsX="http://ns.adobe.com/Extensibility/1.0/" xmlnsI="http://ns.adobe.com/AdobeIllustrator/10.0/" xmlnsGraph="http://ns.adobe.com/Graphs/1.0/" xmlns="http://www.w3.org/2000/svg" xmlns:xlink="http://www.w3.org/1999/xlink" xmlnsA="http://ns.adobe.com/AdobeSVGViewerExtensions/3.0/" x="0px" y="0px" xml:space="preserve" viewBox="0 0 30 30">
    <path d="M15.938,1.438C8.171,1.438,1.875,7.734,1.875,15.5c0,7.768,6.296,14.063,14.063,14.063
	C23.704,29.563,30,23.268,30,15.5C30,7.734,23.704,1.438,15.938,1.438z M18.678,24.484c-0.826,0.33-1.488,0.582-1.979,0.756
	c-0.492,0.175-1.064,0.261-1.716,0.261c-1.002,0-1.78-0.249-2.336-0.742c-0.555-0.495-0.832-1.125-0.832-1.887
	c0-0.295,0.02-0.599,0.062-0.908s0.109-0.657,0.201-1.047l1.034-3.709c0.092-0.354,0.17-0.69,0.232-1.01
	c0.063-0.316,0.094-0.607,0.094-0.869c0-0.474-0.097-0.805-0.289-0.991s-0.561-0.28-1.105-0.28c-0.268,0-0.542,0.043-0.821,0.127
	c-0.281,0.084-0.521,0.166-0.724,0.242l0.276-1.144c0.677-0.279,1.324-0.519,1.943-0.717c0.619-0.199,1.203-0.299,1.757-0.299
	c0.994,0,1.761,0.243,2.3,0.73c0.539,0.487,0.809,1.12,0.809,1.898c0,0.161-0.02,0.445-0.057,0.851
	c-0.036,0.408-0.105,0.779-0.207,1.119l-1.028,3.693c-0.084,0.297-0.16,0.635-0.228,1.018c-0.066,0.379-0.1,0.668-0.1,0.863
	c0,0.49,0.107,0.824,0.323,1.002c0.218,0.18,0.594,0.268,1.126,0.268c0.25,0,0.535-0.045,0.852-0.133
	c0.315-0.09,0.545-0.166,0.688-0.234L18.678,24.484z M18.494,9.48c-0.479,0.454-1.057,0.681-1.732,0.681
	c-0.679,0-1.258-0.227-1.742-0.681c-0.484-0.452-0.727-1.001-0.727-1.645c0-0.642,0.242-1.192,0.727-1.65
	C15.504,5.729,16.084,5.5,16.762,5.5c0.676,0,1.254,0.229,1.732,0.685c0.482,0.458,0.72,1.008,0.72,1.65
	C19.214,8.479,18.977,9.028,18.494,9.48z"></path>
  </symbol>
  <symbol xmlns="http://www.w3.org/2000/svg" viewBox="0 0 53.9 55" id="ic_view360">
    <path d="M49.3,2v8.1A27.48,27.48,0,1,0,51.4,42H43.9A21.51,21.51,0,1,1,28,6a21.21,21.21,0,0,1,16.7,8H37.2v5h17V2Z" transform="translate(-0.5)" fill-rule="evenodd"></path>
    <g>
      <path d="M26.8,24.2c2.2,0,3.7,1.2,3.7,3.1a2.09,2.09,0,0,1-1.6,2.2,2.59,2.59,0,0,1,2,2.6c0,2.1-1.7,3.6-4.2,3.6s-4.1-1.5-4.1-3.9v-.2h2.2c0,1.4.7,2.1,1.9,2.1A1.74,1.74,0,0,0,28.6,32c0-1.2-1-1.7-2-1.7H26V28.7h.4c1.3,0,2-.5,2-1.4a1.43,1.43,0,0,0-1.6-1.4c-1.1,0-1.7.7-1.7,1.9H22.9A3.55,3.55,0,0,1,26.8,24.2Z" transform="translate(-0.5)"></path>
      <path d="M37.5,27.2A1.5,1.5,0,0,0,36,25.9c-1.2,0-2,1.1-2.1,3.3a3.13,3.13,0,0,1,2.5-1.3,3.47,3.47,0,0,1,3.5,3.7,3.89,3.89,0,0,1-4,4c-2.7,0-4.2-2.1-4.2-5.6,0-3.7,1.6-5.9,4.4-5.9a3.29,3.29,0,0,1,3.6,3H37.5Zm-3.4,4.5a1.88,1.88,0,0,0,1.8,2.1,1.94,1.94,0,0,0,1.8-2.1,1.82,1.82,0,1,0-3.6,0Z" transform="translate(-0.5)"></path>
      <path d="M48.7,29.9c0,3.6-1.5,5.7-4.1,5.7s-4.1-2.1-4.1-5.7c0-2.6.9-5.7,4.1-5.7S48.7,27.3,48.7,29.9Zm-5.9.1c0,2.5.6,3.8,1.9,3.8s1.9-1.3,1.9-3.9S46,26,44.7,26C42.8,26,42.8,28.7,42.8,30Z" transform="translate(-0.5)"></path>
      <path d="M54.4,27.7a2.44,2.44,0,0,1-2.5,2.6,2.39,2.39,0,0,1-2.5-2.6,2.5,2.5,0,1,1,5,0Zm-3.6,0c0,1,.4,1.6,1.2,1.6s1.2-.6,1.2-1.6-.4-1.5-1.2-1.5S50.8,26.8,50.8,27.7Z" transform="translate(-0.5)"></path>
    </g>
  </symbol>
  <symbol xmlns="http://www.w3.org/2000/svg" viewBox="0 0 25 25" id="ic_visited">
    <path d="M30,18A12.5,12.5,0,1,0,42.5,30.5,12.5,12.5,0,0,0,30,18Zm.9,14h-7V30h5V22h2Z" transform="translate(-17.5 -18)" fill-rule="evenodd"></path>
  </symbol>
  <symbol xmlns="http://www.w3.org/2000/svg" xmlns:xlink="http://www.w3.org/1999/xlink" viewBox="0 0 34px 30px" id="ic_warning">
    <path fill-rule="evenodd" d="M17.003,19.977 C16.270,19.977 15.675,19.375 15.675,18.632 L15.675,8.744 C15.675,8.001 16.270,7.399 17.003,7.399 C17.737,7.399 18.331,8.001 18.331,8.744 L18.331,18.632 C18.331,19.375 17.737,19.977 17.003,19.977 ZM17.004,24.686 C16.270,24.686 15.675,24.084 15.675,23.341 C15.675,22.598 16.269,21.995 17.003,21.995 L17.004,21.995 C17.737,21.995 18.332,22.598 18.332,23.341 C18.332,24.084 17.737,24.686 17.004,24.686 ZM33.043,27.558 C32.005,29.110 30.345,30.000 28.490,30.000 L5.516,30.000 C3.492,30.000 1.695,28.930 0.709,27.139 C-0.278,25.346 -0.232,23.233 0.833,21.486 L12.320,2.647 C13.330,0.989 15.081,-0.000 17.003,-0.000 C18.925,-0.000 20.676,0.989 21.686,2.647 L30.182,16.580 C30.567,17.212 30.374,18.041 29.750,18.431 C29.126,18.822 28.308,18.626 27.922,17.994 L19.427,4.061 C18.904,3.203 17.998,2.690 17.003,2.690 C16.008,2.690 15.102,3.203 14.579,4.061 L3.093,22.900 C2.541,23.805 2.517,24.899 3.028,25.828 C3.539,26.756 4.469,27.309 5.516,27.309 L28.490,27.309 C29.450,27.309 30.308,26.850 30.844,26.049 C31.380,25.248 31.493,24.246 31.147,23.369 C30.875,22.678 31.207,21.896 31.888,21.620 C32.570,21.345 33.342,21.681 33.614,22.371 C34.287,24.078 34.073,26.017 33.043,27.558 Z"></path>
  </symbol>
  <symbol xmlns="http://www.w3.org/2000/svg" viewBox="0 0 23 24" id="ic_whatsapp">
    <path d="M19.0182 4.32019C20.0364 5.34419 20.9273 6.62419 21.4364 7.90419C21.9455 9.18419 22.3273 10.7202 22.3273 12.1282C22.3273 14.1762 21.8182 15.9682 20.8 17.6322C19.7818 19.2962 18.3818 20.7042 16.7273 21.7282C15.0727 22.7522 13.1637 23.2642 11.1273 23.2642C9.2182 23.2642 7.43638 22.7522 5.90911 21.8562L0.0545654 23.3922L1.70911 17.6322C0.690929 15.9682 0.181838 14.0482 0.181838 12.1282C0.181838 10.2082 0.690929 8.28819 1.70911 6.62419C2.72729 4.96019 4.00002 3.55219 5.78184 2.52819C7.56366 1.50419 9.34547 0.992188 11.2546 0.992188C12.6546 0.992188 14.0546 1.24819 15.4546 1.88819C16.8546 2.52819 17.8727 3.29619 19.0182 4.32019ZM11.1273 21.3442C12.7818 21.3442 14.3091 20.9602 15.7091 20.0642C17.1091 19.1682 18.2546 18.1442 19.1455 16.7362C20.0364 15.3282 20.4182 13.7922 20.4182 12.1282C20.4182 10.9762 20.1637 9.82419 19.6546 8.67219C19.1455 7.52019 18.5091 6.49619 17.6182 5.60019C16.7273 4.70419 15.7091 4.06419 14.6909 3.55219C13.6727 3.04019 12.4 2.91219 11.1273 2.91219C9.47275 2.91219 7.94547 3.29619 6.54547 4.19219C5.14547 5.08819 4.12729 6.11219 3.23638 7.52019C2.34547 8.92819 1.96366 10.4642 1.96366 12.1282C1.96366 13.9202 2.47275 15.5842 3.36366 16.9922L3.6182 17.3762L2.72729 20.8322L6.16366 19.9362L6.54547 20.1922C7.94547 20.9602 9.47275 21.3442 11.1273 21.3442ZM16.2182 14.4322L16.3455 14.5602C16.6 14.6882 16.7273 14.6882 16.7273 14.8162C16.7273 14.9442 16.7273 15.0722 16.7273 15.3282C16.7273 15.5842 16.6 15.8402 16.4727 16.0962C16.3455 16.3522 16.0909 16.6082 15.7091 16.9922C15.3273 17.3762 14.9455 17.3762 14.6909 17.5042C14.1818 17.6322 13.8 17.6322 13.2909 17.5042C12.7818 17.3762 12.1455 17.1202 11.2546 16.8642C9.72729 15.9682 8.20002 14.6882 6.80002 12.6402L6.67275 12.5122C5.90911 11.4882 5.52729 10.5922 5.52729 9.69619C5.52729 8.80019 5.90911 8.03219 6.4182 7.39219C6.67275 7.13619 6.92729 7.00819 7.18184 7.00819H7.8182C7.94547 7.00819 8.07275 7.00819 8.20002 7.13619C8.32729 7.26419 8.32729 7.26419 8.45457 7.52019L9.34547 9.56819C9.47275 9.82419 9.47275 9.95219 9.34547 10.0802C9.2182 10.4642 8.96366 10.7202 8.70911 10.9762C8.58184 11.1042 8.45457 11.2322 8.45457 11.2322C8.45457 11.2322 8.45457 11.3602 8.58184 11.4882C9.09093 12.3842 9.60002 13.0242 10.2364 13.5362C10.7455 13.9202 11.3818 14.3042 12.2727 14.8162C12.5273 14.9442 12.7818 14.9442 12.9091 14.8162C13.2909 14.3042 13.6727 13.9202 13.8 13.6642C13.9273 13.5362 13.9273 13.4082 14.0546 13.4082C14.1818 13.4082 14.3091 13.4082 14.4364 13.4082C14.5637 13.6642 15.2 13.9202 16.2182 14.4322Z" fill="currentColor"></path>
  </symbol>
  <symbol xmlns="http://www.w3.org/2000/svg" viewBox="0 0 24 17" id="ic_youtube">
    <path d="M12.0773 0.000366211H12.2108C13.4438 0.00490398 19.6917 0.0502819 21.3763 0.507084C21.8856 0.646497 22.3497 0.91824 22.7222 1.29516C23.0946 1.67207 23.3625 2.14096 23.499 2.65496C23.6505 3.22975 23.757 3.99058 23.829 4.77561L23.844 4.93292L23.877 5.3262L23.889 5.48351C23.9865 6.86601 23.9985 8.16079 24 8.44364V8.55709C23.9985 8.85053 23.985 10.233 23.877 11.673L23.865 11.8318L23.8515 11.9892C23.7765 12.8544 23.6655 13.7135 23.499 14.3458C23.3629 14.86 23.0952 15.3291 22.7227 15.7061C22.3501 16.083 21.8858 16.3547 21.3763 16.4936C19.6362 16.9656 13.0223 16.9989 12.1058 17.0004H11.8927C11.4292 17.0004 9.51209 16.9913 7.50197 16.9217L7.24695 16.9126L7.11645 16.9066L6.85993 16.896L6.60341 16.8854C4.93831 16.8113 3.35271 16.6918 2.62216 16.4921C2.11287 16.3533 1.6487 16.0819 1.27617 15.7052C0.903632 15.3285 0.63581 14.8597 0.499531 14.3458C0.333021 13.715 0.222014 12.8544 0.147009 11.9892L0.135008 11.8303L0.123008 11.673C0.0489745 10.6481 0.0079503 9.62101 0 8.59339L0 8.40734C0.00300019 8.08214 0.0150009 6.95828 0.096006 5.71796L0.106507 5.56216L0.111007 5.48351L0.123008 5.3262L0.15601 4.93292L0.171011 4.77561C0.243015 3.99058 0.349522 3.22823 0.501031 2.65496C0.63708 2.14075 0.9048 1.67164 1.27735 1.29466C1.6499 0.917682 2.11419 0.646079 2.62366 0.507084C3.35421 0.310447 4.93981 0.18944 6.60491 0.11381L6.85993 0.103222L7.11795 0.094147L7.24695 0.0896092L7.50347 0.0790211C8.93112 0.0326974 10.3594 0.00698056 11.7877 0.00187887H12.0773V0.000366211ZM9.6006 4.85578V12.1434L15.8365 8.50112L9.6006 4.85578Z" fill="currentColor"></path>
  </symbol>
</svg>